<?xml version="1.0" encoding="utf-8"?>
<svg xmlns="http://www.w3.org/2000/svg" xmlns:xlink="http://www.w3.org/1999/xlink" width="600" height="400" viewBox="0 0 2400 1600">
<defs>
  <clipPath id="clip250">
    <rect x="0" y="0" width="2400" height="1600"/>
  </clipPath>
</defs>
<path clip-path="url(#clip250)" d="M0 1600 L2400 1600 L2400 0 L0 0  Z" fill="#ffffff" fill-rule="evenodd" fill-opacity="1"/>
<defs>
  <clipPath id="clip251">
    <rect x="480" y="0" width="1681" height="1600"/>
  </clipPath>
</defs>
<path clip-path="url(#clip250)" d="M193.936 1486.45 L2352.76 1486.45 L2352.76 123.472 L193.936 123.472  Z" fill="#ffffff" fill-rule="evenodd" fill-opacity="1"/>
<defs>
  <clipPath id="clip252">
    <rect x="193" y="123" width="2160" height="1364"/>
  </clipPath>
</defs>
<path clip-path="url(#clip250)" d="M743.852 12.096 L756.045 12.096 L771.479 53.2532 L786.994 12.096 L799.188 12.096 L799.188 72.576 L791.207 72.576 L791.207 19.4686 L775.611 60.9499 L767.388 60.9499 L751.792 19.4686 L751.792 72.576 L743.852 72.576 L743.852 12.096 Z" fill="#000000" fill-rule="evenodd" fill-opacity="1" /><path clip-path="url(#clip250)" d="M835.727 49.7694 Q826.693 49.7694 823.209 51.8354 Q819.726 53.9013 819.726 58.8839 Q819.726 62.8538 822.318 65.2034 Q824.951 67.5124 829.448 67.5124 Q835.646 67.5124 839.373 63.1374 Q843.14 58.7219 843.14 51.4303 L843.14 49.7694 L835.727 49.7694 M850.594 46.6907 L850.594 72.576 L843.14 72.576 L843.14 65.6895 Q840.588 69.8214 836.78 71.8063 Q832.972 73.7508 827.463 73.7508 Q820.495 73.7508 816.363 69.8619 Q812.272 65.9325 812.272 59.3701 Q812.272 51.7138 817.376 47.825 Q822.521 43.9361 832.689 43.9361 L843.14 43.9361 L843.14 43.2069 Q843.14 38.0623 839.737 35.2672 Q836.375 32.4315 830.258 32.4315 Q826.369 32.4315 822.683 33.3632 Q818.997 34.295 815.594 36.1584 L815.594 29.2718 Q819.685 27.692 823.534 26.9223 Q827.382 26.1121 831.028 26.1121 Q840.871 26.1121 845.733 31.2163 Q850.594 36.3204 850.594 46.6907 Z" fill="#000000" fill-rule="evenodd" fill-opacity="1" /><path clip-path="url(#clip250)" d="M865.947 9.54393 L873.4 9.54393 L873.4 72.576 L865.947 72.576 L865.947 9.54393 Z" fill="#000000" fill-rule="evenodd" fill-opacity="1" /><path clip-path="url(#clip250)" d="M888.996 9.54393 L896.45 9.54393 L896.45 72.576 L888.996 72.576 L888.996 9.54393 Z" fill="#000000" fill-rule="evenodd" fill-opacity="1" /><path clip-path="url(#clip250)" d="M929.627 32.4315 Q923.631 32.4315 920.148 37.1306 Q916.664 41.7891 916.664 49.9314 Q916.664 58.0738 920.107 62.7728 Q923.591 67.4314 929.627 67.4314 Q935.582 67.4314 939.065 62.7323 Q942.549 58.0333 942.549 49.9314 Q942.549 41.8701 939.065 37.1711 Q935.582 32.4315 929.627 32.4315 M929.627 26.1121 Q939.349 26.1121 944.899 32.4315 Q950.448 38.7509 950.448 49.9314 Q950.448 61.0714 944.899 67.4314 Q939.349 73.7508 929.627 73.7508 Q919.864 73.7508 914.314 67.4314 Q908.805 61.0714 908.805 49.9314 Q908.805 38.7509 914.314 32.4315 Q919.864 26.1121 929.627 26.1121 Z" fill="#000000" fill-rule="evenodd" fill-opacity="1" /><path clip-path="url(#clip250)" d="M995.454 28.9478 L995.454 35.9153 Q992.294 34.1734 989.094 33.3227 Q985.934 32.4315 982.694 32.4315 Q975.442 32.4315 971.432 37.0496 Q967.422 41.6271 967.422 49.9314 Q967.422 58.2358 971.432 62.8538 Q975.442 67.4314 982.694 67.4314 Q985.934 67.4314 989.094 66.5807 Q992.294 65.6895 995.454 63.9476 L995.454 70.8341 Q992.335 72.2924 988.972 73.0216 Q985.651 73.7508 981.883 73.7508 Q971.635 73.7508 965.599 67.3098 Q959.563 60.8689 959.563 49.9314 Q959.563 38.832 965.639 32.472 Q971.756 26.1121 982.37 26.1121 Q985.813 26.1121 989.094 26.8413 Q992.375 27.5299 995.454 28.9478 Z" fill="#000000" fill-rule="evenodd" fill-opacity="1" /><path clip-path="url(#clip250)" d="M1037.34 28.5427 L1037.34 35.5912 Q1034.18 33.9709 1030.78 33.1607 Q1027.38 32.3505 1023.73 32.3505 Q1018.18 32.3505 1015.38 34.0519 Q1012.63 35.7533 1012.63 39.156 Q1012.63 41.7486 1014.61 43.2475 Q1016.6 44.7058 1022.59 46.0426 L1025.15 46.6097 Q1033.09 48.3111 1036.41 51.4303 Q1039.77 54.509 1039.77 60.0587 Q1039.77 66.3781 1034.75 70.0644 Q1029.77 73.7508 1021.02 73.7508 Q1017.37 73.7508 1013.4 73.0216 Q1009.47 72.3329 1005.1 70.9151 L1005.1 63.2184 Q1009.23 65.3654 1013.24 66.4591 Q1017.25 67.5124 1021.18 67.5124 Q1026.44 67.5124 1029.28 65.73 Q1032.11 63.9071 1032.11 60.6258 Q1032.11 57.5877 1030.05 55.9673 Q1028.02 54.3469 1021.1 52.8481 L1018.5 52.2405 Q1011.58 50.7821 1008.5 47.7845 Q1005.42 44.7463 1005.42 39.4801 Q1005.42 33.0797 1009.96 29.5959 Q1014.49 26.1121 1022.84 26.1121 Q1026.97 26.1121 1030.62 26.7198 Q1034.26 27.3274 1037.34 28.5427 Z" fill="#000000" fill-rule="evenodd" fill-opacity="1" /><path clip-path="url(#clip250)" d="M1100.98 9.54393 L1100.98 15.7418 L1093.85 15.7418 Q1089.84 15.7418 1088.26 17.3622 Q1086.72 18.9825 1086.72 23.1955 L1086.72 27.2059 L1099 27.2059 L1099 32.9987 L1086.72 32.9987 L1086.72 72.576 L1079.23 72.576 L1079.23 32.9987 L1072.1 32.9987 L1072.1 27.2059 L1079.23 27.2059 L1079.23 24.0462 Q1079.23 16.471 1082.75 13.0277 Q1086.28 9.54393 1093.93 9.54393 L1100.98 9.54393 Z" fill="#000000" fill-rule="evenodd" fill-opacity="1" /><path clip-path="url(#clip250)" d="M1124.8 32.4315 Q1118.8 32.4315 1115.32 37.1306 Q1111.84 41.7891 1111.84 49.9314 Q1111.84 58.0738 1115.28 62.7728 Q1118.76 67.4314 1124.8 67.4314 Q1130.75 67.4314 1134.24 62.7323 Q1137.72 58.0333 1137.72 49.9314 Q1137.72 41.8701 1134.24 37.1711 Q1130.75 32.4315 1124.8 32.4315 M1124.8 26.1121 Q1134.52 26.1121 1140.07 32.4315 Q1145.62 38.7509 1145.62 49.9314 Q1145.62 61.0714 1140.07 67.4314 Q1134.52 73.7508 1124.8 73.7508 Q1115.04 73.7508 1109.49 67.4314 Q1103.98 61.0714 1103.98 49.9314 Q1103.98 38.7509 1109.49 32.4315 Q1115.04 26.1121 1124.8 26.1121 Z" fill="#000000" fill-rule="evenodd" fill-opacity="1" /><path clip-path="url(#clip250)" d="M1184.27 34.1734 Q1183.01 33.4443 1181.51 33.1202 Q1180.05 32.7556 1178.27 32.7556 Q1171.95 32.7556 1168.55 36.8875 Q1165.19 40.9789 1165.19 48.6757 L1165.19 72.576 L1157.69 72.576 L1157.69 27.2059 L1165.19 27.2059 L1165.19 34.2544 Q1167.54 30.1225 1171.3 28.1376 Q1175.07 26.1121 1180.46 26.1121 Q1181.23 26.1121 1182.16 26.2337 Q1183.09 26.3147 1184.23 26.5172 L1184.27 34.1734 Z" fill="#000000" fill-rule="evenodd" fill-opacity="1" /><path clip-path="url(#clip250)" d="M1260.02 63.9476 L1260.02 47.7034 L1246.65 47.7034 L1246.65 40.9789 L1268.12 40.9789 L1268.12 66.9452 Q1263.38 70.3075 1257.67 72.0494 Q1251.96 73.7508 1245.48 73.7508 Q1231.3 73.7508 1223.28 65.4869 Q1215.3 57.1826 1215.3 42.3968 Q1215.3 27.5705 1223.28 19.3066 Q1231.3 11.0023 1245.48 11.0023 Q1251.39 11.0023 1256.7 12.4606 Q1262.04 13.9189 1266.54 16.7545 L1266.54 25.464 Q1262 21.6156 1256.9 19.6712 Q1251.8 17.7268 1246.16 17.7268 Q1235.06 17.7268 1229.47 23.9246 Q1223.92 30.1225 1223.92 42.3968 Q1223.92 54.6305 1229.47 60.8284 Q1235.06 67.0263 1246.16 67.0263 Q1250.5 67.0263 1253.9 66.2971 Q1257.3 65.5274 1260.02 63.9476 Z" fill="#000000" fill-rule="evenodd" fill-opacity="1" /><path clip-path="url(#clip250)" d="M1283.07 12.096 L1291.25 12.096 L1291.25 65.6895 L1320.7 65.6895 L1320.7 72.576 L1283.07 72.576 L1283.07 12.096 Z" fill="#000000" fill-rule="evenodd" fill-opacity="1" /><path clip-path="url(#clip250)" d="M1329.29 12.096 L1341.48 12.096 L1356.92 53.2532 L1372.43 12.096 L1384.62 12.096 L1384.62 72.576 L1376.64 72.576 L1376.64 19.4686 L1361.05 60.9499 L1352.82 60.9499 L1337.23 19.4686 L1337.23 72.576 L1329.29 72.576 L1329.29 12.096 Z" fill="#000000" fill-rule="evenodd" fill-opacity="1" /><path clip-path="url(#clip250)" d="M1401.6 62.2867 L1410.14 62.2867 L1410.14 72.576 L1401.6 72.576 L1401.6 62.2867 Z" fill="#000000" fill-rule="evenodd" fill-opacity="1" /><path clip-path="url(#clip250)" d="M1426.92 27.2059 L1434.37 27.2059 L1434.37 73.3862 Q1434.37 82.0551 1431.05 85.944 Q1427.77 89.8329 1420.43 89.8329 L1417.6 89.8329 L1417.6 83.5134 L1419.58 83.5134 Q1423.84 83.5134 1425.38 81.5285 Q1426.92 79.5841 1426.92 73.3862 L1426.92 27.2059 M1426.92 9.54393 L1434.37 9.54393 L1434.37 18.9825 L1426.92 18.9825 L1426.92 9.54393 Z" fill="#000000" fill-rule="evenodd" fill-opacity="1" /><path clip-path="url(#clip250)" d="M1449.97 9.54393 L1457.42 9.54393 L1457.42 72.576 L1449.97 72.576 L1449.97 9.54393 Z" fill="#000000" fill-rule="evenodd" fill-opacity="1" /><path clip-path="url(#clip250)" d="M1496.06 50.8226 Q1496.06 56.6154 1498.94 59.9372 Q1501.82 63.2184 1506.84 63.2184 Q1511.82 63.2184 1514.66 59.8967 Q1517.53 56.5749 1517.53 50.8226 Q1517.53 45.1514 1514.62 41.8296 Q1511.7 38.4674 1506.76 38.4674 Q1501.86 38.4674 1498.94 41.7891 Q1496.06 45.1109 1496.06 50.8226 M1518.14 62.9348 Q1515.71 66.054 1512.55 67.5529 Q1509.43 69.0112 1505.26 69.0112 Q1498.29 69.0112 1493.92 63.9881 Q1489.58 58.9245 1489.58 50.8226 Q1489.58 42.7208 1493.96 37.6572 Q1498.33 32.5936 1505.26 32.5936 Q1509.43 32.5936 1512.59 34.1329 Q1515.75 35.6318 1518.14 38.7104 L1518.14 33.4038 L1523.93 33.4038 L1523.93 63.2184 Q1529.85 62.3272 1533.17 57.8307 Q1536.53 53.2937 1536.53 46.1236 Q1536.53 41.7891 1535.24 37.9813 Q1533.98 34.1734 1531.39 30.9327 Q1527.18 25.626 1521.1 22.8309 Q1515.06 19.9953 1507.93 19.9953 Q1502.95 19.9953 1498.37 21.3321 Q1493.8 22.6284 1489.91 25.2209 Q1483.55 29.3529 1479.94 36.0774 Q1476.38 42.7613 1476.38 50.5796 Q1476.38 57.0205 1478.69 62.6513 Q1481.04 68.282 1485.45 72.576 Q1489.7 76.7889 1495.29 78.9764 Q1500.89 81.2044 1507.25 81.2044 Q1512.47 81.2044 1517.49 79.422 Q1522.56 77.6801 1526.77 74.3989 L1530.42 78.8954 Q1525.35 82.8248 1519.36 84.8907 Q1513.4 86.9972 1507.25 86.9972 Q1499.75 86.9972 1493.11 84.3236 Q1486.46 81.6905 1481.28 76.6269 Q1476.09 71.5633 1473.38 64.9198 Q1470.67 58.2358 1470.67 50.5796 Q1470.67 43.2069 1473.42 36.523 Q1476.17 29.839 1481.28 24.7753 Q1486.5 19.6307 1493.35 16.9166 Q1500.2 14.162 1507.85 14.162 Q1516.44 14.162 1523.77 17.6862 Q1531.15 21.2105 1536.13 27.692 Q1539.17 31.6619 1540.75 36.3204 Q1542.37 40.9789 1542.37 45.9616 Q1542.37 56.6154 1535.93 62.7728 Q1529.48 68.9302 1518.14 69.1732 L1518.14 62.9348 Z" fill="#000000" fill-rule="evenodd" fill-opacity="1" /><path clip-path="url(#clip250)" d="M1550.63 27.2059 L1558.53 27.2059 L1572.71 65.2844 L1586.89 27.2059 L1594.79 27.2059 L1577.77 72.576 L1567.64 72.576 L1550.63 27.2059 Z" fill="#000000" fill-rule="evenodd" fill-opacity="1" /><path clip-path="url(#clip250)" d="M1607.55 65.6895 L1620.91 65.6895 L1620.91 19.5497 L1606.37 22.4663 L1606.37 15.0127 L1620.83 12.096 L1629.02 12.096 L1629.02 65.6895 L1642.38 65.6895 L1642.38 72.576 L1607.55 72.576 L1607.55 65.6895 Z" fill="#000000" fill-rule="evenodd" fill-opacity="1" /><path clip-path="url(#clip250)" d="M1658.91 62.2867 L1667.46 62.2867 L1667.46 72.576 L1658.91 72.576 L1658.91 62.2867 Z" fill="#000000" fill-rule="evenodd" fill-opacity="1" /><path clip-path="url(#clip250)" d="M1702.78 43.8551 Q1696.95 43.8551 1693.59 46.9743 Q1690.27 50.0935 1690.27 55.5622 Q1690.27 61.0309 1693.59 64.1501 Q1696.95 67.2693 1702.78 67.2693 Q1708.62 67.2693 1711.98 64.1501 Q1715.34 60.9904 1715.34 55.5622 Q1715.34 50.0935 1711.98 46.9743 Q1708.66 43.8551 1702.78 43.8551 M1694.6 40.3713 Q1689.33 39.075 1686.38 35.4697 Q1683.46 31.8644 1683.46 26.6793 Q1683.46 19.4281 1688.6 15.2152 Q1693.79 11.0023 1702.78 11.0023 Q1711.82 11.0023 1716.96 15.2152 Q1722.11 19.4281 1722.11 26.6793 Q1722.11 31.8644 1719.15 35.4697 Q1716.23 39.075 1711.01 40.3713 Q1716.92 41.7486 1720.2 45.759 Q1723.52 49.7694 1723.52 55.5622 Q1723.52 64.3527 1718.14 69.0517 Q1712.79 73.7508 1702.78 73.7508 Q1692.78 73.7508 1687.39 69.0517 Q1682.04 64.3527 1682.04 55.5622 Q1682.04 49.7694 1685.36 45.759 Q1688.69 41.7486 1694.6 40.3713 M1691.6 27.4489 Q1691.6 32.148 1694.52 34.7811 Q1697.48 37.4142 1702.78 37.4142 Q1708.05 37.4142 1711.01 34.7811 Q1714 32.148 1714 27.4489 Q1714 22.7499 1711.01 20.1168 Q1708.05 17.4837 1702.78 17.4837 Q1697.48 17.4837 1694.52 20.1168 Q1691.6 22.7499 1691.6 27.4489 Z" fill="#000000" fill-rule="evenodd" fill-opacity="1" /><path clip-path="url(#clip250)" d="M1738.07 62.2867 L1746.61 62.2867 L1746.61 72.576 L1738.07 72.576 L1738.07 62.2867 Z" fill="#000000" fill-rule="evenodd" fill-opacity="1" /><path clip-path="url(#clip250)" d="M1781.94 17.4837 Q1775.62 17.4837 1772.42 23.7221 Q1769.26 29.92 1769.26 42.3968 Q1769.26 54.833 1772.42 61.0714 Q1775.62 67.2693 1781.94 67.2693 Q1788.3 67.2693 1791.46 61.0714 Q1794.66 54.833 1794.66 42.3968 Q1794.66 29.92 1791.46 23.7221 Q1788.3 17.4837 1781.94 17.4837 M1781.94 11.0023 Q1792.1 11.0023 1797.45 19.0636 Q1802.84 27.0843 1802.84 42.3968 Q1802.84 57.6687 1797.45 65.73 Q1792.1 73.7508 1781.94 73.7508 Q1771.77 73.7508 1766.38 65.73 Q1761.03 57.6687 1761.03 42.3968 Q1761.03 27.0843 1766.38 19.0636 Q1771.77 11.0023 1781.94 11.0023 Z" fill="#000000" fill-rule="evenodd" fill-opacity="1" /><path clip-path="url(#clip252)" d="M1273.33 804.994 L1916.28 804.994 L1911.57 727.241 L1897.48 650.63 L1874.23 576.284 L1842.16 505.295 L1801.75 438.705 L1753.57 377.492 L1698.35 322.553 L1636.89 274.696 L1570.09 234.622 L1498.94 202.921 L1424.47 180.056 L1347.79 166.365 L1270.01 162.047 L1192.29 167.166 L1115.75 181.648 L1041.52 205.279 L970.702 237.712 L904.321 278.472 L843.357 326.961 L788.704 382.466 L741.164 444.172 L701.435 511.175 L670.1 582.491 L647.62 657.073 L634.324 733.825 L630.407 811.623 L635.927 889.323 L650.803 965.785 L674.816 1039.89 L707.614 1110.54 L748.716 1176.71 L797.518 1237.42 L853.304 1291.79 L915.255 1339.01 L982.462 1378.4 L1053.94 1409.36 L1128.63 1431.46 L1205.45 1444.36 L1283.27 1447.87 L1360.94 1441.95 L1437.33 1426.68 L1511.3 1402.29 L1581.79 1369.13 L1647.75 1327.68 L1708.21 1278.57 L1762.28 1222.5 L1809.19 1160.31 L1848.22 1092.9 L1878.82 1021.27 L1273.33 804.994  Z" fill="#009af9" fill-rule="evenodd" fill-opacity="1"/>
<polyline clip-path="url(#clip252)" style="stroke:#000000; stroke-linecap:round; stroke-linejoin:round; stroke-width:4; stroke-opacity:0.5; fill:none" points="1273.33,804.994 1916.28,804.994 1911.57,727.241 1897.48,650.63 1874.23,576.284 1842.16,505.295 1801.75,438.705 1753.57,377.492 1698.35,322.553 1636.89,274.696 1570.09,234.622 1498.94,202.921 1424.47,180.056 1347.79,166.365 1270.01,162.047 1192.29,167.166 1115.75,181.648 1041.52,205.279 970.702,237.712 904.321,278.472 843.357,326.961 788.704,382.466 741.164,444.172 701.435,511.175 670.1,582.491 647.62,657.073 634.324,733.825 630.407,811.623 635.927,889.323 650.803,965.785 674.816,1039.89 707.614,1110.54 748.716,1176.71 797.518,1237.42 853.304,1291.79 915.255,1339.01 982.462,1378.4 1053.94,1409.36 1128.63,1431.46 1205.45,1444.36 1283.27,1447.87 1360.94,1441.95 1437.33,1426.68 1511.3,1402.29 1581.79,1369.13 1647.75,1327.68 1708.21,1278.57 1762.28,1222.5 1809.19,1160.31 1848.22,1092.9 1878.82,1021.27 1273.33,804.994 "/>
<path clip-path="url(#clip252)" d="M1273.33 804.994 L1878.82 1021.27 L1880.32 1017.02 L1881.79 1012.77 L1883.23 1008.5 L1884.64 1004.23 L1886.02 999.942 L1887.37 995.648 L1888.69 991.344 L1889.98 987.032 L1891.24 982.71 L1892.47 978.379 L1893.66 974.04 L1894.83 969.693 L1895.97 965.338 L1897.08 960.975 L1898.15 956.604 L1899.2 952.226 L1900.22 947.84 L1901.2 943.448 L1902.15 939.049 L1903.08 934.643 L1903.97 930.231 L1904.83 925.812 L1905.66 921.388 L1906.46 916.958 L1907.23 912.523 L1907.97 908.082 L1908.67 903.636 L1909.35 899.186 L1909.99 894.73 L1910.6 890.271 L1911.19 885.807 L1911.74 881.339 L1912.25 876.868 L1912.74 872.393 L1913.2 867.914 L1913.62 863.433 L1914.02 858.949 L1914.38 854.462 L1914.71 849.972 L1915.01 845.481 L1915.28 840.987 L1915.51 836.492 L1915.72 831.995 L1915.89 827.497 L1916.03 822.998 L1916.14 818.498 L1916.22 813.997 L1916.27 809.496 L1916.28 804.994 L1273.33 804.994  Z" fill="#e26f46" fill-rule="evenodd" fill-opacity="1"/>
<polyline clip-path="url(#clip252)" style="stroke:#000000; stroke-linecap:round; stroke-linejoin:round; stroke-width:4; stroke-opacity:0.5; fill:none" points="1273.33,804.994 1878.82,1021.27 1880.32,1017.02 1881.79,1012.77 1883.23,1008.5 1884.64,1004.23 1886.02,999.942 1887.37,995.648 1888.69,991.344 1889.98,987.032 1891.24,982.71 1892.47,978.379 1893.66,974.04 1894.83,969.693 1895.97,965.338 1897.08,960.975 1898.15,956.604 1899.2,952.226 1900.22,947.84 1901.2,943.448 1902.15,939.049 1903.08,934.643 1903.97,930.231 1904.83,925.812 1905.66,921.388 1906.46,916.958 1907.23,912.523 1907.97,908.082 1908.67,903.636 1909.35,899.186 1909.99,894.73 1910.6,890.271 1911.19,885.807 1911.74,881.339 1912.25,876.868 1912.74,872.393 1913.2,867.914 1913.62,863.433 1914.02,858.949 1914.38,854.462 1914.71,849.972 1915.01,845.481 1915.28,840.987 1915.51,836.492 1915.72,831.995 1915.89,827.497 1916.03,822.998 1916.14,818.498 1916.22,813.997 1916.27,809.496 1916.28,804.994 1273.33,804.994 "/>
<path clip-path="url(#clip250)" d="M1628.9 324.425 L2280.8 324.425 L2280.8 168.905 L1628.9 168.905  Z" fill="#ffffff" fill-rule="evenodd" fill-opacity="1"/>
<polyline clip-path="url(#clip250)" style="stroke:#000000; stroke-linecap:round; stroke-linejoin:round; stroke-width:4; stroke-opacity:1; fill:none" points="1628.9,324.425 2280.8,324.425 2280.8,168.905 1628.9,168.905 1628.9,324.425 "/>
<path clip-path="url(#clip250)" d="M1652.88 241.481 L1796.81 241.481 L1796.81 200.009 L1652.88 200.009 L1652.88 241.481  Z" fill="#009af9" fill-rule="evenodd" fill-opacity="1"/>
<polyline clip-path="url(#clip250)" style="stroke:#000000; stroke-linecap:round; stroke-linejoin:round; stroke-width:4; stroke-opacity:1; fill:none" points="1652.88,241.481 1796.81,241.481 1796.81,200.009 1652.88,200.009 1652.88,241.481 "/>
<path clip-path="url(#clip250)" d="M1839.7 224.761 Q1839.7 220.131 1837.78 217.585 Q1835.88 215.039 1832.44 215.039 Q1829.01 215.039 1827.09 217.585 Q1825.19 220.131 1825.19 224.761 Q1825.19 229.367 1827.09 231.914 Q1829.01 234.46 1832.44 234.46 Q1835.88 234.46 1837.78 231.914 Q1839.7 229.367 1839.7 224.761 M1843.96 234.807 Q1843.96 241.427 1841.02 244.645 Q1838.08 247.886 1832.02 247.886 Q1829.77 247.886 1827.78 247.538 Q1825.79 247.214 1823.92 246.52 L1823.92 242.376 Q1825.79 243.395 1827.62 243.881 Q1829.45 244.367 1831.35 244.367 Q1835.54 244.367 1837.62 242.168 Q1839.7 239.992 1839.7 235.571 L1839.7 233.464 Q1838.38 235.756 1836.32 236.89 Q1834.26 238.025 1831.39 238.025 Q1826.63 238.025 1823.71 234.39 Q1820.79 230.756 1820.79 224.761 Q1820.79 218.742 1823.71 215.108 Q1826.63 211.474 1831.39 211.474 Q1834.26 211.474 1836.32 212.608 Q1838.38 213.742 1839.7 216.034 L1839.7 212.099 L1843.96 212.099 L1843.96 234.807 Z" fill="#000000" fill-rule="evenodd" fill-opacity="1" /><path clip-path="url(#clip250)" d="M1852.74 202.006 L1857 202.006 L1857 238.025 L1852.74 238.025 L1852.74 202.006 Z" fill="#000000" fill-rule="evenodd" fill-opacity="1" /><path clip-path="url(#clip250)" d="M1865.91 212.099 L1870.17 212.099 L1870.17 238.025 L1865.91 238.025 L1865.91 212.099 M1865.91 202.006 L1870.17 202.006 L1870.17 207.4 L1865.91 207.4 L1865.91 202.006 Z" fill="#000000" fill-rule="evenodd" fill-opacity="1" /><path clip-path="url(#clip250)" d="M1900.63 222.377 L1900.63 238.025 L1896.37 238.025 L1896.37 222.515 Q1896.37 218.835 1894.94 217.006 Q1893.5 215.178 1890.63 215.178 Q1887.18 215.178 1885.19 217.377 Q1883.2 219.576 1883.2 223.372 L1883.2 238.025 L1878.92 238.025 L1878.92 212.099 L1883.2 212.099 L1883.2 216.127 Q1884.73 213.789 1886.79 212.631 Q1888.87 211.474 1891.58 211.474 Q1896.05 211.474 1898.34 214.252 Q1900.63 217.006 1900.63 222.377 Z" fill="#000000" fill-rule="evenodd" fill-opacity="1" /><path clip-path="url(#clip250)" d="M1913.25 234.136 L1913.25 247.886 L1908.96 247.886 L1908.96 212.099 L1913.25 212.099 L1913.25 216.034 Q1914.59 213.719 1916.62 212.608 Q1918.69 211.474 1921.53 211.474 Q1926.25 211.474 1929.19 215.224 Q1932.16 218.974 1932.16 225.085 Q1932.16 231.196 1929.19 234.946 Q1926.25 238.696 1921.53 238.696 Q1918.69 238.696 1916.62 237.585 Q1914.59 236.451 1913.25 234.136 M1927.74 225.085 Q1927.74 220.386 1925.79 217.724 Q1923.87 215.039 1920.49 215.039 Q1917.11 215.039 1915.17 217.724 Q1913.25 220.386 1913.25 225.085 Q1913.25 229.784 1915.17 232.469 Q1917.11 235.131 1920.49 235.131 Q1923.87 235.131 1925.79 232.469 Q1927.74 229.784 1927.74 225.085 Z" fill="#000000" fill-rule="evenodd" fill-opacity="1" /><path clip-path="url(#clip250)" d="M1954.24 216.08 Q1953.52 215.664 1952.67 215.478 Q1951.83 215.27 1950.81 215.27 Q1947.2 215.27 1945.26 217.631 Q1943.34 219.969 1943.34 224.367 L1943.34 238.025 L1939.06 238.025 L1939.06 212.099 L1943.34 212.099 L1943.34 216.127 Q1944.68 213.766 1946.83 212.631 Q1948.99 211.474 1952.06 211.474 Q1952.5 211.474 1953.04 211.543 Q1953.57 211.59 1954.22 211.705 L1954.24 216.08 Z" fill="#000000" fill-rule="evenodd" fill-opacity="1" /><path clip-path="url(#clip250)" d="M1979.84 223.997 L1979.84 226.08 L1960.26 226.08 Q1960.54 230.478 1962.9 232.793 Q1965.28 235.085 1969.52 235.085 Q1971.97 235.085 1974.26 234.483 Q1976.58 233.881 1978.85 232.677 L1978.85 236.705 Q1976.56 237.677 1974.15 238.187 Q1971.74 238.696 1969.26 238.696 Q1963.06 238.696 1959.43 235.085 Q1955.81 231.474 1955.81 225.316 Q1955.81 218.951 1959.24 215.224 Q1962.69 211.474 1968.52 211.474 Q1973.75 211.474 1976.79 214.853 Q1979.84 218.21 1979.84 223.997 M1975.58 222.747 Q1975.54 219.252 1973.62 217.168 Q1971.72 215.085 1968.57 215.085 Q1965 215.085 1962.85 217.099 Q1960.72 219.113 1960.4 222.77 L1975.58 222.747 Z" fill="#000000" fill-rule="evenodd" fill-opacity="1" /><path clip-path="url(#clip250)" d="M2003.89 216.034 L2003.89 202.006 L2008.15 202.006 L2008.15 238.025 L2003.89 238.025 L2003.89 234.136 Q2002.55 236.451 2000.49 237.585 Q1998.45 238.696 1995.58 238.696 Q1990.88 238.696 1987.92 234.946 Q1984.98 231.196 1984.98 225.085 Q1984.98 218.974 1987.92 215.224 Q1990.88 211.474 1995.58 211.474 Q1998.45 211.474 2000.49 212.608 Q2002.55 213.719 2003.89 216.034 M1989.38 225.085 Q1989.38 229.784 1991.3 232.469 Q1993.24 235.131 1996.62 235.131 Q2000 235.131 2001.95 232.469 Q2003.89 229.784 2003.89 225.085 Q2003.89 220.386 2001.95 217.724 Q2000 215.039 1996.62 215.039 Q1993.24 215.039 1991.3 217.724 Q1989.38 220.386 1989.38 225.085 Z" fill="#000000" fill-rule="evenodd" fill-opacity="1" /><path clip-path="url(#clip250)" d="M2017.53 232.145 L2022.41 232.145 L2022.41 238.025 L2017.53 238.025 L2017.53 232.145 Z" fill="#000000" fill-rule="evenodd" fill-opacity="1" /><path clip-path="url(#clip250)" d="M2031.99 212.099 L2036.25 212.099 L2036.25 238.488 Q2036.25 243.441 2034.36 245.663 Q2032.48 247.886 2028.29 247.886 L2026.67 247.886 L2026.67 244.275 L2027.8 244.275 Q2030.24 244.275 2031.12 243.14 Q2031.99 242.029 2031.99 238.488 L2031.99 212.099 M2031.99 202.006 L2036.25 202.006 L2036.25 207.4 L2031.99 207.4 L2031.99 202.006 Z" fill="#000000" fill-rule="evenodd" fill-opacity="1" /><path clip-path="url(#clip250)" d="M2045.17 202.006 L2049.43 202.006 L2049.43 238.025 L2045.17 238.025 L2045.17 202.006 Z" fill="#000000" fill-rule="evenodd" fill-opacity="1" /><path clip-path="url(#clip250)" d="M2073.41 202.006 L2077.67 202.006 L2077.67 238.025 L2073.41 238.025 L2073.41 202.006 Z" fill="#000000" fill-rule="evenodd" fill-opacity="1" /><path clip-path="url(#clip250)" d="M2086.58 212.099 L2090.84 212.099 L2090.84 238.025 L2086.58 238.025 L2086.58 212.099 M2086.58 202.006 L2090.84 202.006 L2090.84 207.4 L2086.58 207.4 L2086.58 202.006 Z" fill="#000000" fill-rule="evenodd" fill-opacity="1" /><path clip-path="url(#clip250)" d="M2121.3 222.377 L2121.3 238.025 L2117.04 238.025 L2117.04 222.515 Q2117.04 218.835 2115.61 217.006 Q2114.17 215.178 2111.3 215.178 Q2107.85 215.178 2105.86 217.377 Q2103.87 219.576 2103.87 223.372 L2103.87 238.025 L2099.59 238.025 L2099.59 212.099 L2103.87 212.099 L2103.87 216.127 Q2105.4 213.789 2107.46 212.631 Q2109.54 211.474 2112.25 211.474 Q2116.72 211.474 2119.01 214.252 Q2121.3 217.006 2121.3 222.377 Z" fill="#000000" fill-rule="evenodd" fill-opacity="1" /><path clip-path="url(#clip250)" d="M2151.97 223.997 L2151.97 226.08 L2132.39 226.08 Q2132.67 230.478 2135.03 232.793 Q2137.41 235.085 2141.65 235.085 Q2144.1 235.085 2146.39 234.483 Q2148.71 233.881 2150.98 232.677 L2150.98 236.705 Q2148.68 237.677 2146.28 238.187 Q2143.87 238.696 2141.39 238.696 Q2135.19 238.696 2131.55 235.085 Q2127.94 231.474 2127.94 225.316 Q2127.94 218.951 2131.37 215.224 Q2134.82 211.474 2140.65 211.474 Q2145.88 211.474 2148.92 214.853 Q2151.97 218.21 2151.97 223.997 M2147.71 222.747 Q2147.67 219.252 2145.74 217.168 Q2143.85 215.085 2140.7 215.085 Q2137.13 215.085 2134.98 217.099 Q2132.85 219.113 2132.53 222.77 L2147.71 222.747 Z" fill="#000000" fill-rule="evenodd" fill-opacity="1" /><path clip-path="url(#clip250)" d="M2175.44 234.089 L2183.08 234.089 L2183.08 207.724 L2174.77 209.391 L2174.77 205.131 L2183.04 203.465 L2187.71 203.465 L2187.71 234.089 L2195.35 234.089 L2195.35 238.025 L2175.44 238.025 L2175.44 234.089 Z" fill="#000000" fill-rule="evenodd" fill-opacity="1" /><path clip-path="url(#clip250)" d="M2214.79 206.543 Q2211.18 206.543 2209.35 210.108 Q2207.55 213.65 2207.55 220.779 Q2207.55 227.886 2209.35 231.451 Q2211.18 234.992 2214.79 234.992 Q2218.43 234.992 2220.23 231.451 Q2222.06 227.886 2222.06 220.779 Q2222.06 213.65 2220.23 210.108 Q2218.43 206.543 2214.79 206.543 M2214.79 202.84 Q2220.6 202.84 2223.66 207.446 Q2226.74 212.029 2226.74 220.779 Q2226.74 229.506 2223.66 234.113 Q2220.6 238.696 2214.79 238.696 Q2208.98 238.696 2205.91 234.113 Q2202.85 229.506 2202.85 220.779 Q2202.85 212.029 2205.91 207.446 Q2208.98 202.84 2214.79 202.84 Z" fill="#000000" fill-rule="evenodd" fill-opacity="1" /><path clip-path="url(#clip250)" d="M2244.96 221.613 Q2241.62 221.613 2239.7 223.395 Q2237.8 225.177 2237.8 228.302 Q2237.8 231.427 2239.7 233.21 Q2241.62 234.992 2244.96 234.992 Q2248.29 234.992 2250.21 233.21 Q2252.13 231.404 2252.13 228.302 Q2252.13 225.177 2250.21 223.395 Q2248.31 221.613 2244.96 221.613 M2240.28 219.622 Q2237.27 218.881 2235.58 216.821 Q2233.91 214.761 2233.91 211.798 Q2233.91 207.654 2236.85 205.247 Q2239.82 202.84 2244.96 202.84 Q2250.12 202.84 2253.06 205.247 Q2256 207.654 2256 211.798 Q2256 214.761 2254.31 216.821 Q2252.64 218.881 2249.66 219.622 Q2253.04 220.409 2254.91 222.701 Q2256.81 224.992 2256.81 228.302 Q2256.81 233.326 2253.73 236.011 Q2250.67 238.696 2244.96 238.696 Q2239.24 238.696 2236.16 236.011 Q2233.1 233.326 2233.1 228.302 Q2233.1 224.992 2235 222.701 Q2236.9 220.409 2240.28 219.622 M2238.57 212.238 Q2238.57 214.923 2240.23 216.428 Q2241.92 217.932 2244.96 217.932 Q2247.97 217.932 2249.66 216.428 Q2251.37 214.923 2251.37 212.238 Q2251.37 209.553 2249.66 208.048 Q2247.97 206.543 2244.96 206.543 Q2241.92 206.543 2240.23 208.048 Q2238.57 209.553 2238.57 212.238 Z" fill="#000000" fill-rule="evenodd" fill-opacity="1" /><path clip-path="url(#clip250)" d="M1652.88 293.321 L1796.81 293.321 L1796.81 251.849 L1652.88 251.849 L1652.88 293.321  Z" fill="#e26f46" fill-rule="evenodd" fill-opacity="1"/>
<polyline clip-path="url(#clip250)" style="stroke:#000000; stroke-linecap:round; stroke-linejoin:round; stroke-width:4; stroke-opacity:1; fill:none" points="1652.88,293.321 1796.81,293.321 1796.81,251.849 1652.88,251.849 1652.88,293.321 "/>
<path clip-path="url(#clip250)" d="M1832.69 266.925 Q1829.26 266.925 1827.27 269.61 Q1825.28 272.272 1825.28 276.925 Q1825.28 281.578 1827.25 284.263 Q1829.24 286.925 1832.69 286.925 Q1836.09 286.925 1838.08 284.24 Q1840.07 281.555 1840.07 276.925 Q1840.07 272.318 1838.08 269.633 Q1836.09 266.925 1832.69 266.925 M1832.69 263.314 Q1838.25 263.314 1841.42 266.925 Q1844.59 270.536 1844.59 276.925 Q1844.59 283.291 1841.42 286.925 Q1838.25 290.536 1832.69 290.536 Q1827.11 290.536 1823.94 286.925 Q1820.79 283.291 1820.79 276.925 Q1820.79 270.536 1823.94 266.925 Q1827.11 263.314 1832.69 263.314 Z" fill="#000000" fill-rule="evenodd" fill-opacity="1" /><path clip-path="url(#clip250)" d="M1855.86 256.578 L1855.86 263.939 L1864.63 263.939 L1864.63 267.249 L1855.86 267.249 L1855.86 281.323 Q1855.86 284.494 1856.72 285.397 Q1857.6 286.3 1860.26 286.3 L1864.63 286.3 L1864.63 289.865 L1860.26 289.865 Q1855.33 289.865 1853.45 288.036 Q1851.58 286.184 1851.58 281.323 L1851.58 267.249 L1848.45 267.249 L1848.45 263.939 L1851.58 263.939 L1851.58 256.578 L1855.86 256.578 Z" fill="#000000" fill-rule="evenodd" fill-opacity="1" /><path clip-path="url(#clip250)" d="M1891.79 274.217 L1891.79 289.865 L1887.53 289.865 L1887.53 274.355 Q1887.53 270.675 1886.09 268.846 Q1884.66 267.018 1881.79 267.018 Q1878.34 267.018 1876.35 269.217 Q1874.36 271.416 1874.36 275.212 L1874.36 289.865 L1870.07 289.865 L1870.07 253.846 L1874.36 253.846 L1874.36 267.967 Q1875.88 265.629 1877.94 264.471 Q1880.03 263.314 1882.74 263.314 Q1887.2 263.314 1889.5 266.092 Q1891.79 268.846 1891.79 274.217 Z" fill="#000000" fill-rule="evenodd" fill-opacity="1" /><path clip-path="url(#clip250)" d="M1922.46 275.837 L1922.46 277.92 L1902.88 277.92 Q1903.15 282.318 1905.51 284.633 Q1907.9 286.925 1912.13 286.925 Q1914.59 286.925 1916.88 286.323 Q1919.19 285.721 1921.46 284.517 L1921.46 288.545 Q1919.17 289.517 1916.76 290.027 Q1914.36 290.536 1911.88 290.536 Q1905.68 290.536 1902.04 286.925 Q1898.43 283.314 1898.43 277.156 Q1898.43 270.791 1901.86 267.064 Q1905.31 263.314 1911.14 263.314 Q1916.37 263.314 1919.4 266.693 Q1922.46 270.05 1922.46 275.837 M1918.2 274.587 Q1918.15 271.092 1916.23 269.008 Q1914.33 266.925 1911.19 266.925 Q1907.62 266.925 1905.47 268.939 Q1903.34 270.953 1903.01 274.61 L1918.2 274.587 Z" fill="#000000" fill-rule="evenodd" fill-opacity="1" /><path clip-path="url(#clip250)" d="M1944.47 267.92 Q1943.75 267.504 1942.9 267.318 Q1942.06 267.11 1941.05 267.11 Q1937.44 267.11 1935.49 269.471 Q1933.57 271.809 1933.57 276.207 L1933.57 289.865 L1929.29 289.865 L1929.29 263.939 L1933.57 263.939 L1933.57 267.967 Q1934.91 265.606 1937.06 264.471 Q1939.22 263.314 1942.3 263.314 Q1942.74 263.314 1943.27 263.383 Q1943.8 263.43 1944.45 263.545 L1944.47 267.92 Z" fill="#000000" fill-rule="evenodd" fill-opacity="1" /><path clip-path="url(#clip250)" d="M1965.47 264.703 L1965.47 268.731 Q1963.66 267.805 1961.72 267.342 Q1959.77 266.879 1957.69 266.879 Q1954.52 266.879 1952.92 267.851 Q1951.35 268.823 1951.35 270.768 Q1951.35 272.249 1952.48 273.105 Q1953.62 273.939 1957.04 274.703 L1958.5 275.027 Q1963.04 275.999 1964.93 277.781 Q1966.86 279.541 1966.86 282.712 Q1966.86 286.323 1963.99 288.429 Q1961.14 290.536 1956.14 290.536 Q1954.06 290.536 1951.79 290.119 Q1949.54 289.726 1947.04 288.916 L1947.04 284.517 Q1949.4 285.744 1951.69 286.369 Q1953.99 286.971 1956.23 286.971 Q1959.24 286.971 1960.86 285.953 Q1962.48 284.911 1962.48 283.036 Q1962.48 281.3 1961.3 280.374 Q1960.14 279.448 1956.18 278.592 L1954.7 278.244 Q1950.75 277.411 1948.99 275.698 Q1947.23 273.962 1947.23 270.953 Q1947.23 267.295 1949.82 265.305 Q1952.41 263.314 1957.18 263.314 Q1959.54 263.314 1961.62 263.661 Q1963.71 264.008 1965.47 264.703 Z" fill="#000000" fill-rule="evenodd" fill-opacity="1" /><path clip-path="url(#clip250)" d="M1989.31 283.985 L1994.19 283.985 L1994.19 289.865 L1989.31 289.865 L1989.31 283.985 Z" fill="#000000" fill-rule="evenodd" fill-opacity="1" /><path clip-path="url(#clip250)" d="M2034.01 266.531 L2010.12 275.027 L2034.01 283.476 L2034.01 287.689 L2004.33 276.925 L2004.33 273.082 L2034.01 262.319 L2034.01 266.531 Z" fill="#000000" fill-rule="evenodd" fill-opacity="1" /><path clip-path="url(#clip250)" d="M2059.22 255.305 L2077.57 255.305 L2077.57 259.24 L2063.5 259.24 L2063.5 267.712 Q2064.52 267.365 2065.54 267.203 Q2066.55 267.018 2067.57 267.018 Q2073.36 267.018 2076.74 270.189 Q2080.12 273.36 2080.12 278.777 Q2080.12 284.355 2076.65 287.457 Q2073.18 290.536 2066.86 290.536 Q2064.68 290.536 2062.41 290.166 Q2060.17 289.795 2057.76 289.054 L2057.76 284.355 Q2059.84 285.49 2062.06 286.045 Q2064.29 286.601 2066.76 286.601 Q2070.77 286.601 2073.11 284.494 Q2075.44 282.388 2075.44 278.777 Q2075.44 275.166 2073.11 273.059 Q2070.77 270.953 2066.76 270.953 Q2064.89 270.953 2063.01 271.369 Q2061.16 271.786 2059.22 272.666 L2059.22 255.305 Z" fill="#000000" fill-rule="evenodd" fill-opacity="1" /><path clip-path="url(#clip250)" d="M2089.33 283.985 L2094.22 283.985 L2094.22 289.865 L2089.33 289.865 L2089.33 283.985 Z" fill="#000000" fill-rule="evenodd" fill-opacity="1" /><path clip-path="url(#clip250)" d="M2114.4 258.383 Q2110.79 258.383 2108.96 261.948 Q2107.16 265.49 2107.16 272.619 Q2107.16 279.726 2108.96 283.291 Q2110.79 286.832 2114.4 286.832 Q2118.04 286.832 2119.84 283.291 Q2121.67 279.726 2121.67 272.619 Q2121.67 265.49 2119.84 261.948 Q2118.04 258.383 2114.4 258.383 M2114.4 254.68 Q2120.21 254.68 2123.27 259.286 Q2126.35 263.869 2126.35 272.619 Q2126.35 281.346 2123.27 285.953 Q2120.21 290.536 2114.4 290.536 Q2108.59 290.536 2105.51 285.953 Q2102.46 281.346 2102.46 272.619 Q2102.46 263.869 2105.51 259.286 Q2108.59 254.68 2114.4 254.68 Z" fill="#000000" fill-rule="evenodd" fill-opacity="1" /></svg>
