<?xml version="1.0" encoding="utf-8"?>
<svg xmlns="http://www.w3.org/2000/svg" xmlns:xlink="http://www.w3.org/1999/xlink" width="600" height="400" viewBox="0 0 2400 1600">
<defs>
  <clipPath id="clip280">
    <rect x="0" y="0" width="2400" height="1600"/>
  </clipPath>
</defs>
<path clip-path="url(#clip280)" d="M0 1600 L2400 1600 L2400 0 L0 0  Z" fill="#ffffff" fill-rule="evenodd" fill-opacity="1"/>
<defs>
  <clipPath id="clip281">
    <rect x="480" y="0" width="1681" height="1600"/>
  </clipPath>
</defs>
<path clip-path="url(#clip280)" d="M193.936 1486.45 L2352.76 1486.45 L2352.76 123.472 L193.936 123.472  Z" fill="#ffffff" fill-rule="evenodd" fill-opacity="1"/>
<defs>
  <clipPath id="clip282">
    <rect x="193" y="123" width="2160" height="1364"/>
  </clipPath>
</defs>
<path clip-path="url(#clip280)" d="M745.25 12.096 L757.443 12.096 L772.877 53.2532 L788.392 12.096 L800.585 12.096 L800.585 72.576 L792.605 72.576 L792.605 19.4686 L777.009 60.9499 L768.786 60.9499 L753.19 19.4686 L753.19 72.576 L745.25 72.576 L745.25 12.096 Z" fill="#000000" fill-rule="evenodd" fill-opacity="1" /><path clip-path="url(#clip280)" d="M837.124 49.7694 Q828.091 49.7694 824.607 51.8354 Q821.123 53.9013 821.123 58.8839 Q821.123 62.8538 823.716 65.2034 Q826.349 67.5124 830.845 67.5124 Q837.043 67.5124 840.77 63.1374 Q844.537 58.7219 844.537 51.4303 L844.537 49.7694 L837.124 49.7694 M851.991 46.6907 L851.991 72.576 L844.537 72.576 L844.537 65.6895 Q841.985 69.8214 838.178 71.8063 Q834.37 73.7508 828.86 73.7508 Q821.893 73.7508 817.761 69.8619 Q813.67 65.9325 813.67 59.3701 Q813.67 51.7138 818.774 47.825 Q823.918 43.9361 834.086 43.9361 L844.537 43.9361 L844.537 43.2069 Q844.537 38.0623 841.135 35.2672 Q837.772 32.4315 831.656 32.4315 Q827.767 32.4315 824.08 33.3632 Q820.394 34.295 816.991 36.1584 L816.991 29.2718 Q821.083 27.692 824.931 26.9223 Q828.779 26.1121 832.425 26.1121 Q842.269 26.1121 847.13 31.2163 Q851.991 36.3204 851.991 46.6907 Z" fill="#000000" fill-rule="evenodd" fill-opacity="1" /><path clip-path="url(#clip280)" d="M867.344 9.54393 L874.798 9.54393 L874.798 72.576 L867.344 72.576 L867.344 9.54393 Z" fill="#000000" fill-rule="evenodd" fill-opacity="1" /><path clip-path="url(#clip280)" d="M890.394 9.54393 L897.847 9.54393 L897.847 72.576 L890.394 72.576 L890.394 9.54393 Z" fill="#000000" fill-rule="evenodd" fill-opacity="1" /><path clip-path="url(#clip280)" d="M931.024 32.4315 Q925.029 32.4315 921.545 37.1306 Q918.061 41.7891 918.061 49.9314 Q918.061 58.0738 921.505 62.7728 Q924.988 67.4314 931.024 67.4314 Q936.979 67.4314 940.463 62.7323 Q943.947 58.0333 943.947 49.9314 Q943.947 41.8701 940.463 37.1711 Q936.979 32.4315 931.024 32.4315 M931.024 26.1121 Q940.746 26.1121 946.296 32.4315 Q951.846 38.7509 951.846 49.9314 Q951.846 61.0714 946.296 67.4314 Q940.746 73.7508 931.024 73.7508 Q921.262 73.7508 915.712 67.4314 Q910.203 61.0714 910.203 49.9314 Q910.203 38.7509 915.712 32.4315 Q921.262 26.1121 931.024 26.1121 Z" fill="#000000" fill-rule="evenodd" fill-opacity="1" /><path clip-path="url(#clip280)" d="M996.851 28.9478 L996.851 35.9153 Q993.692 34.1734 990.492 33.3227 Q987.332 32.4315 984.091 32.4315 Q976.84 32.4315 972.83 37.0496 Q968.819 41.6271 968.819 49.9314 Q968.819 58.2358 972.83 62.8538 Q976.84 67.4314 984.091 67.4314 Q987.332 67.4314 990.492 66.5807 Q993.692 65.6895 996.851 63.9476 L996.851 70.8341 Q993.732 72.2924 990.37 73.0216 Q987.048 73.7508 983.281 73.7508 Q973.032 73.7508 966.996 67.3098 Q960.96 60.8689 960.96 49.9314 Q960.96 38.832 967.037 32.472 Q973.154 26.1121 983.767 26.1121 Q987.21 26.1121 990.492 26.8413 Q993.773 27.5299 996.851 28.9478 Z" fill="#000000" fill-rule="evenodd" fill-opacity="1" /><path clip-path="url(#clip280)" d="M1038.74 28.5427 L1038.74 35.5912 Q1035.58 33.9709 1032.18 33.1607 Q1028.77 32.3505 1025.13 32.3505 Q1019.58 32.3505 1016.78 34.0519 Q1014.03 35.7533 1014.03 39.156 Q1014.03 41.7486 1016.01 43.2475 Q1018 44.7058 1023.99 46.0426 L1026.54 46.6097 Q1034.48 48.3111 1037.81 51.4303 Q1041.17 54.509 1041.17 60.0587 Q1041.17 66.3781 1036.15 70.0644 Q1031.16 73.7508 1022.41 73.7508 Q1018.77 73.7508 1014.8 73.0216 Q1010.87 72.3329 1006.49 70.9151 L1006.49 63.2184 Q1010.62 65.3654 1014.63 66.4591 Q1018.65 67.5124 1022.57 67.5124 Q1027.84 67.5124 1030.68 65.73 Q1033.51 63.9071 1033.51 60.6258 Q1033.51 57.5877 1031.45 55.9673 Q1029.42 54.3469 1022.49 52.8481 L1019.9 52.2405 Q1012.97 50.7821 1009.9 47.7845 Q1006.82 44.7463 1006.82 39.4801 Q1006.82 33.0797 1011.35 29.5959 Q1015.89 26.1121 1024.24 26.1121 Q1028.37 26.1121 1032.01 26.7198 Q1035.66 27.3274 1038.74 28.5427 Z" fill="#000000" fill-rule="evenodd" fill-opacity="1" /><path clip-path="url(#clip280)" d="M1102.38 9.54393 L1102.38 15.7418 L1095.25 15.7418 Q1091.24 15.7418 1089.66 17.3622 Q1088.12 18.9825 1088.12 23.1955 L1088.12 27.2059 L1100.39 27.2059 L1100.39 32.9987 L1088.12 32.9987 L1088.12 72.576 L1080.62 72.576 L1080.62 32.9987 L1073.49 32.9987 L1073.49 27.2059 L1080.62 27.2059 L1080.62 24.0462 Q1080.62 16.471 1084.15 13.0277 Q1087.67 9.54393 1095.33 9.54393 L1102.38 9.54393 Z" fill="#000000" fill-rule="evenodd" fill-opacity="1" /><path clip-path="url(#clip280)" d="M1126.2 32.4315 Q1120.2 32.4315 1116.72 37.1306 Q1113.23 41.7891 1113.23 49.9314 Q1113.23 58.0738 1116.68 62.7728 Q1120.16 67.4314 1126.2 67.4314 Q1132.15 67.4314 1135.64 62.7323 Q1139.12 58.0333 1139.12 49.9314 Q1139.12 41.8701 1135.64 37.1711 Q1132.15 32.4315 1126.2 32.4315 M1126.2 26.1121 Q1135.92 26.1121 1141.47 32.4315 Q1147.02 38.7509 1147.02 49.9314 Q1147.02 61.0714 1141.47 67.4314 Q1135.92 73.7508 1126.2 73.7508 Q1116.43 73.7508 1110.88 67.4314 Q1105.38 61.0714 1105.38 49.9314 Q1105.38 38.7509 1110.88 32.4315 Q1116.43 26.1121 1126.2 26.1121 Z" fill="#000000" fill-rule="evenodd" fill-opacity="1" /><path clip-path="url(#clip280)" d="M1185.66 34.1734 Q1184.41 33.4443 1182.91 33.1202 Q1181.45 32.7556 1179.67 32.7556 Q1173.35 32.7556 1169.95 36.8875 Q1166.58 40.9789 1166.58 48.6757 L1166.58 72.576 L1159.09 72.576 L1159.09 27.2059 L1166.58 27.2059 L1166.58 34.2544 Q1168.93 30.1225 1172.7 28.1376 Q1176.47 26.1121 1181.86 26.1121 Q1182.63 26.1121 1183.56 26.2337 Q1184.49 26.3147 1185.62 26.5172 L1185.66 34.1734 Z" fill="#000000" fill-rule="evenodd" fill-opacity="1" /><path clip-path="url(#clip280)" d="M1261.42 63.9476 L1261.42 47.7034 L1248.05 47.7034 L1248.05 40.9789 L1269.52 40.9789 L1269.52 66.9452 Q1264.78 70.3075 1259.07 72.0494 Q1253.35 73.7508 1246.87 73.7508 Q1232.7 73.7508 1224.67 65.4869 Q1216.69 57.1826 1216.69 42.3968 Q1216.69 27.5705 1224.67 19.3066 Q1232.7 11.0023 1246.87 11.0023 Q1252.79 11.0023 1258.09 12.4606 Q1263.44 13.9189 1267.94 16.7545 L1267.94 25.464 Q1263.4 21.6156 1258.3 19.6712 Q1253.19 17.7268 1247.56 17.7268 Q1236.46 17.7268 1230.87 23.9246 Q1225.32 30.1225 1225.32 42.3968 Q1225.32 54.6305 1230.87 60.8284 Q1236.46 67.0263 1247.56 67.0263 Q1251.9 67.0263 1255.3 66.2971 Q1258.7 65.5274 1261.42 63.9476 Z" fill="#000000" fill-rule="evenodd" fill-opacity="1" /><path clip-path="url(#clip280)" d="M1284.47 12.096 L1292.65 12.096 L1292.65 65.6895 L1322.1 65.6895 L1322.1 72.576 L1284.47 72.576 L1284.47 12.096 Z" fill="#000000" fill-rule="evenodd" fill-opacity="1" /><path clip-path="url(#clip280)" d="M1330.69 12.096 L1342.88 12.096 L1358.31 53.2532 L1373.83 12.096 L1386.02 12.096 L1386.02 72.576 L1378.04 72.576 L1378.04 19.4686 L1362.45 60.9499 L1354.22 60.9499 L1338.63 19.4686 L1338.63 72.576 L1330.69 72.576 L1330.69 12.096 Z" fill="#000000" fill-rule="evenodd" fill-opacity="1" /><path clip-path="url(#clip280)" d="M1403 62.2867 L1411.54 62.2867 L1411.54 72.576 L1403 72.576 L1403 62.2867 Z" fill="#000000" fill-rule="evenodd" fill-opacity="1" /><path clip-path="url(#clip280)" d="M1428.31 27.2059 L1435.77 27.2059 L1435.77 73.3862 Q1435.77 82.0551 1432.45 85.944 Q1429.16 89.8329 1421.83 89.8329 L1419 89.8329 L1419 83.5134 L1420.98 83.5134 Q1425.23 83.5134 1426.77 81.5285 Q1428.31 79.5841 1428.31 73.3862 L1428.31 27.2059 M1428.31 9.54393 L1435.77 9.54393 L1435.77 18.9825 L1428.31 18.9825 L1428.31 9.54393 Z" fill="#000000" fill-rule="evenodd" fill-opacity="1" /><path clip-path="url(#clip280)" d="M1451.36 9.54393 L1458.82 9.54393 L1458.82 72.576 L1451.36 72.576 L1451.36 9.54393 Z" fill="#000000" fill-rule="evenodd" fill-opacity="1" /><path clip-path="url(#clip280)" d="M1497.46 50.8226 Q1497.46 56.6154 1500.34 59.9372 Q1503.21 63.2184 1508.24 63.2184 Q1513.22 63.2184 1516.06 59.8967 Q1518.93 56.5749 1518.93 50.8226 Q1518.93 45.1514 1516.02 41.8296 Q1513.1 38.4674 1508.16 38.4674 Q1503.26 38.4674 1500.34 41.7891 Q1497.46 45.1109 1497.46 50.8226 M1519.54 62.9348 Q1517.11 66.054 1513.95 67.5529 Q1510.83 69.0112 1506.66 69.0112 Q1499.69 69.0112 1495.32 63.9881 Q1490.98 58.9245 1490.98 50.8226 Q1490.98 42.7208 1495.36 37.6572 Q1499.73 32.5936 1506.66 32.5936 Q1510.83 32.5936 1513.99 34.1329 Q1517.15 35.6318 1519.54 38.7104 L1519.54 33.4038 L1525.33 33.4038 L1525.33 63.2184 Q1531.25 62.3272 1534.57 57.8307 Q1537.93 53.2937 1537.93 46.1236 Q1537.93 41.7891 1536.63 37.9813 Q1535.38 34.1734 1532.79 30.9327 Q1528.57 25.626 1522.5 22.8309 Q1516.46 19.9953 1509.33 19.9953 Q1504.35 19.9953 1499.77 21.3321 Q1495.19 22.6284 1491.3 25.2209 Q1484.94 29.3529 1481.34 36.0774 Q1477.77 42.7613 1477.77 50.5796 Q1477.77 57.0205 1480.08 62.6513 Q1482.43 68.282 1486.85 72.576 Q1491.1 76.7889 1496.69 78.9764 Q1502.28 81.2044 1508.64 81.2044 Q1513.87 81.2044 1518.89 79.422 Q1523.96 77.6801 1528.17 74.3989 L1531.81 78.8954 Q1526.75 82.8248 1520.75 84.8907 Q1514.8 86.9972 1508.64 86.9972 Q1501.15 86.9972 1494.51 84.3236 Q1487.86 81.6905 1482.68 76.6269 Q1477.49 71.5633 1474.78 64.9198 Q1472.06 58.2358 1472.06 50.5796 Q1472.06 43.2069 1474.82 36.523 Q1477.57 29.839 1482.68 24.7753 Q1487.9 19.6307 1494.75 16.9166 Q1501.59 14.162 1509.25 14.162 Q1517.84 14.162 1525.17 17.6862 Q1532.54 21.2105 1537.53 27.692 Q1540.56 31.6619 1542.14 36.3204 Q1543.76 40.9789 1543.76 45.9616 Q1543.76 56.6154 1537.32 62.7728 Q1530.88 68.9302 1519.54 69.1732 L1519.54 62.9348 Z" fill="#000000" fill-rule="evenodd" fill-opacity="1" /><path clip-path="url(#clip280)" d="M1552.03 27.2059 L1559.93 27.2059 L1574.11 65.2844 L1588.28 27.2059 L1596.18 27.2059 L1579.17 72.576 L1569.04 72.576 L1552.03 27.2059 Z" fill="#000000" fill-rule="evenodd" fill-opacity="1" /><path clip-path="url(#clip280)" d="M1608.94 65.6895 L1622.31 65.6895 L1622.31 19.5497 L1607.77 22.4663 L1607.77 15.0127 L1622.23 12.096 L1630.41 12.096 L1630.41 65.6895 L1643.78 65.6895 L1643.78 72.576 L1608.94 72.576 L1608.94 65.6895 Z" fill="#000000" fill-rule="evenodd" fill-opacity="1" /><path clip-path="url(#clip280)" d="M1660.31 62.2867 L1668.86 62.2867 L1668.86 72.576 L1660.31 72.576 L1660.31 62.2867 Z" fill="#000000" fill-rule="evenodd" fill-opacity="1" /><path clip-path="url(#clip280)" d="M1704.18 43.8551 Q1698.35 43.8551 1694.98 46.9743 Q1691.66 50.0935 1691.66 55.5622 Q1691.66 61.0309 1694.98 64.1501 Q1698.35 67.2693 1704.18 67.2693 Q1710.01 67.2693 1713.38 64.1501 Q1716.74 60.9904 1716.74 55.5622 Q1716.74 50.0935 1713.38 46.9743 Q1710.05 43.8551 1704.18 43.8551 M1696 40.3713 Q1690.73 39.075 1687.77 35.4697 Q1684.86 31.8644 1684.86 26.6793 Q1684.86 19.4281 1690 15.2152 Q1695.19 11.0023 1704.18 11.0023 Q1713.21 11.0023 1718.36 15.2152 Q1723.5 19.4281 1723.5 26.6793 Q1723.5 31.8644 1720.55 35.4697 Q1717.63 39.075 1712.4 40.3713 Q1718.32 41.7486 1721.6 45.759 Q1724.92 49.7694 1724.92 55.5622 Q1724.92 64.3527 1719.53 69.0517 Q1714.19 73.7508 1704.18 73.7508 Q1694.17 73.7508 1688.79 69.0517 Q1683.44 64.3527 1683.44 55.5622 Q1683.44 49.7694 1686.76 45.759 Q1690.08 41.7486 1696 40.3713 M1693 27.4489 Q1693 32.148 1695.92 34.7811 Q1698.87 37.4142 1704.18 37.4142 Q1709.45 37.4142 1712.4 34.7811 Q1715.4 32.148 1715.4 27.4489 Q1715.4 22.7499 1712.4 20.1168 Q1709.45 17.4837 1704.18 17.4837 Q1698.87 17.4837 1695.92 20.1168 Q1693 22.7499 1693 27.4489 Z" fill="#000000" fill-rule="evenodd" fill-opacity="1" /><path clip-path="url(#clip280)" d="M1739.46 62.2867 L1748.01 62.2867 L1748.01 72.576 L1739.46 72.576 L1739.46 62.2867 Z" fill="#000000" fill-rule="evenodd" fill-opacity="1" /><path clip-path="url(#clip280)" d="M1772.88 65.6895 L1801.44 65.6895 L1801.44 72.576 L1763.04 72.576 L1763.04 65.6895 Q1767.7 60.8689 1775.72 52.7671 Q1783.78 44.6248 1785.85 42.2752 Q1789.78 37.8598 1791.31 34.8216 Q1792.89 31.7429 1792.89 28.7857 Q1792.89 23.9651 1789.49 20.927 Q1786.13 17.8888 1780.7 17.8888 Q1776.85 17.8888 1772.56 19.2256 Q1768.31 20.5624 1763.44 23.2765 L1763.44 15.0127 Q1768.39 13.0277 1772.68 12.015 Q1776.97 11.0023 1780.54 11.0023 Q1789.94 11.0023 1795.53 15.7013 Q1801.12 20.4004 1801.12 28.2591 Q1801.12 31.9859 1799.7 35.3482 Q1798.32 38.6699 1794.64 43.2069 Q1793.62 44.3817 1788.2 50.0125 Q1782.77 55.6027 1772.88 65.6895 Z" fill="#000000" fill-rule="evenodd" fill-opacity="1" /><path clip-path="url(#clip282)" d="M1273.33 804.994 L1916.28 804.994 L1911.57 727.241 L1897.48 650.63 L1874.23 576.284 L1842.16 505.295 L1801.75 438.705 L1753.57 377.492 L1698.35 322.553 L1636.89 274.696 L1570.09 234.622 L1498.94 202.921 L1424.47 180.056 L1347.79 166.365 L1270.01 162.047 L1192.29 167.166 L1115.75 181.648 L1041.52 205.279 L970.702 237.712 L904.321 278.472 L843.357 326.961 L788.704 382.466 L741.164 444.172 L701.435 511.175 L670.1 582.491 L647.62 657.073 L634.324 733.825 L630.407 811.623 L635.927 889.323 L650.803 965.785 L674.816 1039.89 L707.614 1110.54 L748.716 1176.71 L797.518 1237.42 L853.304 1291.79 L915.255 1339.01 L982.462 1378.4 L1053.94 1409.36 L1128.63 1431.46 L1205.45 1444.36 L1283.27 1447.87 L1360.94 1441.95 L1437.33 1426.68 L1511.3 1402.29 L1581.79 1369.13 L1647.75 1327.68 L1708.21 1278.57 L1762.28 1222.5 L1809.19 1160.31 L1848.22 1092.9 L1878.82 1021.27 L1273.33 804.994  Z" fill="#009af9" fill-rule="evenodd" fill-opacity="1"/>
<polyline clip-path="url(#clip282)" style="stroke:#000000; stroke-linecap:round; stroke-linejoin:round; stroke-width:4; stroke-opacity:0.5; fill:none" points="1273.33,804.994 1916.28,804.994 1911.57,727.241 1897.48,650.63 1874.23,576.284 1842.16,505.295 1801.75,438.705 1753.57,377.492 1698.35,322.553 1636.89,274.696 1570.09,234.622 1498.94,202.921 1424.47,180.056 1347.79,166.365 1270.01,162.047 1192.29,167.166 1115.75,181.648 1041.52,205.279 970.702,237.712 904.321,278.472 843.357,326.961 788.704,382.466 741.164,444.172 701.435,511.175 670.1,582.491 647.62,657.073 634.324,733.825 630.407,811.623 635.927,889.323 650.803,965.785 674.816,1039.89 707.614,1110.54 748.716,1176.71 797.518,1237.42 853.304,1291.79 915.255,1339.01 982.462,1378.4 1053.94,1409.36 1128.63,1431.46 1205.45,1444.36 1283.27,1447.87 1360.94,1441.95 1437.33,1426.68 1511.3,1402.29 1581.79,1369.13 1647.75,1327.68 1708.21,1278.57 1762.28,1222.5 1809.19,1160.31 1848.22,1092.9 1878.82,1021.27 1273.33,804.994 "/>
<path clip-path="url(#clip282)" d="M1273.33 804.994 L1878.82 1021.27 L1880.32 1017.02 L1881.79 1012.77 L1883.23 1008.5 L1884.64 1004.23 L1886.02 999.942 L1887.37 995.648 L1888.69 991.344 L1889.98 987.032 L1891.24 982.71 L1892.47 978.379 L1893.66 974.04 L1894.83 969.693 L1895.97 965.338 L1897.08 960.975 L1898.15 956.604 L1899.2 952.226 L1900.22 947.84 L1901.2 943.448 L1902.15 939.049 L1903.08 934.643 L1903.97 930.231 L1904.83 925.812 L1905.66 921.388 L1906.46 916.958 L1907.23 912.523 L1907.97 908.082 L1908.67 903.636 L1909.35 899.186 L1909.99 894.73 L1910.6 890.271 L1911.19 885.807 L1911.74 881.339 L1912.25 876.868 L1912.74 872.393 L1913.2 867.914 L1913.62 863.433 L1914.02 858.949 L1914.38 854.462 L1914.71 849.972 L1915.01 845.481 L1915.28 840.987 L1915.51 836.492 L1915.72 831.995 L1915.89 827.497 L1916.03 822.998 L1916.14 818.498 L1916.22 813.997 L1916.27 809.496 L1916.28 804.994 L1273.33 804.994  Z" fill="#e26f46" fill-rule="evenodd" fill-opacity="1"/>
<polyline clip-path="url(#clip282)" style="stroke:#000000; stroke-linecap:round; stroke-linejoin:round; stroke-width:4; stroke-opacity:0.5; fill:none" points="1273.33,804.994 1878.82,1021.27 1880.32,1017.02 1881.79,1012.77 1883.23,1008.5 1884.64,1004.23 1886.02,999.942 1887.37,995.648 1888.69,991.344 1889.98,987.032 1891.24,982.71 1892.47,978.379 1893.66,974.04 1894.83,969.693 1895.97,965.338 1897.08,960.975 1898.15,956.604 1899.2,952.226 1900.22,947.84 1901.2,943.448 1902.15,939.049 1903.08,934.643 1903.97,930.231 1904.83,925.812 1905.66,921.388 1906.46,916.958 1907.23,912.523 1907.97,908.082 1908.67,903.636 1909.35,899.186 1909.99,894.73 1910.6,890.271 1911.19,885.807 1911.74,881.339 1912.25,876.868 1912.74,872.393 1913.2,867.914 1913.62,863.433 1914.02,858.949 1914.38,854.462 1914.71,849.972 1915.01,845.481 1915.28,840.987 1915.51,836.492 1915.72,831.995 1915.89,827.497 1916.03,822.998 1916.14,818.498 1916.22,813.997 1916.27,809.496 1916.28,804.994 1273.33,804.994 "/>
<path clip-path="url(#clip280)" d="M1628.9 324.425 L2280.8 324.425 L2280.8 168.905 L1628.9 168.905  Z" fill="#ffffff" fill-rule="evenodd" fill-opacity="1"/>
<polyline clip-path="url(#clip280)" style="stroke:#000000; stroke-linecap:round; stroke-linejoin:round; stroke-width:4; stroke-opacity:1; fill:none" points="1628.9,324.425 2280.8,324.425 2280.8,168.905 1628.9,168.905 1628.9,324.425 "/>
<path clip-path="url(#clip280)" d="M1652.88 241.481 L1796.81 241.481 L1796.81 200.009 L1652.88 200.009 L1652.88 241.481  Z" fill="#009af9" fill-rule="evenodd" fill-opacity="1"/>
<polyline clip-path="url(#clip280)" style="stroke:#000000; stroke-linecap:round; stroke-linejoin:round; stroke-width:4; stroke-opacity:1; fill:none" points="1652.88,241.481 1796.81,241.481 1796.81,200.009 1652.88,200.009 1652.88,241.481 "/>
<path clip-path="url(#clip280)" d="M1839.7 224.761 Q1839.7 220.131 1837.78 217.585 Q1835.88 215.039 1832.44 215.039 Q1829.01 215.039 1827.09 217.585 Q1825.19 220.131 1825.19 224.761 Q1825.19 229.367 1827.09 231.914 Q1829.01 234.46 1832.44 234.46 Q1835.88 234.46 1837.78 231.914 Q1839.7 229.367 1839.7 224.761 M1843.96 234.807 Q1843.96 241.427 1841.02 244.645 Q1838.08 247.886 1832.02 247.886 Q1829.77 247.886 1827.78 247.538 Q1825.79 247.214 1823.92 246.52 L1823.92 242.376 Q1825.79 243.395 1827.62 243.881 Q1829.45 244.367 1831.35 244.367 Q1835.54 244.367 1837.62 242.168 Q1839.7 239.992 1839.7 235.571 L1839.7 233.464 Q1838.38 235.756 1836.32 236.89 Q1834.26 238.025 1831.39 238.025 Q1826.63 238.025 1823.71 234.39 Q1820.79 230.756 1820.79 224.761 Q1820.79 218.742 1823.71 215.108 Q1826.63 211.474 1831.39 211.474 Q1834.26 211.474 1836.32 212.608 Q1838.38 213.742 1839.7 216.034 L1839.7 212.099 L1843.96 212.099 L1843.96 234.807 Z" fill="#000000" fill-rule="evenodd" fill-opacity="1" /><path clip-path="url(#clip280)" d="M1852.74 202.006 L1857 202.006 L1857 238.025 L1852.74 238.025 L1852.74 202.006 Z" fill="#000000" fill-rule="evenodd" fill-opacity="1" /><path clip-path="url(#clip280)" d="M1865.91 212.099 L1870.17 212.099 L1870.17 238.025 L1865.91 238.025 L1865.91 212.099 M1865.91 202.006 L1870.17 202.006 L1870.17 207.4 L1865.91 207.4 L1865.91 202.006 Z" fill="#000000" fill-rule="evenodd" fill-opacity="1" /><path clip-path="url(#clip280)" d="M1900.63 222.377 L1900.63 238.025 L1896.37 238.025 L1896.37 222.515 Q1896.37 218.835 1894.94 217.006 Q1893.5 215.178 1890.63 215.178 Q1887.18 215.178 1885.19 217.377 Q1883.2 219.576 1883.2 223.372 L1883.2 238.025 L1878.92 238.025 L1878.92 212.099 L1883.2 212.099 L1883.2 216.127 Q1884.73 213.789 1886.79 212.631 Q1888.87 211.474 1891.58 211.474 Q1896.05 211.474 1898.34 214.252 Q1900.63 217.006 1900.63 222.377 Z" fill="#000000" fill-rule="evenodd" fill-opacity="1" /><path clip-path="url(#clip280)" d="M1913.25 234.136 L1913.25 247.886 L1908.96 247.886 L1908.96 212.099 L1913.25 212.099 L1913.25 216.034 Q1914.59 213.719 1916.62 212.608 Q1918.69 211.474 1921.53 211.474 Q1926.25 211.474 1929.19 215.224 Q1932.16 218.974 1932.16 225.085 Q1932.16 231.196 1929.19 234.946 Q1926.25 238.696 1921.53 238.696 Q1918.69 238.696 1916.62 237.585 Q1914.59 236.451 1913.25 234.136 M1927.74 225.085 Q1927.74 220.386 1925.79 217.724 Q1923.87 215.039 1920.49 215.039 Q1917.11 215.039 1915.17 217.724 Q1913.25 220.386 1913.25 225.085 Q1913.25 229.784 1915.17 232.469 Q1917.11 235.131 1920.49 235.131 Q1923.87 235.131 1925.79 232.469 Q1927.74 229.784 1927.74 225.085 Z" fill="#000000" fill-rule="evenodd" fill-opacity="1" /><path clip-path="url(#clip280)" d="M1954.24 216.08 Q1953.52 215.664 1952.67 215.478 Q1951.83 215.27 1950.81 215.27 Q1947.2 215.27 1945.26 217.631 Q1943.34 219.969 1943.34 224.367 L1943.34 238.025 L1939.06 238.025 L1939.06 212.099 L1943.34 212.099 L1943.34 216.127 Q1944.68 213.766 1946.83 212.631 Q1948.99 211.474 1952.06 211.474 Q1952.5 211.474 1953.04 211.543 Q1953.57 211.59 1954.22 211.705 L1954.24 216.08 Z" fill="#000000" fill-rule="evenodd" fill-opacity="1" /><path clip-path="url(#clip280)" d="M1979.84 223.997 L1979.84 226.08 L1960.26 226.08 Q1960.54 230.478 1962.9 232.793 Q1965.28 235.085 1969.52 235.085 Q1971.97 235.085 1974.26 234.483 Q1976.58 233.881 1978.85 232.677 L1978.85 236.705 Q1976.56 237.677 1974.15 238.187 Q1971.74 238.696 1969.26 238.696 Q1963.06 238.696 1959.43 235.085 Q1955.81 231.474 1955.81 225.316 Q1955.81 218.951 1959.24 215.224 Q1962.69 211.474 1968.52 211.474 Q1973.75 211.474 1976.79 214.853 Q1979.84 218.21 1979.84 223.997 M1975.58 222.747 Q1975.54 219.252 1973.62 217.168 Q1971.72 215.085 1968.57 215.085 Q1965 215.085 1962.85 217.099 Q1960.72 219.113 1960.4 222.77 L1975.58 222.747 Z" fill="#000000" fill-rule="evenodd" fill-opacity="1" /><path clip-path="url(#clip280)" d="M2003.89 216.034 L2003.89 202.006 L2008.15 202.006 L2008.15 238.025 L2003.89 238.025 L2003.89 234.136 Q2002.55 236.451 2000.49 237.585 Q1998.45 238.696 1995.58 238.696 Q1990.88 238.696 1987.92 234.946 Q1984.98 231.196 1984.98 225.085 Q1984.98 218.974 1987.92 215.224 Q1990.88 211.474 1995.58 211.474 Q1998.45 211.474 2000.49 212.608 Q2002.55 213.719 2003.89 216.034 M1989.38 225.085 Q1989.38 229.784 1991.3 232.469 Q1993.24 235.131 1996.62 235.131 Q2000 235.131 2001.95 232.469 Q2003.89 229.784 2003.89 225.085 Q2003.89 220.386 2001.95 217.724 Q2000 215.039 1996.62 215.039 Q1993.24 215.039 1991.3 217.724 Q1989.38 220.386 1989.38 225.085 Z" fill="#000000" fill-rule="evenodd" fill-opacity="1" /><path clip-path="url(#clip280)" d="M2017.53 232.145 L2022.41 232.145 L2022.41 238.025 L2017.53 238.025 L2017.53 232.145 Z" fill="#000000" fill-rule="evenodd" fill-opacity="1" /><path clip-path="url(#clip280)" d="M2031.99 212.099 L2036.25 212.099 L2036.25 238.488 Q2036.25 243.441 2034.36 245.663 Q2032.48 247.886 2028.29 247.886 L2026.67 247.886 L2026.67 244.275 L2027.8 244.275 Q2030.24 244.275 2031.12 243.14 Q2031.99 242.029 2031.99 238.488 L2031.99 212.099 M2031.99 202.006 L2036.25 202.006 L2036.25 207.4 L2031.99 207.4 L2031.99 202.006 Z" fill="#000000" fill-rule="evenodd" fill-opacity="1" /><path clip-path="url(#clip280)" d="M2045.17 202.006 L2049.43 202.006 L2049.43 238.025 L2045.17 238.025 L2045.17 202.006 Z" fill="#000000" fill-rule="evenodd" fill-opacity="1" /><path clip-path="url(#clip280)" d="M2073.41 202.006 L2077.67 202.006 L2077.67 238.025 L2073.41 238.025 L2073.41 202.006 Z" fill="#000000" fill-rule="evenodd" fill-opacity="1" /><path clip-path="url(#clip280)" d="M2086.58 212.099 L2090.84 212.099 L2090.84 238.025 L2086.58 238.025 L2086.58 212.099 M2086.58 202.006 L2090.84 202.006 L2090.84 207.4 L2086.58 207.4 L2086.58 202.006 Z" fill="#000000" fill-rule="evenodd" fill-opacity="1" /><path clip-path="url(#clip280)" d="M2121.3 222.377 L2121.3 238.025 L2117.04 238.025 L2117.04 222.515 Q2117.04 218.835 2115.61 217.006 Q2114.17 215.178 2111.3 215.178 Q2107.85 215.178 2105.86 217.377 Q2103.87 219.576 2103.87 223.372 L2103.87 238.025 L2099.59 238.025 L2099.59 212.099 L2103.87 212.099 L2103.87 216.127 Q2105.4 213.789 2107.46 212.631 Q2109.54 211.474 2112.25 211.474 Q2116.72 211.474 2119.01 214.252 Q2121.3 217.006 2121.3 222.377 Z" fill="#000000" fill-rule="evenodd" fill-opacity="1" /><path clip-path="url(#clip280)" d="M2151.97 223.997 L2151.97 226.08 L2132.39 226.08 Q2132.67 230.478 2135.03 232.793 Q2137.41 235.085 2141.65 235.085 Q2144.1 235.085 2146.39 234.483 Q2148.71 233.881 2150.98 232.677 L2150.98 236.705 Q2148.68 237.677 2146.28 238.187 Q2143.87 238.696 2141.39 238.696 Q2135.19 238.696 2131.55 235.085 Q2127.94 231.474 2127.94 225.316 Q2127.94 218.951 2131.37 215.224 Q2134.82 211.474 2140.65 211.474 Q2145.88 211.474 2148.92 214.853 Q2151.97 218.21 2151.97 223.997 M2147.71 222.747 Q2147.67 219.252 2145.74 217.168 Q2143.85 215.085 2140.7 215.085 Q2137.13 215.085 2134.98 217.099 Q2132.85 219.113 2132.53 222.77 L2147.71 222.747 Z" fill="#000000" fill-rule="evenodd" fill-opacity="1" /><path clip-path="url(#clip280)" d="M2175.44 234.089 L2183.08 234.089 L2183.08 207.724 L2174.77 209.391 L2174.77 205.131 L2183.04 203.465 L2187.71 203.465 L2187.71 234.089 L2195.35 234.089 L2195.35 238.025 L2175.44 238.025 L2175.44 234.089 Z" fill="#000000" fill-rule="evenodd" fill-opacity="1" /><path clip-path="url(#clip280)" d="M2214.79 206.543 Q2211.18 206.543 2209.35 210.108 Q2207.55 213.65 2207.55 220.779 Q2207.55 227.886 2209.35 231.451 Q2211.18 234.992 2214.79 234.992 Q2218.43 234.992 2220.23 231.451 Q2222.06 227.886 2222.06 220.779 Q2222.06 213.65 2220.23 210.108 Q2218.43 206.543 2214.79 206.543 M2214.79 202.84 Q2220.6 202.84 2223.66 207.446 Q2226.74 212.029 2226.74 220.779 Q2226.74 229.506 2223.66 234.113 Q2220.6 238.696 2214.79 238.696 Q2208.98 238.696 2205.91 234.113 Q2202.85 229.506 2202.85 220.779 Q2202.85 212.029 2205.91 207.446 Q2208.98 202.84 2214.79 202.84 Z" fill="#000000" fill-rule="evenodd" fill-opacity="1" /><path clip-path="url(#clip280)" d="M2244.96 221.613 Q2241.62 221.613 2239.7 223.395 Q2237.8 225.177 2237.8 228.302 Q2237.8 231.427 2239.7 233.21 Q2241.62 234.992 2244.96 234.992 Q2248.29 234.992 2250.21 233.21 Q2252.13 231.404 2252.13 228.302 Q2252.13 225.177 2250.21 223.395 Q2248.31 221.613 2244.96 221.613 M2240.28 219.622 Q2237.27 218.881 2235.58 216.821 Q2233.91 214.761 2233.91 211.798 Q2233.91 207.654 2236.85 205.247 Q2239.82 202.84 2244.96 202.84 Q2250.12 202.84 2253.06 205.247 Q2256 207.654 2256 211.798 Q2256 214.761 2254.31 216.821 Q2252.64 218.881 2249.66 219.622 Q2253.04 220.409 2254.91 222.701 Q2256.81 224.992 2256.81 228.302 Q2256.81 233.326 2253.73 236.011 Q2250.67 238.696 2244.96 238.696 Q2239.24 238.696 2236.16 236.011 Q2233.1 233.326 2233.1 228.302 Q2233.1 224.992 2235 222.701 Q2236.9 220.409 2240.28 219.622 M2238.57 212.238 Q2238.57 214.923 2240.23 216.428 Q2241.92 217.932 2244.96 217.932 Q2247.97 217.932 2249.66 216.428 Q2251.37 214.923 2251.37 212.238 Q2251.37 209.553 2249.66 208.048 Q2247.97 206.543 2244.96 206.543 Q2241.92 206.543 2240.23 208.048 Q2238.57 209.553 2238.57 212.238 Z" fill="#000000" fill-rule="evenodd" fill-opacity="1" /><path clip-path="url(#clip280)" d="M1652.88 293.321 L1796.81 293.321 L1796.81 251.849 L1652.88 251.849 L1652.88 293.321  Z" fill="#e26f46" fill-rule="evenodd" fill-opacity="1"/>
<polyline clip-path="url(#clip280)" style="stroke:#000000; stroke-linecap:round; stroke-linejoin:round; stroke-width:4; stroke-opacity:1; fill:none" points="1652.88,293.321 1796.81,293.321 1796.81,251.849 1652.88,251.849 1652.88,293.321 "/>
<path clip-path="url(#clip280)" d="M1832.69 266.925 Q1829.26 266.925 1827.27 269.61 Q1825.28 272.272 1825.28 276.925 Q1825.28 281.578 1827.25 284.263 Q1829.24 286.925 1832.69 286.925 Q1836.09 286.925 1838.08 284.24 Q1840.07 281.555 1840.07 276.925 Q1840.07 272.318 1838.08 269.633 Q1836.09 266.925 1832.69 266.925 M1832.69 263.314 Q1838.25 263.314 1841.42 266.925 Q1844.59 270.536 1844.59 276.925 Q1844.59 283.291 1841.42 286.925 Q1838.25 290.536 1832.69 290.536 Q1827.11 290.536 1823.94 286.925 Q1820.79 283.291 1820.79 276.925 Q1820.79 270.536 1823.94 266.925 Q1827.11 263.314 1832.69 263.314 Z" fill="#000000" fill-rule="evenodd" fill-opacity="1" /><path clip-path="url(#clip280)" d="M1855.86 256.578 L1855.86 263.939 L1864.63 263.939 L1864.63 267.249 L1855.86 267.249 L1855.86 281.323 Q1855.86 284.494 1856.72 285.397 Q1857.6 286.3 1860.26 286.3 L1864.63 286.3 L1864.63 289.865 L1860.26 289.865 Q1855.33 289.865 1853.45 288.036 Q1851.58 286.184 1851.58 281.323 L1851.58 267.249 L1848.45 267.249 L1848.45 263.939 L1851.58 263.939 L1851.58 256.578 L1855.86 256.578 Z" fill="#000000" fill-rule="evenodd" fill-opacity="1" /><path clip-path="url(#clip280)" d="M1891.79 274.217 L1891.79 289.865 L1887.53 289.865 L1887.53 274.355 Q1887.53 270.675 1886.09 268.846 Q1884.66 267.018 1881.79 267.018 Q1878.34 267.018 1876.35 269.217 Q1874.36 271.416 1874.36 275.212 L1874.36 289.865 L1870.07 289.865 L1870.07 253.846 L1874.36 253.846 L1874.36 267.967 Q1875.88 265.629 1877.94 264.471 Q1880.03 263.314 1882.74 263.314 Q1887.2 263.314 1889.5 266.092 Q1891.79 268.846 1891.79 274.217 Z" fill="#000000" fill-rule="evenodd" fill-opacity="1" /><path clip-path="url(#clip280)" d="M1922.46 275.837 L1922.46 277.92 L1902.88 277.92 Q1903.15 282.318 1905.51 284.633 Q1907.9 286.925 1912.13 286.925 Q1914.59 286.925 1916.88 286.323 Q1919.19 285.721 1921.46 284.517 L1921.46 288.545 Q1919.17 289.517 1916.76 290.027 Q1914.36 290.536 1911.88 290.536 Q1905.68 290.536 1902.04 286.925 Q1898.43 283.314 1898.43 277.156 Q1898.43 270.791 1901.86 267.064 Q1905.31 263.314 1911.14 263.314 Q1916.37 263.314 1919.4 266.693 Q1922.46 270.05 1922.46 275.837 M1918.2 274.587 Q1918.15 271.092 1916.23 269.008 Q1914.33 266.925 1911.19 266.925 Q1907.62 266.925 1905.47 268.939 Q1903.34 270.953 1903.01 274.61 L1918.2 274.587 Z" fill="#000000" fill-rule="evenodd" fill-opacity="1" /><path clip-path="url(#clip280)" d="M1944.47 267.92 Q1943.75 267.504 1942.9 267.318 Q1942.06 267.11 1941.05 267.11 Q1937.44 267.11 1935.49 269.471 Q1933.57 271.809 1933.57 276.207 L1933.57 289.865 L1929.29 289.865 L1929.29 263.939 L1933.57 263.939 L1933.57 267.967 Q1934.91 265.606 1937.06 264.471 Q1939.22 263.314 1942.3 263.314 Q1942.74 263.314 1943.27 263.383 Q1943.8 263.43 1944.45 263.545 L1944.47 267.92 Z" fill="#000000" fill-rule="evenodd" fill-opacity="1" /><path clip-path="url(#clip280)" d="M1965.47 264.703 L1965.47 268.731 Q1963.66 267.805 1961.72 267.342 Q1959.77 266.879 1957.69 266.879 Q1954.52 266.879 1952.92 267.851 Q1951.35 268.823 1951.35 270.768 Q1951.35 272.249 1952.48 273.105 Q1953.62 273.939 1957.04 274.703 L1958.5 275.027 Q1963.04 275.999 1964.93 277.781 Q1966.86 279.541 1966.86 282.712 Q1966.86 286.323 1963.99 288.429 Q1961.14 290.536 1956.14 290.536 Q1954.06 290.536 1951.79 290.119 Q1949.54 289.726 1947.04 288.916 L1947.04 284.517 Q1949.4 285.744 1951.69 286.369 Q1953.99 286.971 1956.23 286.971 Q1959.24 286.971 1960.86 285.953 Q1962.48 284.911 1962.48 283.036 Q1962.48 281.3 1961.3 280.374 Q1960.14 279.448 1956.18 278.592 L1954.7 278.244 Q1950.75 277.411 1948.99 275.698 Q1947.23 273.962 1947.23 270.953 Q1947.23 267.295 1949.82 265.305 Q1952.41 263.314 1957.18 263.314 Q1959.54 263.314 1961.62 263.661 Q1963.71 264.008 1965.47 264.703 Z" fill="#000000" fill-rule="evenodd" fill-opacity="1" /><path clip-path="url(#clip280)" d="M1989.31 283.985 L1994.19 283.985 L1994.19 289.865 L1989.31 289.865 L1989.31 283.985 Z" fill="#000000" fill-rule="evenodd" fill-opacity="1" /><path clip-path="url(#clip280)" d="M2034.01 266.531 L2010.12 275.027 L2034.01 283.476 L2034.01 287.689 L2004.33 276.925 L2004.33 273.082 L2034.01 262.319 L2034.01 266.531 Z" fill="#000000" fill-rule="evenodd" fill-opacity="1" /><path clip-path="url(#clip280)" d="M2059.22 255.305 L2077.57 255.305 L2077.57 259.24 L2063.5 259.24 L2063.5 267.712 Q2064.52 267.365 2065.54 267.203 Q2066.55 267.018 2067.57 267.018 Q2073.36 267.018 2076.74 270.189 Q2080.12 273.36 2080.12 278.777 Q2080.12 284.355 2076.65 287.457 Q2073.18 290.536 2066.86 290.536 Q2064.68 290.536 2062.41 290.166 Q2060.17 289.795 2057.76 289.054 L2057.76 284.355 Q2059.84 285.49 2062.06 286.045 Q2064.29 286.601 2066.76 286.601 Q2070.77 286.601 2073.11 284.494 Q2075.44 282.388 2075.44 278.777 Q2075.44 275.166 2073.11 273.059 Q2070.77 270.953 2066.76 270.953 Q2064.89 270.953 2063.01 271.369 Q2061.16 271.786 2059.22 272.666 L2059.22 255.305 Z" fill="#000000" fill-rule="evenodd" fill-opacity="1" /><path clip-path="url(#clip280)" d="M2089.33 283.985 L2094.22 283.985 L2094.22 289.865 L2089.33 289.865 L2089.33 283.985 Z" fill="#000000" fill-rule="evenodd" fill-opacity="1" /><path clip-path="url(#clip280)" d="M2114.4 258.383 Q2110.79 258.383 2108.96 261.948 Q2107.16 265.49 2107.16 272.619 Q2107.16 279.726 2108.96 283.291 Q2110.79 286.832 2114.4 286.832 Q2118.04 286.832 2119.84 283.291 Q2121.67 279.726 2121.67 272.619 Q2121.67 265.49 2119.84 261.948 Q2118.04 258.383 2114.4 258.383 M2114.4 254.68 Q2120.21 254.68 2123.27 259.286 Q2126.35 263.869 2126.35 272.619 Q2126.35 281.346 2123.27 285.953 Q2120.21 290.536 2114.4 290.536 Q2108.59 290.536 2105.51 285.953 Q2102.46 281.346 2102.46 272.619 Q2102.46 263.869 2105.51 259.286 Q2108.59 254.68 2114.4 254.68 Z" fill="#000000" fill-rule="evenodd" fill-opacity="1" /></svg>
