<?xml version="1.0" encoding="utf-8"?>
<svg xmlns="http://www.w3.org/2000/svg" xmlns:xlink="http://www.w3.org/1999/xlink" width="600" height="400" viewBox="0 0 2400 1600">
<defs>
  <clipPath id="clip430">
    <rect x="0" y="0" width="2400" height="1600"/>
  </clipPath>
</defs>
<path clip-path="url(#clip430)" d="M0 1600 L2400 1600 L2400 0 L0 0  Z" fill="#ffffff" fill-rule="evenodd" fill-opacity="1"/>
<defs>
  <clipPath id="clip431">
    <rect x="480" y="0" width="1681" height="1600"/>
  </clipPath>
</defs>
<path clip-path="url(#clip430)" d="M193.936 1486.45 L2352.76 1486.45 L2352.76 123.472 L193.936 123.472  Z" fill="#ffffff" fill-rule="evenodd" fill-opacity="1"/>
<defs>
  <clipPath id="clip432">
    <rect x="193" y="123" width="2160" height="1364"/>
  </clipPath>
</defs>
<path clip-path="url(#clip430)" d="M743.852 12.096 L756.045 12.096 L771.479 53.2532 L786.994 12.096 L799.188 12.096 L799.188 72.576 L791.207 72.576 L791.207 19.4686 L775.611 60.9499 L767.388 60.9499 L751.792 19.4686 L751.792 72.576 L743.852 72.576 L743.852 12.096 Z" fill="#000000" fill-rule="nonzero" fill-opacity="1" /><path clip-path="url(#clip430)" d="M835.727 49.7694 Q826.693 49.7694 823.209 51.8354 Q819.726 53.9013 819.726 58.8839 Q819.726 62.8538 822.318 65.2034 Q824.951 67.5124 829.448 67.5124 Q835.646 67.5124 839.373 63.1374 Q843.14 58.7219 843.14 51.4303 L843.14 49.7694 L835.727 49.7694 M850.594 46.6907 L850.594 72.576 L843.14 72.576 L843.14 65.6895 Q840.588 69.8214 836.78 71.8063 Q832.972 73.7508 827.463 73.7508 Q820.495 73.7508 816.363 69.8619 Q812.272 65.9325 812.272 59.3701 Q812.272 51.7138 817.376 47.825 Q822.521 43.9361 832.689 43.9361 L843.14 43.9361 L843.14 43.2069 Q843.14 38.0623 839.737 35.2672 Q836.375 32.4315 830.258 32.4315 Q826.369 32.4315 822.683 33.3632 Q818.997 34.295 815.594 36.1584 L815.594 29.2718 Q819.685 27.692 823.534 26.9223 Q827.382 26.1121 831.028 26.1121 Q840.871 26.1121 845.733 31.2163 Q850.594 36.3204 850.594 46.6907 Z" fill="#000000" fill-rule="nonzero" fill-opacity="1" /><path clip-path="url(#clip430)" d="M865.947 9.54393 L873.4 9.54393 L873.4 72.576 L865.947 72.576 L865.947 9.54393 Z" fill="#000000" fill-rule="nonzero" fill-opacity="1" /><path clip-path="url(#clip430)" d="M888.996 9.54393 L896.45 9.54393 L896.45 72.576 L888.996 72.576 L888.996 9.54393 Z" fill="#000000" fill-rule="nonzero" fill-opacity="1" /><path clip-path="url(#clip430)" d="M929.627 32.4315 Q923.631 32.4315 920.148 37.1306 Q916.664 41.7891 916.664 49.9314 Q916.664 58.0738 920.107 62.7728 Q923.591 67.4314 929.627 67.4314 Q935.582 67.4314 939.065 62.7323 Q942.549 58.0333 942.549 49.9314 Q942.549 41.8701 939.065 37.1711 Q935.582 32.4315 929.627 32.4315 M929.627 26.1121 Q939.349 26.1121 944.899 32.4315 Q950.448 38.7509 950.448 49.9314 Q950.448 61.0714 944.899 67.4314 Q939.349 73.7508 929.627 73.7508 Q919.864 73.7508 914.314 67.4314 Q908.805 61.0714 908.805 49.9314 Q908.805 38.7509 914.314 32.4315 Q919.864 26.1121 929.627 26.1121 Z" fill="#000000" fill-rule="nonzero" fill-opacity="1" /><path clip-path="url(#clip430)" d="M995.454 28.9478 L995.454 35.9153 Q992.294 34.1734 989.094 33.3227 Q985.934 32.4315 982.694 32.4315 Q975.442 32.4315 971.432 37.0496 Q967.422 41.6271 967.422 49.9314 Q967.422 58.2358 971.432 62.8538 Q975.442 67.4314 982.694 67.4314 Q985.934 67.4314 989.094 66.5807 Q992.294 65.6895 995.454 63.9476 L995.454 70.8341 Q992.335 72.2924 988.972 73.0216 Q985.651 73.7508 981.883 73.7508 Q971.635 73.7508 965.599 67.3098 Q959.563 60.8689 959.563 49.9314 Q959.563 38.832 965.639 32.472 Q971.756 26.1121 982.37 26.1121 Q985.813 26.1121 989.094 26.8413 Q992.375 27.5299 995.454 28.9478 Z" fill="#000000" fill-rule="nonzero" fill-opacity="1" /><path clip-path="url(#clip430)" d="M1037.34 28.5427 L1037.34 35.5912 Q1034.18 33.9709 1030.78 33.1607 Q1027.38 32.3505 1023.73 32.3505 Q1018.18 32.3505 1015.38 34.0519 Q1012.63 35.7533 1012.63 39.156 Q1012.63 41.7486 1014.61 43.2475 Q1016.6 44.7058 1022.59 46.0426 L1025.15 46.6097 Q1033.09 48.3111 1036.41 51.4303 Q1039.77 54.509 1039.77 60.0587 Q1039.77 66.3781 1034.75 70.0644 Q1029.77 73.7508 1021.02 73.7508 Q1017.37 73.7508 1013.4 73.0216 Q1009.47 72.3329 1005.1 70.9151 L1005.1 63.2184 Q1009.23 65.3654 1013.24 66.4591 Q1017.25 67.5124 1021.18 67.5124 Q1026.44 67.5124 1029.28 65.73 Q1032.11 63.9071 1032.11 60.6258 Q1032.11 57.5877 1030.05 55.9673 Q1028.02 54.3469 1021.1 52.8481 L1018.5 52.2405 Q1011.58 50.7821 1008.5 47.7845 Q1005.42 44.7463 1005.42 39.4801 Q1005.42 33.0797 1009.96 29.5959 Q1014.49 26.1121 1022.84 26.1121 Q1026.97 26.1121 1030.62 26.7198 Q1034.26 27.3274 1037.34 28.5427 Z" fill="#000000" fill-rule="nonzero" fill-opacity="1" /><path clip-path="url(#clip430)" d="M1100.98 9.54393 L1100.98 15.7418 L1093.85 15.7418 Q1089.84 15.7418 1088.26 17.3622 Q1086.72 18.9825 1086.72 23.1955 L1086.72 27.2059 L1099 27.2059 L1099 32.9987 L1086.72 32.9987 L1086.72 72.576 L1079.23 72.576 L1079.23 32.9987 L1072.1 32.9987 L1072.1 27.2059 L1079.23 27.2059 L1079.23 24.0462 Q1079.23 16.471 1082.75 13.0277 Q1086.28 9.54393 1093.93 9.54393 L1100.98 9.54393 Z" fill="#000000" fill-rule="nonzero" fill-opacity="1" /><path clip-path="url(#clip430)" d="M1124.8 32.4315 Q1118.8 32.4315 1115.32 37.1306 Q1111.84 41.7891 1111.84 49.9314 Q1111.84 58.0738 1115.28 62.7728 Q1118.76 67.4314 1124.8 67.4314 Q1130.75 67.4314 1134.24 62.7323 Q1137.72 58.0333 1137.72 49.9314 Q1137.72 41.8701 1134.24 37.1711 Q1130.75 32.4315 1124.8 32.4315 M1124.8 26.1121 Q1134.52 26.1121 1140.07 32.4315 Q1145.62 38.7509 1145.62 49.9314 Q1145.62 61.0714 1140.07 67.4314 Q1134.52 73.7508 1124.8 73.7508 Q1115.04 73.7508 1109.49 67.4314 Q1103.98 61.0714 1103.98 49.9314 Q1103.98 38.7509 1109.49 32.4315 Q1115.04 26.1121 1124.8 26.1121 Z" fill="#000000" fill-rule="nonzero" fill-opacity="1" /><path clip-path="url(#clip430)" d="M1184.27 34.1734 Q1183.01 33.4443 1181.51 33.1202 Q1180.05 32.7556 1178.27 32.7556 Q1171.95 32.7556 1168.55 36.8875 Q1165.19 40.9789 1165.19 48.6757 L1165.19 72.576 L1157.69 72.576 L1157.69 27.2059 L1165.19 27.2059 L1165.19 34.2544 Q1167.54 30.1225 1171.3 28.1376 Q1175.07 26.1121 1180.46 26.1121 Q1181.23 26.1121 1182.16 26.2337 Q1183.09 26.3147 1184.23 26.5172 L1184.27 34.1734 Z" fill="#000000" fill-rule="nonzero" fill-opacity="1" /><path clip-path="url(#clip430)" d="M1260.02 63.9476 L1260.02 47.7034 L1246.65 47.7034 L1246.65 40.9789 L1268.12 40.9789 L1268.12 66.9452 Q1263.38 70.3075 1257.67 72.0494 Q1251.96 73.7508 1245.48 73.7508 Q1231.3 73.7508 1223.28 65.4869 Q1215.3 57.1826 1215.3 42.3968 Q1215.3 27.5705 1223.28 19.3066 Q1231.3 11.0023 1245.48 11.0023 Q1251.39 11.0023 1256.7 12.4606 Q1262.04 13.9189 1266.54 16.7545 L1266.54 25.464 Q1262 21.6156 1256.9 19.6712 Q1251.8 17.7268 1246.16 17.7268 Q1235.06 17.7268 1229.47 23.9246 Q1223.92 30.1225 1223.92 42.3968 Q1223.92 54.6305 1229.47 60.8284 Q1235.06 67.0263 1246.16 67.0263 Q1250.5 67.0263 1253.9 66.2971 Q1257.3 65.5274 1260.02 63.9476 Z" fill="#000000" fill-rule="nonzero" fill-opacity="1" /><path clip-path="url(#clip430)" d="M1283.07 12.096 L1291.25 12.096 L1291.25 65.6895 L1320.7 65.6895 L1320.7 72.576 L1283.07 72.576 L1283.07 12.096 Z" fill="#000000" fill-rule="nonzero" fill-opacity="1" /><path clip-path="url(#clip430)" d="M1329.29 12.096 L1341.48 12.096 L1356.92 53.2532 L1372.43 12.096 L1384.62 12.096 L1384.62 72.576 L1376.64 72.576 L1376.64 19.4686 L1361.05 60.9499 L1352.82 60.9499 L1337.23 19.4686 L1337.23 72.576 L1329.29 72.576 L1329.29 12.096 Z" fill="#000000" fill-rule="nonzero" fill-opacity="1" /><path clip-path="url(#clip430)" d="M1401.6 62.2867 L1410.14 62.2867 L1410.14 72.576 L1401.6 72.576 L1401.6 62.2867 Z" fill="#000000" fill-rule="nonzero" fill-opacity="1" /><path clip-path="url(#clip430)" d="M1426.92 27.2059 L1434.37 27.2059 L1434.37 73.3862 Q1434.37 82.0551 1431.05 85.944 Q1427.77 89.8329 1420.43 89.8329 L1417.6 89.8329 L1417.6 83.5134 L1419.58 83.5134 Q1423.84 83.5134 1425.38 81.5285 Q1426.92 79.5841 1426.92 73.3862 L1426.92 27.2059 M1426.92 9.54393 L1434.37 9.54393 L1434.37 18.9825 L1426.92 18.9825 L1426.92 9.54393 Z" fill="#000000" fill-rule="nonzero" fill-opacity="1" /><path clip-path="url(#clip430)" d="M1449.97 9.54393 L1457.42 9.54393 L1457.42 72.576 L1449.97 72.576 L1449.97 9.54393 Z" fill="#000000" fill-rule="nonzero" fill-opacity="1" /><path clip-path="url(#clip430)" d="M1496.06 50.8226 Q1496.06 56.6154 1498.94 59.9372 Q1501.82 63.2184 1506.84 63.2184 Q1511.82 63.2184 1514.66 59.8967 Q1517.53 56.5749 1517.53 50.8226 Q1517.53 45.1514 1514.62 41.8296 Q1511.7 38.4674 1506.76 38.4674 Q1501.86 38.4674 1498.94 41.7891 Q1496.06 45.1109 1496.06 50.8226 M1518.14 62.9348 Q1515.71 66.054 1512.55 67.5529 Q1509.43 69.0112 1505.26 69.0112 Q1498.29 69.0112 1493.92 63.9881 Q1489.58 58.9245 1489.58 50.8226 Q1489.58 42.7208 1493.96 37.6572 Q1498.33 32.5936 1505.26 32.5936 Q1509.43 32.5936 1512.59 34.1329 Q1515.75 35.6318 1518.14 38.7104 L1518.14 33.4038 L1523.93 33.4038 L1523.93 63.2184 Q1529.85 62.3272 1533.17 57.8307 Q1536.53 53.2937 1536.53 46.1236 Q1536.53 41.7891 1535.24 37.9813 Q1533.98 34.1734 1531.39 30.9327 Q1527.18 25.626 1521.1 22.8309 Q1515.06 19.9953 1507.93 19.9953 Q1502.95 19.9953 1498.37 21.3321 Q1493.8 22.6284 1489.91 25.2209 Q1483.55 29.3529 1479.94 36.0774 Q1476.38 42.7613 1476.38 50.5796 Q1476.38 57.0205 1478.69 62.6513 Q1481.04 68.282 1485.45 72.576 Q1489.7 76.7889 1495.29 78.9764 Q1500.89 81.2044 1507.25 81.2044 Q1512.47 81.2044 1517.49 79.422 Q1522.56 77.6801 1526.77 74.3989 L1530.42 78.8954 Q1525.35 82.8248 1519.36 84.8907 Q1513.4 86.9972 1507.25 86.9972 Q1499.75 86.9972 1493.11 84.3236 Q1486.46 81.6905 1481.28 76.6269 Q1476.09 71.5633 1473.38 64.9198 Q1470.67 58.2358 1470.67 50.5796 Q1470.67 43.2069 1473.42 36.523 Q1476.17 29.839 1481.28 24.7753 Q1486.5 19.6307 1493.35 16.9166 Q1500.2 14.162 1507.85 14.162 Q1516.44 14.162 1523.77 17.6862 Q1531.15 21.2105 1536.13 27.692 Q1539.17 31.6619 1540.75 36.3204 Q1542.37 40.9789 1542.37 45.9616 Q1542.37 56.6154 1535.93 62.7728 Q1529.48 68.9302 1518.14 69.1732 L1518.14 62.9348 Z" fill="#000000" fill-rule="nonzero" fill-opacity="1" /><path clip-path="url(#clip430)" d="M1550.63 27.2059 L1558.53 27.2059 L1572.71 65.2844 L1586.89 27.2059 L1594.79 27.2059 L1577.77 72.576 L1567.64 72.576 L1550.63 27.2059 Z" fill="#000000" fill-rule="nonzero" fill-opacity="1" /><path clip-path="url(#clip430)" d="M1607.55 65.6895 L1620.91 65.6895 L1620.91 19.5497 L1606.37 22.4663 L1606.37 15.0127 L1620.83 12.096 L1629.02 12.096 L1629.02 65.6895 L1642.38 65.6895 L1642.38 72.576 L1607.55 72.576 L1607.55 65.6895 Z" fill="#000000" fill-rule="nonzero" fill-opacity="1" /><path clip-path="url(#clip430)" d="M1658.91 62.2867 L1667.46 62.2867 L1667.46 72.576 L1658.91 72.576 L1658.91 62.2867 Z" fill="#000000" fill-rule="nonzero" fill-opacity="1" /><path clip-path="url(#clip430)" d="M1703.8 39.075 Q1698.29 39.075 1695.05 42.8424 Q1691.84 46.6097 1691.84 53.1722 Q1691.84 59.6941 1695.05 63.502 Q1698.29 67.2693 1703.8 67.2693 Q1709.3 67.2693 1712.5 63.502 Q1715.75 59.6941 1715.75 53.1722 Q1715.75 46.6097 1712.5 42.8424 Q1709.3 39.075 1703.8 39.075 M1720.04 13.4328 L1720.04 20.8865 Q1716.96 19.4281 1713.8 18.6585 Q1710.68 17.8888 1707.6 17.8888 Q1699.5 17.8888 1695.21 23.3575 Q1690.95 28.8262 1690.35 39.8852 Q1692.74 36.3609 1696.34 34.4975 Q1699.95 32.5936 1704.28 32.5936 Q1713.4 32.5936 1718.66 38.1433 Q1723.97 43.6525 1723.97 53.1722 Q1723.97 62.4892 1718.46 68.12 Q1712.95 73.7508 1703.8 73.7508 Q1693.3 73.7508 1687.75 65.73 Q1682.2 57.6687 1682.2 42.3968 Q1682.2 28.0566 1689.01 19.5497 Q1695.81 11.0023 1707.28 11.0023 Q1710.36 11.0023 1713.48 11.6099 Q1716.64 12.2175 1720.04 13.4328 Z" fill="#000000" fill-rule="nonzero" fill-opacity="1" /><path clip-path="url(#clip430)" d="M1738.07 62.2867 L1746.61 62.2867 L1746.61 72.576 L1738.07 72.576 L1738.07 62.2867 Z" fill="#000000" fill-rule="nonzero" fill-opacity="1" /><path clip-path="url(#clip430)" d="M1781.94 17.4837 Q1775.62 17.4837 1772.42 23.7221 Q1769.26 29.92 1769.26 42.3968 Q1769.26 54.833 1772.42 61.0714 Q1775.62 67.2693 1781.94 67.2693 Q1788.3 67.2693 1791.46 61.0714 Q1794.66 54.833 1794.66 42.3968 Q1794.66 29.92 1791.46 23.7221 Q1788.3 17.4837 1781.94 17.4837 M1781.94 11.0023 Q1792.1 11.0023 1797.45 19.0636 Q1802.84 27.0843 1802.84 42.3968 Q1802.84 57.6687 1797.45 65.73 Q1792.1 73.7508 1781.94 73.7508 Q1771.77 73.7508 1766.38 65.73 Q1761.03 57.6687 1761.03 42.3968 Q1761.03 27.0843 1766.38 19.0636 Q1771.77 11.0023 1781.94 11.0023 Z" fill="#000000" fill-rule="nonzero" fill-opacity="1" /><path clip-path="url(#clip432)" d="M1273.33 804.994 L1916.28 804.994 L1911.57 727.241 L1897.48 650.63 L1874.23 576.284 L1842.16 505.295 L1801.75 438.705 L1753.57 377.492 L1698.35 322.553 L1636.89 274.696 L1570.09 234.622 L1498.94 202.921 L1424.47 180.056 L1347.79 166.365 L1270.01 162.047 L1192.29 167.166 L1115.75 181.648 L1041.52 205.279 L970.702 237.712 L904.321 278.472 L843.357 326.961 L788.704 382.466 L741.164 444.172 L701.435 511.175 L670.1 582.491 L647.62 657.073 L634.324 733.825 L630.407 811.623 L635.927 889.323 L650.803 965.785 L674.816 1039.89 L707.614 1110.54 L748.716 1176.71 L797.518 1237.42 L853.304 1291.79 L915.255 1339.01 L982.462 1378.4 L1053.94 1409.36 L1128.63 1431.46 L1205.45 1444.36 L1283.27 1447.87 L1360.94 1441.95 L1437.33 1426.68 L1511.3 1402.29 L1581.79 1369.13 L1647.75 1327.68 L1708.21 1278.57 L1762.28 1222.5 L1809.19 1160.31 L1848.22 1092.9 L1878.82 1021.27 L1273.33 804.994  Z" fill="#009af9" fill-rule="evenodd" fill-opacity="1"/>
<polyline clip-path="url(#clip432)" style="stroke:#000000; stroke-linecap:round; stroke-linejoin:round; stroke-width:4; stroke-opacity:0.5; fill:none" points="1273.33,804.994 1916.28,804.994 1911.57,727.241 1897.48,650.63 1874.23,576.284 1842.16,505.295 1801.75,438.705 1753.57,377.492 1698.35,322.553 1636.89,274.696 1570.09,234.622 1498.94,202.921 1424.47,180.056 1347.79,166.365 1270.01,162.047 1192.29,167.166 1115.75,181.648 1041.52,205.279 970.702,237.712 904.321,278.472 843.357,326.961 788.704,382.466 741.164,444.172 701.435,511.175 670.1,582.491 647.62,657.073 634.324,733.825 630.407,811.623 635.927,889.323 650.803,965.785 674.816,1039.89 707.614,1110.54 748.716,1176.71 797.518,1237.42 853.304,1291.79 915.255,1339.01 982.462,1378.4 1053.94,1409.36 1128.63,1431.46 1205.45,1444.36 1283.27,1447.87 1360.94,1441.95 1437.33,1426.68 1511.3,1402.29 1581.79,1369.13 1647.75,1327.68 1708.21,1278.57 1762.28,1222.5 1809.19,1160.31 1848.22,1092.9 1878.82,1021.27 1273.33,804.994 "/>
<path clip-path="url(#clip432)" d="M1273.33 804.994 L1878.82 1021.27 L1880.32 1017.02 L1881.79 1012.77 L1883.23 1008.5 L1884.64 1004.23 L1886.02 999.942 L1887.37 995.648 L1888.69 991.344 L1889.98 987.032 L1891.24 982.71 L1892.47 978.379 L1893.66 974.04 L1894.83 969.693 L1895.97 965.338 L1897.08 960.975 L1898.15 956.604 L1899.2 952.226 L1900.22 947.84 L1901.2 943.448 L1902.15 939.049 L1903.08 934.643 L1903.97 930.231 L1904.83 925.812 L1905.66 921.388 L1906.46 916.958 L1907.23 912.523 L1907.97 908.082 L1908.67 903.636 L1909.35 899.186 L1909.99 894.73 L1910.6 890.271 L1911.19 885.807 L1911.74 881.339 L1912.25 876.868 L1912.74 872.393 L1913.2 867.914 L1913.62 863.433 L1914.02 858.949 L1914.38 854.462 L1914.71 849.972 L1915.01 845.481 L1915.28 840.987 L1915.51 836.492 L1915.72 831.995 L1915.89 827.497 L1916.03 822.998 L1916.14 818.498 L1916.22 813.997 L1916.27 809.496 L1916.28 804.994 L1273.33 804.994  Z" fill="#e26f46" fill-rule="evenodd" fill-opacity="1"/>
<polyline clip-path="url(#clip432)" style="stroke:#000000; stroke-linecap:round; stroke-linejoin:round; stroke-width:4; stroke-opacity:0.5; fill:none" points="1273.33,804.994 1878.82,1021.27 1880.32,1017.02 1881.79,1012.77 1883.23,1008.5 1884.64,1004.23 1886.02,999.942 1887.37,995.648 1888.69,991.344 1889.98,987.032 1891.24,982.71 1892.47,978.379 1893.66,974.04 1894.83,969.693 1895.97,965.338 1897.08,960.975 1898.15,956.604 1899.2,952.226 1900.22,947.84 1901.2,943.448 1902.15,939.049 1903.08,934.643 1903.97,930.231 1904.83,925.812 1905.66,921.388 1906.46,916.958 1907.23,912.523 1907.97,908.082 1908.67,903.636 1909.35,899.186 1909.99,894.73 1910.6,890.271 1911.19,885.807 1911.74,881.339 1912.25,876.868 1912.74,872.393 1913.2,867.914 1913.62,863.433 1914.02,858.949 1914.38,854.462 1914.71,849.972 1915.01,845.481 1915.28,840.987 1915.51,836.492 1915.72,831.995 1915.89,827.497 1916.03,822.998 1916.14,818.498 1916.22,813.997 1916.27,809.496 1916.28,804.994 1273.33,804.994 "/>
<path clip-path="url(#clip430)" d="M683.323 324.425 L2280.8 324.425 L2280.8 168.905 L683.323 168.905  Z" fill="#ffffff" fill-rule="evenodd" fill-opacity="1"/>
<polyline clip-path="url(#clip430)" style="stroke:#000000; stroke-linecap:round; stroke-linejoin:round; stroke-width:4; stroke-opacity:1; fill:none" points="683.323,324.425 2280.8,324.425 2280.8,168.905 683.323,168.905 683.323,324.425 "/>
<path clip-path="url(#clip430)" d="M707.31 241.481 L851.232 241.481 L851.232 200.009 L707.31 200.009 L707.31 241.481  Z" fill="#009af9" fill-rule="evenodd" fill-opacity="1"/>
<polyline clip-path="url(#clip430)" style="stroke:#000000; stroke-linecap:round; stroke-linejoin:round; stroke-width:4; stroke-opacity:1; fill:none" points="707.31,241.481 851.232,241.481 851.232,200.009 707.31,200.009 707.31,241.481 "/>
<path clip-path="url(#clip430)" d="M887.256 203.465 L891.191 203.465 L879.154 242.423 L875.219 242.423 L887.256 203.465 Z" fill="#000000" fill-rule="nonzero" fill-opacity="1" /><path clip-path="url(#clip430)" d="M917.209 222.377 L917.209 238.025 L912.95 238.025 L912.95 222.515 Q912.95 218.835 911.515 217.006 Q910.079 215.178 907.209 215.178 Q903.76 215.178 901.769 217.377 Q899.779 219.576 899.779 223.372 L899.779 238.025 L895.496 238.025 L895.496 202.006 L899.779 202.006 L899.779 216.127 Q901.306 213.789 903.367 212.631 Q905.45 211.474 908.158 211.474 Q912.626 211.474 914.917 214.252 Q917.209 217.006 917.209 222.377 Z" fill="#000000" fill-rule="nonzero" fill-opacity="1" /><path clip-path="url(#clip430)" d="M935.751 215.085 Q932.325 215.085 930.334 217.77 Q928.343 220.432 928.343 225.085 Q928.343 229.738 930.311 232.423 Q932.302 235.085 935.751 235.085 Q939.153 235.085 941.144 232.4 Q943.135 229.715 943.135 225.085 Q943.135 220.478 941.144 217.793 Q939.153 215.085 935.751 215.085 M935.751 211.474 Q941.306 211.474 944.477 215.085 Q947.649 218.696 947.649 225.085 Q947.649 231.451 944.477 235.085 Q941.306 238.696 935.751 238.696 Q930.172 238.696 927.001 235.085 Q923.853 231.451 923.853 225.085 Q923.853 218.696 927.001 215.085 Q930.172 211.474 935.751 211.474 Z" fill="#000000" fill-rule="nonzero" fill-opacity="1" /><path clip-path="url(#clip430)" d="M974.894 217.076 Q976.491 214.205 978.713 212.84 Q980.936 211.474 983.945 211.474 Q987.996 211.474 990.195 214.321 Q992.394 217.145 992.394 222.377 L992.394 238.025 L988.111 238.025 L988.111 222.515 Q988.111 218.789 986.792 216.983 Q985.473 215.178 982.764 215.178 Q979.454 215.178 977.533 217.377 Q975.612 219.576 975.612 223.372 L975.612 238.025 L971.329 238.025 L971.329 222.515 Q971.329 218.765 970.01 216.983 Q968.69 215.178 965.936 215.178 Q962.672 215.178 960.75 217.4 Q958.829 219.599 958.829 223.372 L958.829 238.025 L954.547 238.025 L954.547 212.099 L958.829 212.099 L958.829 216.127 Q960.288 213.742 962.325 212.608 Q964.362 211.474 967.162 211.474 Q969.987 211.474 971.954 212.909 Q973.945 214.344 974.894 217.076 Z" fill="#000000" fill-rule="nonzero" fill-opacity="1" /><path clip-path="url(#clip430)" d="M1023.06 223.997 L1023.06 226.08 L1003.48 226.08 Q1003.76 230.478 1006.12 232.793 Q1008.5 235.085 1012.74 235.085 Q1015.19 235.085 1017.49 234.483 Q1019.8 233.881 1022.07 232.677 L1022.07 236.705 Q1019.78 237.677 1017.37 238.187 Q1014.96 238.696 1012.49 238.696 Q1006.28 238.696 1002.65 235.085 Q999.037 231.474 999.037 225.316 Q999.037 218.951 1002.46 215.224 Q1005.91 211.474 1011.75 211.474 Q1016.98 211.474 1020.01 214.853 Q1023.06 218.21 1023.06 223.997 M1018.81 222.747 Q1018.76 219.252 1016.84 217.168 Q1014.94 215.085 1011.79 215.085 Q1008.23 215.085 1006.07 217.099 Q1003.94 219.113 1003.62 222.77 L1018.81 222.747 Z" fill="#000000" fill-rule="nonzero" fill-opacity="1" /><path clip-path="url(#clip430)" d="M1037.63 203.465 L1041.56 203.465 L1029.52 242.423 L1025.59 242.423 L1037.63 203.465 Z" fill="#000000" fill-rule="nonzero" fill-opacity="1" /><path clip-path="url(#clip430)" d="M1057.81 224.992 Q1052.65 224.992 1050.66 226.173 Q1048.67 227.353 1048.67 230.201 Q1048.67 232.469 1050.15 233.812 Q1051.65 235.131 1054.22 235.131 Q1057.76 235.131 1059.89 232.631 Q1062.05 230.108 1062.05 225.941 L1062.05 224.992 L1057.81 224.992 M1066.31 223.233 L1066.31 238.025 L1062.05 238.025 L1062.05 234.089 Q1060.59 236.451 1058.41 237.585 Q1056.24 238.696 1053.09 238.696 Q1049.11 238.696 1046.75 236.474 Q1044.41 234.228 1044.41 230.478 Q1044.41 226.103 1047.32 223.881 Q1050.26 221.659 1056.07 221.659 L1062.05 221.659 L1062.05 221.242 Q1062.05 218.303 1060.1 216.705 Q1058.18 215.085 1054.69 215.085 Q1052.46 215.085 1050.36 215.617 Q1048.25 216.15 1046.31 217.215 L1046.31 213.279 Q1048.64 212.377 1050.84 211.937 Q1053.04 211.474 1055.12 211.474 Q1060.75 211.474 1063.53 214.391 Q1066.31 217.307 1066.31 223.233 Z" fill="#000000" fill-rule="nonzero" fill-opacity="1" /><path clip-path="url(#clip430)" d="M1091.61 212.863 L1091.61 216.891 Q1089.8 215.965 1087.86 215.502 Q1085.91 215.039 1083.83 215.039 Q1080.66 215.039 1079.06 216.011 Q1077.49 216.983 1077.49 218.928 Q1077.49 220.409 1078.62 221.265 Q1079.75 222.099 1083.18 222.863 L1084.64 223.187 Q1089.18 224.159 1091.07 225.941 Q1093 227.701 1093 230.872 Q1093 234.483 1090.12 236.589 Q1087.28 238.696 1082.28 238.696 Q1080.19 238.696 1077.93 238.279 Q1075.68 237.886 1073.18 237.076 L1073.18 232.677 Q1075.54 233.904 1077.83 234.529 Q1080.12 235.131 1082.37 235.131 Q1085.38 235.131 1087 234.113 Q1088.62 233.071 1088.62 231.196 Q1088.62 229.46 1087.44 228.534 Q1086.28 227.608 1082.32 226.752 L1080.84 226.404 Q1076.88 225.571 1075.12 223.858 Q1073.37 222.122 1073.37 219.113 Q1073.37 215.455 1075.96 213.465 Q1078.55 211.474 1083.32 211.474 Q1085.68 211.474 1087.76 211.821 Q1089.85 212.168 1091.61 212.863 Z" fill="#000000" fill-rule="nonzero" fill-opacity="1" /><path clip-path="url(#clip430)" d="M1121.33 222.377 L1121.33 238.025 L1117.07 238.025 L1117.07 222.515 Q1117.07 218.835 1115.63 217.006 Q1114.2 215.178 1111.33 215.178 Q1107.88 215.178 1105.89 217.377 Q1103.9 219.576 1103.9 223.372 L1103.9 238.025 L1099.62 238.025 L1099.62 202.006 L1103.9 202.006 L1103.9 216.127 Q1105.43 213.789 1107.49 212.631 Q1109.57 211.474 1112.28 211.474 Q1116.75 211.474 1119.04 214.252 Q1121.33 217.006 1121.33 222.377 Z" fill="#000000" fill-rule="nonzero" fill-opacity="1" /><path clip-path="url(#clip430)" d="M1126.77 212.099 L1131.28 212.099 L1139.38 233.858 L1147.49 212.099 L1152 212.099 L1142.28 238.025 L1136.49 238.025 L1126.77 212.099 Z" fill="#000000" fill-rule="nonzero" fill-opacity="1" /><path clip-path="url(#clip430)" d="M1157.88 212.099 L1162.14 212.099 L1162.14 238.025 L1157.88 238.025 L1157.88 212.099 M1157.88 202.006 L1162.14 202.006 L1162.14 207.4 L1157.88 207.4 L1157.88 202.006 Z" fill="#000000" fill-rule="nonzero" fill-opacity="1" /><path clip-path="url(#clip430)" d="M1175.26 204.738 L1175.26 212.099 L1184.04 212.099 L1184.04 215.409 L1175.26 215.409 L1175.26 229.483 Q1175.26 232.654 1176.12 233.557 Q1177 234.46 1179.66 234.46 L1184.04 234.46 L1184.04 238.025 L1179.66 238.025 Q1174.73 238.025 1172.86 236.196 Q1170.98 234.344 1170.98 229.483 L1170.98 215.409 L1167.86 215.409 L1167.86 212.099 L1170.98 212.099 L1170.98 204.738 L1175.26 204.738 Z" fill="#000000" fill-rule="nonzero" fill-opacity="1" /><path clip-path="url(#clip430)" d="M1211.19 222.377 L1211.19 238.025 L1206.93 238.025 L1206.93 222.515 Q1206.93 218.835 1205.49 217.006 Q1204.06 215.178 1201.19 215.178 Q1197.74 215.178 1195.75 217.377 Q1193.76 219.576 1193.76 223.372 L1193.76 238.025 L1189.48 238.025 L1189.48 202.006 L1193.76 202.006 L1193.76 216.127 Q1195.29 213.789 1197.35 212.631 Q1199.43 211.474 1202.14 211.474 Q1206.61 211.474 1208.9 214.252 Q1211.19 217.006 1211.19 222.377 Z" fill="#000000" fill-rule="nonzero" fill-opacity="1" /><path clip-path="url(#clip430)" d="M1227.25 203.465 L1231.19 203.465 L1219.15 242.423 L1215.22 242.423 L1227.25 203.465 Z" fill="#000000" fill-rule="nonzero" fill-opacity="1" /><path clip-path="url(#clip430)" d="M1236.26 232.145 L1241.14 232.145 L1241.14 238.025 L1236.26 238.025 L1236.26 232.145 Z" fill="#000000" fill-rule="nonzero" fill-opacity="1" /><path clip-path="url(#clip430)" d="M1250.73 212.099 L1254.99 212.099 L1254.99 238.488 Q1254.99 243.441 1253.09 245.663 Q1251.21 247.886 1247.02 247.886 L1245.4 247.886 L1245.4 244.275 L1246.54 244.275 Q1248.97 244.275 1249.85 243.14 Q1250.73 242.029 1250.73 238.488 L1250.73 212.099 M1250.73 202.006 L1254.99 202.006 L1254.99 207.4 L1250.73 207.4 L1250.73 202.006 Z" fill="#000000" fill-rule="nonzero" fill-opacity="1" /><path clip-path="url(#clip430)" d="M1263.46 227.793 L1263.46 212.099 L1267.72 212.099 L1267.72 227.631 Q1267.72 231.312 1269.15 233.164 Q1270.59 234.992 1273.46 234.992 Q1276.91 234.992 1278.9 232.793 Q1280.91 230.594 1280.91 226.798 L1280.91 212.099 L1285.17 212.099 L1285.17 238.025 L1280.91 238.025 L1280.91 234.043 Q1279.36 236.404 1277.3 237.562 Q1275.26 238.696 1272.55 238.696 Q1268.09 238.696 1265.77 235.918 Q1263.46 233.14 1263.46 227.793 M1274.17 211.474 L1274.17 211.474 Z" fill="#000000" fill-rule="nonzero" fill-opacity="1" /><path clip-path="url(#clip430)" d="M1293.94 202.006 L1298.2 202.006 L1298.2 238.025 L1293.94 238.025 L1293.94 202.006 Z" fill="#000000" fill-rule="nonzero" fill-opacity="1" /><path clip-path="url(#clip430)" d="M1307.11 212.099 L1311.37 212.099 L1311.37 238.025 L1307.11 238.025 L1307.11 212.099 M1307.11 202.006 L1311.37 202.006 L1311.37 207.4 L1307.11 207.4 L1307.11 202.006 Z" fill="#000000" fill-rule="nonzero" fill-opacity="1" /><path clip-path="url(#clip430)" d="M1332.07 224.992 Q1326.91 224.992 1324.92 226.173 Q1322.92 227.353 1322.92 230.201 Q1322.92 232.469 1324.41 233.812 Q1325.91 235.131 1328.48 235.131 Q1332.02 235.131 1334.15 232.631 Q1336.3 230.108 1336.3 225.941 L1336.3 224.992 L1332.07 224.992 M1340.56 223.233 L1340.56 238.025 L1336.3 238.025 L1336.3 234.089 Q1334.85 236.451 1332.67 237.585 Q1330.49 238.696 1327.35 238.696 Q1323.36 238.696 1321 236.474 Q1318.67 234.228 1318.67 230.478 Q1318.67 226.103 1321.58 223.881 Q1324.52 221.659 1330.33 221.659 L1336.3 221.659 L1336.3 221.242 Q1336.3 218.303 1334.36 216.705 Q1332.44 215.085 1328.94 215.085 Q1326.72 215.085 1324.61 215.617 Q1322.51 216.15 1320.56 217.215 L1320.56 213.279 Q1322.9 212.377 1325.1 211.937 Q1327.3 211.474 1329.38 211.474 Q1335.01 211.474 1337.79 214.391 Q1340.56 217.307 1340.56 223.233 Z" fill="#000000" fill-rule="nonzero" fill-opacity="1" /><path clip-path="url(#clip430)" d="M1356.91 203.465 L1360.84 203.465 L1348.8 242.423 L1344.87 242.423 L1356.91 203.465 Z" fill="#000000" fill-rule="nonzero" fill-opacity="1" /><path clip-path="url(#clip430)" d="M1369.43 234.136 L1369.43 247.886 L1365.15 247.886 L1365.15 212.099 L1369.43 212.099 L1369.43 216.034 Q1370.77 213.719 1372.81 212.608 Q1374.87 211.474 1377.72 211.474 Q1382.44 211.474 1385.38 215.224 Q1388.34 218.974 1388.34 225.085 Q1388.34 231.196 1385.38 234.946 Q1382.44 238.696 1377.72 238.696 Q1374.87 238.696 1372.81 237.585 Q1370.77 236.451 1369.43 234.136 M1383.92 225.085 Q1383.92 220.386 1381.98 217.724 Q1380.05 215.039 1376.67 215.039 Q1373.29 215.039 1371.35 217.724 Q1369.43 220.386 1369.43 225.085 Q1369.43 229.784 1371.35 232.469 Q1373.29 235.131 1376.67 235.131 Q1380.05 235.131 1381.98 232.469 Q1383.92 229.784 1383.92 225.085 Z" fill="#000000" fill-rule="nonzero" fill-opacity="1" /><path clip-path="url(#clip430)" d="M1407.18 224.992 Q1402.02 224.992 1400.03 226.173 Q1398.04 227.353 1398.04 230.201 Q1398.04 232.469 1399.52 233.812 Q1401.03 235.131 1403.6 235.131 Q1407.14 235.131 1409.27 232.631 Q1411.42 230.108 1411.42 225.941 L1411.42 224.992 L1407.18 224.992 M1415.68 223.233 L1415.68 238.025 L1411.42 238.025 L1411.42 234.089 Q1409.96 236.451 1407.79 237.585 Q1405.61 238.696 1402.46 238.696 Q1398.48 238.696 1396.12 236.474 Q1393.78 234.228 1393.78 230.478 Q1393.78 226.103 1396.7 223.881 Q1399.64 221.659 1405.45 221.659 L1411.42 221.659 L1411.42 221.242 Q1411.42 218.303 1409.47 216.705 Q1407.55 215.085 1404.06 215.085 Q1401.84 215.085 1399.73 215.617 Q1397.62 216.15 1395.68 217.215 L1395.68 213.279 Q1398.02 212.377 1400.22 211.937 Q1402.41 211.474 1404.5 211.474 Q1410.12 211.474 1412.9 214.391 Q1415.68 217.307 1415.68 223.233 Z" fill="#000000" fill-rule="nonzero" fill-opacity="1" /><path clip-path="url(#clip430)" d="M1443.11 213.094 L1443.11 217.076 Q1441.3 216.08 1439.47 215.594 Q1437.67 215.085 1435.82 215.085 Q1431.67 215.085 1429.38 217.724 Q1427.09 220.34 1427.09 225.085 Q1427.09 229.83 1429.38 232.469 Q1431.67 235.085 1435.82 235.085 Q1437.67 235.085 1439.47 234.599 Q1441.3 234.089 1443.11 233.094 L1443.11 237.029 Q1441.33 237.863 1439.41 238.279 Q1437.51 238.696 1435.35 238.696 Q1429.5 238.696 1426.05 235.015 Q1422.6 231.335 1422.6 225.085 Q1422.6 218.742 1426.07 215.108 Q1429.57 211.474 1435.63 211.474 Q1437.6 211.474 1439.47 211.891 Q1441.35 212.284 1443.11 213.094 Z" fill="#000000" fill-rule="nonzero" fill-opacity="1" /><path clip-path="url(#clip430)" d="M1450.35 202.006 L1454.64 202.006 L1454.64 223.279 L1467.34 212.099 L1472.78 212.099 L1459.03 224.228 L1473.36 238.025 L1467.81 238.025 L1454.64 225.363 L1454.64 238.025 L1450.35 238.025 L1450.35 202.006 Z" fill="#000000" fill-rule="nonzero" fill-opacity="1" /><path clip-path="url(#clip430)" d="M1488.92 224.992 Q1483.76 224.992 1481.77 226.173 Q1479.78 227.353 1479.78 230.201 Q1479.78 232.469 1481.26 233.812 Q1482.76 235.131 1485.33 235.131 Q1488.87 235.131 1491 232.631 Q1493.16 230.108 1493.16 225.941 L1493.16 224.992 L1488.92 224.992 M1497.41 223.233 L1497.41 238.025 L1493.16 238.025 L1493.16 234.089 Q1491.7 236.451 1489.52 237.585 Q1487.34 238.696 1484.2 238.696 Q1480.22 238.696 1477.85 236.474 Q1475.52 234.228 1475.52 230.478 Q1475.52 226.103 1478.43 223.881 Q1481.37 221.659 1487.18 221.659 L1493.16 221.659 L1493.16 221.242 Q1493.16 218.303 1491.21 216.705 Q1489.29 215.085 1485.79 215.085 Q1483.57 215.085 1481.47 215.617 Q1479.36 216.15 1477.41 217.215 L1477.41 213.279 Q1479.75 212.377 1481.95 211.937 Q1484.15 211.474 1486.23 211.474 Q1491.86 211.474 1494.64 214.391 Q1497.41 217.307 1497.41 223.233 Z" fill="#000000" fill-rule="nonzero" fill-opacity="1" /><path clip-path="url(#clip430)" d="M1523.25 224.761 Q1523.25 220.131 1521.33 217.585 Q1519.43 215.039 1515.98 215.039 Q1512.55 215.039 1510.63 217.585 Q1508.73 220.131 1508.73 224.761 Q1508.73 229.367 1510.63 231.914 Q1512.55 234.46 1515.98 234.46 Q1519.43 234.46 1521.33 231.914 Q1523.25 229.367 1523.25 224.761 M1527.51 234.807 Q1527.51 241.427 1524.57 244.645 Q1521.63 247.886 1515.56 247.886 Q1513.32 247.886 1511.33 247.538 Q1509.34 247.214 1507.46 246.52 L1507.46 242.376 Q1509.34 243.395 1511.16 243.881 Q1512.99 244.367 1514.89 244.367 Q1519.08 244.367 1521.16 242.168 Q1523.25 239.992 1523.25 235.571 L1523.25 233.464 Q1521.93 235.756 1519.87 236.89 Q1517.81 238.025 1514.94 238.025 Q1510.17 238.025 1507.25 234.39 Q1504.34 230.756 1504.34 224.761 Q1504.34 218.742 1507.25 215.108 Q1510.17 211.474 1514.94 211.474 Q1517.81 211.474 1519.87 212.608 Q1521.93 213.742 1523.25 216.034 L1523.25 212.099 L1527.51 212.099 L1527.51 234.807 Z" fill="#000000" fill-rule="nonzero" fill-opacity="1" /><path clip-path="url(#clip430)" d="M1558.46 223.997 L1558.46 226.08 L1538.87 226.08 Q1539.15 230.478 1541.51 232.793 Q1543.9 235.085 1548.13 235.085 Q1550.59 235.085 1552.88 234.483 Q1555.19 233.881 1557.46 232.677 L1557.46 236.705 Q1555.17 237.677 1552.76 238.187 Q1550.35 238.696 1547.88 238.696 Q1541.67 238.696 1538.04 235.085 Q1534.43 231.474 1534.43 225.316 Q1534.43 218.951 1537.85 215.224 Q1541.3 211.474 1547.14 211.474 Q1552.37 211.474 1555.4 214.853 Q1558.46 218.21 1558.46 223.997 M1554.2 222.747 Q1554.15 219.252 1552.23 217.168 Q1550.33 215.085 1547.18 215.085 Q1543.62 215.085 1541.46 217.099 Q1539.34 219.113 1539.01 222.77 L1554.2 222.747 Z" fill="#000000" fill-rule="nonzero" fill-opacity="1" /><path clip-path="url(#clip430)" d="M1581.97 212.863 L1581.97 216.891 Q1580.17 215.965 1578.22 215.502 Q1576.28 215.039 1574.2 215.039 Q1571.02 215.039 1569.43 216.011 Q1567.85 216.983 1567.85 218.928 Q1567.85 220.409 1568.99 221.265 Q1570.12 222.099 1573.55 222.863 L1575.01 223.187 Q1579.54 224.159 1581.44 225.941 Q1583.36 227.701 1583.36 230.872 Q1583.36 234.483 1580.49 236.589 Q1577.65 238.696 1572.65 238.696 Q1570.56 238.696 1568.29 238.279 Q1566.05 237.886 1563.55 237.076 L1563.55 232.677 Q1565.91 233.904 1568.2 234.529 Q1570.49 235.131 1572.74 235.131 Q1575.75 235.131 1577.37 234.113 Q1578.99 233.071 1578.99 231.196 Q1578.99 229.46 1577.81 228.534 Q1576.65 227.608 1572.69 226.752 L1571.21 226.404 Q1567.25 225.571 1565.49 223.858 Q1563.73 222.122 1563.73 219.113 Q1563.73 215.455 1566.33 213.465 Q1568.92 211.474 1573.69 211.474 Q1576.05 211.474 1578.13 211.821 Q1580.21 212.168 1581.97 212.863 Z" fill="#000000" fill-rule="nonzero" fill-opacity="1" /><path clip-path="url(#clip430)" d="M1597.71 203.465 L1601.65 203.465 L1589.61 242.423 L1585.68 242.423 L1597.71 203.465 Z" fill="#000000" fill-rule="nonzero" fill-opacity="1" /><path clip-path="url(#clip430)" d="M1629.87 233.094 L1629.87 223.812 L1622.23 223.812 L1622.23 219.969 L1634.5 219.969 L1634.5 234.807 Q1631.79 236.728 1628.52 237.724 Q1625.26 238.696 1621.56 238.696 Q1613.46 238.696 1608.87 233.974 Q1604.31 229.228 1604.31 220.779 Q1604.31 212.307 1608.87 207.585 Q1613.46 202.84 1621.56 202.84 Q1624.94 202.84 1627.97 203.673 Q1631.02 204.506 1633.59 206.127 L1633.59 211.103 Q1631 208.904 1628.08 207.793 Q1625.17 206.682 1621.95 206.682 Q1615.61 206.682 1612.41 210.224 Q1609.24 213.766 1609.24 220.779 Q1609.24 227.77 1612.41 231.312 Q1615.61 234.853 1621.95 234.853 Q1624.43 234.853 1626.37 234.437 Q1628.32 233.997 1629.87 233.094 Z" fill="#000000" fill-rule="nonzero" fill-opacity="1" /><path clip-path="url(#clip430)" d="M1643.04 203.465 L1647.71 203.465 L1647.71 234.089 L1664.54 234.089 L1664.54 238.025 L1643.04 238.025 L1643.04 203.465 Z" fill="#000000" fill-rule="nonzero" fill-opacity="1" /><path clip-path="url(#clip430)" d="M1669.45 203.465 L1676.42 203.465 L1685.24 226.983 L1694.1 203.465 L1701.07 203.465 L1701.07 238.025 L1696.51 238.025 L1696.51 207.678 L1687.6 231.381 L1682.9 231.381 L1673.99 207.678 L1673.99 238.025 L1669.45 238.025 L1669.45 203.465 Z" fill="#000000" fill-rule="nonzero" fill-opacity="1" /><path clip-path="url(#clip430)" d="M1710.77 232.145 L1715.65 232.145 L1715.65 238.025 L1710.77 238.025 L1710.77 232.145 Z" fill="#000000" fill-rule="nonzero" fill-opacity="1" /><path clip-path="url(#clip430)" d="M1725.24 212.099 L1729.5 212.099 L1729.5 238.488 Q1729.5 243.441 1727.6 245.663 Q1725.72 247.886 1721.53 247.886 L1719.91 247.886 L1719.91 244.275 L1721.05 244.275 Q1723.48 244.275 1724.36 243.14 Q1725.24 242.029 1725.24 238.488 L1725.24 212.099 M1725.24 202.006 L1729.5 202.006 L1729.5 207.4 L1725.24 207.4 L1725.24 202.006 Z" fill="#000000" fill-rule="nonzero" fill-opacity="1" /><path clip-path="url(#clip430)" d="M1738.41 202.006 L1742.67 202.006 L1742.67 238.025 L1738.41 238.025 L1738.41 202.006 Z" fill="#000000" fill-rule="nonzero" fill-opacity="1" /><path clip-path="url(#clip430)" d="M1759.15 203.465 L1763.08 203.465 L1751.05 242.423 L1747.11 242.423 L1759.15 203.465 Z" fill="#000000" fill-rule="nonzero" fill-opacity="1" /><path clip-path="url(#clip430)" d="M1784.08 212.863 L1784.08 216.891 Q1782.27 215.965 1780.33 215.502 Q1778.38 215.039 1776.3 215.039 Q1773.13 215.039 1771.53 216.011 Q1769.96 216.983 1769.96 218.928 Q1769.96 220.409 1771.09 221.265 Q1772.23 222.099 1775.65 222.863 L1777.11 223.187 Q1781.65 224.159 1783.55 225.941 Q1785.47 227.701 1785.47 230.872 Q1785.47 234.483 1782.6 236.589 Q1779.75 238.696 1774.75 238.696 Q1772.67 238.696 1770.4 238.279 Q1768.15 237.886 1765.65 237.076 L1765.65 232.677 Q1768.01 233.904 1770.31 234.529 Q1772.6 235.131 1774.84 235.131 Q1777.85 235.131 1779.47 234.113 Q1781.09 233.071 1781.09 231.196 Q1781.09 229.46 1779.91 228.534 Q1778.76 227.608 1774.8 226.752 L1773.32 226.404 Q1769.36 225.571 1767.6 223.858 Q1765.84 222.122 1765.84 219.113 Q1765.84 215.455 1768.43 213.465 Q1771.02 211.474 1775.79 211.474 Q1778.15 211.474 1780.24 211.821 Q1782.32 212.168 1784.08 212.863 Z" fill="#000000" fill-rule="nonzero" fill-opacity="1" /><path clip-path="url(#clip430)" d="M1807.27 216.08 Q1806.56 215.664 1805.7 215.478 Q1804.87 215.27 1803.85 215.27 Q1800.24 215.27 1798.29 217.631 Q1796.37 219.969 1796.37 224.367 L1796.37 238.025 L1792.09 238.025 L1792.09 212.099 L1796.37 212.099 L1796.37 216.127 Q1797.71 213.766 1799.87 212.631 Q1802.02 211.474 1805.1 211.474 Q1805.54 211.474 1806.07 211.543 Q1806.6 211.59 1807.25 211.705 L1807.27 216.08 Z" fill="#000000" fill-rule="nonzero" fill-opacity="1" /><path clip-path="url(#clip430)" d="M1829.36 213.094 L1829.36 217.076 Q1827.55 216.08 1825.72 215.594 Q1823.92 215.085 1822.07 215.085 Q1817.92 215.085 1815.63 217.724 Q1813.34 220.34 1813.34 225.085 Q1813.34 229.83 1815.63 232.469 Q1817.92 235.085 1822.07 235.085 Q1823.92 235.085 1825.72 234.599 Q1827.55 234.089 1829.36 233.094 L1829.36 237.029 Q1827.57 237.863 1825.65 238.279 Q1823.76 238.696 1821.6 238.696 Q1815.75 238.696 1812.3 235.015 Q1808.85 231.335 1808.85 225.085 Q1808.85 218.742 1812.32 215.108 Q1815.82 211.474 1821.88 211.474 Q1823.85 211.474 1825.72 211.891 Q1827.6 212.284 1829.36 213.094 Z" fill="#000000" fill-rule="nonzero" fill-opacity="1" /><path clip-path="url(#clip430)" d="M1844.33 203.465 L1848.27 203.465 L1836.23 242.423 L1832.3 242.423 L1844.33 203.465 Z" fill="#000000" fill-rule="nonzero" fill-opacity="1" /><path clip-path="url(#clip430)" d="M1852.74 202.006 L1857 202.006 L1857 238.025 L1852.74 238.025 L1852.74 202.006 Z" fill="#000000" fill-rule="nonzero" fill-opacity="1" /><path clip-path="url(#clip430)" d="M1865.91 212.099 L1870.17 212.099 L1870.17 238.025 L1865.91 238.025 L1865.91 212.099 M1865.91 202.006 L1870.17 202.006 L1870.17 207.4 L1865.91 207.4 L1865.91 202.006 Z" fill="#000000" fill-rule="nonzero" fill-opacity="1" /><path clip-path="url(#clip430)" d="M1900.63 222.377 L1900.63 238.025 L1896.37 238.025 L1896.37 222.515 Q1896.37 218.835 1894.94 217.006 Q1893.5 215.178 1890.63 215.178 Q1887.18 215.178 1885.19 217.377 Q1883.2 219.576 1883.2 223.372 L1883.2 238.025 L1878.92 238.025 L1878.92 212.099 L1883.2 212.099 L1883.2 216.127 Q1884.73 213.789 1886.79 212.631 Q1888.87 211.474 1891.58 211.474 Q1896.05 211.474 1898.34 214.252 Q1900.63 217.006 1900.63 222.377 Z" fill="#000000" fill-rule="nonzero" fill-opacity="1" /><path clip-path="url(#clip430)" d="M1913.25 234.136 L1913.25 247.886 L1908.96 247.886 L1908.96 212.099 L1913.25 212.099 L1913.25 216.034 Q1914.59 213.719 1916.62 212.608 Q1918.69 211.474 1921.53 211.474 Q1926.25 211.474 1929.19 215.224 Q1932.16 218.974 1932.16 225.085 Q1932.16 231.196 1929.19 234.946 Q1926.25 238.696 1921.53 238.696 Q1918.69 238.696 1916.62 237.585 Q1914.59 236.451 1913.25 234.136 M1927.74 225.085 Q1927.74 220.386 1925.79 217.724 Q1923.87 215.039 1920.49 215.039 Q1917.11 215.039 1915.17 217.724 Q1913.25 220.386 1913.25 225.085 Q1913.25 229.784 1915.17 232.469 Q1917.11 235.131 1920.49 235.131 Q1923.87 235.131 1925.79 232.469 Q1927.74 229.784 1927.74 225.085 Z" fill="#000000" fill-rule="nonzero" fill-opacity="1" /><path clip-path="url(#clip430)" d="M1954.24 216.08 Q1953.52 215.664 1952.67 215.478 Q1951.83 215.27 1950.81 215.27 Q1947.2 215.27 1945.26 217.631 Q1943.34 219.969 1943.34 224.367 L1943.34 238.025 L1939.06 238.025 L1939.06 212.099 L1943.34 212.099 L1943.34 216.127 Q1944.68 213.766 1946.83 212.631 Q1948.99 211.474 1952.06 211.474 Q1952.5 211.474 1953.04 211.543 Q1953.57 211.59 1954.22 211.705 L1954.24 216.08 Z" fill="#000000" fill-rule="nonzero" fill-opacity="1" /><path clip-path="url(#clip430)" d="M1979.84 223.997 L1979.84 226.08 L1960.26 226.08 Q1960.54 230.478 1962.9 232.793 Q1965.28 235.085 1969.52 235.085 Q1971.97 235.085 1974.26 234.483 Q1976.58 233.881 1978.85 232.677 L1978.85 236.705 Q1976.56 237.677 1974.15 238.187 Q1971.74 238.696 1969.26 238.696 Q1963.06 238.696 1959.43 235.085 Q1955.81 231.474 1955.81 225.316 Q1955.81 218.951 1959.24 215.224 Q1962.69 211.474 1968.52 211.474 Q1973.75 211.474 1976.79 214.853 Q1979.84 218.21 1979.84 223.997 M1975.58 222.747 Q1975.54 219.252 1973.62 217.168 Q1971.72 215.085 1968.57 215.085 Q1965 215.085 1962.85 217.099 Q1960.72 219.113 1960.4 222.77 L1975.58 222.747 Z" fill="#000000" fill-rule="nonzero" fill-opacity="1" /><path clip-path="url(#clip430)" d="M2003.89 216.034 L2003.89 202.006 L2008.15 202.006 L2008.15 238.025 L2003.89 238.025 L2003.89 234.136 Q2002.55 236.451 2000.49 237.585 Q1998.45 238.696 1995.58 238.696 Q1990.88 238.696 1987.92 234.946 Q1984.98 231.196 1984.98 225.085 Q1984.98 218.974 1987.92 215.224 Q1990.88 211.474 1995.58 211.474 Q1998.45 211.474 2000.49 212.608 Q2002.55 213.719 2003.89 216.034 M1989.38 225.085 Q1989.38 229.784 1991.3 232.469 Q1993.24 235.131 1996.62 235.131 Q2000 235.131 2001.95 232.469 Q2003.89 229.784 2003.89 225.085 Q2003.89 220.386 2001.95 217.724 Q2000 215.039 1996.62 215.039 Q1993.24 215.039 1991.3 217.724 Q1989.38 220.386 1989.38 225.085 Z" fill="#000000" fill-rule="nonzero" fill-opacity="1" /><path clip-path="url(#clip430)" d="M2017.53 232.145 L2022.41 232.145 L2022.41 238.025 L2017.53 238.025 L2017.53 232.145 Z" fill="#000000" fill-rule="nonzero" fill-opacity="1" /><path clip-path="url(#clip430)" d="M2031.99 212.099 L2036.25 212.099 L2036.25 238.488 Q2036.25 243.441 2034.36 245.663 Q2032.48 247.886 2028.29 247.886 L2026.67 247.886 L2026.67 244.275 L2027.8 244.275 Q2030.24 244.275 2031.12 243.14 Q2031.99 242.029 2031.99 238.488 L2031.99 212.099 M2031.99 202.006 L2036.25 202.006 L2036.25 207.4 L2031.99 207.4 L2031.99 202.006 Z" fill="#000000" fill-rule="nonzero" fill-opacity="1" /><path clip-path="url(#clip430)" d="M2045.17 202.006 L2049.43 202.006 L2049.43 238.025 L2045.17 238.025 L2045.17 202.006 Z" fill="#000000" fill-rule="nonzero" fill-opacity="1" /><path clip-path="url(#clip430)" d="M2073.41 202.006 L2077.67 202.006 L2077.67 238.025 L2073.41 238.025 L2073.41 202.006 Z" fill="#000000" fill-rule="nonzero" fill-opacity="1" /><path clip-path="url(#clip430)" d="M2086.58 212.099 L2090.84 212.099 L2090.84 238.025 L2086.58 238.025 L2086.58 212.099 M2086.58 202.006 L2090.84 202.006 L2090.84 207.4 L2086.58 207.4 L2086.58 202.006 Z" fill="#000000" fill-rule="nonzero" fill-opacity="1" /><path clip-path="url(#clip430)" d="M2121.3 222.377 L2121.3 238.025 L2117.04 238.025 L2117.04 222.515 Q2117.04 218.835 2115.61 217.006 Q2114.17 215.178 2111.3 215.178 Q2107.85 215.178 2105.86 217.377 Q2103.87 219.576 2103.87 223.372 L2103.87 238.025 L2099.59 238.025 L2099.59 212.099 L2103.87 212.099 L2103.87 216.127 Q2105.4 213.789 2107.46 212.631 Q2109.54 211.474 2112.25 211.474 Q2116.72 211.474 2119.01 214.252 Q2121.3 217.006 2121.3 222.377 Z" fill="#000000" fill-rule="nonzero" fill-opacity="1" /><path clip-path="url(#clip430)" d="M2151.97 223.997 L2151.97 226.08 L2132.39 226.08 Q2132.67 230.478 2135.03 232.793 Q2137.41 235.085 2141.65 235.085 Q2144.1 235.085 2146.39 234.483 Q2148.71 233.881 2150.98 232.677 L2150.98 236.705 Q2148.68 237.677 2146.28 238.187 Q2143.87 238.696 2141.39 238.696 Q2135.19 238.696 2131.55 235.085 Q2127.94 231.474 2127.94 225.316 Q2127.94 218.951 2131.37 215.224 Q2134.82 211.474 2140.65 211.474 Q2145.88 211.474 2148.92 214.853 Q2151.97 218.21 2151.97 223.997 M2147.71 222.747 Q2147.67 219.252 2145.74 217.168 Q2143.85 215.085 2140.7 215.085 Q2137.13 215.085 2134.98 217.099 Q2132.85 219.113 2132.53 222.77 L2147.71 222.747 Z" fill="#000000" fill-rule="nonzero" fill-opacity="1" /><path clip-path="url(#clip430)" d="M2175.44 234.089 L2183.08 234.089 L2183.08 207.724 L2174.77 209.391 L2174.77 205.131 L2183.04 203.465 L2187.71 203.465 L2187.71 234.089 L2195.35 234.089 L2195.35 238.025 L2175.44 238.025 L2175.44 234.089 Z" fill="#000000" fill-rule="nonzero" fill-opacity="1" /><path clip-path="url(#clip430)" d="M2214.79 206.543 Q2211.18 206.543 2209.35 210.108 Q2207.55 213.65 2207.55 220.779 Q2207.55 227.886 2209.35 231.451 Q2211.18 234.992 2214.79 234.992 Q2218.43 234.992 2220.23 231.451 Q2222.06 227.886 2222.06 220.779 Q2222.06 213.65 2220.23 210.108 Q2218.43 206.543 2214.79 206.543 M2214.79 202.84 Q2220.6 202.84 2223.66 207.446 Q2226.74 212.029 2226.74 220.779 Q2226.74 229.506 2223.66 234.113 Q2220.6 238.696 2214.79 238.696 Q2208.98 238.696 2205.91 234.113 Q2202.85 229.506 2202.85 220.779 Q2202.85 212.029 2205.91 207.446 Q2208.98 202.84 2214.79 202.84 Z" fill="#000000" fill-rule="nonzero" fill-opacity="1" /><path clip-path="url(#clip430)" d="M2244.96 221.613 Q2241.62 221.613 2239.7 223.395 Q2237.8 225.177 2237.8 228.302 Q2237.8 231.427 2239.7 233.21 Q2241.62 234.992 2244.96 234.992 Q2248.29 234.992 2250.21 233.21 Q2252.13 231.404 2252.13 228.302 Q2252.13 225.177 2250.21 223.395 Q2248.31 221.613 2244.96 221.613 M2240.28 219.622 Q2237.27 218.881 2235.58 216.821 Q2233.91 214.761 2233.91 211.798 Q2233.91 207.654 2236.85 205.247 Q2239.82 202.84 2244.96 202.84 Q2250.12 202.84 2253.06 205.247 Q2256 207.654 2256 211.798 Q2256 214.761 2254.31 216.821 Q2252.64 218.881 2249.66 219.622 Q2253.04 220.409 2254.91 222.701 Q2256.81 224.992 2256.81 228.302 Q2256.81 233.326 2253.73 236.011 Q2250.67 238.696 2244.96 238.696 Q2239.24 238.696 2236.16 236.011 Q2233.1 233.326 2233.1 228.302 Q2233.1 224.992 2235 222.701 Q2236.9 220.409 2240.28 219.622 M2238.57 212.238 Q2238.57 214.923 2240.23 216.428 Q2241.92 217.932 2244.96 217.932 Q2247.97 217.932 2249.66 216.428 Q2251.37 214.923 2251.37 212.238 Q2251.37 209.553 2249.66 208.048 Q2247.97 206.543 2244.96 206.543 Q2241.92 206.543 2240.23 208.048 Q2238.57 209.553 2238.57 212.238 Z" fill="#000000" fill-rule="nonzero" fill-opacity="1" /><path clip-path="url(#clip430)" d="M707.31 293.321 L851.232 293.321 L851.232 251.849 L707.31 251.849 L707.31 293.321  Z" fill="#e26f46" fill-rule="evenodd" fill-opacity="1"/>
<polyline clip-path="url(#clip430)" style="stroke:#000000; stroke-linecap:round; stroke-linejoin:round; stroke-width:4; stroke-opacity:1; fill:none" points="707.31,293.321 851.232,293.321 851.232,251.849 707.31,251.849 707.31,293.321 "/>
<path clip-path="url(#clip430)" d="M887.117 266.925 Q883.691 266.925 881.7 269.61 Q879.709 272.272 879.709 276.925 Q879.709 281.578 881.677 284.263 Q883.668 286.925 887.117 286.925 Q890.519 286.925 892.51 284.24 Q894.501 281.555 894.501 276.925 Q894.501 272.318 892.51 269.633 Q890.519 266.925 887.117 266.925 M887.117 263.314 Q892.672 263.314 895.843 266.925 Q899.015 270.536 899.015 276.925 Q899.015 283.291 895.843 286.925 Q892.672 290.536 887.117 290.536 Q881.538 290.536 878.367 286.925 Q875.219 283.291 875.219 276.925 Q875.219 270.536 878.367 266.925 Q881.538 263.314 887.117 263.314 Z" fill="#000000" fill-rule="nonzero" fill-opacity="1" /><path clip-path="url(#clip430)" d="M910.288 256.578 L910.288 263.939 L919.061 263.939 L919.061 267.249 L910.288 267.249 L910.288 281.323 Q910.288 284.494 911.144 285.397 Q912.024 286.3 914.686 286.3 L919.061 286.3 L919.061 289.865 L914.686 289.865 Q909.755 289.865 907.88 288.036 Q906.005 286.184 906.005 281.323 L906.005 267.249 L902.88 267.249 L902.88 263.939 L906.005 263.939 L906.005 256.578 L910.288 256.578 Z" fill="#000000" fill-rule="nonzero" fill-opacity="1" /><path clip-path="url(#clip430)" d="M946.214 274.217 L946.214 289.865 L941.954 289.865 L941.954 274.355 Q941.954 270.675 940.519 268.846 Q939.084 267.018 936.214 267.018 Q932.765 267.018 930.774 269.217 Q928.783 271.416 928.783 275.212 L928.783 289.865 L924.501 289.865 L924.501 253.846 L928.783 253.846 L928.783 267.967 Q930.311 265.629 932.371 264.471 Q934.454 263.314 937.163 263.314 Q941.63 263.314 943.922 266.092 Q946.214 268.846 946.214 274.217 Z" fill="#000000" fill-rule="nonzero" fill-opacity="1" /><path clip-path="url(#clip430)" d="M976.885 275.837 L976.885 277.92 L957.301 277.92 Q957.579 282.318 959.94 284.633 Q962.325 286.925 966.561 286.925 Q969.014 286.925 971.306 286.323 Q973.621 285.721 975.889 284.517 L975.889 288.545 Q973.598 289.517 971.19 290.027 Q968.783 290.536 966.306 290.536 Q960.102 290.536 956.468 286.925 Q952.857 283.314 952.857 277.156 Q952.857 270.791 956.283 267.064 Q959.732 263.314 965.565 263.314 Q970.797 263.314 973.829 266.693 Q976.885 270.05 976.885 275.837 M972.625 274.587 Q972.579 271.092 970.658 269.008 Q968.76 266.925 965.612 266.925 Q962.047 266.925 959.894 268.939 Q957.764 270.953 957.44 274.61 L972.625 274.587 Z" fill="#000000" fill-rule="nonzero" fill-opacity="1" /><path clip-path="url(#clip430)" d="M998.898 267.92 Q998.181 267.504 997.324 267.318 Q996.491 267.11 995.473 267.11 Q991.861 267.11 989.917 269.471 Q987.996 271.809 987.996 276.207 L987.996 289.865 L983.713 289.865 L983.713 263.939 L987.996 263.939 L987.996 267.967 Q989.338 265.606 991.491 264.471 Q993.644 263.314 996.723 263.314 Q997.162 263.314 997.695 263.383 Q998.227 263.43 998.875 263.545 L998.898 267.92 Z" fill="#000000" fill-rule="nonzero" fill-opacity="1" /><path clip-path="url(#clip430)" d="M1019.89 264.703 L1019.89 268.731 Q1018.09 267.805 1016.14 267.342 Q1014.2 266.879 1012.12 266.879 Q1008.94 266.879 1007.35 267.851 Q1005.77 268.823 1005.77 270.768 Q1005.77 272.249 1006.91 273.105 Q1008.04 273.939 1011.47 274.703 L1012.93 275.027 Q1017.46 275.999 1019.36 277.781 Q1021.28 279.541 1021.28 282.712 Q1021.28 286.323 1018.41 288.429 Q1015.57 290.536 1010.57 290.536 Q1008.48 290.536 1006.21 290.119 Q1003.97 289.726 1001.47 288.916 L1001.47 284.517 Q1003.83 285.744 1006.12 286.369 Q1008.41 286.971 1010.66 286.971 Q1013.67 286.971 1015.29 285.953 Q1016.91 284.911 1016.91 283.036 Q1016.91 281.3 1015.73 280.374 Q1014.57 279.448 1010.61 278.592 L1009.13 278.244 Q1005.17 277.411 1003.41 275.698 Q1001.65 273.962 1001.65 270.953 Q1001.65 267.295 1004.25 265.305 Q1006.84 263.314 1011.61 263.314 Q1013.97 263.314 1016.05 263.661 Q1018.13 264.008 1019.89 264.703 Z" fill="#000000" fill-rule="nonzero" fill-opacity="1" /><path clip-path="url(#clip430)" d="M1043.74 283.985 L1048.62 283.985 L1048.62 289.865 L1043.74 289.865 L1043.74 283.985 Z" fill="#000000" fill-rule="nonzero" fill-opacity="1" /><path clip-path="url(#clip430)" d="M1088.43 266.531 L1064.55 275.027 L1088.43 283.476 L1088.43 287.689 L1058.76 276.925 L1058.76 273.082 L1088.43 262.319 L1088.43 266.531 Z" fill="#000000" fill-rule="nonzero" fill-opacity="1" /><path clip-path="url(#clip430)" d="M1113.64 255.305 L1132 255.305 L1132 259.24 L1117.93 259.24 L1117.93 267.712 Q1118.94 267.365 1119.96 267.203 Q1120.98 267.018 1122 267.018 Q1127.79 267.018 1131.17 270.189 Q1134.55 273.36 1134.55 278.777 Q1134.55 284.355 1131.07 287.457 Q1127.6 290.536 1121.28 290.536 Q1119.11 290.536 1116.84 290.166 Q1114.59 289.795 1112.18 289.054 L1112.18 284.355 Q1114.27 285.49 1116.49 286.045 Q1118.71 286.601 1121.19 286.601 Q1125.19 286.601 1127.53 284.494 Q1129.87 282.388 1129.87 278.777 Q1129.87 275.166 1127.53 273.059 Q1125.19 270.953 1121.19 270.953 Q1119.31 270.953 1117.44 271.369 Q1115.59 271.786 1113.64 272.666 L1113.64 255.305 Z" fill="#000000" fill-rule="nonzero" fill-opacity="1" /><path clip-path="url(#clip430)" d="M1143.76 283.985 L1148.64 283.985 L1148.64 289.865 L1143.76 289.865 L1143.76 283.985 Z" fill="#000000" fill-rule="nonzero" fill-opacity="1" /><path clip-path="url(#clip430)" d="M1168.83 258.383 Q1165.22 258.383 1163.39 261.948 Q1161.58 265.49 1161.58 272.619 Q1161.58 279.726 1163.39 283.291 Q1165.22 286.832 1168.83 286.832 Q1172.46 286.832 1174.27 283.291 Q1176.1 279.726 1176.1 272.619 Q1176.1 265.49 1174.27 261.948 Q1172.46 258.383 1168.83 258.383 M1168.83 254.68 Q1174.64 254.68 1177.69 259.286 Q1180.77 263.869 1180.77 272.619 Q1180.77 281.346 1177.69 285.953 Q1174.64 290.536 1168.83 290.536 Q1163.02 290.536 1159.94 285.953 Q1156.88 281.346 1156.88 272.619 Q1156.88 263.869 1159.94 259.286 Q1163.02 254.68 1168.83 254.68 Z" fill="#000000" fill-rule="nonzero" fill-opacity="1" /></svg>
