<?xml version="1.0" encoding="utf-8"?>
<svg xmlns="http://www.w3.org/2000/svg" xmlns:xlink="http://www.w3.org/1999/xlink" width="600" height="400" viewBox="0 0 2400 1600">
<defs>
  <clipPath id="clip310">
    <rect x="0" y="0" width="2400" height="1600"/>
  </clipPath>
</defs>
<path clip-path="url(#clip310)" d="M0 1600 L2400 1600 L2400 0 L0 0  Z" fill="#ffffff" fill-rule="evenodd" fill-opacity="1"/>
<defs>
  <clipPath id="clip311">
    <rect x="480" y="0" width="1681" height="1600"/>
  </clipPath>
</defs>
<path clip-path="url(#clip310)" d="M368.613 1423.18 L2352.76 1423.18 L2352.76 183.952 L368.613 183.952  Z" fill="#ffffff" fill-rule="evenodd" fill-opacity="1"/>
<defs>
  <clipPath id="clip312">
    <rect x="368" y="183" width="1985" height="1240"/>
  </clipPath>
</defs>
<polyline clip-path="url(#clip312)" style="stroke:#000000; stroke-linecap:round; stroke-linejoin:round; stroke-width:2; stroke-opacity:0.1; fill:none" points="424.768,1423.18 424.768,183.952 "/>
<polyline clip-path="url(#clip312)" style="stroke:#000000; stroke-linecap:round; stroke-linejoin:round; stroke-width:2; stroke-opacity:0.1; fill:none" points="658.747,1423.18 658.747,183.952 "/>
<polyline clip-path="url(#clip312)" style="stroke:#000000; stroke-linecap:round; stroke-linejoin:round; stroke-width:2; stroke-opacity:0.1; fill:none" points="892.726,1423.18 892.726,183.952 "/>
<polyline clip-path="url(#clip312)" style="stroke:#000000; stroke-linecap:round; stroke-linejoin:round; stroke-width:2; stroke-opacity:0.1; fill:none" points="1126.71,1423.18 1126.71,183.952 "/>
<polyline clip-path="url(#clip312)" style="stroke:#000000; stroke-linecap:round; stroke-linejoin:round; stroke-width:2; stroke-opacity:0.1; fill:none" points="1360.68,1423.18 1360.68,183.952 "/>
<polyline clip-path="url(#clip312)" style="stroke:#000000; stroke-linecap:round; stroke-linejoin:round; stroke-width:2; stroke-opacity:0.1; fill:none" points="1594.66,1423.18 1594.66,183.952 "/>
<polyline clip-path="url(#clip312)" style="stroke:#000000; stroke-linecap:round; stroke-linejoin:round; stroke-width:2; stroke-opacity:0.1; fill:none" points="1828.64,1423.18 1828.64,183.952 "/>
<polyline clip-path="url(#clip312)" style="stroke:#000000; stroke-linecap:round; stroke-linejoin:round; stroke-width:2; stroke-opacity:0.1; fill:none" points="2062.62,1423.18 2062.62,183.952 "/>
<polyline clip-path="url(#clip312)" style="stroke:#000000; stroke-linecap:round; stroke-linejoin:round; stroke-width:2; stroke-opacity:0.1; fill:none" points="2296.6,1423.18 2296.6,183.952 "/>
<polyline clip-path="url(#clip310)" style="stroke:#000000; stroke-linecap:round; stroke-linejoin:round; stroke-width:4; stroke-opacity:1; fill:none" points="368.613,1423.18 2352.76,1423.18 "/>
<polyline clip-path="url(#clip310)" style="stroke:#000000; stroke-linecap:round; stroke-linejoin:round; stroke-width:4; stroke-opacity:1; fill:none" points="424.768,1423.18 424.768,1404.28 "/>
<polyline clip-path="url(#clip310)" style="stroke:#000000; stroke-linecap:round; stroke-linejoin:round; stroke-width:4; stroke-opacity:1; fill:none" points="658.747,1423.18 658.747,1404.28 "/>
<polyline clip-path="url(#clip310)" style="stroke:#000000; stroke-linecap:round; stroke-linejoin:round; stroke-width:4; stroke-opacity:1; fill:none" points="892.726,1423.18 892.726,1404.28 "/>
<polyline clip-path="url(#clip310)" style="stroke:#000000; stroke-linecap:round; stroke-linejoin:round; stroke-width:4; stroke-opacity:1; fill:none" points="1126.71,1423.18 1126.71,1404.28 "/>
<polyline clip-path="url(#clip310)" style="stroke:#000000; stroke-linecap:round; stroke-linejoin:round; stroke-width:4; stroke-opacity:1; fill:none" points="1360.68,1423.18 1360.68,1404.28 "/>
<polyline clip-path="url(#clip310)" style="stroke:#000000; stroke-linecap:round; stroke-linejoin:round; stroke-width:4; stroke-opacity:1; fill:none" points="1594.66,1423.18 1594.66,1404.28 "/>
<polyline clip-path="url(#clip310)" style="stroke:#000000; stroke-linecap:round; stroke-linejoin:round; stroke-width:4; stroke-opacity:1; fill:none" points="1828.64,1423.18 1828.64,1404.28 "/>
<polyline clip-path="url(#clip310)" style="stroke:#000000; stroke-linecap:round; stroke-linejoin:round; stroke-width:4; stroke-opacity:1; fill:none" points="2062.62,1423.18 2062.62,1404.28 "/>
<polyline clip-path="url(#clip310)" style="stroke:#000000; stroke-linecap:round; stroke-linejoin:round; stroke-width:4; stroke-opacity:1; fill:none" points="2296.6,1423.18 2296.6,1404.28 "/>
<path clip-path="url(#clip310)" d="M369.398 1481.64 L377.036 1481.64 L377.036 1455.28 L368.726 1456.95 L368.726 1452.69 L376.99 1451.02 L381.666 1451.02 L381.666 1481.64 L389.305 1481.64 L389.305 1485.58 L369.398 1485.58 L369.398 1481.64 Z" fill="#000000" fill-rule="evenodd" fill-opacity="1" /><path clip-path="url(#clip310)" d="M398.749 1479.7 L403.633 1479.7 L403.633 1485.58 L398.749 1485.58 L398.749 1479.7 Z" fill="#000000" fill-rule="evenodd" fill-opacity="1" /><path clip-path="url(#clip310)" d="M427.985 1466.95 Q431.342 1467.66 433.217 1469.93 Q435.115 1472.2 435.115 1475.53 Q435.115 1480.65 431.596 1483.45 Q428.078 1486.25 421.596 1486.25 Q419.42 1486.25 417.106 1485.81 Q414.814 1485.39 412.36 1484.54 L412.36 1480.02 Q414.305 1481.16 416.619 1481.74 Q418.934 1482.32 421.457 1482.32 Q425.856 1482.32 428.147 1480.58 Q430.462 1478.84 430.462 1475.53 Q430.462 1472.48 428.309 1470.77 Q426.18 1469.03 422.36 1469.03 L418.332 1469.03 L418.332 1465.19 L422.545 1465.19 Q425.994 1465.19 427.823 1463.82 Q429.652 1462.43 429.652 1459.84 Q429.652 1457.18 427.754 1455.77 Q425.879 1454.33 422.36 1454.33 Q420.439 1454.33 418.24 1454.75 Q416.041 1455.16 413.402 1456.04 L413.402 1451.88 Q416.064 1451.14 418.379 1450.77 Q420.717 1450.39 422.777 1450.39 Q428.101 1450.39 431.203 1452.83 Q434.305 1455.23 434.305 1459.35 Q434.305 1462.22 432.661 1464.21 Q431.018 1466.18 427.985 1466.95 Z" fill="#000000" fill-rule="evenodd" fill-opacity="1" /><path clip-path="url(#clip310)" d="M443.98 1479.7 L448.865 1479.7 L448.865 1485.58 L443.98 1485.58 L443.98 1479.7 Z" fill="#000000" fill-rule="evenodd" fill-opacity="1" /><path clip-path="url(#clip310)" d="M459.189 1484.86 L459.189 1480.6 Q460.948 1481.44 462.753 1481.88 Q464.559 1482.32 466.295 1482.32 Q470.925 1482.32 473.355 1479.21 Q475.809 1476.09 476.156 1469.75 Q474.814 1471.74 472.753 1472.8 Q470.693 1473.87 468.193 1473.87 Q463.008 1473.87 459.976 1470.74 Q456.966 1467.59 456.966 1462.15 Q456.966 1456.83 460.115 1453.61 Q463.263 1450.39 468.494 1450.39 Q474.49 1450.39 477.638 1455 Q480.809 1459.58 480.809 1468.33 Q480.809 1476.51 476.92 1481.39 Q473.054 1486.25 466.503 1486.25 Q464.744 1486.25 462.939 1485.9 Q461.133 1485.56 459.189 1484.86 M468.494 1470.21 Q471.642 1470.21 473.471 1468.06 Q475.323 1465.9 475.323 1462.15 Q475.323 1458.43 473.471 1456.27 Q471.642 1454.1 468.494 1454.1 Q465.346 1454.1 463.494 1456.27 Q461.666 1458.43 461.666 1462.15 Q461.666 1465.9 463.494 1468.06 Q465.346 1470.21 468.494 1470.21 Z" fill="#000000" fill-rule="evenodd" fill-opacity="1" /><path clip-path="url(#clip310)" d="M588.203 1481.64 L595.842 1481.64 L595.842 1455.28 L587.532 1456.95 L587.532 1452.69 L595.796 1451.02 L600.472 1451.02 L600.472 1481.64 L608.11 1481.64 L608.11 1485.58 L588.203 1485.58 L588.203 1481.64 Z" fill="#000000" fill-rule="evenodd" fill-opacity="1" /><path clip-path="url(#clip310)" d="M617.555 1479.7 L622.439 1479.7 L622.439 1485.58 L617.555 1485.58 L617.555 1479.7 Z" fill="#000000" fill-rule="evenodd" fill-opacity="1" /><path clip-path="url(#clip310)" d="M646.791 1466.95 Q650.147 1467.66 652.022 1469.93 Q653.92 1472.2 653.92 1475.53 Q653.92 1480.65 650.402 1483.45 Q646.883 1486.25 640.402 1486.25 Q638.226 1486.25 635.911 1485.81 Q633.62 1485.39 631.166 1484.54 L631.166 1480.02 Q633.11 1481.16 635.425 1481.74 Q637.74 1482.32 640.263 1482.32 Q644.661 1482.32 646.953 1480.58 Q649.268 1478.84 649.268 1475.53 Q649.268 1472.48 647.115 1470.77 Q644.985 1469.03 641.166 1469.03 L637.138 1469.03 L637.138 1465.19 L641.351 1465.19 Q644.8 1465.19 646.629 1463.82 Q648.457 1462.43 648.457 1459.84 Q648.457 1457.18 646.559 1455.77 Q644.684 1454.33 641.166 1454.33 Q639.245 1454.33 637.045 1454.75 Q634.846 1455.16 632.208 1456.04 L632.208 1451.88 Q634.87 1451.14 637.184 1450.77 Q639.522 1450.39 641.582 1450.39 Q646.907 1450.39 650.008 1452.83 Q653.11 1455.23 653.11 1459.35 Q653.11 1462.22 651.467 1464.21 Q649.823 1466.18 646.791 1466.95 Z" fill="#000000" fill-rule="evenodd" fill-opacity="1" /><path clip-path="url(#clip310)" d="M662.786 1479.7 L667.67 1479.7 L667.67 1485.58 L662.786 1485.58 L662.786 1479.7 Z" fill="#000000" fill-rule="evenodd" fill-opacity="1" /><path clip-path="url(#clip310)" d="M678.666 1481.64 L686.304 1481.64 L686.304 1455.28 L677.994 1456.95 L677.994 1452.69 L686.258 1451.02 L690.934 1451.02 L690.934 1481.64 L698.573 1481.64 L698.573 1485.58 L678.666 1485.58 L678.666 1481.64 Z" fill="#000000" fill-rule="evenodd" fill-opacity="1" /><path clip-path="url(#clip310)" d="M718.017 1454.1 Q714.406 1454.1 712.577 1457.66 Q710.772 1461.2 710.772 1468.33 Q710.772 1475.44 712.577 1479.01 Q714.406 1482.55 718.017 1482.55 Q721.651 1482.55 723.457 1479.01 Q725.286 1475.44 725.286 1468.33 Q725.286 1461.2 723.457 1457.66 Q721.651 1454.1 718.017 1454.1 M718.017 1450.39 Q723.827 1450.39 726.883 1455 Q729.962 1459.58 729.962 1468.33 Q729.962 1477.06 726.883 1481.67 Q723.827 1486.25 718.017 1486.25 Q712.207 1486.25 709.128 1481.67 Q706.073 1477.06 706.073 1468.33 Q706.073 1459.58 709.128 1455 Q712.207 1450.39 718.017 1450.39 Z" fill="#000000" fill-rule="evenodd" fill-opacity="1" /><path clip-path="url(#clip310)" d="M822.796 1481.64 L830.435 1481.64 L830.435 1455.28 L822.124 1456.95 L822.124 1452.69 L830.388 1451.02 L835.064 1451.02 L835.064 1481.64 L842.703 1481.64 L842.703 1485.58 L822.796 1485.58 L822.796 1481.64 Z" fill="#000000" fill-rule="evenodd" fill-opacity="1" /><path clip-path="url(#clip310)" d="M852.147 1479.7 L857.032 1479.7 L857.032 1485.58 L852.147 1485.58 L852.147 1479.7 Z" fill="#000000" fill-rule="evenodd" fill-opacity="1" /><path clip-path="url(#clip310)" d="M881.383 1466.95 Q884.74 1467.66 886.615 1469.93 Q888.513 1472.2 888.513 1475.53 Q888.513 1480.65 884.994 1483.45 Q881.476 1486.25 874.995 1486.25 Q872.819 1486.25 870.504 1485.81 Q868.212 1485.39 865.758 1484.54 L865.758 1480.02 Q867.703 1481.16 870.018 1481.74 Q872.332 1482.32 874.856 1482.32 Q879.254 1482.32 881.545 1480.58 Q883.86 1478.84 883.86 1475.53 Q883.86 1472.48 881.707 1470.77 Q879.578 1469.03 875.758 1469.03 L871.731 1469.03 L871.731 1465.19 L875.944 1465.19 Q879.393 1465.19 881.221 1463.82 Q883.05 1462.43 883.05 1459.84 Q883.05 1457.18 881.152 1455.77 Q879.277 1454.33 875.758 1454.33 Q873.837 1454.33 871.638 1454.75 Q869.439 1455.16 866.8 1456.04 L866.8 1451.88 Q869.462 1451.14 871.777 1450.77 Q874.115 1450.39 876.175 1450.39 Q881.499 1450.39 884.601 1452.83 Q887.703 1455.23 887.703 1459.35 Q887.703 1462.22 886.059 1464.21 Q884.416 1466.18 881.383 1466.95 Z" fill="#000000" fill-rule="evenodd" fill-opacity="1" /><path clip-path="url(#clip310)" d="M897.379 1479.7 L902.263 1479.7 L902.263 1485.58 L897.379 1485.58 L897.379 1479.7 Z" fill="#000000" fill-rule="evenodd" fill-opacity="1" /><path clip-path="url(#clip310)" d="M913.258 1481.64 L920.897 1481.64 L920.897 1455.28 L912.587 1456.95 L912.587 1452.69 L920.851 1451.02 L925.527 1451.02 L925.527 1481.64 L933.166 1481.64 L933.166 1485.58 L913.258 1485.58 L913.258 1481.64 Z" fill="#000000" fill-rule="evenodd" fill-opacity="1" /><path clip-path="url(#clip310)" d="M943.42 1481.64 L951.059 1481.64 L951.059 1455.28 L942.749 1456.95 L942.749 1452.69 L951.013 1451.02 L955.689 1451.02 L955.689 1481.64 L963.327 1481.64 L963.327 1485.58 L943.42 1485.58 L943.42 1481.64 Z" fill="#000000" fill-rule="evenodd" fill-opacity="1" /><path clip-path="url(#clip310)" d="M1071.24 1481.64 L1078.88 1481.64 L1078.88 1455.28 L1070.57 1456.95 L1070.57 1452.69 L1078.83 1451.02 L1083.51 1451.02 L1083.51 1481.64 L1091.15 1481.64 L1091.15 1485.58 L1071.24 1485.58 L1071.24 1481.64 Z" fill="#000000" fill-rule="evenodd" fill-opacity="1" /><path clip-path="url(#clip310)" d="M1100.59 1479.7 L1105.48 1479.7 L1105.48 1485.58 L1100.59 1485.58 L1100.59 1479.7 Z" fill="#000000" fill-rule="evenodd" fill-opacity="1" /><path clip-path="url(#clip310)" d="M1128.51 1455.09 L1116.71 1473.54 L1128.51 1473.54 L1128.51 1455.09 M1127.28 1451.02 L1133.16 1451.02 L1133.16 1473.54 L1138.09 1473.54 L1138.09 1477.43 L1133.16 1477.43 L1133.16 1485.58 L1128.51 1485.58 L1128.51 1477.43 L1112.91 1477.43 L1112.91 1472.92 L1127.28 1451.02 Z" fill="#000000" fill-rule="evenodd" fill-opacity="1" /><path clip-path="url(#clip310)" d="M1145.83 1479.7 L1150.71 1479.7 L1150.71 1485.58 L1145.83 1485.58 L1145.83 1479.7 Z" fill="#000000" fill-rule="evenodd" fill-opacity="1" /><path clip-path="url(#clip310)" d="M1170.89 1454.1 Q1167.28 1454.1 1165.45 1457.66 Q1163.65 1461.2 1163.65 1468.33 Q1163.65 1475.44 1165.45 1479.01 Q1167.28 1482.55 1170.89 1482.55 Q1174.53 1482.55 1176.33 1479.01 Q1178.16 1475.44 1178.16 1468.33 Q1178.16 1461.2 1176.33 1457.66 Q1174.53 1454.1 1170.89 1454.1 M1170.89 1450.39 Q1176.7 1450.39 1179.76 1455 Q1182.84 1459.58 1182.84 1468.33 Q1182.84 1477.06 1179.76 1481.67 Q1176.7 1486.25 1170.89 1486.25 Q1165.08 1486.25 1162.01 1481.67 Q1158.95 1477.06 1158.95 1468.33 Q1158.95 1459.58 1162.01 1455 Q1165.08 1450.39 1170.89 1450.39 Z" fill="#000000" fill-rule="evenodd" fill-opacity="1" /><path clip-path="url(#clip310)" d="M1305.22 1481.64 L1312.86 1481.64 L1312.86 1455.28 L1304.55 1456.95 L1304.55 1452.69 L1312.81 1451.02 L1317.49 1451.02 L1317.49 1481.64 L1325.13 1481.64 L1325.13 1485.58 L1305.22 1485.58 L1305.22 1481.64 Z" fill="#000000" fill-rule="evenodd" fill-opacity="1" /><path clip-path="url(#clip310)" d="M1334.57 1479.7 L1339.46 1479.7 L1339.46 1485.58 L1334.57 1485.58 L1334.57 1479.7 Z" fill="#000000" fill-rule="evenodd" fill-opacity="1" /><path clip-path="url(#clip310)" d="M1349.69 1451.02 L1368.05 1451.02 L1368.05 1454.96 L1353.97 1454.96 L1353.97 1463.43 Q1354.99 1463.08 1356.01 1462.92 Q1357.03 1462.73 1358.05 1462.73 Q1363.83 1462.73 1367.21 1465.9 Q1370.59 1469.08 1370.59 1474.49 Q1370.59 1480.07 1367.12 1483.17 Q1363.65 1486.25 1357.33 1486.25 Q1355.15 1486.25 1352.88 1485.88 Q1350.64 1485.51 1348.23 1484.77 L1348.23 1480.07 Q1350.31 1481.2 1352.54 1481.76 Q1354.76 1482.32 1357.24 1482.32 Q1361.24 1482.32 1363.58 1480.21 Q1365.92 1478.1 1365.92 1474.49 Q1365.92 1470.88 1363.58 1468.77 Q1361.24 1466.67 1357.24 1466.67 Q1355.36 1466.67 1353.49 1467.08 Q1351.63 1467.5 1349.69 1468.38 L1349.69 1451.02 Z" fill="#000000" fill-rule="evenodd" fill-opacity="1" /><path clip-path="url(#clip310)" d="M1379.8 1479.7 L1384.69 1479.7 L1384.69 1485.58 L1379.8 1485.58 L1379.8 1479.7 Z" fill="#000000" fill-rule="evenodd" fill-opacity="1" /><path clip-path="url(#clip310)" d="M1404.87 1454.1 Q1401.26 1454.1 1399.43 1457.66 Q1397.63 1461.2 1397.63 1468.33 Q1397.63 1475.44 1399.43 1479.01 Q1401.26 1482.55 1404.87 1482.55 Q1408.51 1482.55 1410.31 1479.01 Q1412.14 1475.44 1412.14 1468.33 Q1412.14 1461.2 1410.31 1457.66 Q1408.51 1454.1 1404.87 1454.1 M1404.87 1450.39 Q1410.68 1450.39 1413.74 1455 Q1416.82 1459.58 1416.82 1468.33 Q1416.82 1477.06 1413.74 1481.67 Q1410.68 1486.25 1404.87 1486.25 Q1399.06 1486.25 1395.98 1481.67 Q1392.93 1477.06 1392.93 1468.33 Q1392.93 1459.58 1395.98 1455 Q1399.06 1450.39 1404.87 1450.39 Z" fill="#000000" fill-rule="evenodd" fill-opacity="1" /><path clip-path="url(#clip310)" d="M1539.2 1481.64 L1546.84 1481.64 L1546.84 1455.28 L1538.53 1456.95 L1538.53 1452.69 L1546.79 1451.02 L1551.47 1451.02 L1551.47 1481.64 L1559.11 1481.64 L1559.11 1485.58 L1539.2 1485.58 L1539.2 1481.64 Z" fill="#000000" fill-rule="evenodd" fill-opacity="1" /><path clip-path="url(#clip310)" d="M1568.55 1479.7 L1573.44 1479.7 L1573.44 1485.58 L1568.55 1485.58 L1568.55 1479.7 Z" fill="#000000" fill-rule="evenodd" fill-opacity="1" /><path clip-path="url(#clip310)" d="M1594.2 1466.44 Q1591.05 1466.44 1589.2 1468.59 Q1587.37 1470.74 1587.37 1474.49 Q1587.37 1478.22 1589.2 1480.39 Q1591.05 1482.55 1594.2 1482.55 Q1597.35 1482.55 1599.18 1480.39 Q1601.03 1478.22 1601.03 1474.49 Q1601.03 1470.74 1599.18 1468.59 Q1597.35 1466.44 1594.2 1466.44 M1603.48 1451.78 L1603.48 1456.04 Q1601.72 1455.21 1599.92 1454.77 Q1598.14 1454.33 1596.38 1454.33 Q1591.75 1454.33 1589.29 1457.45 Q1586.86 1460.58 1586.52 1466.9 Q1587.88 1464.89 1589.94 1463.82 Q1592 1462.73 1594.48 1462.73 Q1599.69 1462.73 1602.7 1465.9 Q1605.73 1469.05 1605.73 1474.49 Q1605.73 1479.82 1602.58 1483.03 Q1599.43 1486.25 1594.2 1486.25 Q1588.21 1486.25 1585.03 1481.67 Q1581.86 1477.06 1581.86 1468.33 Q1581.86 1460.14 1585.75 1455.28 Q1589.64 1450.39 1596.19 1450.39 Q1597.95 1450.39 1599.73 1450.74 Q1601.54 1451.09 1603.48 1451.78 Z" fill="#000000" fill-rule="evenodd" fill-opacity="1" /><path clip-path="url(#clip310)" d="M1613.78 1479.7 L1618.67 1479.7 L1618.67 1485.58 L1613.78 1485.58 L1613.78 1479.7 Z" fill="#000000" fill-rule="evenodd" fill-opacity="1" /><path clip-path="url(#clip310)" d="M1638.85 1454.1 Q1635.24 1454.1 1633.41 1457.66 Q1631.61 1461.2 1631.61 1468.33 Q1631.61 1475.44 1633.41 1479.01 Q1635.24 1482.55 1638.85 1482.55 Q1642.49 1482.55 1644.29 1479.01 Q1646.12 1475.44 1646.12 1468.33 Q1646.12 1461.2 1644.29 1457.66 Q1642.49 1454.1 1638.85 1454.1 M1638.85 1450.39 Q1644.66 1450.39 1647.72 1455 Q1650.8 1459.58 1650.8 1468.33 Q1650.8 1477.06 1647.72 1481.67 Q1644.66 1486.25 1638.85 1486.25 Q1633.04 1486.25 1629.96 1481.67 Q1626.91 1477.06 1626.91 1468.33 Q1626.91 1459.58 1629.96 1455 Q1633.04 1450.39 1638.85 1450.39 Z" fill="#000000" fill-rule="evenodd" fill-opacity="1" /><path clip-path="url(#clip310)" d="M1773.18 1481.64 L1780.82 1481.64 L1780.82 1455.28 L1772.51 1456.95 L1772.51 1452.69 L1780.77 1451.02 L1785.45 1451.02 L1785.45 1481.64 L1793.09 1481.64 L1793.09 1485.58 L1773.18 1485.58 L1773.18 1481.64 Z" fill="#000000" fill-rule="evenodd" fill-opacity="1" /><path clip-path="url(#clip310)" d="M1802.53 1479.7 L1807.42 1479.7 L1807.42 1485.58 L1802.53 1485.58 L1802.53 1479.7 Z" fill="#000000" fill-rule="evenodd" fill-opacity="1" /><path clip-path="url(#clip310)" d="M1816.42 1451.02 L1838.64 1451.02 L1838.64 1453.01 L1826.1 1485.58 L1821.21 1485.58 L1833.02 1454.96 L1816.42 1454.96 L1816.42 1451.02 Z" fill="#000000" fill-rule="evenodd" fill-opacity="1" /><path clip-path="url(#clip310)" d="M1847.76 1479.7 L1852.65 1479.7 L1852.65 1485.58 L1847.76 1485.58 L1847.76 1479.7 Z" fill="#000000" fill-rule="evenodd" fill-opacity="1" /><path clip-path="url(#clip310)" d="M1872.83 1454.1 Q1869.22 1454.1 1867.39 1457.66 Q1865.59 1461.2 1865.59 1468.33 Q1865.59 1475.44 1867.39 1479.01 Q1869.22 1482.55 1872.83 1482.55 Q1876.47 1482.55 1878.27 1479.01 Q1880.1 1475.44 1880.1 1468.33 Q1880.1 1461.2 1878.27 1457.66 Q1876.47 1454.1 1872.83 1454.1 M1872.83 1450.39 Q1878.64 1450.39 1881.7 1455 Q1884.78 1459.58 1884.78 1468.33 Q1884.78 1477.06 1881.7 1481.67 Q1878.64 1486.25 1872.83 1486.25 Q1867.02 1486.25 1863.94 1481.67 Q1860.89 1477.06 1860.89 1468.33 Q1860.89 1459.58 1863.94 1455 Q1867.02 1450.39 1872.83 1450.39 Z" fill="#000000" fill-rule="evenodd" fill-opacity="1" /><path clip-path="url(#clip310)" d="M2007.16 1481.64 L2014.8 1481.64 L2014.8 1455.28 L2006.49 1456.95 L2006.49 1452.69 L2014.75 1451.02 L2019.43 1451.02 L2019.43 1481.64 L2027.07 1481.64 L2027.07 1485.58 L2007.16 1485.58 L2007.16 1481.64 Z" fill="#000000" fill-rule="evenodd" fill-opacity="1" /><path clip-path="url(#clip310)" d="M2036.51 1479.7 L2041.4 1479.7 L2041.4 1485.58 L2036.51 1485.58 L2036.51 1479.7 Z" fill="#000000" fill-rule="evenodd" fill-opacity="1" /><path clip-path="url(#clip310)" d="M2061.58 1469.17 Q2058.25 1469.17 2056.33 1470.95 Q2054.43 1472.73 2054.43 1475.86 Q2054.43 1478.98 2056.33 1480.77 Q2058.25 1482.55 2061.58 1482.55 Q2064.91 1482.55 2066.83 1480.77 Q2068.76 1478.96 2068.76 1475.86 Q2068.76 1472.73 2066.83 1470.95 Q2064.94 1469.17 2061.58 1469.17 M2056.9 1467.18 Q2053.89 1466.44 2052.21 1464.38 Q2050.54 1462.32 2050.54 1459.35 Q2050.54 1455.21 2053.48 1452.8 Q2056.44 1450.39 2061.58 1450.39 Q2066.74 1450.39 2069.68 1452.8 Q2072.62 1455.21 2072.62 1459.35 Q2072.62 1462.32 2070.93 1464.38 Q2069.27 1466.44 2066.28 1467.18 Q2069.66 1467.96 2071.53 1470.26 Q2073.43 1472.55 2073.43 1475.86 Q2073.43 1480.88 2070.35 1483.57 Q2067.3 1486.25 2061.58 1486.25 Q2055.86 1486.25 2052.78 1483.57 Q2049.73 1480.88 2049.73 1475.86 Q2049.73 1472.55 2051.63 1470.26 Q2053.52 1467.96 2056.9 1467.18 M2055.19 1459.79 Q2055.19 1462.48 2056.86 1463.98 Q2058.55 1465.49 2061.58 1465.49 Q2064.59 1465.49 2066.28 1463.98 Q2067.99 1462.48 2067.99 1459.79 Q2067.99 1457.11 2066.28 1455.6 Q2064.59 1454.1 2061.58 1454.1 Q2058.55 1454.1 2056.86 1455.6 Q2055.19 1457.11 2055.19 1459.79 Z" fill="#000000" fill-rule="evenodd" fill-opacity="1" /><path clip-path="url(#clip310)" d="M2081.74 1479.7 L2086.63 1479.7 L2086.63 1485.58 L2081.74 1485.58 L2081.74 1479.7 Z" fill="#000000" fill-rule="evenodd" fill-opacity="1" /><path clip-path="url(#clip310)" d="M2106.81 1454.1 Q2103.2 1454.1 2101.37 1457.66 Q2099.57 1461.2 2099.57 1468.33 Q2099.57 1475.44 2101.37 1479.01 Q2103.2 1482.55 2106.81 1482.55 Q2110.45 1482.55 2112.25 1479.01 Q2114.08 1475.44 2114.08 1468.33 Q2114.08 1461.2 2112.25 1457.66 Q2110.45 1454.1 2106.81 1454.1 M2106.81 1450.39 Q2112.62 1450.39 2115.68 1455 Q2118.76 1459.58 2118.76 1468.33 Q2118.76 1477.06 2115.68 1481.67 Q2112.62 1486.25 2106.81 1486.25 Q2101 1486.25 2097.92 1481.67 Q2094.87 1477.06 2094.87 1468.33 Q2094.87 1459.58 2097.92 1455 Q2101 1450.39 2106.81 1450.39 Z" fill="#000000" fill-rule="evenodd" fill-opacity="1" /><path clip-path="url(#clip310)" d="M2241.94 1481.64 L2249.58 1481.64 L2249.58 1455.28 L2241.27 1456.95 L2241.27 1452.69 L2249.53 1451.02 L2254.21 1451.02 L2254.21 1481.64 L2261.84 1481.64 L2261.84 1485.58 L2241.94 1485.58 L2241.94 1481.64 Z" fill="#000000" fill-rule="evenodd" fill-opacity="1" /><path clip-path="url(#clip310)" d="M2271.29 1479.7 L2276.17 1479.7 L2276.17 1485.58 L2271.29 1485.58 L2271.29 1479.7 Z" fill="#000000" fill-rule="evenodd" fill-opacity="1" /><path clip-path="url(#clip310)" d="M2296.36 1469.17 Q2293.02 1469.17 2291.1 1470.95 Q2289.21 1472.73 2289.21 1475.86 Q2289.21 1478.98 2291.1 1480.77 Q2293.02 1482.55 2296.36 1482.55 Q2299.69 1482.55 2301.61 1480.77 Q2303.53 1478.96 2303.53 1475.86 Q2303.53 1472.73 2301.61 1470.95 Q2299.71 1469.17 2296.36 1469.17 M2291.68 1467.18 Q2288.67 1466.44 2286.98 1464.38 Q2285.32 1462.32 2285.32 1459.35 Q2285.32 1455.21 2288.26 1452.8 Q2291.22 1450.39 2296.36 1450.39 Q2301.52 1450.39 2304.46 1452.8 Q2307.4 1455.21 2307.4 1459.35 Q2307.4 1462.32 2305.71 1464.38 Q2304.04 1466.44 2301.06 1467.18 Q2304.44 1467.96 2306.31 1470.26 Q2308.21 1472.55 2308.21 1475.86 Q2308.21 1480.88 2305.13 1483.57 Q2302.08 1486.25 2296.36 1486.25 Q2290.64 1486.25 2287.56 1483.57 Q2284.51 1480.88 2284.51 1475.86 Q2284.51 1472.55 2286.4 1470.26 Q2288.3 1467.96 2291.68 1467.18 M2289.97 1459.79 Q2289.97 1462.48 2291.64 1463.98 Q2293.33 1465.49 2296.36 1465.49 Q2299.37 1465.49 2301.06 1463.98 Q2302.77 1462.48 2302.77 1459.79 Q2302.77 1457.11 2301.06 1455.6 Q2299.37 1454.1 2296.36 1454.1 Q2293.33 1454.1 2291.64 1455.6 Q2289.97 1457.11 2289.97 1459.79 Z" fill="#000000" fill-rule="evenodd" fill-opacity="1" /><path clip-path="url(#clip310)" d="M2316.52 1479.7 L2321.4 1479.7 L2321.4 1485.58 L2316.52 1485.58 L2316.52 1479.7 Z" fill="#000000" fill-rule="evenodd" fill-opacity="1" /><path clip-path="url(#clip310)" d="M2335.62 1481.64 L2351.94 1481.64 L2351.94 1485.58 L2329.99 1485.58 L2329.99 1481.64 Q2332.65 1478.89 2337.24 1474.26 Q2341.84 1469.61 2343.02 1468.27 Q2345.27 1465.74 2346.15 1464.01 Q2347.05 1462.25 2347.05 1460.56 Q2347.05 1457.8 2345.11 1456.07 Q2343.19 1454.33 2340.08 1454.33 Q2337.89 1454.33 2335.43 1455.09 Q2333 1455.86 2330.22 1457.41 L2330.22 1452.69 Q2333.05 1451.55 2335.5 1450.97 Q2337.95 1450.39 2339.99 1450.39 Q2345.36 1450.39 2348.56 1453.08 Q2351.75 1455.77 2351.75 1460.26 Q2351.75 1462.39 2350.94 1464.31 Q2350.15 1466.2 2348.05 1468.8 Q2347.47 1469.47 2344.37 1472.69 Q2341.27 1475.88 2335.62 1481.64 Z" fill="#000000" fill-rule="evenodd" fill-opacity="1" /><path clip-path="url(#clip310)" d="M1245.05 1532.4 L1251.26 1532.4 L1262.4 1562.31 L1273.54 1532.4 L1279.74 1532.4 L1266.38 1568.04 L1258.42 1568.04 L1245.05 1532.4 Z" fill="#000000" fill-rule="evenodd" fill-opacity="1" /><path clip-path="url(#clip310)" d="M1318.32 1548.76 L1318.32 1551.62 L1291.39 1551.62 Q1291.78 1557.67 1295.02 1560.85 Q1298.3 1564 1304.12 1564 Q1307.5 1564 1310.65 1563.17 Q1313.83 1562.35 1316.95 1560.69 L1316.95 1566.23 Q1313.8 1567.57 1310.49 1568.27 Q1307.18 1568.97 1303.77 1568.97 Q1295.24 1568.97 1290.25 1564 Q1285.28 1559.04 1285.28 1550.57 Q1285.28 1541.82 1289.99 1536.69 Q1294.74 1531.54 1302.76 1531.54 Q1309.95 1531.54 1314.12 1536.18 Q1318.32 1540.8 1318.32 1548.76 M1312.46 1547.04 Q1312.4 1542.23 1309.76 1539.37 Q1307.15 1536.5 1302.82 1536.5 Q1297.92 1536.5 1294.96 1539.27 Q1292.03 1542.04 1291.58 1547.07 L1312.46 1547.04 Z" fill="#000000" fill-rule="evenodd" fill-opacity="1" /><path clip-path="url(#clip310)" d="M1348.59 1537.87 Q1347.6 1537.3 1346.43 1537.04 Q1345.28 1536.76 1343.88 1536.76 Q1338.91 1536.76 1336.24 1540 Q1333.6 1543.22 1333.6 1549.27 L1333.6 1568.04 L1327.71 1568.04 L1327.71 1532.4 L1333.6 1532.4 L1333.6 1537.93 Q1335.44 1534.69 1338.4 1533.13 Q1341.36 1531.54 1345.6 1531.54 Q1346.2 1531.54 1346.93 1531.63 Q1347.67 1531.7 1348.56 1531.85 L1348.59 1537.87 Z" fill="#000000" fill-rule="evenodd" fill-opacity="1" /><path clip-path="url(#clip310)" d="M1377.46 1533.45 L1377.46 1538.98 Q1374.98 1537.71 1372.3 1537.07 Q1369.63 1536.44 1366.76 1536.44 Q1362.4 1536.44 1360.21 1537.77 Q1358.04 1539.11 1358.04 1541.79 Q1358.04 1543.82 1359.6 1545 Q1361.16 1546.15 1365.87 1547.2 L1367.88 1547.64 Q1374.12 1548.98 1376.73 1551.43 Q1379.37 1553.85 1379.37 1558.21 Q1379.37 1563.17 1375.42 1566.07 Q1371.51 1568.97 1364.63 1568.97 Q1361.77 1568.97 1358.65 1568.39 Q1355.56 1567.85 1352.12 1566.74 L1352.12 1560.69 Q1355.37 1562.38 1358.52 1563.24 Q1361.67 1564.07 1364.76 1564.07 Q1368.9 1564.07 1371.12 1562.66 Q1373.35 1561.23 1373.35 1558.65 Q1373.35 1556.27 1371.73 1554.99 Q1370.14 1553.72 1364.69 1552.54 L1362.66 1552.07 Q1357.21 1550.92 1354.8 1548.56 Q1352.38 1546.18 1352.38 1542.04 Q1352.38 1537.01 1355.94 1534.27 Q1359.51 1531.54 1366.06 1531.54 Q1369.31 1531.54 1372.17 1532.01 Q1375.04 1532.49 1377.46 1533.45 Z" fill="#000000" fill-rule="evenodd" fill-opacity="1" /><path clip-path="url(#clip310)" d="M1388.69 1532.4 L1394.55 1532.4 L1394.55 1568.04 L1388.69 1568.04 L1388.69 1532.4 M1388.69 1518.52 L1394.55 1518.52 L1394.55 1525.93 L1388.69 1525.93 L1388.69 1518.52 Z" fill="#000000" fill-rule="evenodd" fill-opacity="1" /><path clip-path="url(#clip310)" d="M1420.62 1536.5 Q1415.91 1536.5 1413.17 1540.19 Q1410.43 1543.85 1410.43 1550.25 Q1410.43 1556.65 1413.14 1560.34 Q1415.87 1564 1420.62 1564 Q1425.3 1564 1428.03 1560.31 Q1430.77 1556.62 1430.77 1550.25 Q1430.77 1543.92 1428.03 1540.23 Q1425.3 1536.5 1420.62 1536.5 M1420.62 1531.54 Q1428.26 1531.54 1432.62 1536.5 Q1436.98 1541.47 1436.98 1550.25 Q1436.98 1559 1432.62 1564 Q1428.26 1568.97 1420.62 1568.97 Q1412.95 1568.97 1408.59 1564 Q1404.26 1559 1404.26 1550.25 Q1404.26 1541.47 1408.59 1536.5 Q1412.95 1531.54 1420.62 1531.54 Z" fill="#000000" fill-rule="evenodd" fill-opacity="1" /><path clip-path="url(#clip310)" d="M1476.32 1546.53 L1476.32 1568.04 L1470.46 1568.04 L1470.46 1546.72 Q1470.46 1541.66 1468.49 1539.14 Q1466.51 1536.63 1462.57 1536.63 Q1457.82 1536.63 1455.09 1539.65 Q1452.35 1542.68 1452.35 1547.9 L1452.35 1568.04 L1446.46 1568.04 L1446.46 1532.4 L1452.35 1532.4 L1452.35 1537.93 Q1454.45 1534.72 1457.28 1533.13 Q1460.15 1531.54 1463.87 1531.54 Q1470.02 1531.54 1473.17 1535.36 Q1476.32 1539.14 1476.32 1546.53 Z" fill="#000000" fill-rule="evenodd" fill-opacity="1" /><polyline clip-path="url(#clip312)" style="stroke:#000000; stroke-linecap:round; stroke-linejoin:round; stroke-width:2; stroke-opacity:0.1; fill:none" points="368.613,1388.11 2352.76,1388.11 "/>
<polyline clip-path="url(#clip312)" style="stroke:#000000; stroke-linecap:round; stroke-linejoin:round; stroke-width:2; stroke-opacity:0.1; fill:none" points="368.613,1136.15 2352.76,1136.15 "/>
<polyline clip-path="url(#clip312)" style="stroke:#000000; stroke-linecap:round; stroke-linejoin:round; stroke-width:2; stroke-opacity:0.1; fill:none" points="368.613,884.202 2352.76,884.202 "/>
<polyline clip-path="url(#clip312)" style="stroke:#000000; stroke-linecap:round; stroke-linejoin:round; stroke-width:2; stroke-opacity:0.1; fill:none" points="368.613,632.25 2352.76,632.25 "/>
<polyline clip-path="url(#clip312)" style="stroke:#000000; stroke-linecap:round; stroke-linejoin:round; stroke-width:2; stroke-opacity:0.1; fill:none" points="368.613,380.297 2352.76,380.297 "/>
<polyline clip-path="url(#clip310)" style="stroke:#000000; stroke-linecap:round; stroke-linejoin:round; stroke-width:4; stroke-opacity:1; fill:none" points="368.613,1423.18 368.613,183.952 "/>
<polyline clip-path="url(#clip310)" style="stroke:#000000; stroke-linecap:round; stroke-linejoin:round; stroke-width:4; stroke-opacity:1; fill:none" points="368.613,1388.11 387.51,1388.11 "/>
<polyline clip-path="url(#clip310)" style="stroke:#000000; stroke-linecap:round; stroke-linejoin:round; stroke-width:4; stroke-opacity:1; fill:none" points="368.613,1136.15 387.51,1136.15 "/>
<polyline clip-path="url(#clip310)" style="stroke:#000000; stroke-linecap:round; stroke-linejoin:round; stroke-width:4; stroke-opacity:1; fill:none" points="368.613,884.202 387.51,884.202 "/>
<polyline clip-path="url(#clip310)" style="stroke:#000000; stroke-linecap:round; stroke-linejoin:round; stroke-width:4; stroke-opacity:1; fill:none" points="368.613,632.25 387.51,632.25 "/>
<polyline clip-path="url(#clip310)" style="stroke:#000000; stroke-linecap:round; stroke-linejoin:round; stroke-width:4; stroke-opacity:1; fill:none" points="368.613,380.297 387.51,380.297 "/>
<path clip-path="url(#clip310)" d="M320.668 1373.91 Q317.057 1373.91 315.228 1377.47 Q313.423 1381.01 313.423 1388.14 Q313.423 1395.25 315.228 1398.81 Q317.057 1402.35 320.668 1402.35 Q324.302 1402.35 326.108 1398.81 Q327.937 1395.25 327.937 1388.14 Q327.937 1381.01 326.108 1377.47 Q324.302 1373.91 320.668 1373.91 M320.668 1370.2 Q326.478 1370.2 329.534 1374.81 Q332.613 1379.39 332.613 1388.14 Q332.613 1396.87 329.534 1401.48 Q326.478 1406.06 320.668 1406.06 Q314.858 1406.06 311.779 1401.48 Q308.724 1396.87 308.724 1388.14 Q308.724 1379.39 311.779 1374.81 Q314.858 1370.2 320.668 1370.2 Z" fill="#000000" fill-rule="evenodd" fill-opacity="1" /><path clip-path="url(#clip310)" d="M116.017 1125.32 L134.373 1125.32 L134.373 1129.26 L120.299 1129.26 L120.299 1137.73 Q121.317 1137.38 122.336 1137.22 Q123.354 1137.04 124.373 1137.04 Q130.16 1137.04 133.54 1140.21 Q136.919 1143.38 136.919 1148.79 Q136.919 1154.37 133.447 1157.48 Q129.975 1160.55 123.655 1160.55 Q121.479 1160.55 119.211 1160.18 Q116.966 1159.81 114.558 1159.07 L114.558 1154.37 Q116.642 1155.51 118.864 1156.06 Q121.086 1156.62 123.563 1156.62 Q127.567 1156.62 129.905 1154.51 Q132.243 1152.41 132.243 1148.79 Q132.243 1145.18 129.905 1143.08 Q127.567 1140.97 123.563 1140.97 Q121.688 1140.97 119.813 1141.39 Q117.961 1141.8 116.017 1142.68 L116.017 1125.32 Z" fill="#000000" fill-rule="evenodd" fill-opacity="1" /><path clip-path="url(#clip310)" d="M146.132 1154 L151.016 1154 L151.016 1159.88 L146.132 1159.88 L146.132 1154 Z" fill="#000000" fill-rule="evenodd" fill-opacity="1" /><path clip-path="url(#clip310)" d="M171.201 1128.4 Q167.59 1128.4 165.762 1131.97 Q163.956 1135.51 163.956 1142.64 Q163.956 1149.74 165.762 1153.31 Q167.59 1156.85 171.201 1156.85 Q174.836 1156.85 176.641 1153.31 Q178.47 1149.74 178.47 1142.64 Q178.47 1135.51 176.641 1131.97 Q174.836 1128.4 171.201 1128.4 M171.201 1124.7 Q177.012 1124.7 180.067 1129.3 Q183.146 1133.89 183.146 1142.64 Q183.146 1151.36 180.067 1155.97 Q177.012 1160.55 171.201 1160.55 Q165.391 1160.55 162.313 1155.97 Q159.257 1151.36 159.257 1142.64 Q159.257 1133.89 162.313 1129.3 Q165.391 1124.7 171.201 1124.7 Z" fill="#000000" fill-rule="evenodd" fill-opacity="1" /><path clip-path="url(#clip310)" d="M201.363 1128.4 Q197.752 1128.4 195.923 1131.97 Q194.118 1135.51 194.118 1142.64 Q194.118 1149.74 195.923 1153.31 Q197.752 1156.85 201.363 1156.85 Q204.998 1156.85 206.803 1153.31 Q208.632 1149.74 208.632 1142.64 Q208.632 1135.51 206.803 1131.97 Q204.998 1128.4 201.363 1128.4 M201.363 1124.7 Q207.173 1124.7 210.229 1129.3 Q213.308 1133.89 213.308 1142.64 Q213.308 1151.36 210.229 1155.97 Q207.173 1160.55 201.363 1160.55 Q195.553 1160.55 192.474 1155.97 Q189.419 1151.36 189.419 1142.64 Q189.419 1133.89 192.474 1129.3 Q195.553 1124.7 201.363 1124.7 Z" fill="#000000" fill-rule="evenodd" fill-opacity="1" /><path clip-path="url(#clip310)" d="M249.696 1134.42 L239.118 1145.04 L249.696 1155.62 L246.942 1158.42 L236.317 1147.8 L225.692 1158.42 L222.96 1155.62 L233.516 1145.04 L222.96 1134.42 L225.692 1131.62 L236.317 1142.24 L246.942 1131.62 L249.696 1134.42 Z" fill="#000000" fill-rule="evenodd" fill-opacity="1" /><path clip-path="url(#clip310)" d="M262.057 1155.95 L269.696 1155.95 L269.696 1129.58 L261.386 1131.25 L261.386 1126.99 L269.65 1125.32 L274.326 1125.32 L274.326 1155.95 L281.965 1155.95 L281.965 1159.88 L262.057 1159.88 L262.057 1155.95 Z" fill="#000000" fill-rule="evenodd" fill-opacity="1" /><path clip-path="url(#clip310)" d="M301.409 1128.4 Q297.798 1128.4 295.969 1131.97 Q294.164 1135.51 294.164 1142.64 Q294.164 1149.74 295.969 1153.31 Q297.798 1156.85 301.409 1156.85 Q305.043 1156.85 306.849 1153.31 Q308.678 1149.74 308.678 1142.64 Q308.678 1135.51 306.849 1131.97 Q305.043 1128.4 301.409 1128.4 M301.409 1124.7 Q307.219 1124.7 310.275 1129.3 Q313.353 1133.89 313.353 1142.64 Q313.353 1151.36 310.275 1155.97 Q307.219 1160.55 301.409 1160.55 Q295.599 1160.55 292.52 1155.97 Q289.465 1151.36 289.465 1142.64 Q289.465 1133.89 292.52 1129.3 Q295.599 1124.7 301.409 1124.7 Z" fill="#000000" fill-rule="evenodd" fill-opacity="1" /><path clip-path="url(#clip310)" d="M322.983 1119.14 Q320.275 1119.14 318.714 1120.59 Q317.171 1122.03 317.171 1124.57 Q317.171 1127.11 318.714 1128.56 Q320.275 1130.01 322.983 1130.01 Q325.691 1130.01 327.252 1128.56 Q328.813 1127.09 328.813 1124.57 Q328.813 1122.03 327.252 1120.59 Q325.71 1119.14 322.983 1119.14 M319.184 1117.52 Q316.739 1116.92 315.366 1115.24 Q314.012 1113.57 314.012 1111.16 Q314.012 1107.8 316.4 1105.84 Q318.808 1103.88 322.983 1103.88 Q327.177 1103.88 329.566 1105.84 Q331.954 1107.8 331.954 1111.16 Q331.954 1113.57 330.581 1115.24 Q329.227 1116.92 326.801 1117.52 Q329.547 1118.16 331.07 1120.02 Q332.613 1121.88 332.613 1124.57 Q332.613 1128.65 330.111 1130.84 Q327.629 1133.02 322.983 1133.02 Q318.337 1133.02 315.836 1130.84 Q313.353 1128.65 313.353 1124.57 Q313.353 1121.88 314.896 1120.02 Q316.438 1118.16 319.184 1117.52 M317.792 1111.52 Q317.792 1113.7 319.146 1114.92 Q320.519 1116.15 322.983 1116.15 Q325.428 1116.15 326.801 1114.92 Q328.193 1113.7 328.193 1111.52 Q328.193 1109.34 326.801 1108.12 Q325.428 1106.89 322.983 1106.89 Q320.519 1106.89 319.146 1108.12 Q317.792 1109.34 317.792 1111.52 Z" fill="#000000" fill-rule="evenodd" fill-opacity="1" /><path clip-path="url(#clip310)" d="M116.668 903.995 L124.306 903.995 L124.306 877.629 L115.996 879.296 L115.996 875.037 L124.26 873.37 L128.936 873.37 L128.936 903.995 L136.575 903.995 L136.575 907.93 L116.668 907.93 L116.668 903.995 Z" fill="#000000" fill-rule="evenodd" fill-opacity="1" /><path clip-path="url(#clip310)" d="M146.019 902.05 L150.903 902.05 L150.903 907.93 L146.019 907.93 L146.019 902.05 Z" fill="#000000" fill-rule="evenodd" fill-opacity="1" /><path clip-path="url(#clip310)" d="M171.089 876.449 Q167.477 876.449 165.649 880.013 Q163.843 883.555 163.843 890.685 Q163.843 897.791 165.649 901.356 Q167.477 904.898 171.089 904.898 Q174.723 904.898 176.528 901.356 Q178.357 897.791 178.357 890.685 Q178.357 883.555 176.528 880.013 Q174.723 876.449 171.089 876.449 M171.089 872.745 Q176.899 872.745 179.954 877.351 Q183.033 881.935 183.033 890.685 Q183.033 899.411 179.954 904.018 Q176.899 908.601 171.089 908.601 Q165.278 908.601 162.2 904.018 Q159.144 899.411 159.144 890.685 Q159.144 881.935 162.2 877.351 Q165.278 872.745 171.089 872.745 Z" fill="#000000" fill-rule="evenodd" fill-opacity="1" /><path clip-path="url(#clip310)" d="M201.25 876.449 Q197.639 876.449 195.811 880.013 Q194.005 883.555 194.005 890.685 Q194.005 897.791 195.811 901.356 Q197.639 904.898 201.25 904.898 Q204.885 904.898 206.69 901.356 Q208.519 897.791 208.519 890.685 Q208.519 883.555 206.69 880.013 Q204.885 876.449 201.25 876.449 M201.25 872.745 Q207.061 872.745 210.116 877.351 Q213.195 881.935 213.195 890.685 Q213.195 899.411 210.116 904.018 Q207.061 908.601 201.25 908.601 Q195.44 908.601 192.362 904.018 Q189.306 899.411 189.306 890.685 Q189.306 881.935 192.362 877.351 Q195.44 872.745 201.25 872.745 Z" fill="#000000" fill-rule="evenodd" fill-opacity="1" /><path clip-path="url(#clip310)" d="M249.584 882.467 L239.005 893.092 L249.584 903.671 L246.829 906.472 L236.204 895.847 L225.579 906.472 L222.848 903.671 L233.403 893.092 L222.848 882.467 L225.579 879.666 L236.204 890.291 L246.829 879.666 L249.584 882.467 Z" fill="#000000" fill-rule="evenodd" fill-opacity="1" /><path clip-path="url(#clip310)" d="M261.945 903.995 L269.583 903.995 L269.583 877.629 L261.273 879.296 L261.273 875.037 L269.537 873.37 L274.213 873.37 L274.213 903.995 L281.852 903.995 L281.852 907.93 L261.945 907.93 L261.945 903.995 Z" fill="#000000" fill-rule="evenodd" fill-opacity="1" /><path clip-path="url(#clip310)" d="M301.296 876.449 Q297.685 876.449 295.856 880.013 Q294.051 883.555 294.051 890.685 Q294.051 897.791 295.856 901.356 Q297.685 904.898 301.296 904.898 Q304.93 904.898 306.736 901.356 Q308.565 897.791 308.565 890.685 Q308.565 883.555 306.736 880.013 Q304.93 876.449 301.296 876.449 M301.296 872.745 Q307.106 872.745 310.162 877.351 Q313.241 881.935 313.241 890.685 Q313.241 899.411 310.162 904.018 Q307.106 908.601 301.296 908.601 Q295.486 908.601 292.407 904.018 Q289.352 899.411 289.352 890.685 Q289.352 881.935 292.407 877.351 Q295.486 872.745 301.296 872.745 Z" fill="#000000" fill-rule="evenodd" fill-opacity="1" /><path clip-path="url(#clip310)" d="M315.046 879.937 L315.046 876.476 Q316.476 877.153 317.943 877.51 Q319.41 877.868 320.82 877.868 Q324.582 877.868 326.556 875.347 Q328.55 872.808 328.832 867.655 Q327.741 869.273 326.067 870.138 Q324.394 871.003 322.362 871.003 Q318.149 871.003 315.686 868.464 Q313.241 865.906 313.241 861.486 Q313.241 857.16 315.798 854.546 Q318.356 851.932 322.607 851.932 Q327.478 851.932 330.036 855.674 Q332.613 859.398 332.613 866.508 Q332.613 873.147 329.453 877.115 Q326.312 881.065 320.989 881.065 Q319.56 881.065 318.093 880.783 Q316.626 880.501 315.046 879.937 M322.607 868.031 Q325.165 868.031 326.651 866.282 Q328.155 864.533 328.155 861.486 Q328.155 858.458 326.651 856.709 Q325.165 854.941 322.607 854.941 Q320.049 854.941 318.544 856.709 Q317.059 858.458 317.059 861.486 Q317.059 864.533 318.544 866.282 Q320.049 868.031 322.607 868.031 Z" fill="#000000" fill-rule="evenodd" fill-opacity="1" /><path clip-path="url(#clip310)" d="M116.668 652.042 L124.306 652.042 L124.306 625.677 L115.996 627.343 L115.996 623.084 L124.26 621.417 L128.936 621.417 L128.936 652.042 L136.575 652.042 L136.575 655.977 L116.668 655.977 L116.668 652.042 Z" fill="#000000" fill-rule="evenodd" fill-opacity="1" /><path clip-path="url(#clip310)" d="M146.019 650.098 L150.903 650.098 L150.903 655.977 L146.019 655.977 L146.019 650.098 Z" fill="#000000" fill-rule="evenodd" fill-opacity="1" /><path clip-path="url(#clip310)" d="M161.135 621.417 L179.491 621.417 L179.491 625.353 L165.417 625.353 L165.417 633.825 Q166.436 633.478 167.454 633.316 Q168.473 633.13 169.491 633.13 Q175.278 633.13 178.658 636.302 Q182.038 639.473 182.038 644.89 Q182.038 650.468 178.565 653.57 Q175.093 656.649 168.774 656.649 Q166.598 656.649 164.329 656.278 Q162.084 655.908 159.677 655.167 L159.677 650.468 Q161.76 651.602 163.982 652.158 Q166.204 652.714 168.681 652.714 Q172.686 652.714 175.024 650.607 Q177.362 648.501 177.362 644.89 Q177.362 641.278 175.024 639.172 Q172.686 637.066 168.681 637.066 Q166.806 637.066 164.931 637.482 Q163.079 637.899 161.135 638.778 L161.135 621.417 Z" fill="#000000" fill-rule="evenodd" fill-opacity="1" /><path clip-path="url(#clip310)" d="M201.25 624.496 Q197.639 624.496 195.811 628.061 Q194.005 631.603 194.005 638.732 Q194.005 645.839 195.811 649.403 Q197.639 652.945 201.25 652.945 Q204.885 652.945 206.69 649.403 Q208.519 645.839 208.519 638.732 Q208.519 631.603 206.69 628.061 Q204.885 624.496 201.25 624.496 M201.25 620.792 Q207.061 620.792 210.116 625.399 Q213.195 629.982 213.195 638.732 Q213.195 647.459 210.116 652.065 Q207.061 656.649 201.25 656.649 Q195.44 656.649 192.362 652.065 Q189.306 647.459 189.306 638.732 Q189.306 629.982 192.362 625.399 Q195.44 620.792 201.25 620.792 Z" fill="#000000" fill-rule="evenodd" fill-opacity="1" /><path clip-path="url(#clip310)" d="M249.584 630.515 L239.005 641.14 L249.584 651.718 L246.829 654.519 L236.204 643.894 L225.579 654.519 L222.848 651.718 L233.403 641.14 L222.848 630.515 L225.579 627.714 L236.204 638.339 L246.829 627.714 L249.584 630.515 Z" fill="#000000" fill-rule="evenodd" fill-opacity="1" /><path clip-path="url(#clip310)" d="M261.945 652.042 L269.583 652.042 L269.583 625.677 L261.273 627.343 L261.273 623.084 L269.537 621.417 L274.213 621.417 L274.213 652.042 L281.852 652.042 L281.852 655.977 L261.945 655.977 L261.945 652.042 Z" fill="#000000" fill-rule="evenodd" fill-opacity="1" /><path clip-path="url(#clip310)" d="M301.296 624.496 Q297.685 624.496 295.856 628.061 Q294.051 631.603 294.051 638.732 Q294.051 645.839 295.856 649.403 Q297.685 652.945 301.296 652.945 Q304.93 652.945 306.736 649.403 Q308.565 645.839 308.565 638.732 Q308.565 631.603 306.736 628.061 Q304.93 624.496 301.296 624.496 M301.296 620.792 Q307.106 620.792 310.162 625.399 Q313.241 629.982 313.241 638.732 Q313.241 647.459 310.162 652.065 Q307.106 656.649 301.296 656.649 Q295.486 656.649 292.407 652.065 Q289.352 647.459 289.352 638.732 Q289.352 629.982 292.407 625.399 Q295.486 620.792 301.296 620.792 Z" fill="#000000" fill-rule="evenodd" fill-opacity="1" /><path clip-path="url(#clip310)" d="M315.046 627.984 L315.046 624.523 Q316.476 625.2 317.943 625.558 Q319.41 625.915 320.82 625.915 Q324.582 625.915 326.556 623.395 Q328.55 620.856 328.832 615.703 Q327.741 617.32 326.067 618.185 Q324.394 619.05 322.362 619.05 Q318.149 619.05 315.686 616.511 Q313.241 613.953 313.241 609.534 Q313.241 605.208 315.798 602.594 Q318.356 599.979 322.607 599.979 Q327.478 599.979 330.036 603.722 Q332.613 607.446 332.613 614.555 Q332.613 621.194 329.453 625.163 Q326.312 629.112 320.989 629.112 Q319.56 629.112 318.093 628.83 Q316.626 628.548 315.046 627.984 M322.607 616.079 Q325.165 616.079 326.651 614.33 Q328.155 612.58 328.155 609.534 Q328.155 606.506 326.651 604.756 Q325.165 602.988 322.607 602.988 Q320.049 602.988 318.544 604.756 Q317.059 606.506 317.059 609.534 Q317.059 612.58 318.544 614.33 Q320.049 616.079 322.607 616.079 Z" fill="#000000" fill-rule="evenodd" fill-opacity="1" /><path clip-path="url(#clip310)" d="M119.885 400.09 L136.204 400.09 L136.204 404.025 L114.26 404.025 L114.26 400.09 Q116.922 397.335 121.505 392.706 Q126.112 388.053 127.292 386.71 Q129.538 384.187 130.417 382.451 Q131.32 380.692 131.32 379.002 Q131.32 376.247 129.376 374.511 Q127.455 372.775 124.353 372.775 Q122.154 372.775 119.7 373.539 Q117.269 374.303 114.492 375.854 L114.492 371.132 Q117.316 369.997 119.769 369.419 Q122.223 368.84 124.26 368.84 Q129.63 368.84 132.825 371.525 Q136.019 374.21 136.019 378.701 Q136.019 380.831 135.209 382.752 Q134.422 384.65 132.316 387.243 Q131.737 387.914 128.635 391.132 Q125.533 394.326 119.885 400.09 Z" fill="#000000" fill-rule="evenodd" fill-opacity="1" /><path clip-path="url(#clip310)" d="M146.019 398.145 L150.903 398.145 L150.903 404.025 L146.019 404.025 L146.019 398.145 Z" fill="#000000" fill-rule="evenodd" fill-opacity="1" /><path clip-path="url(#clip310)" d="M171.089 372.544 Q167.477 372.544 165.649 376.108 Q163.843 379.65 163.843 386.78 Q163.843 393.886 165.649 397.451 Q167.477 400.993 171.089 400.993 Q174.723 400.993 176.528 397.451 Q178.357 393.886 178.357 386.78 Q178.357 379.65 176.528 376.108 Q174.723 372.544 171.089 372.544 M171.089 368.84 Q176.899 368.84 179.954 373.446 Q183.033 378.03 183.033 386.78 Q183.033 395.506 179.954 400.113 Q176.899 404.696 171.089 404.696 Q165.278 404.696 162.2 400.113 Q159.144 395.506 159.144 386.78 Q159.144 378.03 162.2 373.446 Q165.278 368.84 171.089 368.84 Z" fill="#000000" fill-rule="evenodd" fill-opacity="1" /><path clip-path="url(#clip310)" d="M201.25 372.544 Q197.639 372.544 195.811 376.108 Q194.005 379.65 194.005 386.78 Q194.005 393.886 195.811 397.451 Q197.639 400.993 201.25 400.993 Q204.885 400.993 206.69 397.451 Q208.519 393.886 208.519 386.78 Q208.519 379.65 206.69 376.108 Q204.885 372.544 201.25 372.544 M201.25 368.84 Q207.061 368.84 210.116 373.446 Q213.195 378.03 213.195 386.78 Q213.195 395.506 210.116 400.113 Q207.061 404.696 201.25 404.696 Q195.44 404.696 192.362 400.113 Q189.306 395.506 189.306 386.78 Q189.306 378.03 192.362 373.446 Q195.44 368.84 201.25 368.84 Z" fill="#000000" fill-rule="evenodd" fill-opacity="1" /><path clip-path="url(#clip310)" d="M249.584 378.562 L239.005 389.187 L249.584 399.766 L246.829 402.567 L236.204 391.942 L225.579 402.567 L222.848 399.766 L233.403 389.187 L222.848 378.562 L225.579 375.761 L236.204 386.386 L246.829 375.761 L249.584 378.562 Z" fill="#000000" fill-rule="evenodd" fill-opacity="1" /><path clip-path="url(#clip310)" d="M261.945 400.09 L269.583 400.09 L269.583 373.724 L261.273 375.391 L261.273 371.132 L269.537 369.465 L274.213 369.465 L274.213 400.09 L281.852 400.09 L281.852 404.025 L261.945 404.025 L261.945 400.09 Z" fill="#000000" fill-rule="evenodd" fill-opacity="1" /><path clip-path="url(#clip310)" d="M301.296 372.544 Q297.685 372.544 295.856 376.108 Q294.051 379.65 294.051 386.78 Q294.051 393.886 295.856 397.451 Q297.685 400.993 301.296 400.993 Q304.93 400.993 306.736 397.451 Q308.565 393.886 308.565 386.78 Q308.565 379.65 306.736 376.108 Q304.93 372.544 301.296 372.544 M301.296 368.84 Q307.106 368.84 310.162 373.446 Q313.241 378.03 313.241 386.78 Q313.241 395.506 310.162 400.113 Q307.106 404.696 301.296 404.696 Q295.486 404.696 292.407 400.113 Q289.352 395.506 289.352 386.78 Q289.352 378.03 292.407 373.446 Q295.486 368.84 301.296 368.84 Z" fill="#000000" fill-rule="evenodd" fill-opacity="1" /><path clip-path="url(#clip310)" d="M315.046 376.032 L315.046 372.571 Q316.476 373.248 317.943 373.605 Q319.41 373.963 320.82 373.963 Q324.582 373.963 326.556 371.442 Q328.55 368.903 328.832 363.75 Q327.741 365.368 326.067 366.233 Q324.394 367.098 322.362 367.098 Q318.149 367.098 315.686 364.559 Q313.241 362.001 313.241 357.581 Q313.241 353.255 315.798 350.641 Q318.356 348.027 322.607 348.027 Q327.478 348.027 330.036 351.769 Q332.613 355.493 332.613 362.603 Q332.613 369.242 329.453 373.21 Q326.312 377.16 320.989 377.16 Q319.56 377.16 318.093 376.878 Q316.626 376.596 315.046 376.032 M322.607 364.126 Q325.165 364.126 326.651 362.377 Q328.155 360.628 328.155 357.581 Q328.155 354.553 326.651 352.804 Q325.165 351.036 322.607 351.036 Q320.049 351.036 318.544 352.804 Q317.059 354.553 317.059 357.581 Q317.059 360.628 318.544 362.377 Q320.049 364.126 322.607 364.126 Z" fill="#000000" fill-rule="evenodd" fill-opacity="1" /><path clip-path="url(#clip310)" d="M46.212 862.99 Q39.7508 862.99 36.0905 865.663 Q32.3984 868.305 32.3984 872.952 Q32.3984 877.599 36.0905 880.273 Q39.7508 882.915 46.212 882.915 Q52.6732 882.915 56.3653 880.273 Q60.0256 877.599 60.0256 872.952 Q60.0256 868.305 56.3653 865.663 Q52.6732 862.99 46.212 862.99 M33.7671 882.915 Q30.5842 881.068 29.0564 878.268 Q27.4968 875.435 27.4968 871.52 Q27.4968 865.027 32.6531 860.985 Q37.8093 856.911 46.212 856.911 Q54.6147 856.911 59.771 860.985 Q64.9272 865.027 64.9272 871.52 Q64.9272 875.435 63.3994 878.268 Q61.8398 881.068 58.657 882.915 L64.0042 882.915 L64.0042 888.803 L14.479 888.803 L14.479 882.915 L33.7671 882.915 Z" fill="#000000" fill-rule="evenodd" fill-opacity="1" /><path clip-path="url(#clip310)" d="M67.3143 832.371 Q73.68 834.853 75.6216 837.209 Q77.5631 839.564 77.5631 843.511 L77.5631 848.19 L72.6615 848.19 L72.6615 844.752 Q72.6615 842.333 71.5157 840.996 Q70.3699 839.66 66.1048 838.036 L63.4312 836.986 L28.3562 851.404 L28.3562 845.198 L56.238 834.058 L28.3562 822.918 L28.3562 816.711 L67.3143 832.371 Z" fill="#000000" fill-rule="evenodd" fill-opacity="1" /><path clip-path="url(#clip310)" d="M18.2347 802.834 L28.3562 802.834 L28.3562 790.771 L32.9077 790.771 L32.9077 802.834 L52.2594 802.834 Q56.6199 802.834 57.8613 801.656 Q59.1026 800.447 59.1026 796.787 L59.1026 790.771 L64.0042 790.771 L64.0042 796.787 Q64.0042 803.566 61.4897 806.144 Q58.9434 808.722 52.2594 808.722 L32.9077 808.722 L32.9077 813.019 L28.3562 813.019 L28.3562 808.722 L18.2347 808.722 L18.2347 802.834 Z" fill="#000000" fill-rule="evenodd" fill-opacity="1" /><path clip-path="url(#clip310)" d="M44.7161 752.577 L47.5806 752.577 L47.5806 779.504 Q53.6281 779.122 56.8109 775.875 Q59.9619 772.597 59.9619 766.772 Q59.9619 763.398 59.1344 760.247 Q58.3069 757.064 56.6518 753.945 L62.1899 753.945 Q63.5267 757.096 64.227 760.406 Q64.9272 763.717 64.9272 767.122 Q64.9272 775.652 59.9619 780.649 Q54.9967 785.615 46.5303 785.615 Q37.7774 785.615 32.6531 780.904 Q27.4968 776.162 27.4968 768.141 Q27.4968 760.948 32.1438 756.778 Q36.7589 752.577 44.7161 752.577 M42.9973 758.433 Q38.1912 758.497 35.3266 761.139 Q32.4621 763.748 32.4621 768.077 Q32.4621 772.979 35.2312 775.939 Q38.0002 778.867 43.0292 779.313 L42.9973 758.433 Z" fill="#000000" fill-rule="evenodd" fill-opacity="1" /><path clip-path="url(#clip310)" d="M29.4065 720.239 L34.9447 720.239 Q33.6716 722.722 33.035 725.395 Q32.3984 728.069 32.3984 730.933 Q32.3984 735.294 33.7352 737.49 Q35.072 739.654 37.7456 739.654 Q39.7826 739.654 40.9603 738.095 Q42.1061 736.535 43.1565 731.824 L43.6021 729.819 Q44.9389 723.581 47.3897 720.971 Q49.8086 718.329 54.1691 718.329 Q59.1344 718.329 62.0308 722.276 Q64.9272 726.191 64.9272 733.066 Q64.9272 735.93 64.3543 739.05 Q63.8132 742.137 62.6992 745.574 L56.6518 745.574 Q58.3387 742.328 59.198 739.177 Q60.0256 736.026 60.0256 732.938 Q60.0256 728.801 58.6251 726.573 Q57.1929 724.345 54.6147 724.345 Q52.2276 724.345 50.9545 725.968 Q49.6813 727.559 48.5037 733.002 L48.0262 735.039 Q46.8804 740.482 44.5251 742.901 Q42.138 745.32 38.0002 745.32 Q32.9713 745.32 30.2341 741.755 Q27.4968 738.19 27.4968 731.633 Q27.4968 728.387 27.9743 725.522 Q28.4517 722.658 29.4065 720.239 Z" fill="#000000" fill-rule="evenodd" fill-opacity="1" /><path clip-path="url(#clip310)" d="M957.315 33.264 L969.509 33.264 L984.943 74.4212 L1000.46 33.264 L1012.65 33.264 L1012.65 93.744 L1004.67 93.744 L1004.67 40.6366 L989.075 82.1179 L980.851 82.1179 L965.255 40.6366 L965.255 93.744 L957.315 93.744 L957.315 33.264 Z" fill="#000000" fill-rule="evenodd" fill-opacity="1" /><path clip-path="url(#clip310)" d="M1049.19 70.9374 Q1040.16 70.9374 1036.67 73.0034 Q1033.19 75.0693 1033.19 80.0519 Q1033.19 84.0218 1035.78 86.3714 Q1038.41 88.6804 1042.91 88.6804 Q1049.11 88.6804 1052.84 84.3054 Q1056.6 79.8899 1056.6 72.5983 L1056.6 70.9374 L1049.19 70.9374 M1064.06 67.8587 L1064.06 93.744 L1056.6 93.744 L1056.6 86.8575 Q1054.05 90.9894 1050.24 92.9743 Q1046.44 94.9188 1040.93 94.9188 Q1033.96 94.9188 1029.83 91.0299 Q1025.74 87.1005 1025.74 80.5381 Q1025.74 72.8818 1030.84 68.993 Q1035.98 65.1041 1046.15 65.1041 L1056.6 65.1041 L1056.6 64.3749 Q1056.6 59.2303 1053.2 56.4352 Q1049.84 53.5995 1043.72 53.5995 Q1039.83 53.5995 1036.15 54.5312 Q1032.46 55.463 1029.06 57.3264 L1029.06 50.4398 Q1033.15 48.86 1037 48.0903 Q1040.85 47.2801 1044.49 47.2801 Q1054.33 47.2801 1059.2 52.3843 Q1064.06 57.4884 1064.06 67.8587 Z" fill="#000000" fill-rule="evenodd" fill-opacity="1" /><path clip-path="url(#clip310)" d="M1079.41 30.7119 L1086.86 30.7119 L1086.86 93.744 L1079.41 93.744 L1079.41 30.7119 Z" fill="#000000" fill-rule="evenodd" fill-opacity="1" /><path clip-path="url(#clip310)" d="M1102.46 30.7119 L1109.91 30.7119 L1109.91 93.744 L1102.46 93.744 L1102.46 30.7119 Z" fill="#000000" fill-rule="evenodd" fill-opacity="1" /><path clip-path="url(#clip310)" d="M1143.09 53.5995 Q1137.09 53.5995 1133.61 58.2986 Q1130.13 62.9571 1130.13 71.0994 Q1130.13 79.2418 1133.57 83.9408 Q1137.05 88.5994 1143.09 88.5994 Q1149.04 88.5994 1152.53 83.9003 Q1156.01 79.2013 1156.01 71.0994 Q1156.01 63.0381 1152.53 58.3391 Q1149.04 53.5995 1143.09 53.5995 M1143.09 47.2801 Q1152.81 47.2801 1158.36 53.5995 Q1163.91 59.9189 1163.91 71.0994 Q1163.91 82.2394 1158.36 88.5994 Q1152.81 94.9188 1143.09 94.9188 Q1133.33 94.9188 1127.78 88.5994 Q1122.27 82.2394 1122.27 71.0994 Q1122.27 59.9189 1127.78 53.5995 Q1133.33 47.2801 1143.09 47.2801 Z" fill="#000000" fill-rule="evenodd" fill-opacity="1" /><path clip-path="url(#clip310)" d="M1208.92 50.1158 L1208.92 57.0833 Q1205.76 55.3414 1202.56 54.4907 Q1199.4 53.5995 1196.16 53.5995 Q1188.91 53.5995 1184.9 58.2176 Q1180.88 62.7951 1180.88 71.0994 Q1180.88 79.4038 1184.9 84.0218 Q1188.91 88.5994 1196.16 88.5994 Q1199.4 88.5994 1202.56 87.7487 Q1205.76 86.8575 1208.92 85.1156 L1208.92 92.0021 Q1205.8 93.4604 1202.44 94.1896 Q1199.11 94.9188 1195.35 94.9188 Q1185.1 94.9188 1179.06 88.4778 Q1173.03 82.0369 1173.03 71.0994 Q1173.03 60 1179.1 53.64 Q1185.22 47.2801 1195.83 47.2801 Q1199.28 47.2801 1202.56 48.0093 Q1205.84 48.6979 1208.92 50.1158 Z" fill="#000000" fill-rule="evenodd" fill-opacity="1" /><path clip-path="url(#clip310)" d="M1250.8 49.7107 L1250.8 56.7592 Q1247.64 55.1389 1244.24 54.3287 Q1240.84 53.5185 1237.19 53.5185 Q1231.64 53.5185 1228.85 55.2199 Q1226.09 56.9213 1226.09 60.324 Q1226.09 62.9166 1228.08 64.4155 Q1230.06 65.8738 1236.06 67.2106 L1238.61 67.7777 Q1246.55 69.4791 1249.87 72.5983 Q1253.23 75.677 1253.23 81.2267 Q1253.23 87.5461 1248.21 91.2324 Q1243.23 94.9188 1234.48 94.9188 Q1230.83 94.9188 1226.86 94.1896 Q1222.93 93.5009 1218.56 92.0831 L1218.56 84.3864 Q1222.69 86.5334 1226.7 87.6271 Q1230.71 88.6804 1234.64 88.6804 Q1239.91 88.6804 1242.74 86.898 Q1245.58 85.0751 1245.58 81.7938 Q1245.58 78.7557 1243.51 77.1353 Q1241.49 75.5149 1234.56 74.0161 L1231.97 73.4085 Q1225.04 71.9501 1221.96 68.9525 Q1218.88 65.9143 1218.88 60.6481 Q1218.88 54.2477 1223.42 50.7639 Q1227.96 47.2801 1236.3 47.2801 Q1240.43 47.2801 1244.08 47.8878 Q1247.72 48.4954 1250.8 49.7107 Z" fill="#000000" fill-rule="evenodd" fill-opacity="1" /><path clip-path="url(#clip310)" d="M1330.28 69.1955 L1330.28 72.8413 L1296.01 72.8413 Q1296.5 80.5381 1300.63 84.589 Q1304.8 88.5994 1312.22 88.5994 Q1316.51 88.5994 1320.52 87.5461 Q1324.57 86.4929 1328.54 84.3864 L1328.54 91.435 Q1324.53 93.1364 1320.32 94.0276 Q1316.1 94.9188 1311.77 94.9188 Q1300.91 94.9188 1294.55 88.5994 Q1288.23 82.2799 1288.23 71.5045 Q1288.23 60.3645 1294.23 53.8426 Q1300.27 47.2801 1310.47 47.2801 Q1319.63 47.2801 1324.94 53.1944 Q1330.28 59.0683 1330.28 69.1955 M1322.83 67.008 Q1322.75 60.8912 1319.39 57.2454 Q1316.06 53.5995 1310.55 53.5995 Q1304.32 53.5995 1300.55 57.1238 Q1296.82 60.6481 1296.25 67.0485 L1322.83 67.008 Z" fill="#000000" fill-rule="evenodd" fill-opacity="1" /><path clip-path="url(#clip310)" d="M1337.17 48.3739 L1345.07 48.3739 L1359.25 86.4524 L1373.42 48.3739 L1381.32 48.3739 L1364.31 93.744 L1354.18 93.744 L1337.17 48.3739 Z" fill="#000000" fill-rule="evenodd" fill-opacity="1" /><path clip-path="url(#clip310)" d="M1409.19 53.5995 Q1403.2 53.5995 1399.71 58.2986 Q1396.23 62.9571 1396.23 71.0994 Q1396.23 79.2418 1399.67 83.9408 Q1403.16 88.5994 1409.19 88.5994 Q1415.15 88.5994 1418.63 83.9003 Q1422.12 79.2013 1422.12 71.0994 Q1422.12 63.0381 1418.63 58.3391 Q1415.15 53.5995 1409.19 53.5995 M1409.19 47.2801 Q1418.92 47.2801 1424.47 53.5995 Q1430.02 59.9189 1430.02 71.0994 Q1430.02 82.2394 1424.47 88.5994 Q1418.92 94.9188 1409.19 94.9188 Q1399.43 94.9188 1393.88 88.5994 Q1388.37 82.2394 1388.37 71.0994 Q1388.37 59.9189 1393.88 53.5995 Q1399.43 47.2801 1409.19 47.2801 Z" fill="#000000" fill-rule="evenodd" fill-opacity="1" /><path clip-path="url(#clip310)" d="M1442.37 30.7119 L1449.82 30.7119 L1449.82 93.744 L1442.37 93.744 L1442.37 30.7119 Z" fill="#000000" fill-rule="evenodd" fill-opacity="1" /><path clip-path="url(#clip310)" d="M1464.65 75.839 L1464.65 48.3739 L1472.1 48.3739 L1472.1 75.5554 Q1472.1 81.9964 1474.62 85.2371 Q1477.13 88.4373 1482.15 88.4373 Q1488.19 88.4373 1491.67 84.589 Q1495.19 80.7406 1495.19 74.0971 L1495.19 48.3739 L1502.65 48.3739 L1502.65 93.744 L1495.19 93.744 L1495.19 86.7764 Q1492.48 90.9084 1488.88 92.9338 Q1485.31 94.9188 1480.57 94.9188 Q1472.75 94.9188 1468.7 90.0577 Q1464.65 85.1966 1464.65 75.839 M1483.41 47.2801 L1483.41 47.2801 Z" fill="#000000" fill-rule="evenodd" fill-opacity="1" /><path clip-path="url(#clip310)" d="M1525.37 35.492 L1525.37 48.3739 L1540.73 48.3739 L1540.73 54.1667 L1525.37 54.1667 L1525.37 78.7962 Q1525.37 84.3459 1526.87 85.9258 Q1528.41 87.5056 1533.07 87.5056 L1540.73 87.5056 L1540.73 93.744 L1533.07 93.744 Q1524.44 93.744 1521.16 90.5438 Q1517.88 87.3031 1517.88 78.7962 L1517.88 54.1667 L1512.41 54.1667 L1512.41 48.3739 L1517.88 48.3739 L1517.88 35.492 L1525.37 35.492 Z" fill="#000000" fill-rule="evenodd" fill-opacity="1" /><path clip-path="url(#clip310)" d="M1550.53 48.3739 L1557.98 48.3739 L1557.98 93.744 L1550.53 93.744 L1550.53 48.3739 M1550.53 30.7119 L1557.98 30.7119 L1557.98 40.1505 L1550.53 40.1505 L1550.53 30.7119 Z" fill="#000000" fill-rule="evenodd" fill-opacity="1" /><path clip-path="url(#clip310)" d="M1591.16 53.5995 Q1585.17 53.5995 1581.68 58.2986 Q1578.2 62.9571 1578.2 71.0994 Q1578.2 79.2418 1581.64 83.9408 Q1585.12 88.5994 1591.16 88.5994 Q1597.12 88.5994 1600.6 83.9003 Q1604.08 79.2013 1604.08 71.0994 Q1604.08 63.0381 1600.6 58.3391 Q1597.12 53.5995 1591.16 53.5995 M1591.16 47.2801 Q1600.88 47.2801 1606.43 53.5995 Q1611.98 59.9189 1611.98 71.0994 Q1611.98 82.2394 1606.43 88.5994 Q1600.88 94.9188 1591.16 94.9188 Q1581.4 94.9188 1575.85 88.5994 Q1570.34 82.2394 1570.34 71.0994 Q1570.34 59.9189 1575.85 53.5995 Q1581.4 47.2801 1591.16 47.2801 Z" fill="#000000" fill-rule="evenodd" fill-opacity="1" /><path clip-path="url(#clip310)" d="M1662.05 66.3599 L1662.05 93.744 L1654.6 93.744 L1654.6 66.6029 Q1654.6 60.162 1652.09 56.9618 Q1649.57 53.7616 1644.55 53.7616 Q1638.52 53.7616 1635.03 57.6099 Q1631.55 61.4583 1631.55 68.1018 L1631.55 93.744 L1624.05 93.744 L1624.05 48.3739 L1631.55 48.3739 L1631.55 55.4224 Q1634.22 51.331 1637.83 49.3056 Q1641.47 47.2801 1646.21 47.2801 Q1654.03 47.2801 1658.04 52.1412 Q1662.05 56.9618 1662.05 66.3599 Z" fill="#000000" fill-rule="evenodd" fill-opacity="1" /><path clip-path="url(#clip310)" d="M1703.29 48.3739 L1710.74 48.3739 L1710.74 93.744 L1703.29 93.744 L1703.29 48.3739 M1703.29 30.7119 L1710.74 30.7119 L1710.74 40.1505 L1703.29 40.1505 L1703.29 30.7119 Z" fill="#000000" fill-rule="evenodd" fill-opacity="1" /><path clip-path="url(#clip310)" d="M1764.05 66.3599 L1764.05 93.744 L1756.6 93.744 L1756.6 66.6029 Q1756.6 60.162 1754.09 56.9618 Q1751.58 53.7616 1746.55 53.7616 Q1740.52 53.7616 1737.03 57.6099 Q1733.55 61.4583 1733.55 68.1018 L1733.55 93.744 L1726.06 93.744 L1726.06 48.3739 L1733.55 48.3739 L1733.55 55.4224 Q1736.22 51.331 1739.83 49.3056 Q1743.47 47.2801 1748.21 47.2801 Q1756.03 47.2801 1760.04 52.1412 Q1764.05 56.9618 1764.05 66.3599 Z" fill="#000000" fill-rule="evenodd" fill-opacity="1" /><path clip-path="url(#clip310)" d="M1284.34 175.836 L1284.34 159.591 L1270.98 159.591 L1270.98 152.867 L1292.45 152.867 L1292.45 178.833 Q1287.71 182.195 1282 183.937 Q1276.28 185.639 1269.8 185.639 Q1255.62 185.639 1247.6 177.375 Q1239.62 169.071 1239.62 154.285 Q1239.62 139.458 1247.6 131.195 Q1255.62 122.89 1269.8 122.89 Q1275.72 122.89 1281.02 124.349 Q1286.37 125.807 1290.87 128.643 L1290.87 137.352 Q1286.33 133.504 1281.23 131.559 Q1276.12 129.615 1270.49 129.615 Q1259.39 129.615 1253.8 135.813 Q1248.25 142.011 1248.25 154.285 Q1248.25 166.518 1253.8 172.716 Q1259.39 178.914 1270.49 178.914 Q1274.83 178.914 1278.23 178.185 Q1281.63 177.415 1284.34 175.836 Z" fill="#000000" fill-rule="evenodd" fill-opacity="1" /><path clip-path="url(#clip310)" d="M1307.39 123.984 L1315.58 123.984 L1315.58 177.577 L1345.03 177.577 L1345.03 184.464 L1307.39 184.464 L1307.39 123.984 Z" fill="#000000" fill-rule="evenodd" fill-opacity="1" /><path clip-path="url(#clip310)" d="M1353.62 123.984 L1365.81 123.984 L1381.24 165.141 L1396.76 123.984 L1408.95 123.984 L1408.95 184.464 L1400.97 184.464 L1400.97 131.357 L1385.37 172.838 L1377.15 172.838 L1361.56 131.357 L1361.56 184.464 L1353.62 184.464 L1353.62 123.984 Z" fill="#000000" fill-rule="evenodd" fill-opacity="1" /><path clip-path="url(#clip310)" d="M1425.92 174.175 L1434.47 174.175 L1434.47 184.464 L1425.92 184.464 L1425.92 174.175 Z" fill="#000000" fill-rule="evenodd" fill-opacity="1" /><path clip-path="url(#clip310)" d="M1451.24 139.094 L1458.7 139.094 L1458.7 185.274 Q1458.7 193.943 1455.37 197.832 Q1452.09 201.721 1444.76 201.721 L1441.93 201.721 L1441.93 195.401 L1443.91 195.401 Q1448.16 195.401 1449.7 193.416 Q1451.24 191.472 1451.24 185.274 L1451.24 139.094 M1451.24 121.432 L1458.7 121.432 L1458.7 130.871 L1451.24 130.871 L1451.24 121.432 Z" fill="#000000" fill-rule="evenodd" fill-opacity="1" /><path clip-path="url(#clip310)" d="M1474.29 121.432 L1481.75 121.432 L1481.75 184.464 L1474.29 184.464 L1474.29 121.432 Z" fill="#000000" fill-rule="evenodd" fill-opacity="1" /><polyline clip-path="url(#clip312)" style="stroke:#009af9; stroke-linecap:round; stroke-linejoin:round; stroke-width:8; stroke-opacity:0.5; fill:none" points="424.768,1388.11 658.747,1388.11 892.726,1388.11 1126.71,1388.11 1360.68,1388.11 1594.66,1388.11 1828.64,1388.11 2062.62,1388.11 2296.6,1388.11 "/>
<circle clip-path="url(#clip312)" cx="424.768" cy="1388.11" r="14.4" fill="#009af9" fill-rule="evenodd" fill-opacity="1" stroke="#000000" stroke-opacity="1" stroke-width="3.2"/>
<circle clip-path="url(#clip312)" cx="658.747" cy="1388.11" r="14.4" fill="#009af9" fill-rule="evenodd" fill-opacity="1" stroke="#000000" stroke-opacity="1" stroke-width="3.2"/>
<circle clip-path="url(#clip312)" cx="892.726" cy="1388.11" r="14.4" fill="#009af9" fill-rule="evenodd" fill-opacity="1" stroke="#000000" stroke-opacity="1" stroke-width="3.2"/>
<circle clip-path="url(#clip312)" cx="1126.71" cy="1388.11" r="14.4" fill="#009af9" fill-rule="evenodd" fill-opacity="1" stroke="#000000" stroke-opacity="1" stroke-width="3.2"/>
<circle clip-path="url(#clip312)" cx="1360.68" cy="1388.11" r="14.4" fill="#009af9" fill-rule="evenodd" fill-opacity="1" stroke="#000000" stroke-opacity="1" stroke-width="3.2"/>
<circle clip-path="url(#clip312)" cx="1594.66" cy="1388.11" r="14.4" fill="#009af9" fill-rule="evenodd" fill-opacity="1" stroke="#000000" stroke-opacity="1" stroke-width="3.2"/>
<circle clip-path="url(#clip312)" cx="1828.64" cy="1388.11" r="14.4" fill="#009af9" fill-rule="evenodd" fill-opacity="1" stroke="#000000" stroke-opacity="1" stroke-width="3.2"/>
<circle clip-path="url(#clip312)" cx="2062.62" cy="1388.11" r="14.4" fill="#009af9" fill-rule="evenodd" fill-opacity="1" stroke="#000000" stroke-opacity="1" stroke-width="3.2"/>
<circle clip-path="url(#clip312)" cx="2296.6" cy="1388.11" r="14.4" fill="#009af9" fill-rule="evenodd" fill-opacity="1" stroke="#000000" stroke-opacity="1" stroke-width="3.2"/>
<polyline clip-path="url(#clip312)" style="stroke:#e26f46; stroke-linecap:round; stroke-linejoin:round; stroke-width:8; stroke-opacity:0.5; fill:none" points="424.768,339.962 658.747,339.962 892.726,339.962 1126.71,339.962 1360.68,339.962 1594.66,339.962 1828.64,339.962 2062.62,339.962 2296.6,339.962 "/>
<circle clip-path="url(#clip312)" cx="424.768" cy="339.962" r="14.4" fill="#e26f46" fill-rule="evenodd" fill-opacity="1" stroke="#000000" stroke-opacity="1" stroke-width="3.2"/>
<circle clip-path="url(#clip312)" cx="658.747" cy="339.962" r="14.4" fill="#e26f46" fill-rule="evenodd" fill-opacity="1" stroke="#000000" stroke-opacity="1" stroke-width="3.2"/>
<circle clip-path="url(#clip312)" cx="892.726" cy="339.962" r="14.4" fill="#e26f46" fill-rule="evenodd" fill-opacity="1" stroke="#000000" stroke-opacity="1" stroke-width="3.2"/>
<circle clip-path="url(#clip312)" cx="1126.71" cy="339.962" r="14.4" fill="#e26f46" fill-rule="evenodd" fill-opacity="1" stroke="#000000" stroke-opacity="1" stroke-width="3.2"/>
<circle clip-path="url(#clip312)" cx="1360.68" cy="339.962" r="14.4" fill="#e26f46" fill-rule="evenodd" fill-opacity="1" stroke="#000000" stroke-opacity="1" stroke-width="3.2"/>
<circle clip-path="url(#clip312)" cx="1594.66" cy="339.962" r="14.4" fill="#e26f46" fill-rule="evenodd" fill-opacity="1" stroke="#000000" stroke-opacity="1" stroke-width="3.2"/>
<circle clip-path="url(#clip312)" cx="1828.64" cy="339.962" r="14.4" fill="#e26f46" fill-rule="evenodd" fill-opacity="1" stroke="#000000" stroke-opacity="1" stroke-width="3.2"/>
<circle clip-path="url(#clip312)" cx="2062.62" cy="339.962" r="14.4" fill="#e26f46" fill-rule="evenodd" fill-opacity="1" stroke="#000000" stroke-opacity="1" stroke-width="3.2"/>
<circle clip-path="url(#clip312)" cx="2296.6" cy="339.962" r="14.4" fill="#e26f46" fill-rule="evenodd" fill-opacity="1" stroke="#000000" stroke-opacity="1" stroke-width="3.2"/>
<polyline clip-path="url(#clip312)" style="stroke:#3da44d; stroke-linecap:round; stroke-linejoin:round; stroke-width:8; stroke-opacity:0.5; fill:none" points="424.768,219.025 658.747,279.493 892.726,279.493 1126.71,279.493 1360.68,279.493 1594.66,279.493 1828.64,279.493 2062.62,279.493 2296.6,279.493 "/>
<circle clip-path="url(#clip312)" cx="424.768" cy="219.025" r="14.4" fill="#3da44d" fill-rule="evenodd" fill-opacity="1" stroke="#000000" stroke-opacity="1" stroke-width="3.2"/>
<circle clip-path="url(#clip312)" cx="658.747" cy="279.493" r="14.4" fill="#3da44d" fill-rule="evenodd" fill-opacity="1" stroke="#000000" stroke-opacity="1" stroke-width="3.2"/>
<circle clip-path="url(#clip312)" cx="892.726" cy="279.493" r="14.4" fill="#3da44d" fill-rule="evenodd" fill-opacity="1" stroke="#000000" stroke-opacity="1" stroke-width="3.2"/>
<circle clip-path="url(#clip312)" cx="1126.71" cy="279.493" r="14.4" fill="#3da44d" fill-rule="evenodd" fill-opacity="1" stroke="#000000" stroke-opacity="1" stroke-width="3.2"/>
<circle clip-path="url(#clip312)" cx="1360.68" cy="279.493" r="14.4" fill="#3da44d" fill-rule="evenodd" fill-opacity="1" stroke="#000000" stroke-opacity="1" stroke-width="3.2"/>
<circle clip-path="url(#clip312)" cx="1594.66" cy="279.493" r="14.4" fill="#3da44d" fill-rule="evenodd" fill-opacity="1" stroke="#000000" stroke-opacity="1" stroke-width="3.2"/>
<circle clip-path="url(#clip312)" cx="1828.64" cy="279.493" r="14.4" fill="#3da44d" fill-rule="evenodd" fill-opacity="1" stroke="#000000" stroke-opacity="1" stroke-width="3.2"/>
<circle clip-path="url(#clip312)" cx="2062.62" cy="279.493" r="14.4" fill="#3da44d" fill-rule="evenodd" fill-opacity="1" stroke="#000000" stroke-opacity="1" stroke-width="3.2"/>
<circle clip-path="url(#clip312)" cx="2296.6" cy="279.493" r="14.4" fill="#3da44d" fill-rule="evenodd" fill-opacity="1" stroke="#000000" stroke-opacity="1" stroke-width="3.2"/>
<polyline clip-path="url(#clip312)" style="stroke:#c271d2; stroke-linecap:round; stroke-linejoin:round; stroke-width:8; stroke-opacity:0.5; fill:none" points="424.768,1267.17 658.747,1327.64 892.726,1327.64 1126.71,1327.64 1360.68,1327.64 1594.66,1327.64 1828.64,1327.64 2062.62,1327.64 2296.6,1327.64 "/>
<circle clip-path="url(#clip312)" cx="424.768" cy="1267.17" r="14.4" fill="#c271d2" fill-rule="evenodd" fill-opacity="1" stroke="#000000" stroke-opacity="1" stroke-width="3.2"/>
<circle clip-path="url(#clip312)" cx="658.747" cy="1327.64" r="14.4" fill="#c271d2" fill-rule="evenodd" fill-opacity="1" stroke="#000000" stroke-opacity="1" stroke-width="3.2"/>
<circle clip-path="url(#clip312)" cx="892.726" cy="1327.64" r="14.4" fill="#c271d2" fill-rule="evenodd" fill-opacity="1" stroke="#000000" stroke-opacity="1" stroke-width="3.2"/>
<circle clip-path="url(#clip312)" cx="1126.71" cy="1327.64" r="14.4" fill="#c271d2" fill-rule="evenodd" fill-opacity="1" stroke="#000000" stroke-opacity="1" stroke-width="3.2"/>
<circle clip-path="url(#clip312)" cx="1360.68" cy="1327.64" r="14.4" fill="#c271d2" fill-rule="evenodd" fill-opacity="1" stroke="#000000" stroke-opacity="1" stroke-width="3.2"/>
<circle clip-path="url(#clip312)" cx="1594.66" cy="1327.64" r="14.4" fill="#c271d2" fill-rule="evenodd" fill-opacity="1" stroke="#000000" stroke-opacity="1" stroke-width="3.2"/>
<circle clip-path="url(#clip312)" cx="1828.64" cy="1327.64" r="14.4" fill="#c271d2" fill-rule="evenodd" fill-opacity="1" stroke="#000000" stroke-opacity="1" stroke-width="3.2"/>
<circle clip-path="url(#clip312)" cx="2062.62" cy="1327.64" r="14.4" fill="#c271d2" fill-rule="evenodd" fill-opacity="1" stroke="#000000" stroke-opacity="1" stroke-width="3.2"/>
<circle clip-path="url(#clip312)" cx="2296.6" cy="1327.64" r="14.4" fill="#c271d2" fill-rule="evenodd" fill-opacity="1" stroke="#000000" stroke-opacity="1" stroke-width="3.2"/>
<path clip-path="url(#clip310)" d="M1819.85 484.46 L2286.62 484.46 L2286.62 225.26 L1819.85 225.26  Z" fill="#ffffff" fill-rule="evenodd" fill-opacity="1"/>
<polyline clip-path="url(#clip310)" style="stroke:#000000; stroke-linecap:round; stroke-linejoin:round; stroke-width:4; stroke-opacity:1; fill:none" points="1819.85,484.46 2286.62,484.46 2286.62,225.26 1819.85,225.26 1819.85,484.46 "/>
<polyline clip-path="url(#clip310)" style="stroke:#009af9; stroke-linecap:round; stroke-linejoin:round; stroke-width:8; stroke-opacity:0.5; fill:none" points="1841.89,277.1 1974.17,277.1 "/>
<circle clip-path="url(#clip310)" cx="1908.03" cy="277.1" r="18.3717" fill="#009af9" fill-rule="evenodd" fill-opacity="1" stroke="#000000" stroke-opacity="1" stroke-width="5.12"/>
<path clip-path="url(#clip310)" d="M2015.13 281.116 Q2015.13 276.486 2013.21 273.94 Q2011.31 271.394 2007.86 271.394 Q2004.43 271.394 2002.51 273.94 Q2000.61 276.486 2000.61 281.116 Q2000.61 285.722 2002.51 288.269 Q2004.43 290.815 2007.86 290.815 Q2011.31 290.815 2013.21 288.269 Q2015.13 285.722 2015.13 281.116 M2019.39 291.162 Q2019.39 297.782 2016.45 301 Q2013.51 304.241 2007.44 304.241 Q2005.2 304.241 2003.21 303.894 Q2001.22 303.569 1999.34 302.875 L1999.34 298.732 Q2001.22 299.75 2003.05 300.236 Q2004.87 300.722 2006.77 300.722 Q2010.96 300.722 2013.05 298.523 Q2015.13 296.347 2015.13 291.926 L2015.13 289.82 Q2013.81 292.111 2011.75 293.245 Q2009.69 294.38 2006.82 294.38 Q2002.05 294.38 1999.13 290.745 Q1996.22 287.111 1996.22 281.116 Q1996.22 275.097 1999.13 271.463 Q2002.05 267.829 2006.82 267.829 Q2009.69 267.829 2011.75 268.963 Q2013.81 270.097 2015.13 272.389 L2015.13 268.454 L2019.39 268.454 L2019.39 291.162 Z" fill="#000000" fill-rule="evenodd" fill-opacity="1" /><path clip-path="url(#clip310)" d="M2045.22 281.116 Q2045.22 276.486 2043.3 273.94 Q2041.4 271.394 2037.95 271.394 Q2034.53 271.394 2032.61 273.94 Q2030.71 276.486 2030.71 281.116 Q2030.71 285.722 2032.61 288.269 Q2034.53 290.815 2037.95 290.815 Q2041.4 290.815 2043.3 288.269 Q2045.22 285.722 2045.22 281.116 M2049.48 291.162 Q2049.48 297.782 2046.54 301 Q2043.6 304.241 2037.54 304.241 Q2035.29 304.241 2033.3 303.894 Q2031.31 303.569 2029.43 302.875 L2029.43 298.732 Q2031.31 299.75 2033.14 300.236 Q2034.97 300.722 2036.86 300.722 Q2041.05 300.722 2043.14 298.523 Q2045.22 296.347 2045.22 291.926 L2045.22 289.82 Q2043.9 292.111 2041.84 293.245 Q2039.78 294.38 2036.91 294.38 Q2032.14 294.38 2029.23 290.745 Q2026.31 287.111 2026.31 281.116 Q2026.31 275.097 2029.23 271.463 Q2032.14 267.829 2036.91 267.829 Q2039.78 267.829 2041.84 268.963 Q2043.9 270.097 2045.22 272.389 L2045.22 268.454 L2049.48 268.454 L2049.48 291.162 Z" fill="#000000" fill-rule="evenodd" fill-opacity="1" /><path clip-path="url(#clip310)" d="M2058.25 258.361 L2062.51 258.361 L2062.51 294.38 L2058.25 294.38 L2058.25 258.361 Z" fill="#000000" fill-rule="evenodd" fill-opacity="1" /><path clip-path="url(#clip310)" d="M2091.61 273.431 Q2093.21 270.56 2095.43 269.195 Q2097.65 267.829 2100.66 267.829 Q2104.71 267.829 2106.91 270.676 Q2109.11 273.5 2109.11 278.732 L2109.11 294.38 L2104.83 294.38 L2104.83 278.871 Q2104.83 275.144 2103.51 273.338 Q2102.19 271.533 2099.48 271.533 Q2096.17 271.533 2094.25 273.732 Q2092.33 275.931 2092.33 279.727 L2092.33 294.38 L2088.04 294.38 L2088.04 278.871 Q2088.04 275.121 2086.73 273.338 Q2085.41 271.533 2082.65 271.533 Q2079.39 271.533 2077.47 273.755 Q2075.54 275.954 2075.54 279.727 L2075.54 294.38 L2071.26 294.38 L2071.26 268.454 L2075.54 268.454 L2075.54 272.482 Q2077 270.097 2079.04 268.963 Q2081.08 267.829 2083.88 267.829 Q2086.7 267.829 2088.67 269.264 Q2090.66 270.699 2091.61 273.431 Z" fill="#000000" fill-rule="evenodd" fill-opacity="1" /><path clip-path="url(#clip310)" d="M2121.82 261.093 L2121.82 268.454 L2130.59 268.454 L2130.59 271.764 L2121.82 271.764 L2121.82 285.838 Q2121.82 289.009 2122.67 289.912 Q2123.55 290.815 2126.22 290.815 L2130.59 290.815 L2130.59 294.38 L2126.22 294.38 Q2121.29 294.38 2119.41 292.551 Q2117.54 290.699 2117.54 285.838 L2117.54 271.764 L2114.41 271.764 L2114.41 268.454 L2117.54 268.454 L2117.54 261.093 L2121.82 261.093 Z" fill="#000000" fill-rule="evenodd" fill-opacity="1" /><path clip-path="url(#clip310)" d="M2146.24 271.44 Q2142.81 271.44 2140.82 274.125 Q2138.83 276.787 2138.83 281.44 Q2138.83 286.093 2140.8 288.778 Q2142.79 291.44 2146.24 291.44 Q2149.64 291.44 2151.63 288.755 Q2153.62 286.07 2153.62 281.44 Q2153.62 276.834 2151.63 274.148 Q2149.64 271.44 2146.24 271.44 M2146.24 267.829 Q2151.79 267.829 2154.97 271.44 Q2158.14 275.051 2158.14 281.44 Q2158.14 287.806 2154.97 291.44 Q2151.79 295.051 2146.24 295.051 Q2140.66 295.051 2137.49 291.44 Q2134.34 287.806 2134.34 281.44 Q2134.34 275.051 2137.49 271.44 Q2140.66 267.829 2146.24 267.829 Z" fill="#000000" fill-rule="evenodd" fill-opacity="1" /><path clip-path="url(#clip310)" d="M2175.24 271.44 Q2171.82 271.44 2169.83 274.125 Q2167.84 276.787 2167.84 281.44 Q2167.84 286.093 2169.8 288.778 Q2171.79 291.44 2175.24 291.44 Q2178.65 291.44 2180.64 288.755 Q2182.63 286.07 2182.63 281.44 Q2182.63 276.834 2180.64 274.148 Q2178.65 271.44 2175.24 271.44 M2175.24 267.829 Q2180.8 267.829 2183.97 271.44 Q2187.14 275.051 2187.14 281.44 Q2187.14 287.806 2183.97 291.44 Q2180.8 295.051 2175.24 295.051 Q2169.66 295.051 2166.49 291.44 Q2163.35 287.806 2163.35 281.44 Q2163.35 275.051 2166.49 271.44 Q2169.66 267.829 2175.24 267.829 Z" fill="#000000" fill-rule="evenodd" fill-opacity="1" /><path clip-path="url(#clip310)" d="M2194.2 258.361 L2198.46 258.361 L2198.46 294.38 L2194.2 294.38 L2194.2 258.361 Z" fill="#000000" fill-rule="evenodd" fill-opacity="1" /><path clip-path="url(#clip310)" d="M2223.9 269.218 L2223.9 273.246 Q2222.1 272.32 2220.15 271.857 Q2218.21 271.394 2216.12 271.394 Q2212.95 271.394 2211.35 272.366 Q2209.78 273.338 2209.78 275.283 Q2209.78 276.764 2210.91 277.621 Q2212.05 278.454 2215.47 279.218 L2216.93 279.542 Q2221.47 280.514 2223.37 282.296 Q2225.29 284.056 2225.29 287.227 Q2225.29 290.838 2222.42 292.945 Q2219.57 295.051 2214.57 295.051 Q2212.49 295.051 2210.22 294.634 Q2207.97 294.241 2205.47 293.431 L2205.47 289.033 Q2207.84 290.259 2210.13 290.884 Q2212.42 291.486 2214.66 291.486 Q2217.67 291.486 2219.29 290.468 Q2220.91 289.426 2220.91 287.551 Q2220.91 285.815 2219.73 284.889 Q2218.58 283.963 2214.62 283.107 L2213.14 282.759 Q2209.18 281.926 2207.42 280.213 Q2205.66 278.477 2205.66 275.468 Q2205.66 271.81 2208.25 269.82 Q2210.85 267.829 2215.61 267.829 Q2217.97 267.829 2220.06 268.176 Q2222.14 268.523 2223.9 269.218 Z" fill="#000000" fill-rule="evenodd" fill-opacity="1" /><path clip-path="url(#clip310)" d="M2232.67 288.5 L2237.56 288.5 L2237.56 294.38 L2232.67 294.38 L2232.67 288.5 Z" fill="#000000" fill-rule="evenodd" fill-opacity="1" /><path clip-path="url(#clip310)" d="M2247.14 268.454 L2251.4 268.454 L2251.4 294.843 Q2251.4 299.796 2249.5 302.019 Q2247.63 304.241 2243.44 304.241 L2241.82 304.241 L2241.82 300.63 L2242.95 300.63 Q2245.38 300.63 2246.26 299.495 Q2247.14 298.384 2247.14 294.843 L2247.14 268.454 M2247.14 258.361 L2251.4 258.361 L2251.4 263.755 L2247.14 263.755 L2247.14 258.361 Z" fill="#000000" fill-rule="evenodd" fill-opacity="1" /><path clip-path="url(#clip310)" d="M2260.31 258.361 L2264.57 258.361 L2264.57 294.38 L2260.31 294.38 L2260.31 258.361 Z" fill="#000000" fill-rule="evenodd" fill-opacity="1" /><polyline clip-path="url(#clip310)" style="stroke:#e26f46; stroke-linecap:round; stroke-linejoin:round; stroke-width:8; stroke-opacity:0.5; fill:none" points="1841.89,328.94 1974.17,328.94 "/>
<circle clip-path="url(#clip310)" cx="1908.03" cy="328.94" r="18.3717" fill="#e26f46" fill-rule="evenodd" fill-opacity="1" stroke="#000000" stroke-opacity="1" stroke-width="5.12"/>
<path clip-path="url(#clip310)" d="M2015.13 332.956 Q2015.13 328.326 2013.21 325.78 Q2011.31 323.234 2007.86 323.234 Q2004.43 323.234 2002.51 325.78 Q2000.61 328.326 2000.61 332.956 Q2000.61 337.562 2002.51 340.109 Q2004.43 342.655 2007.86 342.655 Q2011.31 342.655 2013.21 340.109 Q2015.13 337.562 2015.13 332.956 M2019.39 343.002 Q2019.39 349.622 2016.45 352.84 Q2013.51 356.081 2007.44 356.081 Q2005.2 356.081 2003.21 355.734 Q2001.22 355.409 1999.34 354.715 L1999.34 350.572 Q2001.22 351.59 2003.05 352.076 Q2004.87 352.562 2006.77 352.562 Q2010.96 352.562 2013.05 350.363 Q2015.13 348.187 2015.13 343.766 L2015.13 341.66 Q2013.81 343.951 2011.75 345.085 Q2009.69 346.22 2006.82 346.22 Q2002.05 346.22 1999.13 342.585 Q1996.22 338.951 1996.22 332.956 Q1996.22 326.937 1999.13 323.303 Q2002.05 319.669 2006.82 319.669 Q2009.69 319.669 2011.75 320.803 Q2013.81 321.937 2015.13 324.229 L2015.13 320.294 L2019.39 320.294 L2019.39 343.002 Z" fill="#000000" fill-rule="evenodd" fill-opacity="1" /><path clip-path="url(#clip310)" d="M2028.16 310.201 L2032.42 310.201 L2032.42 346.22 L2028.16 346.22 L2028.16 310.201 Z" fill="#000000" fill-rule="evenodd" fill-opacity="1" /><path clip-path="url(#clip310)" d="M2041.33 320.294 L2045.59 320.294 L2045.59 346.22 L2041.33 346.22 L2041.33 320.294 M2041.33 310.201 L2045.59 310.201 L2045.59 315.595 L2041.33 315.595 L2041.33 310.201 Z" fill="#000000" fill-rule="evenodd" fill-opacity="1" /><path clip-path="url(#clip310)" d="M2076.05 330.572 L2076.05 346.22 L2071.8 346.22 L2071.8 330.711 Q2071.8 327.03 2070.36 325.201 Q2068.92 323.373 2066.05 323.373 Q2062.61 323.373 2060.61 325.572 Q2058.62 327.771 2058.62 331.567 L2058.62 346.22 L2054.34 346.22 L2054.34 320.294 L2058.62 320.294 L2058.62 324.322 Q2060.15 321.984 2062.21 320.826 Q2064.3 319.669 2067 319.669 Q2071.47 319.669 2073.76 322.447 Q2076.05 325.201 2076.05 330.572 Z" fill="#000000" fill-rule="evenodd" fill-opacity="1" /><path clip-path="url(#clip310)" d="M2088.67 342.331 L2088.67 356.081 L2084.39 356.081 L2084.39 320.294 L2088.67 320.294 L2088.67 324.229 Q2090.01 321.914 2092.05 320.803 Q2094.11 319.669 2096.96 319.669 Q2101.68 319.669 2104.62 323.419 Q2107.58 327.169 2107.58 333.28 Q2107.58 339.391 2104.62 343.141 Q2101.68 346.891 2096.96 346.891 Q2094.11 346.891 2092.05 345.78 Q2090.01 344.646 2088.67 342.331 M2103.16 333.28 Q2103.16 328.581 2101.22 325.919 Q2099.29 323.234 2095.92 323.234 Q2092.54 323.234 2090.59 325.919 Q2088.67 328.581 2088.67 333.28 Q2088.67 337.979 2090.59 340.664 Q2092.54 343.326 2095.92 343.326 Q2099.29 343.326 2101.22 340.664 Q2103.16 337.979 2103.16 333.28 Z" fill="#000000" fill-rule="evenodd" fill-opacity="1" /><path clip-path="url(#clip310)" d="M2129.67 324.275 Q2128.95 323.859 2128.09 323.674 Q2127.26 323.465 2126.24 323.465 Q2122.63 323.465 2120.68 325.826 Q2118.76 328.164 2118.76 332.562 L2118.76 346.22 L2114.48 346.22 L2114.48 320.294 L2118.76 320.294 L2118.76 324.322 Q2120.1 321.961 2122.26 320.826 Q2124.41 319.669 2127.49 319.669 Q2127.93 319.669 2128.46 319.738 Q2128.99 319.785 2129.64 319.9 L2129.67 324.275 Z" fill="#000000" fill-rule="evenodd" fill-opacity="1" /><path clip-path="url(#clip310)" d="M2155.27 332.192 L2155.27 334.275 L2135.68 334.275 Q2135.96 338.673 2138.32 340.988 Q2140.71 343.28 2144.94 343.28 Q2147.4 343.28 2149.69 342.678 Q2152 342.076 2154.27 340.873 L2154.27 344.9 Q2151.98 345.872 2149.57 346.382 Q2147.16 346.891 2144.69 346.891 Q2138.48 346.891 2134.85 343.28 Q2131.24 339.669 2131.24 333.511 Q2131.24 327.146 2134.67 323.419 Q2138.11 319.669 2143.95 319.669 Q2149.18 319.669 2152.21 323.049 Q2155.27 326.405 2155.27 332.192 M2151.01 330.942 Q2150.96 327.447 2149.04 325.363 Q2147.14 323.28 2143.99 323.28 Q2140.43 323.28 2138.28 325.294 Q2136.15 327.308 2135.82 330.965 L2151.01 330.942 Z" fill="#000000" fill-rule="evenodd" fill-opacity="1" /><path clip-path="url(#clip310)" d="M2179.32 324.229 L2179.32 310.201 L2183.58 310.201 L2183.58 346.22 L2179.32 346.22 L2179.32 342.331 Q2177.97 344.646 2175.91 345.78 Q2173.88 346.891 2171.01 346.891 Q2166.31 346.891 2163.35 343.141 Q2160.41 339.391 2160.41 333.28 Q2160.41 327.169 2163.35 323.419 Q2166.31 319.669 2171.01 319.669 Q2173.88 319.669 2175.91 320.803 Q2177.97 321.914 2179.32 324.229 M2164.8 333.28 Q2164.8 337.979 2166.73 340.664 Q2168.67 343.326 2172.05 343.326 Q2175.43 343.326 2177.37 340.664 Q2179.32 337.979 2179.32 333.28 Q2179.32 328.581 2177.37 325.919 Q2175.43 323.234 2172.05 323.234 Q2168.67 323.234 2166.73 325.919 Q2164.8 328.581 2164.8 333.28 Z" fill="#000000" fill-rule="evenodd" fill-opacity="1" /><path clip-path="url(#clip310)" d="M2192.95 340.34 L2197.84 340.34 L2197.84 346.22 L2192.95 346.22 L2192.95 340.34 Z" fill="#000000" fill-rule="evenodd" fill-opacity="1" /><path clip-path="url(#clip310)" d="M2207.42 320.294 L2211.68 320.294 L2211.68 346.683 Q2211.68 351.636 2209.78 353.859 Q2207.91 356.081 2203.72 356.081 L2202.1 356.081 L2202.1 352.47 L2203.23 352.47 Q2205.66 352.47 2206.54 351.335 Q2207.42 350.224 2207.42 346.683 L2207.42 320.294 M2207.42 310.201 L2211.68 310.201 L2211.68 315.595 L2207.42 315.595 L2207.42 310.201 Z" fill="#000000" fill-rule="evenodd" fill-opacity="1" /><path clip-path="url(#clip310)" d="M2220.59 310.201 L2224.85 310.201 L2224.85 346.22 L2220.59 346.22 L2220.59 310.201 Z" fill="#000000" fill-rule="evenodd" fill-opacity="1" /><polyline clip-path="url(#clip310)" style="stroke:#3da44d; stroke-linecap:round; stroke-linejoin:round; stroke-width:8; stroke-opacity:0.5; fill:none" points="1841.89,380.78 1974.17,380.78 "/>
<circle clip-path="url(#clip310)" cx="1908.03" cy="380.78" r="18.3717" fill="#3da44d" fill-rule="evenodd" fill-opacity="1" stroke="#000000" stroke-opacity="1" stroke-width="5.12"/>
<path clip-path="url(#clip310)" d="M1996.22 363.5 L2025.45 363.5 L2025.45 367.435 L2013.18 367.435 L2013.18 398.06 L2008.49 398.06 L2008.49 367.435 L1996.22 367.435 L1996.22 363.5 Z" fill="#000000" fill-rule="evenodd" fill-opacity="1" /><path clip-path="url(#clip310)" d="M2031.77 375.12 Q2028.35 375.12 2026.36 377.805 Q2024.36 380.467 2024.36 385.12 Q2024.36 389.773 2026.33 392.458 Q2028.32 395.12 2031.77 395.12 Q2035.17 395.12 2037.17 392.435 Q2039.16 389.75 2039.16 385.12 Q2039.16 380.514 2037.17 377.828 Q2035.17 375.12 2031.77 375.12 M2031.77 371.509 Q2037.33 371.509 2040.5 375.12 Q2043.67 378.731 2043.67 385.12 Q2043.67 391.486 2040.5 395.12 Q2037.33 398.731 2031.77 398.731 Q2026.19 398.731 2023.02 395.12 Q2019.87 391.486 2019.87 385.12 Q2019.87 378.731 2023.02 375.12 Q2026.19 371.509 2031.77 371.509 Z" fill="#000000" fill-rule="evenodd" fill-opacity="1" /><path clip-path="url(#clip310)" d="M2054.94 364.773 L2054.94 372.134 L2063.72 372.134 L2063.72 375.444 L2054.94 375.444 L2054.94 389.518 Q2054.94 392.689 2055.8 393.592 Q2056.68 394.495 2059.34 394.495 L2063.72 394.495 L2063.72 398.06 L2059.34 398.06 Q2054.41 398.06 2052.54 396.231 Q2050.66 394.379 2050.66 389.518 L2050.66 375.444 L2047.54 375.444 L2047.54 372.134 L2050.66 372.134 L2050.66 364.773 L2054.94 364.773 Z" fill="#000000" fill-rule="evenodd" fill-opacity="1" /><path clip-path="url(#clip310)" d="M2081.1 385.027 Q2075.94 385.027 2073.95 386.208 Q2071.96 387.388 2071.96 390.236 Q2071.96 392.504 2073.44 393.847 Q2074.94 395.166 2077.51 395.166 Q2081.05 395.166 2083.18 392.666 Q2085.34 390.143 2085.34 385.976 L2085.34 385.027 L2081.1 385.027 M2089.6 383.268 L2089.6 398.06 L2085.34 398.06 L2085.34 394.125 Q2083.88 396.486 2081.7 397.62 Q2079.53 398.731 2076.38 398.731 Q2072.4 398.731 2070.04 396.509 Q2067.7 394.263 2067.7 390.513 Q2067.7 386.138 2070.61 383.916 Q2073.55 381.694 2079.36 381.694 L2085.34 381.694 L2085.34 381.277 Q2085.34 378.338 2083.39 376.74 Q2081.47 375.12 2077.98 375.12 Q2075.75 375.12 2073.65 375.652 Q2071.54 376.185 2069.6 377.25 L2069.6 373.314 Q2071.93 372.412 2074.13 371.972 Q2076.33 371.509 2078.42 371.509 Q2084.04 371.509 2086.82 374.426 Q2089.6 377.342 2089.6 383.268 Z" fill="#000000" fill-rule="evenodd" fill-opacity="1" /><path clip-path="url(#clip310)" d="M2098.37 362.041 L2102.63 362.041 L2102.63 398.06 L2098.37 398.06 L2098.37 362.041 Z" fill="#000000" fill-rule="evenodd" fill-opacity="1" /><polyline clip-path="url(#clip310)" style="stroke:#c271d2; stroke-linecap:round; stroke-linejoin:round; stroke-width:8; stroke-opacity:0.5; fill:none" points="1841.89,432.62 1974.17,432.62 "/>
<circle clip-path="url(#clip310)" cx="1908.03" cy="432.62" r="18.3717" fill="#c271d2" fill-rule="evenodd" fill-opacity="1" stroke="#000000" stroke-opacity="1" stroke-width="5.12"/>
<path clip-path="url(#clip310)" d="M2015.13 436.636 Q2015.13 432.006 2013.21 429.46 Q2011.31 426.914 2007.86 426.914 Q2004.43 426.914 2002.51 429.46 Q2000.61 432.006 2000.61 436.636 Q2000.61 441.242 2002.51 443.789 Q2004.43 446.335 2007.86 446.335 Q2011.31 446.335 2013.21 443.789 Q2015.13 441.242 2015.13 436.636 M2019.39 446.682 Q2019.39 453.302 2016.45 456.52 Q2013.51 459.761 2007.44 459.761 Q2005.2 459.761 2003.21 459.414 Q2001.22 459.089 1999.34 458.395 L1999.34 454.252 Q2001.22 455.27 2003.05 455.756 Q2004.87 456.242 2006.77 456.242 Q2010.96 456.242 2013.05 454.043 Q2015.13 451.867 2015.13 447.446 L2015.13 445.34 Q2013.81 447.631 2011.75 448.765 Q2009.69 449.9 2006.82 449.9 Q2002.05 449.9 1999.13 446.265 Q1996.22 442.631 1996.22 436.636 Q1996.22 430.617 1999.13 426.983 Q2002.05 423.349 2006.82 423.349 Q2009.69 423.349 2011.75 424.483 Q2013.81 425.617 2015.13 427.909 L2015.13 423.974 L2019.39 423.974 L2019.39 446.682 Z" fill="#000000" fill-rule="evenodd" fill-opacity="1" /><path clip-path="url(#clip310)" d="M2045.22 436.636 Q2045.22 432.006 2043.3 429.46 Q2041.4 426.914 2037.95 426.914 Q2034.53 426.914 2032.61 429.46 Q2030.71 432.006 2030.71 436.636 Q2030.71 441.242 2032.61 443.789 Q2034.53 446.335 2037.95 446.335 Q2041.4 446.335 2043.3 443.789 Q2045.22 441.242 2045.22 436.636 M2049.48 446.682 Q2049.48 453.302 2046.54 456.52 Q2043.6 459.761 2037.54 459.761 Q2035.29 459.761 2033.3 459.414 Q2031.31 459.089 2029.43 458.395 L2029.43 454.252 Q2031.31 455.27 2033.14 455.756 Q2034.97 456.242 2036.86 456.242 Q2041.05 456.242 2043.14 454.043 Q2045.22 451.867 2045.22 447.446 L2045.22 445.34 Q2043.9 447.631 2041.84 448.765 Q2039.78 449.9 2036.91 449.9 Q2032.14 449.9 2029.23 446.265 Q2026.31 442.631 2026.31 436.636 Q2026.31 430.617 2029.23 426.983 Q2032.14 423.349 2036.91 423.349 Q2039.78 423.349 2041.84 424.483 Q2043.9 425.617 2045.22 427.909 L2045.22 423.974 L2049.48 423.974 L2049.48 446.682 Z" fill="#000000" fill-rule="evenodd" fill-opacity="1" /><path clip-path="url(#clip310)" d="M2058.25 413.881 L2062.51 413.881 L2062.51 449.9 L2058.25 449.9 L2058.25 413.881 Z" fill="#000000" fill-rule="evenodd" fill-opacity="1" /><path clip-path="url(#clip310)" d="M2091.61 428.951 Q2093.21 426.08 2095.43 424.715 Q2097.65 423.349 2100.66 423.349 Q2104.71 423.349 2106.91 426.196 Q2109.11 429.02 2109.11 434.252 L2109.11 449.9 L2104.83 449.9 L2104.83 434.391 Q2104.83 430.664 2103.51 428.858 Q2102.19 427.053 2099.48 427.053 Q2096.17 427.053 2094.25 429.252 Q2092.33 431.451 2092.33 435.247 L2092.33 449.9 L2088.04 449.9 L2088.04 434.391 Q2088.04 430.641 2086.73 428.858 Q2085.41 427.053 2082.65 427.053 Q2079.39 427.053 2077.47 429.275 Q2075.54 431.474 2075.54 435.247 L2075.54 449.9 L2071.26 449.9 L2071.26 423.974 L2075.54 423.974 L2075.54 428.002 Q2077 425.617 2079.04 424.483 Q2081.08 423.349 2083.88 423.349 Q2086.7 423.349 2088.67 424.784 Q2090.66 426.219 2091.61 428.951 Z" fill="#000000" fill-rule="evenodd" fill-opacity="1" /><path clip-path="url(#clip310)" d="M2130.73 413.881 L2130.73 417.423 L2126.66 417.423 Q2124.36 417.423 2123.46 418.349 Q2122.58 419.275 2122.58 421.682 L2122.58 423.974 L2129.6 423.974 L2129.6 427.284 L2122.58 427.284 L2122.58 449.9 L2118.3 449.9 L2118.3 427.284 L2114.23 427.284 L2114.23 423.974 L2118.3 423.974 L2118.3 422.168 Q2118.3 417.84 2120.31 415.872 Q2122.33 413.881 2126.7 413.881 L2130.73 413.881 Z" fill="#000000" fill-rule="evenodd" fill-opacity="1" /><path clip-path="url(#clip310)" d="M2134.29 423.974 L2138.55 423.974 L2138.55 449.9 L2134.29 449.9 L2134.29 423.974 M2134.29 413.881 L2138.55 413.881 L2138.55 419.275 L2134.29 419.275 L2134.29 413.881 Z" fill="#000000" fill-rule="evenodd" fill-opacity="1" /><path clip-path="url(#clip310)" d="M2151.68 416.613 L2151.68 423.974 L2160.45 423.974 L2160.45 427.284 L2151.68 427.284 L2151.68 441.358 Q2151.68 444.529 2152.54 445.432 Q2153.41 446.335 2156.08 446.335 L2160.45 446.335 L2160.45 449.9 L2156.08 449.9 Q2151.15 449.9 2149.27 448.071 Q2147.4 446.219 2147.4 441.358 L2147.4 427.284 L2144.27 427.284 L2144.27 423.974 L2147.4 423.974 L2147.4 416.613 L2151.68 416.613 Z" fill="#000000" fill-rule="evenodd" fill-opacity="1" /><path clip-path="url(#clip310)" d="M2166.66 444.02 L2171.54 444.02 L2171.54 449.9 L2166.66 449.9 L2166.66 444.02 Z" fill="#000000" fill-rule="evenodd" fill-opacity="1" /><path clip-path="url(#clip310)" d="M2181.12 423.974 L2185.38 423.974 L2185.38 450.363 Q2185.38 455.316 2183.48 457.539 Q2181.61 459.761 2177.42 459.761 L2175.8 459.761 L2175.8 456.15 L2176.93 456.15 Q2179.36 456.15 2180.24 455.015 Q2181.12 453.904 2181.12 450.363 L2181.12 423.974 M2181.12 413.881 L2185.38 413.881 L2185.38 419.275 L2181.12 419.275 L2181.12 413.881 Z" fill="#000000" fill-rule="evenodd" fill-opacity="1" /><path clip-path="url(#clip310)" d="M2194.29 413.881 L2198.55 413.881 L2198.55 449.9 L2194.29 449.9 L2194.29 413.881 Z" fill="#000000" fill-rule="evenodd" fill-opacity="1" /></svg>
