<?xml version="1.0" encoding="utf-8"?>
<svg xmlns="http://www.w3.org/2000/svg" xmlns:xlink="http://www.w3.org/1999/xlink" width="600" height="400" viewBox="0 0 2400 1600">
<defs>
  <clipPath id="clip040">
    <rect x="0" y="0" width="2400" height="1600"/>
  </clipPath>
</defs>
<path clip-path="url(#clip040)" d="M0 1600 L2400 1600 L2400 0 L0 0  Z" fill="#ffffff" fill-rule="evenodd" fill-opacity="1"/>
<defs>
  <clipPath id="clip041">
    <rect x="480" y="0" width="1681" height="1600"/>
  </clipPath>
</defs>
<path clip-path="url(#clip040)" d="M193.936 1486.45 L2352.76 1486.45 L2352.76 123.472 L193.936 123.472  Z" fill="#ffffff" fill-rule="evenodd" fill-opacity="1"/>
<defs>
  <clipPath id="clip042">
    <rect x="193" y="123" width="2160" height="1364"/>
  </clipPath>
</defs>
<path clip-path="url(#clip040)" d="M744.014 12.096 L756.208 12.096 L771.641 53.2532 L787.156 12.096 L799.35 12.096 L799.35 72.576 L791.369 72.576 L791.369 19.4686 L775.773 60.9499 L767.55 60.9499 L751.954 19.4686 L751.954 72.576 L744.014 72.576 L744.014 12.096 Z" fill="#000000" fill-rule="evenodd" fill-opacity="1" /><path clip-path="url(#clip040)" d="M835.889 49.7694 Q826.855 49.7694 823.372 51.8354 Q819.888 53.9013 819.888 58.8839 Q819.888 62.8538 822.48 65.2034 Q825.113 67.5124 829.61 67.5124 Q835.808 67.5124 839.535 63.1374 Q843.302 58.7219 843.302 51.4303 L843.302 49.7694 L835.889 49.7694 M850.756 46.6907 L850.756 72.576 L843.302 72.576 L843.302 65.6895 Q840.75 69.8214 836.942 71.8063 Q833.134 73.7508 827.625 73.7508 Q820.657 73.7508 816.525 69.8619 Q812.434 65.9325 812.434 59.3701 Q812.434 51.7138 817.538 47.825 Q822.683 43.9361 832.851 43.9361 L843.302 43.9361 L843.302 43.2069 Q843.302 38.0623 839.899 35.2672 Q836.537 32.4315 830.42 32.4315 Q826.531 32.4315 822.845 33.3632 Q819.159 34.295 815.756 36.1584 L815.756 29.2718 Q819.847 27.692 823.696 26.9223 Q827.544 26.1121 831.19 26.1121 Q841.033 26.1121 845.895 31.2163 Q850.756 36.3204 850.756 46.6907 Z" fill="#000000" fill-rule="evenodd" fill-opacity="1" /><path clip-path="url(#clip040)" d="M866.109 9.54393 L873.562 9.54393 L873.562 72.576 L866.109 72.576 L866.109 9.54393 Z" fill="#000000" fill-rule="evenodd" fill-opacity="1" /><path clip-path="url(#clip040)" d="M889.158 9.54393 L896.612 9.54393 L896.612 72.576 L889.158 72.576 L889.158 9.54393 Z" fill="#000000" fill-rule="evenodd" fill-opacity="1" /><path clip-path="url(#clip040)" d="M929.789 32.4315 Q923.793 32.4315 920.31 37.1306 Q916.826 41.7891 916.826 49.9314 Q916.826 58.0738 920.269 62.7728 Q923.753 67.4314 929.789 67.4314 Q935.744 67.4314 939.227 62.7323 Q942.711 58.0333 942.711 49.9314 Q942.711 41.8701 939.227 37.1711 Q935.744 32.4315 929.789 32.4315 M929.789 26.1121 Q939.511 26.1121 945.061 32.4315 Q950.61 38.7509 950.61 49.9314 Q950.61 61.0714 945.061 67.4314 Q939.511 73.7508 929.789 73.7508 Q920.026 73.7508 914.476 67.4314 Q908.967 61.0714 908.967 49.9314 Q908.967 38.7509 914.476 32.4315 Q920.026 26.1121 929.789 26.1121 Z" fill="#000000" fill-rule="evenodd" fill-opacity="1" /><path clip-path="url(#clip040)" d="M995.616 28.9478 L995.616 35.9153 Q992.456 34.1734 989.256 33.3227 Q986.096 32.4315 982.856 32.4315 Q975.604 32.4315 971.594 37.0496 Q967.584 41.6271 967.584 49.9314 Q967.584 58.2358 971.594 62.8538 Q975.604 67.4314 982.856 67.4314 Q986.096 67.4314 989.256 66.5807 Q992.456 65.6895 995.616 63.9476 L995.616 70.8341 Q992.497 72.2924 989.135 73.0216 Q985.813 73.7508 982.045 73.7508 Q971.797 73.7508 965.761 67.3098 Q959.725 60.8689 959.725 49.9314 Q959.725 38.832 965.801 32.472 Q971.918 26.1121 982.532 26.1121 Q985.975 26.1121 989.256 26.8413 Q992.537 27.5299 995.616 28.9478 Z" fill="#000000" fill-rule="evenodd" fill-opacity="1" /><path clip-path="url(#clip040)" d="M1037.5 28.5427 L1037.5 35.5912 Q1034.34 33.9709 1030.94 33.1607 Q1027.54 32.3505 1023.89 32.3505 Q1018.34 32.3505 1015.55 34.0519 Q1012.79 35.7533 1012.79 39.156 Q1012.79 41.7486 1014.78 43.2475 Q1016.76 44.7058 1022.76 46.0426 L1025.31 46.6097 Q1033.25 48.3111 1036.57 51.4303 Q1039.93 54.509 1039.93 60.0587 Q1039.93 66.3781 1034.91 70.0644 Q1029.93 73.7508 1021.18 73.7508 Q1017.53 73.7508 1013.56 73.0216 Q1009.63 72.3329 1005.26 70.9151 L1005.26 63.2184 Q1009.39 65.3654 1013.4 66.4591 Q1017.41 67.5124 1021.34 67.5124 Q1026.61 67.5124 1029.44 65.73 Q1032.28 63.9071 1032.28 60.6258 Q1032.28 57.5877 1030.21 55.9673 Q1028.19 54.3469 1021.26 52.8481 L1018.67 52.2405 Q1011.74 50.7821 1008.66 47.7845 Q1005.58 44.7463 1005.58 39.4801 Q1005.58 33.0797 1010.12 29.5959 Q1014.66 26.1121 1023 26.1121 Q1027.13 26.1121 1030.78 26.7198 Q1034.42 27.3274 1037.5 28.5427 Z" fill="#000000" fill-rule="evenodd" fill-opacity="1" /><path clip-path="url(#clip040)" d="M1101.14 9.54393 L1101.14 15.7418 L1094.01 15.7418 Q1090 15.7418 1088.42 17.3622 Q1086.88 18.9825 1086.88 23.1955 L1086.88 27.2059 L1099.16 27.2059 L1099.16 32.9987 L1086.88 32.9987 L1086.88 72.576 L1079.39 72.576 L1079.39 32.9987 L1072.26 32.9987 L1072.26 27.2059 L1079.39 27.2059 L1079.39 24.0462 Q1079.39 16.471 1082.91 13.0277 Q1086.44 9.54393 1094.09 9.54393 L1101.14 9.54393 Z" fill="#000000" fill-rule="evenodd" fill-opacity="1" /><path clip-path="url(#clip040)" d="M1124.96 32.4315 Q1118.97 32.4315 1115.48 37.1306 Q1112 41.7891 1112 49.9314 Q1112 58.0738 1115.44 62.7728 Q1118.93 67.4314 1124.96 67.4314 Q1130.92 67.4314 1134.4 62.7323 Q1137.88 58.0333 1137.88 49.9314 Q1137.88 41.8701 1134.4 37.1711 Q1130.92 32.4315 1124.96 32.4315 M1124.96 26.1121 Q1134.68 26.1121 1140.23 32.4315 Q1145.78 38.7509 1145.78 49.9314 Q1145.78 61.0714 1140.23 67.4314 Q1134.68 73.7508 1124.96 73.7508 Q1115.2 73.7508 1109.65 67.4314 Q1104.14 61.0714 1104.14 49.9314 Q1104.14 38.7509 1109.65 32.4315 Q1115.2 26.1121 1124.96 26.1121 Z" fill="#000000" fill-rule="evenodd" fill-opacity="1" /><path clip-path="url(#clip040)" d="M1184.43 34.1734 Q1183.17 33.4443 1181.67 33.1202 Q1180.22 32.7556 1178.43 32.7556 Q1172.11 32.7556 1168.71 36.8875 Q1165.35 40.9789 1165.35 48.6757 L1165.35 72.576 L1157.85 72.576 L1157.85 27.2059 L1165.35 27.2059 L1165.35 34.2544 Q1167.7 30.1225 1171.47 28.1376 Q1175.23 26.1121 1180.62 26.1121 Q1181.39 26.1121 1182.32 26.2337 Q1183.25 26.3147 1184.39 26.5172 L1184.43 34.1734 Z" fill="#000000" fill-rule="evenodd" fill-opacity="1" /><path clip-path="url(#clip040)" d="M1260.18 63.9476 L1260.18 47.7034 L1246.81 47.7034 L1246.81 40.9789 L1268.28 40.9789 L1268.28 66.9452 Q1263.54 70.3075 1257.83 72.0494 Q1252.12 73.7508 1245.64 73.7508 Q1231.46 73.7508 1223.44 65.4869 Q1215.46 57.1826 1215.46 42.3968 Q1215.46 27.5705 1223.44 19.3066 Q1231.46 11.0023 1245.64 11.0023 Q1251.55 11.0023 1256.86 12.4606 Q1262.21 13.9189 1266.7 16.7545 L1266.7 25.464 Q1262.17 21.6156 1257.06 19.6712 Q1251.96 17.7268 1246.33 17.7268 Q1235.23 17.7268 1229.64 23.9246 Q1224.09 30.1225 1224.09 42.3968 Q1224.09 54.6305 1229.64 60.8284 Q1235.23 67.0263 1246.33 67.0263 Q1250.66 67.0263 1254.06 66.2971 Q1257.47 65.5274 1260.18 63.9476 Z" fill="#000000" fill-rule="evenodd" fill-opacity="1" /><path clip-path="url(#clip040)" d="M1283.23 12.096 L1291.41 12.096 L1291.41 65.6895 L1320.86 65.6895 L1320.86 72.576 L1283.23 72.576 L1283.23 12.096 Z" fill="#000000" fill-rule="evenodd" fill-opacity="1" /><path clip-path="url(#clip040)" d="M1329.45 12.096 L1341.64 12.096 L1357.08 53.2532 L1372.59 12.096 L1384.79 12.096 L1384.79 72.576 L1376.81 72.576 L1376.81 19.4686 L1361.21 60.9499 L1352.99 60.9499 L1337.39 19.4686 L1337.39 72.576 L1329.45 72.576 L1329.45 12.096 Z" fill="#000000" fill-rule="evenodd" fill-opacity="1" /><path clip-path="url(#clip040)" d="M1401.76 62.2867 L1410.31 62.2867 L1410.31 72.576 L1401.76 72.576 L1401.76 62.2867 Z" fill="#000000" fill-rule="evenodd" fill-opacity="1" /><path clip-path="url(#clip040)" d="M1427.08 27.2059 L1434.53 27.2059 L1434.53 73.3862 Q1434.53 82.0551 1431.21 85.944 Q1427.93 89.8329 1420.6 89.8329 L1417.76 89.8329 L1417.76 83.5134 L1419.75 83.5134 Q1424 83.5134 1425.54 81.5285 Q1427.08 79.5841 1427.08 73.3862 L1427.08 27.2059 M1427.08 9.54393 L1434.53 9.54393 L1434.53 18.9825 L1427.08 18.9825 L1427.08 9.54393 Z" fill="#000000" fill-rule="evenodd" fill-opacity="1" /><path clip-path="url(#clip040)" d="M1450.13 9.54393 L1457.58 9.54393 L1457.58 72.576 L1450.13 72.576 L1450.13 9.54393 Z" fill="#000000" fill-rule="evenodd" fill-opacity="1" /><path clip-path="url(#clip040)" d="M1496.23 50.8226 Q1496.23 56.6154 1499.1 59.9372 Q1501.98 63.2184 1507 63.2184 Q1511.98 63.2184 1514.82 59.8967 Q1517.7 56.5749 1517.7 50.8226 Q1517.7 45.1514 1514.78 41.8296 Q1511.86 38.4674 1506.92 38.4674 Q1502.02 38.4674 1499.1 41.7891 Q1496.23 45.1109 1496.23 50.8226 M1518.3 62.9348 Q1515.87 66.054 1512.71 67.5529 Q1509.59 69.0112 1505.42 69.0112 Q1498.45 69.0112 1494.08 63.9881 Q1489.75 58.9245 1489.75 50.8226 Q1489.75 42.7208 1494.12 37.6572 Q1498.5 32.5936 1505.42 32.5936 Q1509.59 32.5936 1512.75 34.1329 Q1515.91 35.6318 1518.3 38.7104 L1518.3 33.4038 L1524.1 33.4038 L1524.1 63.2184 Q1530.01 62.3272 1533.33 57.8307 Q1536.7 53.2937 1536.7 46.1236 Q1536.7 41.7891 1535.4 37.9813 Q1534.14 34.1734 1531.55 30.9327 Q1527.34 25.626 1521.26 22.8309 Q1515.23 19.9953 1508.1 19.9953 Q1503.11 19.9953 1498.54 21.3321 Q1493.96 22.6284 1490.07 25.2209 Q1483.71 29.3529 1480.1 36.0774 Q1476.54 42.7613 1476.54 50.5796 Q1476.54 57.0205 1478.85 62.6513 Q1481.2 68.282 1485.61 72.576 Q1489.87 76.7889 1495.46 78.9764 Q1501.05 81.2044 1507.41 81.2044 Q1512.63 81.2044 1517.66 79.422 Q1522.72 77.6801 1526.93 74.3989 L1530.58 78.8954 Q1525.51 82.8248 1519.52 84.8907 Q1513.56 86.9972 1507.41 86.9972 Q1499.91 86.9972 1493.27 84.3236 Q1486.63 81.6905 1481.44 76.6269 Q1476.26 71.5633 1473.54 64.9198 Q1470.83 58.2358 1470.83 50.5796 Q1470.83 43.2069 1473.58 36.523 Q1476.34 29.839 1481.44 24.7753 Q1486.67 19.6307 1493.51 16.9166 Q1500.36 14.162 1508.01 14.162 Q1516.6 14.162 1523.93 17.6862 Q1531.31 21.2105 1536.29 27.692 Q1539.33 31.6619 1540.91 36.3204 Q1542.53 40.9789 1542.53 45.9616 Q1542.53 56.6154 1536.09 62.7728 Q1529.65 68.9302 1518.3 69.1732 L1518.3 62.9348 Z" fill="#000000" fill-rule="evenodd" fill-opacity="1" /><path clip-path="url(#clip040)" d="M1550.79 27.2059 L1558.69 27.2059 L1572.87 65.2844 L1587.05 27.2059 L1594.95 27.2059 L1577.93 72.576 L1567.81 72.576 L1550.79 27.2059 Z" fill="#000000" fill-rule="evenodd" fill-opacity="1" /><path clip-path="url(#clip040)" d="M1607.71 65.6895 L1621.08 65.6895 L1621.08 19.5497 L1606.53 22.4663 L1606.53 15.0127 L1620.99 12.096 L1629.18 12.096 L1629.18 65.6895 L1642.55 65.6895 L1642.55 72.576 L1607.71 72.576 L1607.71 65.6895 Z" fill="#000000" fill-rule="evenodd" fill-opacity="1" /><path clip-path="url(#clip040)" d="M1659.07 62.2867 L1667.62 62.2867 L1667.62 72.576 L1659.07 72.576 L1659.07 62.2867 Z" fill="#000000" fill-rule="evenodd" fill-opacity="1" /><path clip-path="url(#clip040)" d="M1710.24 39.9662 Q1716.11 41.222 1719.39 45.1919 Q1722.71 49.1618 1722.71 54.9951 Q1722.71 63.9476 1716.56 68.8492 Q1710.4 73.7508 1699.06 73.7508 Q1695.25 73.7508 1691.2 72.9811 Q1687.19 72.2519 1682.89 70.7531 L1682.89 62.8538 Q1686.3 64.8388 1690.35 65.8515 Q1694.4 66.8642 1698.81 66.8642 Q1706.51 66.8642 1710.52 63.826 Q1714.57 60.7879 1714.57 54.9951 Q1714.57 49.6479 1710.8 46.6502 Q1707.08 43.612 1700.39 43.612 L1693.34 43.612 L1693.34 36.8875 L1700.72 36.8875 Q1706.75 36.8875 1709.95 34.4975 Q1713.15 32.067 1713.15 27.5299 Q1713.15 22.8714 1709.83 20.4004 Q1706.55 17.8888 1700.39 17.8888 Q1697.03 17.8888 1693.18 18.618 Q1689.33 19.3471 1684.72 20.8865 L1684.72 13.5948 Q1689.37 12.2985 1693.42 11.6504 Q1697.52 11.0023 1701.12 11.0023 Q1710.44 11.0023 1715.87 15.2557 Q1721.29 19.4686 1721.29 26.6793 Q1721.29 31.7024 1718.42 35.1862 Q1715.54 38.6294 1710.24 39.9662 Z" fill="#000000" fill-rule="evenodd" fill-opacity="1" /><path clip-path="url(#clip040)" d="M1738.23 62.2867 L1746.78 62.2867 L1746.78 72.576 L1738.23 72.576 L1738.23 62.2867 Z" fill="#000000" fill-rule="evenodd" fill-opacity="1" /><path clip-path="url(#clip040)" d="M1764.84 71.3202 L1764.84 63.8666 Q1767.92 65.3249 1771.08 66.0946 Q1774.24 66.8642 1777.28 66.8642 Q1785.38 66.8642 1789.63 61.436 Q1793.93 55.9673 1794.54 44.8678 Q1792.19 48.3516 1788.58 50.215 Q1784.98 52.0784 1780.6 52.0784 Q1771.53 52.0784 1766.22 46.6097 Q1760.95 41.1005 1760.95 31.5808 Q1760.95 22.2638 1766.46 16.633 Q1771.97 11.0023 1781.13 11.0023 Q1791.62 11.0023 1797.13 19.0636 Q1802.68 27.0843 1802.68 42.3968 Q1802.68 56.6965 1795.87 65.2439 Q1789.11 73.7508 1777.64 73.7508 Q1774.56 73.7508 1771.4 73.1431 Q1768.24 72.5355 1764.84 71.3202 M1781.13 45.678 Q1786.64 45.678 1789.84 41.9107 Q1793.08 38.1433 1793.08 31.5808 Q1793.08 25.0589 1789.84 21.2916 Q1786.64 17.4837 1781.13 17.4837 Q1775.62 17.4837 1772.38 21.2916 Q1769.18 25.0589 1769.18 31.5808 Q1769.18 38.1433 1772.38 41.9107 Q1775.62 45.678 1781.13 45.678 Z" fill="#000000" fill-rule="evenodd" fill-opacity="1" /><path clip-path="url(#clip042)" d="M1273.12 804.719 L1916.28 804.719 L1912.03 730.939 L1899.35 658.134 L1878.4 587.264 L1849.46 519.265 L1812.91 455.035 L1769.23 395.422 L1719 341.212 L1662.89 293.123 L1601.63 251.788 L1536.03 217.754 L1466.96 191.469 L1395.33 173.282 L1322.09 163.431 L1248.2 162.047 L1174.64 169.148 L1102.38 184.641 L1032.38 208.321 L965.549 239.875 L902.783 278.887 L844.907 324.842 L792.685 377.132 L746.806 435.068 L707.876 497.885 L676.409 564.752 L652.821 634.788 L637.422 707.068 L630.417 780.636 L631.897 854.523 L641.843 927.752 L660.124 999.357 L686.499 1068.39 L720.619 1133.95 L762.034 1195.15 L810.196 1251.2 L864.471 1301.36 L924.141 1344.96 L988.419 1381.43 L1056.46 1410.28 L1127.35 1431.14 L1200.17 1443.72 L1273.96 1447.87 L1347.73 1443.53 L1420.52 1430.75 L1491.37 1409.71 L1559.33 1380.68 L1623.51 1344.05 L1683.06 1300.29 L1737.21 1249.99 L1785.22 1193.82 L1273.12 804.719  Z" fill="#009af9" fill-rule="evenodd" fill-opacity="1"/>
<polyline clip-path="url(#clip042)" style="stroke:#000000; stroke-linecap:round; stroke-linejoin:round; stroke-width:4; stroke-opacity:0.5; fill:none" points="1273.12,804.719 1916.28,804.719 1912.03,730.939 1899.35,658.134 1878.4,587.264 1849.46,519.265 1812.91,455.035 1769.23,395.422 1719,341.212 1662.89,293.123 1601.63,251.788 1536.03,217.754 1466.96,191.469 1395.33,173.282 1322.09,163.431 1248.2,162.047 1174.64,169.148 1102.38,184.641 1032.38,208.321 965.549,239.875 902.783,278.887 844.907,324.842 792.685,377.132 746.806,435.068 707.876,497.885 676.409,564.752 652.821,634.788 637.422,707.068 630.417,780.636 631.897,854.523 641.843,927.752 660.124,999.357 686.499,1068.39 720.619,1133.95 762.034,1195.15 810.196,1251.2 864.471,1301.36 924.141,1344.96 988.419,1381.43 1056.46,1410.28 1127.35,1431.14 1200.17,1443.72 1273.96,1447.87 1347.73,1443.53 1420.52,1430.75 1491.37,1409.71 1559.33,1380.68 1623.51,1344.05 1683.06,1300.29 1737.21,1249.99 1785.22,1193.82 1273.12,804.719 "/>
<path clip-path="url(#clip042)" d="M1273.12 804.719 L1785.22 1193.82 L1787.79 1190.41 L1790.34 1186.99 L1792.86 1183.56 L1795.36 1180.1 L1797.84 1176.63 L1800.29 1173.14 L1802.72 1169.64 L1805.13 1166.12 L1807.52 1162.59 L1809.88 1159.03 L1812.22 1155.47 L1814.53 1151.89 L1816.82 1148.29 L1819.08 1144.68 L1821.33 1141.05 L1823.54 1137.41 L1825.74 1133.75 L1827.91 1130.08 L1830.05 1126.39 L1832.17 1122.69 L1834.27 1118.98 L1836.34 1115.25 L1838.39 1111.51 L1840.41 1107.76 L1842.4 1103.99 L1844.38 1100.21 L1846.32 1096.42 L1848.24 1092.61 L1850.14 1088.79 L1852.01 1084.96 L1853.86 1081.11 L1855.68 1077.26 L1857.47 1073.39 L1859.24 1069.51 L1860.98 1065.62 L1862.7 1061.71 L1864.39 1057.8 L1866.05 1053.87 L1867.69 1049.94 L1869.31 1045.99 L1870.89 1042.03 L1872.45 1038.06 L1873.99 1034.08 L1875.49 1030.1 L1876.97 1026.1 L1878.43 1022.09 L1879.86 1018.07 L1881.26 1014.04 L1882.63 1010.01 L1273.12 804.719  Z" fill="#e26f46" fill-rule="evenodd" fill-opacity="1"/>
<polyline clip-path="url(#clip042)" style="stroke:#000000; stroke-linecap:round; stroke-linejoin:round; stroke-width:4; stroke-opacity:0.5; fill:none" points="1273.12,804.719 1785.22,1193.82 1787.79,1190.41 1790.34,1186.99 1792.86,1183.56 1795.36,1180.1 1797.84,1176.63 1800.29,1173.14 1802.72,1169.64 1805.13,1166.12 1807.52,1162.59 1809.88,1159.03 1812.22,1155.47 1814.53,1151.89 1816.82,1148.29 1819.08,1144.68 1821.33,1141.05 1823.54,1137.41 1825.74,1133.75 1827.91,1130.08 1830.05,1126.39 1832.17,1122.69 1834.27,1118.98 1836.34,1115.25 1838.39,1111.51 1840.41,1107.76 1842.4,1103.99 1844.38,1100.21 1846.32,1096.42 1848.24,1092.61 1850.14,1088.79 1852.01,1084.96 1853.86,1081.11 1855.68,1077.26 1857.47,1073.39 1859.24,1069.51 1860.98,1065.62 1862.7,1061.71 1864.39,1057.8 1866.05,1053.87 1867.69,1049.94 1869.31,1045.99 1870.89,1042.03 1872.45,1038.06 1873.99,1034.08 1875.49,1030.1 1876.97,1026.1 1878.43,1022.09 1879.86,1018.07 1881.26,1014.04 1882.63,1010.01 1273.12,804.719 "/>
<path clip-path="url(#clip042)" d="M1273.12 804.719 L1882.63 1010.01 L1883.98 1005.96 L1885.3 1001.91 L1886.6 997.843 L1887.86 993.772 L1889.1 989.692 L1890.31 985.604 L1891.5 981.508 L1892.66 977.404 L1893.79 973.293 L1894.89 969.174 L1895.97 965.048 L1897.02 960.915 L1898.04 956.775 L1899.04 952.628 L1900 948.475 L1900.94 944.316 L1901.85 940.15 L1902.74 935.979 L1903.59 931.802 L1904.42 927.619 L1905.22 923.431 L1906 919.237 L1906.74 915.039 L1907.46 910.835 L1908.15 906.627 L1908.81 902.415 L1909.45 898.198 L1910.05 893.977 L1910.63 889.752 L1911.18 885.524 L1911.7 881.292 L1912.19 877.056 L1912.66 872.817 L1913.1 868.576 L1913.51 864.331 L1913.89 860.084 L1914.24 855.835 L1914.57 851.583 L1914.86 847.329 L1915.13 843.073 L1915.37 838.816 L1915.58 834.557 L1915.77 830.297 L1915.92 826.036 L1916.05 821.773 L1916.15 817.51 L1916.22 813.247 L1916.26 808.983 L1916.28 804.719 L1273.12 804.719  Z" fill="#3da44d" fill-rule="evenodd" fill-opacity="1"/>
<polyline clip-path="url(#clip042)" style="stroke:#000000; stroke-linecap:round; stroke-linejoin:round; stroke-width:4; stroke-opacity:0.5; fill:none" points="1273.12,804.719 1882.63,1010.01 1883.98,1005.96 1885.3,1001.91 1886.6,997.843 1887.86,993.772 1889.1,989.692 1890.31,985.604 1891.5,981.508 1892.66,977.404 1893.79,973.293 1894.89,969.174 1895.97,965.048 1897.02,960.915 1898.04,956.775 1899.04,952.628 1900,948.475 1900.94,944.316 1901.85,940.15 1902.74,935.979 1903.59,931.802 1904.42,927.619 1905.22,923.431 1906,919.237 1906.74,915.039 1907.46,910.835 1908.15,906.627 1908.81,902.415 1909.45,898.198 1910.05,893.977 1910.63,889.752 1911.18,885.524 1911.7,881.292 1912.19,877.056 1912.66,872.817 1913.1,868.576 1913.51,864.331 1913.89,860.084 1914.24,855.835 1914.57,851.583 1914.86,847.329 1915.13,843.073 1915.37,838.816 1915.58,834.557 1915.77,830.297 1915.92,826.036 1916.05,821.773 1916.15,817.51 1916.22,813.247 1916.26,808.983 1916.28,804.719 1273.12,804.719 "/>
<path clip-path="url(#clip040)" d="M1628.9 376.265 L2280.8 376.265 L2280.8 168.905 L1628.9 168.905  Z" fill="#ffffff" fill-rule="evenodd" fill-opacity="1"/>
<polyline clip-path="url(#clip040)" style="stroke:#000000; stroke-linecap:round; stroke-linejoin:round; stroke-width:4; stroke-opacity:1; fill:none" points="1628.9,376.265 2280.8,376.265 2280.8,168.905 1628.9,168.905 1628.9,376.265 "/>
<path clip-path="url(#clip040)" d="M1652.88 241.481 L1796.81 241.481 L1796.81 200.009 L1652.88 200.009 L1652.88 241.481  Z" fill="#009af9" fill-rule="evenodd" fill-opacity="1"/>
<polyline clip-path="url(#clip040)" style="stroke:#000000; stroke-linecap:round; stroke-linejoin:round; stroke-width:4; stroke-opacity:1; fill:none" points="1652.88,241.481 1796.81,241.481 1796.81,200.009 1652.88,200.009 1652.88,241.481 "/>
<path clip-path="url(#clip040)" d="M1839.7 224.761 Q1839.7 220.131 1837.78 217.585 Q1835.88 215.039 1832.44 215.039 Q1829.01 215.039 1827.09 217.585 Q1825.19 220.131 1825.19 224.761 Q1825.19 229.367 1827.09 231.914 Q1829.01 234.46 1832.44 234.46 Q1835.88 234.46 1837.78 231.914 Q1839.7 229.367 1839.7 224.761 M1843.96 234.807 Q1843.96 241.427 1841.02 244.645 Q1838.08 247.886 1832.02 247.886 Q1829.77 247.886 1827.78 247.538 Q1825.79 247.214 1823.92 246.52 L1823.92 242.376 Q1825.79 243.395 1827.62 243.881 Q1829.45 244.367 1831.35 244.367 Q1835.54 244.367 1837.62 242.168 Q1839.7 239.992 1839.7 235.571 L1839.7 233.464 Q1838.38 235.756 1836.32 236.89 Q1834.26 238.025 1831.39 238.025 Q1826.63 238.025 1823.71 234.39 Q1820.79 230.756 1820.79 224.761 Q1820.79 218.742 1823.71 215.108 Q1826.63 211.474 1831.39 211.474 Q1834.26 211.474 1836.32 212.608 Q1838.38 213.742 1839.7 216.034 L1839.7 212.099 L1843.96 212.099 L1843.96 234.807 Z" fill="#000000" fill-rule="evenodd" fill-opacity="1" /><path clip-path="url(#clip040)" d="M1852.74 202.006 L1857 202.006 L1857 238.025 L1852.74 238.025 L1852.74 202.006 Z" fill="#000000" fill-rule="evenodd" fill-opacity="1" /><path clip-path="url(#clip040)" d="M1865.91 212.099 L1870.17 212.099 L1870.17 238.025 L1865.91 238.025 L1865.91 212.099 M1865.91 202.006 L1870.17 202.006 L1870.17 207.4 L1865.91 207.4 L1865.91 202.006 Z" fill="#000000" fill-rule="evenodd" fill-opacity="1" /><path clip-path="url(#clip040)" d="M1900.63 222.377 L1900.63 238.025 L1896.37 238.025 L1896.37 222.515 Q1896.37 218.835 1894.94 217.006 Q1893.5 215.178 1890.63 215.178 Q1887.18 215.178 1885.19 217.377 Q1883.2 219.576 1883.2 223.372 L1883.2 238.025 L1878.92 238.025 L1878.92 212.099 L1883.2 212.099 L1883.2 216.127 Q1884.73 213.789 1886.79 212.631 Q1888.87 211.474 1891.58 211.474 Q1896.05 211.474 1898.34 214.252 Q1900.63 217.006 1900.63 222.377 Z" fill="#000000" fill-rule="evenodd" fill-opacity="1" /><path clip-path="url(#clip040)" d="M1913.25 234.136 L1913.25 247.886 L1908.96 247.886 L1908.96 212.099 L1913.25 212.099 L1913.25 216.034 Q1914.59 213.719 1916.62 212.608 Q1918.69 211.474 1921.53 211.474 Q1926.25 211.474 1929.19 215.224 Q1932.16 218.974 1932.16 225.085 Q1932.16 231.196 1929.19 234.946 Q1926.25 238.696 1921.53 238.696 Q1918.69 238.696 1916.62 237.585 Q1914.59 236.451 1913.25 234.136 M1927.74 225.085 Q1927.74 220.386 1925.79 217.724 Q1923.87 215.039 1920.49 215.039 Q1917.11 215.039 1915.17 217.724 Q1913.25 220.386 1913.25 225.085 Q1913.25 229.784 1915.17 232.469 Q1917.11 235.131 1920.49 235.131 Q1923.87 235.131 1925.79 232.469 Q1927.74 229.784 1927.74 225.085 Z" fill="#000000" fill-rule="evenodd" fill-opacity="1" /><path clip-path="url(#clip040)" d="M1954.24 216.08 Q1953.52 215.664 1952.67 215.478 Q1951.83 215.27 1950.81 215.27 Q1947.2 215.27 1945.26 217.631 Q1943.34 219.969 1943.34 224.367 L1943.34 238.025 L1939.06 238.025 L1939.06 212.099 L1943.34 212.099 L1943.34 216.127 Q1944.68 213.766 1946.83 212.631 Q1948.99 211.474 1952.06 211.474 Q1952.5 211.474 1953.04 211.543 Q1953.57 211.59 1954.22 211.705 L1954.24 216.08 Z" fill="#000000" fill-rule="evenodd" fill-opacity="1" /><path clip-path="url(#clip040)" d="M1979.84 223.997 L1979.84 226.08 L1960.26 226.08 Q1960.54 230.478 1962.9 232.793 Q1965.28 235.085 1969.52 235.085 Q1971.97 235.085 1974.26 234.483 Q1976.58 233.881 1978.85 232.677 L1978.85 236.705 Q1976.56 237.677 1974.15 238.187 Q1971.74 238.696 1969.26 238.696 Q1963.06 238.696 1959.43 235.085 Q1955.81 231.474 1955.81 225.316 Q1955.81 218.951 1959.24 215.224 Q1962.69 211.474 1968.52 211.474 Q1973.75 211.474 1976.79 214.853 Q1979.84 218.21 1979.84 223.997 M1975.58 222.747 Q1975.54 219.252 1973.62 217.168 Q1971.72 215.085 1968.57 215.085 Q1965 215.085 1962.85 217.099 Q1960.72 219.113 1960.4 222.77 L1975.58 222.747 Z" fill="#000000" fill-rule="evenodd" fill-opacity="1" /><path clip-path="url(#clip040)" d="M2003.89 216.034 L2003.89 202.006 L2008.15 202.006 L2008.15 238.025 L2003.89 238.025 L2003.89 234.136 Q2002.55 236.451 2000.49 237.585 Q1998.45 238.696 1995.58 238.696 Q1990.88 238.696 1987.92 234.946 Q1984.98 231.196 1984.98 225.085 Q1984.98 218.974 1987.92 215.224 Q1990.88 211.474 1995.58 211.474 Q1998.45 211.474 2000.49 212.608 Q2002.55 213.719 2003.89 216.034 M1989.38 225.085 Q1989.38 229.784 1991.3 232.469 Q1993.24 235.131 1996.62 235.131 Q2000 235.131 2001.95 232.469 Q2003.89 229.784 2003.89 225.085 Q2003.89 220.386 2001.95 217.724 Q2000 215.039 1996.62 215.039 Q1993.24 215.039 1991.3 217.724 Q1989.38 220.386 1989.38 225.085 Z" fill="#000000" fill-rule="evenodd" fill-opacity="1" /><path clip-path="url(#clip040)" d="M2017.53 232.145 L2022.41 232.145 L2022.41 238.025 L2017.53 238.025 L2017.53 232.145 Z" fill="#000000" fill-rule="evenodd" fill-opacity="1" /><path clip-path="url(#clip040)" d="M2031.99 212.099 L2036.25 212.099 L2036.25 238.488 Q2036.25 243.441 2034.36 245.663 Q2032.48 247.886 2028.29 247.886 L2026.67 247.886 L2026.67 244.275 L2027.8 244.275 Q2030.24 244.275 2031.12 243.14 Q2031.99 242.029 2031.99 238.488 L2031.99 212.099 M2031.99 202.006 L2036.25 202.006 L2036.25 207.4 L2031.99 207.4 L2031.99 202.006 Z" fill="#000000" fill-rule="evenodd" fill-opacity="1" /><path clip-path="url(#clip040)" d="M2045.17 202.006 L2049.43 202.006 L2049.43 238.025 L2045.17 238.025 L2045.17 202.006 Z" fill="#000000" fill-rule="evenodd" fill-opacity="1" /><path clip-path="url(#clip040)" d="M2073.41 202.006 L2077.67 202.006 L2077.67 238.025 L2073.41 238.025 L2073.41 202.006 Z" fill="#000000" fill-rule="evenodd" fill-opacity="1" /><path clip-path="url(#clip040)" d="M2086.58 212.099 L2090.84 212.099 L2090.84 238.025 L2086.58 238.025 L2086.58 212.099 M2086.58 202.006 L2090.84 202.006 L2090.84 207.4 L2086.58 207.4 L2086.58 202.006 Z" fill="#000000" fill-rule="evenodd" fill-opacity="1" /><path clip-path="url(#clip040)" d="M2121.3 222.377 L2121.3 238.025 L2117.04 238.025 L2117.04 222.515 Q2117.04 218.835 2115.61 217.006 Q2114.17 215.178 2111.3 215.178 Q2107.85 215.178 2105.86 217.377 Q2103.87 219.576 2103.87 223.372 L2103.87 238.025 L2099.59 238.025 L2099.59 212.099 L2103.87 212.099 L2103.87 216.127 Q2105.4 213.789 2107.46 212.631 Q2109.54 211.474 2112.25 211.474 Q2116.72 211.474 2119.01 214.252 Q2121.3 217.006 2121.3 222.377 Z" fill="#000000" fill-rule="evenodd" fill-opacity="1" /><path clip-path="url(#clip040)" d="M2151.97 223.997 L2151.97 226.08 L2132.39 226.08 Q2132.67 230.478 2135.03 232.793 Q2137.41 235.085 2141.65 235.085 Q2144.1 235.085 2146.39 234.483 Q2148.71 233.881 2150.98 232.677 L2150.98 236.705 Q2148.68 237.677 2146.28 238.187 Q2143.87 238.696 2141.39 238.696 Q2135.19 238.696 2131.55 235.085 Q2127.94 231.474 2127.94 225.316 Q2127.94 218.951 2131.37 215.224 Q2134.82 211.474 2140.65 211.474 Q2145.88 211.474 2148.92 214.853 Q2151.97 218.21 2151.97 223.997 M2147.71 222.747 Q2147.67 219.252 2145.74 217.168 Q2143.85 215.085 2140.7 215.085 Q2137.13 215.085 2134.98 217.099 Q2132.85 219.113 2132.53 222.77 L2147.71 222.747 Z" fill="#000000" fill-rule="evenodd" fill-opacity="1" /><path clip-path="url(#clip040)" d="M2175.44 234.089 L2183.08 234.089 L2183.08 207.724 L2174.77 209.391 L2174.77 205.131 L2183.04 203.465 L2187.71 203.465 L2187.71 234.089 L2195.35 234.089 L2195.35 238.025 L2175.44 238.025 L2175.44 234.089 Z" fill="#000000" fill-rule="evenodd" fill-opacity="1" /><path clip-path="url(#clip040)" d="M2214.79 206.543 Q2211.18 206.543 2209.35 210.108 Q2207.55 213.65 2207.55 220.779 Q2207.55 227.886 2209.35 231.451 Q2211.18 234.992 2214.79 234.992 Q2218.43 234.992 2220.23 231.451 Q2222.06 227.886 2222.06 220.779 Q2222.06 213.65 2220.23 210.108 Q2218.43 206.543 2214.79 206.543 M2214.79 202.84 Q2220.6 202.84 2223.66 207.446 Q2226.74 212.029 2226.74 220.779 Q2226.74 229.506 2223.66 234.113 Q2220.6 238.696 2214.79 238.696 Q2208.98 238.696 2205.91 234.113 Q2202.85 229.506 2202.85 220.779 Q2202.85 212.029 2205.91 207.446 Q2208.98 202.84 2214.79 202.84 Z" fill="#000000" fill-rule="evenodd" fill-opacity="1" /><path clip-path="url(#clip040)" d="M2244.96 221.613 Q2241.62 221.613 2239.7 223.395 Q2237.8 225.177 2237.8 228.302 Q2237.8 231.427 2239.7 233.21 Q2241.62 234.992 2244.96 234.992 Q2248.29 234.992 2250.21 233.21 Q2252.13 231.404 2252.13 228.302 Q2252.13 225.177 2250.21 223.395 Q2248.31 221.613 2244.96 221.613 M2240.28 219.622 Q2237.27 218.881 2235.58 216.821 Q2233.91 214.761 2233.91 211.798 Q2233.91 207.654 2236.85 205.247 Q2239.82 202.84 2244.96 202.84 Q2250.12 202.84 2253.06 205.247 Q2256 207.654 2256 211.798 Q2256 214.761 2254.31 216.821 Q2252.64 218.881 2249.66 219.622 Q2253.04 220.409 2254.91 222.701 Q2256.81 224.992 2256.81 228.302 Q2256.81 233.326 2253.73 236.011 Q2250.67 238.696 2244.96 238.696 Q2239.24 238.696 2236.16 236.011 Q2233.1 233.326 2233.1 228.302 Q2233.1 224.992 2235 222.701 Q2236.9 220.409 2240.28 219.622 M2238.57 212.238 Q2238.57 214.923 2240.23 216.428 Q2241.92 217.932 2244.96 217.932 Q2247.97 217.932 2249.66 216.428 Q2251.37 214.923 2251.37 212.238 Q2251.37 209.553 2249.66 208.048 Q2247.97 206.543 2244.96 206.543 Q2241.92 206.543 2240.23 208.048 Q2238.57 209.553 2238.57 212.238 Z" fill="#000000" fill-rule="evenodd" fill-opacity="1" /><path clip-path="url(#clip040)" d="M1652.88 293.321 L1796.81 293.321 L1796.81 251.849 L1652.88 251.849 L1652.88 293.321  Z" fill="#e26f46" fill-rule="evenodd" fill-opacity="1"/>
<polyline clip-path="url(#clip040)" style="stroke:#000000; stroke-linecap:round; stroke-linejoin:round; stroke-width:4; stroke-opacity:1; fill:none" points="1652.88,293.321 1796.81,293.321 1796.81,251.849 1652.88,251.849 1652.88,293.321 "/>
<path clip-path="url(#clip040)" d="M1839.7 276.601 Q1839.7 271.971 1837.78 269.425 Q1835.88 266.879 1832.44 266.879 Q1829.01 266.879 1827.09 269.425 Q1825.19 271.971 1825.19 276.601 Q1825.19 281.207 1827.09 283.754 Q1829.01 286.3 1832.44 286.3 Q1835.88 286.3 1837.78 283.754 Q1839.7 281.207 1839.7 276.601 M1843.96 286.647 Q1843.96 293.267 1841.02 296.485 Q1838.08 299.726 1832.02 299.726 Q1829.77 299.726 1827.78 299.378 Q1825.79 299.054 1823.92 298.36 L1823.92 294.216 Q1825.79 295.235 1827.62 295.721 Q1829.45 296.207 1831.35 296.207 Q1835.54 296.207 1837.62 294.008 Q1839.7 291.832 1839.7 287.411 L1839.7 285.304 Q1838.38 287.596 1836.32 288.73 Q1834.26 289.865 1831.39 289.865 Q1826.63 289.865 1823.71 286.23 Q1820.79 282.596 1820.79 276.601 Q1820.79 270.582 1823.71 266.948 Q1826.63 263.314 1831.39 263.314 Q1834.26 263.314 1836.32 264.448 Q1838.38 265.582 1839.7 267.874 L1839.7 263.939 L1843.96 263.939 L1843.96 286.647 Z" fill="#000000" fill-rule="evenodd" fill-opacity="1" /><path clip-path="url(#clip040)" d="M1869.8 276.601 Q1869.8 271.971 1867.88 269.425 Q1865.98 266.879 1862.53 266.879 Q1859.1 266.879 1857.18 269.425 Q1855.28 271.971 1855.28 276.601 Q1855.28 281.207 1857.18 283.754 Q1859.1 286.3 1862.53 286.3 Q1865.98 286.3 1867.88 283.754 Q1869.8 281.207 1869.8 276.601 M1874.06 286.647 Q1874.06 293.267 1871.12 296.485 Q1868.18 299.726 1862.11 299.726 Q1859.87 299.726 1857.88 299.378 Q1855.88 299.054 1854.01 298.36 L1854.01 294.216 Q1855.88 295.235 1857.71 295.721 Q1859.54 296.207 1861.44 296.207 Q1865.63 296.207 1867.71 294.008 Q1869.8 291.832 1869.8 287.411 L1869.8 285.304 Q1868.48 287.596 1866.42 288.73 Q1864.36 289.865 1861.49 289.865 Q1856.72 289.865 1853.8 286.23 Q1850.88 282.596 1850.88 276.601 Q1850.88 270.582 1853.8 266.948 Q1856.72 263.314 1861.49 263.314 Q1864.36 263.314 1866.42 264.448 Q1868.48 265.582 1869.8 267.874 L1869.8 263.939 L1874.06 263.939 L1874.06 286.647 Z" fill="#000000" fill-rule="evenodd" fill-opacity="1" /><path clip-path="url(#clip040)" d="M1882.83 253.846 L1887.09 253.846 L1887.09 289.865 L1882.83 289.865 L1882.83 253.846 Z" fill="#000000" fill-rule="evenodd" fill-opacity="1" /><path clip-path="url(#clip040)" d="M1916.19 268.916 Q1917.78 266.045 1920 264.68 Q1922.23 263.314 1925.24 263.314 Q1929.29 263.314 1931.49 266.161 Q1933.69 268.985 1933.69 274.217 L1933.69 289.865 L1929.4 289.865 L1929.4 274.355 Q1929.4 270.629 1928.08 268.823 Q1926.76 267.018 1924.06 267.018 Q1920.75 267.018 1918.82 269.217 Q1916.9 271.416 1916.9 275.212 L1916.9 289.865 L1912.62 289.865 L1912.62 274.355 Q1912.62 270.605 1911.3 268.823 Q1909.98 267.018 1907.23 267.018 Q1903.96 267.018 1902.04 269.24 Q1900.12 271.439 1900.12 275.212 L1900.12 289.865 L1895.84 289.865 L1895.84 263.939 L1900.12 263.939 L1900.12 267.967 Q1901.58 265.582 1903.62 264.448 Q1905.65 263.314 1908.45 263.314 Q1911.28 263.314 1913.25 264.749 Q1915.24 266.184 1916.19 268.916 Z" fill="#000000" fill-rule="evenodd" fill-opacity="1" /><path clip-path="url(#clip040)" d="M1955.31 253.846 L1955.31 257.388 L1951.23 257.388 Q1948.94 257.388 1948.04 258.314 Q1947.16 259.24 1947.16 261.647 L1947.16 263.939 L1954.17 263.939 L1954.17 267.249 L1947.16 267.249 L1947.16 289.865 L1942.87 289.865 L1942.87 267.249 L1938.8 267.249 L1938.8 263.939 L1942.87 263.939 L1942.87 262.133 Q1942.87 257.805 1944.89 255.837 Q1946.9 253.846 1951.28 253.846 L1955.31 253.846 Z" fill="#000000" fill-rule="evenodd" fill-opacity="1" /><path clip-path="url(#clip040)" d="M1958.87 263.939 L1963.13 263.939 L1963.13 289.865 L1958.87 289.865 L1958.87 263.939 M1958.87 253.846 L1963.13 253.846 L1963.13 259.24 L1958.87 259.24 L1958.87 253.846 Z" fill="#000000" fill-rule="evenodd" fill-opacity="1" /><path clip-path="url(#clip040)" d="M1976.25 256.578 L1976.25 263.939 L1985.03 263.939 L1985.03 267.249 L1976.25 267.249 L1976.25 281.323 Q1976.25 284.494 1977.11 285.397 Q1977.99 286.3 1980.65 286.3 L1985.03 286.3 L1985.03 289.865 L1980.65 289.865 Q1975.72 289.865 1973.85 288.036 Q1971.97 286.184 1971.97 281.323 L1971.97 267.249 L1968.85 267.249 L1968.85 263.939 L1971.97 263.939 L1971.97 256.578 L1976.25 256.578 Z" fill="#000000" fill-rule="evenodd" fill-opacity="1" /><path clip-path="url(#clip040)" d="M1991.23 283.985 L1996.12 283.985 L1996.12 289.865 L1991.23 289.865 L1991.23 283.985 Z" fill="#000000" fill-rule="evenodd" fill-opacity="1" /><path clip-path="url(#clip040)" d="M2005.7 263.939 L2009.96 263.939 L2009.96 290.328 Q2009.96 295.281 2008.06 297.503 Q2006.18 299.726 2001.99 299.726 L2000.37 299.726 L2000.37 296.115 L2001.51 296.115 Q2003.94 296.115 2004.82 294.98 Q2005.7 293.869 2005.7 290.328 L2005.7 263.939 M2005.7 253.846 L2009.96 253.846 L2009.96 259.24 L2005.7 259.24 L2005.7 253.846 Z" fill="#000000" fill-rule="evenodd" fill-opacity="1" /><path clip-path="url(#clip040)" d="M2018.87 253.846 L2023.13 253.846 L2023.13 289.865 L2018.87 289.865 L2018.87 253.846 Z" fill="#000000" fill-rule="evenodd" fill-opacity="1" /><path clip-path="url(#clip040)" d="M2047.11 253.846 L2051.37 253.846 L2051.37 289.865 L2047.11 289.865 L2047.11 253.846 Z" fill="#000000" fill-rule="evenodd" fill-opacity="1" /><path clip-path="url(#clip040)" d="M2060.28 263.939 L2064.54 263.939 L2064.54 289.865 L2060.28 289.865 L2060.28 263.939 M2060.28 253.846 L2064.54 253.846 L2064.54 259.24 L2060.28 259.24 L2060.28 253.846 Z" fill="#000000" fill-rule="evenodd" fill-opacity="1" /><path clip-path="url(#clip040)" d="M2095 274.217 L2095 289.865 L2090.74 289.865 L2090.74 274.355 Q2090.74 270.675 2089.31 268.846 Q2087.87 267.018 2085 267.018 Q2081.55 267.018 2079.56 269.217 Q2077.57 271.416 2077.57 275.212 L2077.57 289.865 L2073.29 289.865 L2073.29 263.939 L2077.57 263.939 L2077.57 267.967 Q2079.1 265.629 2081.16 264.471 Q2083.24 263.314 2085.95 263.314 Q2090.42 263.314 2092.71 266.092 Q2095 268.846 2095 274.217 Z" fill="#000000" fill-rule="evenodd" fill-opacity="1" /><path clip-path="url(#clip040)" d="M2125.67 275.837 L2125.67 277.92 L2106.09 277.92 Q2106.37 282.318 2108.73 284.633 Q2111.11 286.925 2115.35 286.925 Q2117.8 286.925 2120.1 286.323 Q2122.41 285.721 2124.68 284.517 L2124.68 288.545 Q2122.39 289.517 2119.98 290.027 Q2117.57 290.536 2115.1 290.536 Q2108.89 290.536 2105.26 286.925 Q2101.65 283.314 2101.65 277.156 Q2101.65 270.791 2105.07 267.064 Q2108.52 263.314 2114.36 263.314 Q2119.59 263.314 2122.62 266.693 Q2125.67 270.05 2125.67 275.837 M2121.42 274.587 Q2121.37 271.092 2119.45 269.008 Q2117.55 266.925 2114.4 266.925 Q2110.84 266.925 2108.68 268.939 Q2106.55 270.953 2106.23 274.61 L2121.42 274.587 Z" fill="#000000" fill-rule="evenodd" fill-opacity="1" /><path clip-path="url(#clip040)" d="M2149.15 285.929 L2156.79 285.929 L2156.79 259.564 L2148.48 261.231 L2148.48 256.971 L2156.74 255.305 L2161.42 255.305 L2161.42 285.929 L2169.05 285.929 L2169.05 289.865 L2149.15 289.865 L2149.15 285.929 Z" fill="#000000" fill-rule="evenodd" fill-opacity="1" /><path clip-path="url(#clip040)" d="M2177.32 255.305 L2199.54 255.305 L2199.54 257.295 L2186.99 289.865 L2182.11 289.865 L2193.92 259.24 L2177.32 259.24 L2177.32 255.305 Z" fill="#000000" fill-rule="evenodd" fill-opacity="1" /><path clip-path="url(#clip040)" d="M2218.66 273.453 Q2215.33 273.453 2213.41 275.235 Q2211.51 277.017 2211.51 280.142 Q2211.51 283.267 2213.41 285.05 Q2215.33 286.832 2218.66 286.832 Q2221.99 286.832 2223.92 285.05 Q2225.84 283.244 2225.84 280.142 Q2225.84 277.017 2223.92 275.235 Q2222.02 273.453 2218.66 273.453 M2213.98 271.462 Q2210.98 270.721 2209.29 268.661 Q2207.62 266.601 2207.62 263.638 Q2207.62 259.494 2210.56 257.087 Q2213.52 254.68 2218.66 254.68 Q2223.82 254.68 2226.76 257.087 Q2229.7 259.494 2229.7 263.638 Q2229.7 266.601 2228.01 268.661 Q2226.35 270.721 2223.36 271.462 Q2226.74 272.249 2228.61 274.541 Q2230.51 276.832 2230.51 280.142 Q2230.51 285.166 2227.43 287.851 Q2224.38 290.536 2218.66 290.536 Q2212.94 290.536 2209.86 287.851 Q2206.81 285.166 2206.81 280.142 Q2206.81 276.832 2208.71 274.541 Q2210.6 272.249 2213.98 271.462 M2212.27 264.078 Q2212.27 266.763 2213.94 268.268 Q2215.63 269.772 2218.66 269.772 Q2221.67 269.772 2223.36 268.268 Q2225.07 266.763 2225.07 264.078 Q2225.07 261.393 2223.36 259.888 Q2221.67 258.383 2218.66 258.383 Q2215.63 258.383 2213.94 259.888 Q2212.27 261.393 2212.27 264.078 Z" fill="#000000" fill-rule="evenodd" fill-opacity="1" /><path clip-path="url(#clip040)" d="M1652.88 345.161 L1796.81 345.161 L1796.81 303.689 L1652.88 303.689 L1652.88 345.161  Z" fill="#3da44d" fill-rule="evenodd" fill-opacity="1"/>
<polyline clip-path="url(#clip040)" style="stroke:#000000; stroke-linecap:round; stroke-linejoin:round; stroke-width:4; stroke-opacity:1; fill:none" points="1652.88,345.161 1796.81,345.161 1796.81,303.689 1652.88,303.689 1652.88,345.161 "/>
<path clip-path="url(#clip040)" d="M1832.69 318.765 Q1829.26 318.765 1827.27 321.45 Q1825.28 324.112 1825.28 328.765 Q1825.28 333.418 1827.25 336.103 Q1829.24 338.765 1832.69 338.765 Q1836.09 338.765 1838.08 336.08 Q1840.07 333.395 1840.07 328.765 Q1840.07 324.158 1838.08 321.473 Q1836.09 318.765 1832.69 318.765 M1832.69 315.154 Q1838.25 315.154 1841.42 318.765 Q1844.59 322.376 1844.59 328.765 Q1844.59 335.131 1841.42 338.765 Q1838.25 342.376 1832.69 342.376 Q1827.11 342.376 1823.94 338.765 Q1820.79 335.131 1820.79 328.765 Q1820.79 322.376 1823.94 318.765 Q1827.11 315.154 1832.69 315.154 Z" fill="#000000" fill-rule="evenodd" fill-opacity="1" /><path clip-path="url(#clip040)" d="M1855.86 308.418 L1855.86 315.779 L1864.63 315.779 L1864.63 319.089 L1855.86 319.089 L1855.86 333.163 Q1855.86 336.334 1856.72 337.237 Q1857.6 338.14 1860.26 338.14 L1864.63 338.14 L1864.63 341.705 L1860.26 341.705 Q1855.33 341.705 1853.45 339.876 Q1851.58 338.024 1851.58 333.163 L1851.58 319.089 L1848.45 319.089 L1848.45 315.779 L1851.58 315.779 L1851.58 308.418 L1855.86 308.418 Z" fill="#000000" fill-rule="evenodd" fill-opacity="1" /><path clip-path="url(#clip040)" d="M1891.79 326.057 L1891.79 341.705 L1887.53 341.705 L1887.53 326.195 Q1887.53 322.515 1886.09 320.686 Q1884.66 318.858 1881.79 318.858 Q1878.34 318.858 1876.35 321.057 Q1874.36 323.256 1874.36 327.052 L1874.36 341.705 L1870.07 341.705 L1870.07 305.686 L1874.36 305.686 L1874.36 319.807 Q1875.88 317.469 1877.94 316.311 Q1880.03 315.154 1882.74 315.154 Q1887.2 315.154 1889.5 317.932 Q1891.79 320.686 1891.79 326.057 Z" fill="#000000" fill-rule="evenodd" fill-opacity="1" /><path clip-path="url(#clip040)" d="M1922.46 327.677 L1922.46 329.76 L1902.88 329.76 Q1903.15 334.158 1905.51 336.473 Q1907.9 338.765 1912.13 338.765 Q1914.59 338.765 1916.88 338.163 Q1919.19 337.561 1921.46 336.357 L1921.46 340.385 Q1919.17 341.357 1916.76 341.867 Q1914.36 342.376 1911.88 342.376 Q1905.68 342.376 1902.04 338.765 Q1898.43 335.154 1898.43 328.996 Q1898.43 322.631 1901.86 318.904 Q1905.31 315.154 1911.14 315.154 Q1916.37 315.154 1919.4 318.533 Q1922.46 321.89 1922.46 327.677 M1918.2 326.427 Q1918.15 322.932 1916.23 320.848 Q1914.33 318.765 1911.19 318.765 Q1907.62 318.765 1905.47 320.779 Q1903.34 322.793 1903.01 326.45 L1918.2 326.427 Z" fill="#000000" fill-rule="evenodd" fill-opacity="1" /><path clip-path="url(#clip040)" d="M1944.47 319.76 Q1943.75 319.344 1942.9 319.158 Q1942.06 318.95 1941.05 318.95 Q1937.44 318.95 1935.49 321.311 Q1933.57 323.649 1933.57 328.047 L1933.57 341.705 L1929.29 341.705 L1929.29 315.779 L1933.57 315.779 L1933.57 319.807 Q1934.91 317.446 1937.06 316.311 Q1939.22 315.154 1942.3 315.154 Q1942.74 315.154 1943.27 315.223 Q1943.8 315.27 1944.45 315.385 L1944.47 319.76 Z" fill="#000000" fill-rule="evenodd" fill-opacity="1" /><path clip-path="url(#clip040)" d="M1965.47 316.543 L1965.47 320.571 Q1963.66 319.645 1961.72 319.182 Q1959.77 318.719 1957.69 318.719 Q1954.52 318.719 1952.92 319.691 Q1951.35 320.663 1951.35 322.608 Q1951.35 324.089 1952.48 324.945 Q1953.62 325.779 1957.04 326.543 L1958.5 326.867 Q1963.04 327.839 1964.93 329.621 Q1966.86 331.381 1966.86 334.552 Q1966.86 338.163 1963.99 340.269 Q1961.14 342.376 1956.14 342.376 Q1954.06 342.376 1951.79 341.959 Q1949.54 341.566 1947.04 340.756 L1947.04 336.357 Q1949.4 337.584 1951.69 338.209 Q1953.99 338.811 1956.23 338.811 Q1959.24 338.811 1960.86 337.793 Q1962.48 336.751 1962.48 334.876 Q1962.48 333.14 1961.3 332.214 Q1960.14 331.288 1956.18 330.432 L1954.7 330.084 Q1950.75 329.251 1948.99 327.538 Q1947.23 325.802 1947.23 322.793 Q1947.23 319.135 1949.82 317.145 Q1952.41 315.154 1957.18 315.154 Q1959.54 315.154 1961.62 315.501 Q1963.71 315.848 1965.47 316.543 Z" fill="#000000" fill-rule="evenodd" fill-opacity="1" /><path clip-path="url(#clip040)" d="M1989.31 335.825 L1994.19 335.825 L1994.19 341.705 L1989.31 341.705 L1989.31 335.825 Z" fill="#000000" fill-rule="evenodd" fill-opacity="1" /><path clip-path="url(#clip040)" d="M2034.01 318.371 L2010.12 326.867 L2034.01 335.316 L2034.01 339.529 L2004.33 328.765 L2004.33 324.922 L2034.01 314.159 L2034.01 318.371 Z" fill="#000000" fill-rule="evenodd" fill-opacity="1" /><path clip-path="url(#clip040)" d="M2059.22 307.145 L2077.57 307.145 L2077.57 311.08 L2063.5 311.08 L2063.5 319.552 Q2064.52 319.205 2065.54 319.043 Q2066.55 318.858 2067.57 318.858 Q2073.36 318.858 2076.74 322.029 Q2080.12 325.2 2080.12 330.617 Q2080.12 336.195 2076.65 339.297 Q2073.18 342.376 2066.86 342.376 Q2064.68 342.376 2062.41 342.006 Q2060.17 341.635 2057.76 340.894 L2057.76 336.195 Q2059.84 337.33 2062.06 337.885 Q2064.29 338.441 2066.76 338.441 Q2070.77 338.441 2073.11 336.334 Q2075.44 334.228 2075.44 330.617 Q2075.44 327.006 2073.11 324.899 Q2070.77 322.793 2066.76 322.793 Q2064.89 322.793 2063.01 323.209 Q2061.16 323.626 2059.22 324.506 L2059.22 307.145 Z" fill="#000000" fill-rule="evenodd" fill-opacity="1" /><path clip-path="url(#clip040)" d="M2089.33 335.825 L2094.22 335.825 L2094.22 341.705 L2089.33 341.705 L2089.33 335.825 Z" fill="#000000" fill-rule="evenodd" fill-opacity="1" /><path clip-path="url(#clip040)" d="M2114.4 310.223 Q2110.79 310.223 2108.96 313.788 Q2107.16 317.33 2107.16 324.459 Q2107.16 331.566 2108.96 335.131 Q2110.79 338.672 2114.4 338.672 Q2118.04 338.672 2119.84 335.131 Q2121.67 331.566 2121.67 324.459 Q2121.67 317.33 2119.84 313.788 Q2118.04 310.223 2114.4 310.223 M2114.4 306.52 Q2120.21 306.52 2123.27 311.126 Q2126.35 315.709 2126.35 324.459 Q2126.35 333.186 2123.27 337.793 Q2120.21 342.376 2114.4 342.376 Q2108.59 342.376 2105.51 337.793 Q2102.46 333.186 2102.46 324.459 Q2102.46 315.709 2105.51 311.126 Q2108.59 306.52 2114.4 306.52 Z" fill="#000000" fill-rule="evenodd" fill-opacity="1" /></svg>
