<?xml version="1.0" encoding="utf-8"?>
<svg xmlns="http://www.w3.org/2000/svg" xmlns:xlink="http://www.w3.org/1999/xlink" width="600" height="400" viewBox="0 0 2400 1600">
<defs>
  <clipPath id="clip280">
    <rect x="0" y="0" width="2400" height="1600"/>
  </clipPath>
</defs>
<path clip-path="url(#clip280)" d="M0 1600 L2400 1600 L2400 0 L0 0  Z" fill="#ffffff" fill-rule="evenodd" fill-opacity="1"/>
<defs>
  <clipPath id="clip281">
    <rect x="480" y="0" width="1681" height="1600"/>
  </clipPath>
</defs>
<path clip-path="url(#clip280)" d="M193.936 1486.45 L2352.76 1486.45 L2352.76 123.472 L193.936 123.472  Z" fill="#ffffff" fill-rule="evenodd" fill-opacity="1"/>
<defs>
  <clipPath id="clip282">
    <rect x="193" y="123" width="2160" height="1364"/>
  </clipPath>
</defs>
<path clip-path="url(#clip280)" d="M744.014 12.096 L756.208 12.096 L771.641 53.2532 L787.156 12.096 L799.35 12.096 L799.35 72.576 L791.369 72.576 L791.369 19.4686 L775.773 60.9499 L767.55 60.9499 L751.954 19.4686 L751.954 72.576 L744.014 72.576 L744.014 12.096 Z" fill="#000000" fill-rule="nonzero" fill-opacity="1" /><path clip-path="url(#clip280)" d="M835.889 49.7694 Q826.855 49.7694 823.372 51.8354 Q819.888 53.9013 819.888 58.8839 Q819.888 62.8538 822.48 65.2034 Q825.113 67.5124 829.61 67.5124 Q835.808 67.5124 839.535 63.1374 Q843.302 58.7219 843.302 51.4303 L843.302 49.7694 L835.889 49.7694 M850.756 46.6907 L850.756 72.576 L843.302 72.576 L843.302 65.6895 Q840.75 69.8214 836.942 71.8063 Q833.134 73.7508 827.625 73.7508 Q820.657 73.7508 816.525 69.8619 Q812.434 65.9325 812.434 59.3701 Q812.434 51.7138 817.538 47.825 Q822.683 43.9361 832.851 43.9361 L843.302 43.9361 L843.302 43.2069 Q843.302 38.0623 839.899 35.2672 Q836.537 32.4315 830.42 32.4315 Q826.531 32.4315 822.845 33.3632 Q819.159 34.295 815.756 36.1584 L815.756 29.2718 Q819.847 27.692 823.696 26.9223 Q827.544 26.1121 831.19 26.1121 Q841.033 26.1121 845.895 31.2163 Q850.756 36.3204 850.756 46.6907 Z" fill="#000000" fill-rule="nonzero" fill-opacity="1" /><path clip-path="url(#clip280)" d="M866.109 9.54393 L873.562 9.54393 L873.562 72.576 L866.109 72.576 L866.109 9.54393 Z" fill="#000000" fill-rule="nonzero" fill-opacity="1" /><path clip-path="url(#clip280)" d="M889.158 9.54393 L896.612 9.54393 L896.612 72.576 L889.158 72.576 L889.158 9.54393 Z" fill="#000000" fill-rule="nonzero" fill-opacity="1" /><path clip-path="url(#clip280)" d="M929.789 32.4315 Q923.793 32.4315 920.31 37.1306 Q916.826 41.7891 916.826 49.9314 Q916.826 58.0738 920.269 62.7728 Q923.753 67.4314 929.789 67.4314 Q935.744 67.4314 939.227 62.7323 Q942.711 58.0333 942.711 49.9314 Q942.711 41.8701 939.227 37.1711 Q935.744 32.4315 929.789 32.4315 M929.789 26.1121 Q939.511 26.1121 945.061 32.4315 Q950.61 38.7509 950.61 49.9314 Q950.61 61.0714 945.061 67.4314 Q939.511 73.7508 929.789 73.7508 Q920.026 73.7508 914.476 67.4314 Q908.967 61.0714 908.967 49.9314 Q908.967 38.7509 914.476 32.4315 Q920.026 26.1121 929.789 26.1121 Z" fill="#000000" fill-rule="nonzero" fill-opacity="1" /><path clip-path="url(#clip280)" d="M995.616 28.9478 L995.616 35.9153 Q992.456 34.1734 989.256 33.3227 Q986.096 32.4315 982.856 32.4315 Q975.604 32.4315 971.594 37.0496 Q967.584 41.6271 967.584 49.9314 Q967.584 58.2358 971.594 62.8538 Q975.604 67.4314 982.856 67.4314 Q986.096 67.4314 989.256 66.5807 Q992.456 65.6895 995.616 63.9476 L995.616 70.8341 Q992.497 72.2924 989.135 73.0216 Q985.813 73.7508 982.045 73.7508 Q971.797 73.7508 965.761 67.3098 Q959.725 60.8689 959.725 49.9314 Q959.725 38.832 965.801 32.472 Q971.918 26.1121 982.532 26.1121 Q985.975 26.1121 989.256 26.8413 Q992.537 27.5299 995.616 28.9478 Z" fill="#000000" fill-rule="nonzero" fill-opacity="1" /><path clip-path="url(#clip280)" d="M1037.5 28.5427 L1037.5 35.5912 Q1034.34 33.9709 1030.94 33.1607 Q1027.54 32.3505 1023.89 32.3505 Q1018.34 32.3505 1015.55 34.0519 Q1012.79 35.7533 1012.79 39.156 Q1012.79 41.7486 1014.78 43.2475 Q1016.76 44.7058 1022.76 46.0426 L1025.31 46.6097 Q1033.25 48.3111 1036.57 51.4303 Q1039.93 54.509 1039.93 60.0587 Q1039.93 66.3781 1034.91 70.0644 Q1029.93 73.7508 1021.18 73.7508 Q1017.53 73.7508 1013.56 73.0216 Q1009.63 72.3329 1005.26 70.9151 L1005.26 63.2184 Q1009.39 65.3654 1013.4 66.4591 Q1017.41 67.5124 1021.34 67.5124 Q1026.61 67.5124 1029.44 65.73 Q1032.28 63.9071 1032.28 60.6258 Q1032.28 57.5877 1030.21 55.9673 Q1028.19 54.3469 1021.26 52.8481 L1018.67 52.2405 Q1011.74 50.7821 1008.66 47.7845 Q1005.58 44.7463 1005.58 39.4801 Q1005.58 33.0797 1010.12 29.5959 Q1014.66 26.1121 1023 26.1121 Q1027.13 26.1121 1030.78 26.7198 Q1034.42 27.3274 1037.5 28.5427 Z" fill="#000000" fill-rule="nonzero" fill-opacity="1" /><path clip-path="url(#clip280)" d="M1101.14 9.54393 L1101.14 15.7418 L1094.01 15.7418 Q1090 15.7418 1088.42 17.3622 Q1086.88 18.9825 1086.88 23.1955 L1086.88 27.2059 L1099.16 27.2059 L1099.16 32.9987 L1086.88 32.9987 L1086.88 72.576 L1079.39 72.576 L1079.39 32.9987 L1072.26 32.9987 L1072.26 27.2059 L1079.39 27.2059 L1079.39 24.0462 Q1079.39 16.471 1082.91 13.0277 Q1086.44 9.54393 1094.09 9.54393 L1101.14 9.54393 Z" fill="#000000" fill-rule="nonzero" fill-opacity="1" /><path clip-path="url(#clip280)" d="M1124.96 32.4315 Q1118.97 32.4315 1115.48 37.1306 Q1112 41.7891 1112 49.9314 Q1112 58.0738 1115.44 62.7728 Q1118.93 67.4314 1124.96 67.4314 Q1130.92 67.4314 1134.4 62.7323 Q1137.88 58.0333 1137.88 49.9314 Q1137.88 41.8701 1134.4 37.1711 Q1130.92 32.4315 1124.96 32.4315 M1124.96 26.1121 Q1134.68 26.1121 1140.23 32.4315 Q1145.78 38.7509 1145.78 49.9314 Q1145.78 61.0714 1140.23 67.4314 Q1134.68 73.7508 1124.96 73.7508 Q1115.2 73.7508 1109.65 67.4314 Q1104.14 61.0714 1104.14 49.9314 Q1104.14 38.7509 1109.65 32.4315 Q1115.2 26.1121 1124.96 26.1121 Z" fill="#000000" fill-rule="nonzero" fill-opacity="1" /><path clip-path="url(#clip280)" d="M1184.43 34.1734 Q1183.17 33.4443 1181.67 33.1202 Q1180.22 32.7556 1178.43 32.7556 Q1172.11 32.7556 1168.71 36.8875 Q1165.35 40.9789 1165.35 48.6757 L1165.35 72.576 L1157.85 72.576 L1157.85 27.2059 L1165.35 27.2059 L1165.35 34.2544 Q1167.7 30.1225 1171.47 28.1376 Q1175.23 26.1121 1180.62 26.1121 Q1181.39 26.1121 1182.32 26.2337 Q1183.25 26.3147 1184.39 26.5172 L1184.43 34.1734 Z" fill="#000000" fill-rule="nonzero" fill-opacity="1" /><path clip-path="url(#clip280)" d="M1260.18 63.9476 L1260.18 47.7034 L1246.81 47.7034 L1246.81 40.9789 L1268.28 40.9789 L1268.28 66.9452 Q1263.54 70.3075 1257.83 72.0494 Q1252.12 73.7508 1245.64 73.7508 Q1231.46 73.7508 1223.44 65.4869 Q1215.46 57.1826 1215.46 42.3968 Q1215.46 27.5705 1223.44 19.3066 Q1231.46 11.0023 1245.64 11.0023 Q1251.55 11.0023 1256.86 12.4606 Q1262.21 13.9189 1266.7 16.7545 L1266.7 25.464 Q1262.17 21.6156 1257.06 19.6712 Q1251.96 17.7268 1246.33 17.7268 Q1235.23 17.7268 1229.64 23.9246 Q1224.09 30.1225 1224.09 42.3968 Q1224.09 54.6305 1229.64 60.8284 Q1235.23 67.0263 1246.33 67.0263 Q1250.66 67.0263 1254.06 66.2971 Q1257.47 65.5274 1260.18 63.9476 Z" fill="#000000" fill-rule="nonzero" fill-opacity="1" /><path clip-path="url(#clip280)" d="M1283.23 12.096 L1291.41 12.096 L1291.41 65.6895 L1320.86 65.6895 L1320.86 72.576 L1283.23 72.576 L1283.23 12.096 Z" fill="#000000" fill-rule="nonzero" fill-opacity="1" /><path clip-path="url(#clip280)" d="M1329.45 12.096 L1341.64 12.096 L1357.08 53.2532 L1372.59 12.096 L1384.79 12.096 L1384.79 72.576 L1376.81 72.576 L1376.81 19.4686 L1361.21 60.9499 L1352.99 60.9499 L1337.39 19.4686 L1337.39 72.576 L1329.45 72.576 L1329.45 12.096 Z" fill="#000000" fill-rule="nonzero" fill-opacity="1" /><path clip-path="url(#clip280)" d="M1401.76 62.2867 L1410.31 62.2867 L1410.31 72.576 L1401.76 72.576 L1401.76 62.2867 Z" fill="#000000" fill-rule="nonzero" fill-opacity="1" /><path clip-path="url(#clip280)" d="M1427.08 27.2059 L1434.53 27.2059 L1434.53 73.3862 Q1434.53 82.0551 1431.21 85.944 Q1427.93 89.8329 1420.6 89.8329 L1417.76 89.8329 L1417.76 83.5134 L1419.75 83.5134 Q1424 83.5134 1425.54 81.5285 Q1427.08 79.5841 1427.08 73.3862 L1427.08 27.2059 M1427.08 9.54393 L1434.53 9.54393 L1434.53 18.9825 L1427.08 18.9825 L1427.08 9.54393 Z" fill="#000000" fill-rule="nonzero" fill-opacity="1" /><path clip-path="url(#clip280)" d="M1450.13 9.54393 L1457.58 9.54393 L1457.58 72.576 L1450.13 72.576 L1450.13 9.54393 Z" fill="#000000" fill-rule="nonzero" fill-opacity="1" /><path clip-path="url(#clip280)" d="M1496.23 50.8226 Q1496.23 56.6154 1499.1 59.9372 Q1501.98 63.2184 1507 63.2184 Q1511.98 63.2184 1514.82 59.8967 Q1517.7 56.5749 1517.7 50.8226 Q1517.7 45.1514 1514.78 41.8296 Q1511.86 38.4674 1506.92 38.4674 Q1502.02 38.4674 1499.1 41.7891 Q1496.23 45.1109 1496.23 50.8226 M1518.3 62.9348 Q1515.87 66.054 1512.71 67.5529 Q1509.59 69.0112 1505.42 69.0112 Q1498.45 69.0112 1494.08 63.9881 Q1489.75 58.9245 1489.75 50.8226 Q1489.75 42.7208 1494.12 37.6572 Q1498.5 32.5936 1505.42 32.5936 Q1509.59 32.5936 1512.75 34.1329 Q1515.91 35.6318 1518.3 38.7104 L1518.3 33.4038 L1524.1 33.4038 L1524.1 63.2184 Q1530.01 62.3272 1533.33 57.8307 Q1536.7 53.2937 1536.7 46.1236 Q1536.7 41.7891 1535.4 37.9813 Q1534.14 34.1734 1531.55 30.9327 Q1527.34 25.626 1521.26 22.8309 Q1515.23 19.9953 1508.1 19.9953 Q1503.11 19.9953 1498.54 21.3321 Q1493.96 22.6284 1490.07 25.2209 Q1483.71 29.3529 1480.1 36.0774 Q1476.54 42.7613 1476.54 50.5796 Q1476.54 57.0205 1478.85 62.6513 Q1481.2 68.282 1485.61 72.576 Q1489.87 76.7889 1495.46 78.9764 Q1501.05 81.2044 1507.41 81.2044 Q1512.63 81.2044 1517.66 79.422 Q1522.72 77.6801 1526.93 74.3989 L1530.58 78.8954 Q1525.51 82.8248 1519.52 84.8907 Q1513.56 86.9972 1507.41 86.9972 Q1499.91 86.9972 1493.27 84.3236 Q1486.63 81.6905 1481.44 76.6269 Q1476.26 71.5633 1473.54 64.9198 Q1470.83 58.2358 1470.83 50.5796 Q1470.83 43.2069 1473.58 36.523 Q1476.34 29.839 1481.44 24.7753 Q1486.67 19.6307 1493.51 16.9166 Q1500.36 14.162 1508.01 14.162 Q1516.6 14.162 1523.93 17.6862 Q1531.31 21.2105 1536.29 27.692 Q1539.33 31.6619 1540.91 36.3204 Q1542.53 40.9789 1542.53 45.9616 Q1542.53 56.6154 1536.09 62.7728 Q1529.65 68.9302 1518.3 69.1732 L1518.3 62.9348 Z" fill="#000000" fill-rule="nonzero" fill-opacity="1" /><path clip-path="url(#clip280)" d="M1550.79 27.2059 L1558.69 27.2059 L1572.87 65.2844 L1587.05 27.2059 L1594.95 27.2059 L1577.93 72.576 L1567.81 72.576 L1550.79 27.2059 Z" fill="#000000" fill-rule="nonzero" fill-opacity="1" /><path clip-path="url(#clip280)" d="M1607.71 65.6895 L1621.08 65.6895 L1621.08 19.5497 L1606.53 22.4663 L1606.53 15.0127 L1620.99 12.096 L1629.18 12.096 L1629.18 65.6895 L1642.55 65.6895 L1642.55 72.576 L1607.71 72.576 L1607.71 65.6895 Z" fill="#000000" fill-rule="nonzero" fill-opacity="1" /><path clip-path="url(#clip280)" d="M1659.07 62.2867 L1667.62 62.2867 L1667.62 72.576 L1659.07 72.576 L1659.07 62.2867 Z" fill="#000000" fill-rule="nonzero" fill-opacity="1" /><path clip-path="url(#clip280)" d="M1710.24 39.9662 Q1716.11 41.222 1719.39 45.1919 Q1722.71 49.1618 1722.71 54.9951 Q1722.71 63.9476 1716.56 68.8492 Q1710.4 73.7508 1699.06 73.7508 Q1695.25 73.7508 1691.2 72.9811 Q1687.19 72.2519 1682.89 70.7531 L1682.89 62.8538 Q1686.3 64.8388 1690.35 65.8515 Q1694.4 66.8642 1698.81 66.8642 Q1706.51 66.8642 1710.52 63.826 Q1714.57 60.7879 1714.57 54.9951 Q1714.57 49.6479 1710.8 46.6502 Q1707.08 43.612 1700.39 43.612 L1693.34 43.612 L1693.34 36.8875 L1700.72 36.8875 Q1706.75 36.8875 1709.95 34.4975 Q1713.15 32.067 1713.15 27.5299 Q1713.15 22.8714 1709.83 20.4004 Q1706.55 17.8888 1700.39 17.8888 Q1697.03 17.8888 1693.18 18.618 Q1689.33 19.3471 1684.72 20.8865 L1684.72 13.5948 Q1689.37 12.2985 1693.42 11.6504 Q1697.52 11.0023 1701.12 11.0023 Q1710.44 11.0023 1715.87 15.2557 Q1721.29 19.4686 1721.29 26.6793 Q1721.29 31.7024 1718.42 35.1862 Q1715.54 38.6294 1710.24 39.9662 Z" fill="#000000" fill-rule="nonzero" fill-opacity="1" /><path clip-path="url(#clip280)" d="M1738.23 62.2867 L1746.78 62.2867 L1746.78 72.576 L1738.23 72.576 L1738.23 62.2867 Z" fill="#000000" fill-rule="nonzero" fill-opacity="1" /><path clip-path="url(#clip280)" d="M1764.84 71.3202 L1764.84 63.8666 Q1767.92 65.3249 1771.08 66.0946 Q1774.24 66.8642 1777.28 66.8642 Q1785.38 66.8642 1789.63 61.436 Q1793.93 55.9673 1794.54 44.8678 Q1792.19 48.3516 1788.58 50.215 Q1784.98 52.0784 1780.6 52.0784 Q1771.53 52.0784 1766.22 46.6097 Q1760.95 41.1005 1760.95 31.5808 Q1760.95 22.2638 1766.46 16.633 Q1771.97 11.0023 1781.13 11.0023 Q1791.62 11.0023 1797.13 19.0636 Q1802.68 27.0843 1802.68 42.3968 Q1802.68 56.6965 1795.87 65.2439 Q1789.11 73.7508 1777.64 73.7508 Q1774.56 73.7508 1771.4 73.1431 Q1768.24 72.5355 1764.84 71.3202 M1781.13 45.678 Q1786.64 45.678 1789.84 41.9107 Q1793.08 38.1433 1793.08 31.5808 Q1793.08 25.0589 1789.84 21.2916 Q1786.64 17.4837 1781.13 17.4837 Q1775.62 17.4837 1772.38 21.2916 Q1769.18 25.0589 1769.18 31.5808 Q1769.18 38.1433 1772.38 41.9107 Q1775.62 45.678 1781.13 45.678 Z" fill="#000000" fill-rule="nonzero" fill-opacity="1" /><path clip-path="url(#clip282)" d="M1273.12 804.719 L1916.28 804.719 L1912.03 730.939 L1899.35 658.134 L1878.4 587.264 L1849.46 519.265 L1812.91 455.035 L1769.23 395.422 L1719 341.212 L1662.89 293.123 L1601.63 251.788 L1536.03 217.754 L1466.96 191.469 L1395.33 173.282 L1322.09 163.431 L1248.2 162.047 L1174.64 169.148 L1102.38 184.641 L1032.38 208.321 L965.549 239.875 L902.783 278.887 L844.907 324.842 L792.685 377.132 L746.806 435.068 L707.876 497.885 L676.409 564.752 L652.821 634.788 L637.422 707.068 L630.417 780.636 L631.897 854.523 L641.843 927.752 L660.124 999.357 L686.499 1068.39 L720.619 1133.95 L762.034 1195.15 L810.196 1251.2 L864.471 1301.36 L924.141 1344.96 L988.419 1381.43 L1056.46 1410.28 L1127.35 1431.14 L1200.17 1443.72 L1273.96 1447.87 L1347.73 1443.53 L1420.52 1430.75 L1491.37 1409.71 L1559.33 1380.68 L1623.51 1344.05 L1683.06 1300.29 L1737.21 1249.99 L1785.22 1193.82 L1273.12 804.719  Z" fill="#009af9" fill-rule="evenodd" fill-opacity="1"/>
<polyline clip-path="url(#clip282)" style="stroke:#000000; stroke-linecap:round; stroke-linejoin:round; stroke-width:4; stroke-opacity:0.5; fill:none" points="1273.12,804.719 1916.28,804.719 1912.03,730.939 1899.35,658.134 1878.4,587.264 1849.46,519.265 1812.91,455.035 1769.23,395.422 1719,341.212 1662.89,293.123 1601.63,251.788 1536.03,217.754 1466.96,191.469 1395.33,173.282 1322.09,163.431 1248.2,162.047 1174.64,169.148 1102.38,184.641 1032.38,208.321 965.549,239.875 902.783,278.887 844.907,324.842 792.685,377.132 746.806,435.068 707.876,497.885 676.409,564.752 652.821,634.788 637.422,707.068 630.417,780.636 631.897,854.523 641.843,927.752 660.124,999.357 686.499,1068.39 720.619,1133.95 762.034,1195.15 810.196,1251.2 864.471,1301.36 924.141,1344.96 988.419,1381.43 1056.46,1410.28 1127.35,1431.14 1200.17,1443.72 1273.96,1447.87 1347.73,1443.53 1420.52,1430.75 1491.37,1409.71 1559.33,1380.68 1623.51,1344.05 1683.06,1300.29 1737.21,1249.99 1785.22,1193.82 1273.12,804.719 "/>
<path clip-path="url(#clip282)" d="M1273.12 804.719 L1785.22 1193.82 L1787.79 1190.41 L1790.34 1186.99 L1792.86 1183.56 L1795.36 1180.1 L1797.84 1176.63 L1800.29 1173.14 L1802.72 1169.64 L1805.13 1166.12 L1807.52 1162.59 L1809.88 1159.03 L1812.22 1155.47 L1814.53 1151.89 L1816.82 1148.29 L1819.08 1144.68 L1821.33 1141.05 L1823.54 1137.41 L1825.74 1133.75 L1827.91 1130.08 L1830.05 1126.39 L1832.17 1122.69 L1834.27 1118.98 L1836.34 1115.25 L1838.39 1111.51 L1840.41 1107.76 L1842.4 1103.99 L1844.38 1100.21 L1846.32 1096.42 L1848.24 1092.61 L1850.14 1088.79 L1852.01 1084.96 L1853.86 1081.11 L1855.68 1077.26 L1857.47 1073.39 L1859.24 1069.51 L1860.98 1065.62 L1862.7 1061.71 L1864.39 1057.8 L1866.05 1053.87 L1867.69 1049.94 L1869.31 1045.99 L1870.89 1042.03 L1872.45 1038.06 L1873.99 1034.08 L1875.49 1030.1 L1876.97 1026.1 L1878.43 1022.09 L1879.86 1018.07 L1881.26 1014.04 L1882.63 1010.01 L1273.12 804.719  Z" fill="#e26f46" fill-rule="evenodd" fill-opacity="1"/>
<polyline clip-path="url(#clip282)" style="stroke:#000000; stroke-linecap:round; stroke-linejoin:round; stroke-width:4; stroke-opacity:0.5; fill:none" points="1273.12,804.719 1785.22,1193.82 1787.79,1190.41 1790.34,1186.99 1792.86,1183.56 1795.36,1180.1 1797.84,1176.63 1800.29,1173.14 1802.72,1169.64 1805.13,1166.12 1807.52,1162.59 1809.88,1159.03 1812.22,1155.47 1814.53,1151.89 1816.82,1148.29 1819.08,1144.68 1821.33,1141.05 1823.54,1137.41 1825.74,1133.75 1827.91,1130.08 1830.05,1126.39 1832.17,1122.69 1834.27,1118.98 1836.34,1115.25 1838.39,1111.51 1840.41,1107.76 1842.4,1103.99 1844.38,1100.21 1846.32,1096.42 1848.24,1092.61 1850.14,1088.79 1852.01,1084.96 1853.86,1081.11 1855.68,1077.26 1857.47,1073.39 1859.24,1069.51 1860.98,1065.62 1862.7,1061.71 1864.39,1057.8 1866.05,1053.87 1867.69,1049.94 1869.31,1045.99 1870.89,1042.03 1872.45,1038.06 1873.99,1034.08 1875.49,1030.1 1876.97,1026.1 1878.43,1022.09 1879.86,1018.07 1881.26,1014.04 1882.63,1010.01 1273.12,804.719 "/>
<path clip-path="url(#clip282)" d="M1273.12 804.719 L1882.63 1010.01 L1883.98 1005.96 L1885.3 1001.91 L1886.6 997.843 L1887.86 993.772 L1889.1 989.692 L1890.31 985.604 L1891.5 981.508 L1892.66 977.404 L1893.79 973.293 L1894.89 969.174 L1895.97 965.048 L1897.02 960.915 L1898.04 956.775 L1899.04 952.628 L1900 948.475 L1900.94 944.316 L1901.85 940.15 L1902.74 935.979 L1903.59 931.802 L1904.42 927.619 L1905.22 923.431 L1906 919.237 L1906.74 915.039 L1907.46 910.835 L1908.15 906.627 L1908.81 902.415 L1909.45 898.198 L1910.05 893.977 L1910.63 889.752 L1911.18 885.524 L1911.7 881.292 L1912.19 877.056 L1912.66 872.817 L1913.1 868.576 L1913.51 864.331 L1913.89 860.084 L1914.24 855.835 L1914.57 851.583 L1914.86 847.329 L1915.13 843.073 L1915.37 838.816 L1915.58 834.557 L1915.77 830.297 L1915.92 826.036 L1916.05 821.773 L1916.15 817.51 L1916.22 813.247 L1916.26 808.983 L1916.28 804.719 L1273.12 804.719  Z" fill="#3da44d" fill-rule="evenodd" fill-opacity="1"/>
<polyline clip-path="url(#clip282)" style="stroke:#000000; stroke-linecap:round; stroke-linejoin:round; stroke-width:4; stroke-opacity:0.5; fill:none" points="1273.12,804.719 1882.63,1010.01 1883.98,1005.96 1885.3,1001.91 1886.6,997.843 1887.86,993.772 1889.1,989.692 1890.31,985.604 1891.5,981.508 1892.66,977.404 1893.79,973.293 1894.89,969.174 1895.97,965.048 1897.02,960.915 1898.04,956.775 1899.04,952.628 1900,948.475 1900.94,944.316 1901.85,940.15 1902.74,935.979 1903.59,931.802 1904.42,927.619 1905.22,923.431 1906,919.237 1906.74,915.039 1907.46,910.835 1908.15,906.627 1908.81,902.415 1909.45,898.198 1910.05,893.977 1910.63,889.752 1911.18,885.524 1911.7,881.292 1912.19,877.056 1912.66,872.817 1913.1,868.576 1913.51,864.331 1913.89,860.084 1914.24,855.835 1914.57,851.583 1914.86,847.329 1915.13,843.073 1915.37,838.816 1915.58,834.557 1915.77,830.297 1915.92,826.036 1916.05,821.773 1916.15,817.51 1916.22,813.247 1916.26,808.983 1916.28,804.719 1273.12,804.719 "/>
<path clip-path="url(#clip280)" d="M683.323 376.265 L2280.8 376.265 L2280.8 168.905 L683.323 168.905  Z" fill="#ffffff" fill-rule="evenodd" fill-opacity="1"/>
<polyline clip-path="url(#clip280)" style="stroke:#000000; stroke-linecap:round; stroke-linejoin:round; stroke-width:4; stroke-opacity:1; fill:none" points="683.323,376.265 2280.8,376.265 2280.8,168.905 683.323,168.905 683.323,376.265 "/>
<path clip-path="url(#clip280)" d="M707.31 241.481 L851.232 241.481 L851.232 200.009 L707.31 200.009 L707.31 241.481  Z" fill="#009af9" fill-rule="evenodd" fill-opacity="1"/>
<polyline clip-path="url(#clip280)" style="stroke:#000000; stroke-linecap:round; stroke-linejoin:round; stroke-width:4; stroke-opacity:1; fill:none" points="707.31,241.481 851.232,241.481 851.232,200.009 707.31,200.009 707.31,241.481 "/>
<path clip-path="url(#clip280)" d="M887.256 203.465 L891.191 203.465 L879.154 242.423 L875.219 242.423 L887.256 203.465 Z" fill="#000000" fill-rule="nonzero" fill-opacity="1" /><path clip-path="url(#clip280)" d="M917.209 222.377 L917.209 238.025 L912.95 238.025 L912.95 222.515 Q912.95 218.835 911.515 217.006 Q910.079 215.178 907.209 215.178 Q903.76 215.178 901.769 217.377 Q899.779 219.576 899.779 223.372 L899.779 238.025 L895.496 238.025 L895.496 202.006 L899.779 202.006 L899.779 216.127 Q901.306 213.789 903.367 212.631 Q905.45 211.474 908.158 211.474 Q912.626 211.474 914.917 214.252 Q917.209 217.006 917.209 222.377 Z" fill="#000000" fill-rule="nonzero" fill-opacity="1" /><path clip-path="url(#clip280)" d="M935.751 215.085 Q932.325 215.085 930.334 217.77 Q928.343 220.432 928.343 225.085 Q928.343 229.738 930.311 232.423 Q932.302 235.085 935.751 235.085 Q939.153 235.085 941.144 232.4 Q943.135 229.715 943.135 225.085 Q943.135 220.478 941.144 217.793 Q939.153 215.085 935.751 215.085 M935.751 211.474 Q941.306 211.474 944.477 215.085 Q947.649 218.696 947.649 225.085 Q947.649 231.451 944.477 235.085 Q941.306 238.696 935.751 238.696 Q930.172 238.696 927.001 235.085 Q923.853 231.451 923.853 225.085 Q923.853 218.696 927.001 215.085 Q930.172 211.474 935.751 211.474 Z" fill="#000000" fill-rule="nonzero" fill-opacity="1" /><path clip-path="url(#clip280)" d="M974.894 217.076 Q976.491 214.205 978.713 212.84 Q980.936 211.474 983.945 211.474 Q987.996 211.474 990.195 214.321 Q992.394 217.145 992.394 222.377 L992.394 238.025 L988.111 238.025 L988.111 222.515 Q988.111 218.789 986.792 216.983 Q985.473 215.178 982.764 215.178 Q979.454 215.178 977.533 217.377 Q975.612 219.576 975.612 223.372 L975.612 238.025 L971.329 238.025 L971.329 222.515 Q971.329 218.765 970.01 216.983 Q968.69 215.178 965.936 215.178 Q962.672 215.178 960.75 217.4 Q958.829 219.599 958.829 223.372 L958.829 238.025 L954.547 238.025 L954.547 212.099 L958.829 212.099 L958.829 216.127 Q960.288 213.742 962.325 212.608 Q964.362 211.474 967.162 211.474 Q969.987 211.474 971.954 212.909 Q973.945 214.344 974.894 217.076 Z" fill="#000000" fill-rule="nonzero" fill-opacity="1" /><path clip-path="url(#clip280)" d="M1023.06 223.997 L1023.06 226.08 L1003.48 226.08 Q1003.76 230.478 1006.12 232.793 Q1008.5 235.085 1012.74 235.085 Q1015.19 235.085 1017.49 234.483 Q1019.8 233.881 1022.07 232.677 L1022.07 236.705 Q1019.78 237.677 1017.37 238.187 Q1014.96 238.696 1012.49 238.696 Q1006.28 238.696 1002.65 235.085 Q999.037 231.474 999.037 225.316 Q999.037 218.951 1002.46 215.224 Q1005.91 211.474 1011.75 211.474 Q1016.98 211.474 1020.01 214.853 Q1023.06 218.21 1023.06 223.997 M1018.81 222.747 Q1018.76 219.252 1016.84 217.168 Q1014.94 215.085 1011.79 215.085 Q1008.23 215.085 1006.07 217.099 Q1003.94 219.113 1003.62 222.77 L1018.81 222.747 Z" fill="#000000" fill-rule="nonzero" fill-opacity="1" /><path clip-path="url(#clip280)" d="M1037.63 203.465 L1041.56 203.465 L1029.52 242.423 L1025.59 242.423 L1037.63 203.465 Z" fill="#000000" fill-rule="nonzero" fill-opacity="1" /><path clip-path="url(#clip280)" d="M1057.81 224.992 Q1052.65 224.992 1050.66 226.173 Q1048.67 227.353 1048.67 230.201 Q1048.67 232.469 1050.15 233.812 Q1051.65 235.131 1054.22 235.131 Q1057.76 235.131 1059.89 232.631 Q1062.05 230.108 1062.05 225.941 L1062.05 224.992 L1057.81 224.992 M1066.31 223.233 L1066.31 238.025 L1062.05 238.025 L1062.05 234.089 Q1060.59 236.451 1058.41 237.585 Q1056.24 238.696 1053.09 238.696 Q1049.11 238.696 1046.75 236.474 Q1044.41 234.228 1044.41 230.478 Q1044.41 226.103 1047.32 223.881 Q1050.26 221.659 1056.07 221.659 L1062.05 221.659 L1062.05 221.242 Q1062.05 218.303 1060.1 216.705 Q1058.18 215.085 1054.69 215.085 Q1052.46 215.085 1050.36 215.617 Q1048.25 216.15 1046.31 217.215 L1046.31 213.279 Q1048.64 212.377 1050.84 211.937 Q1053.04 211.474 1055.12 211.474 Q1060.75 211.474 1063.53 214.391 Q1066.31 217.307 1066.31 223.233 Z" fill="#000000" fill-rule="nonzero" fill-opacity="1" /><path clip-path="url(#clip280)" d="M1091.61 212.863 L1091.61 216.891 Q1089.8 215.965 1087.86 215.502 Q1085.91 215.039 1083.83 215.039 Q1080.66 215.039 1079.06 216.011 Q1077.49 216.983 1077.49 218.928 Q1077.49 220.409 1078.62 221.265 Q1079.75 222.099 1083.18 222.863 L1084.64 223.187 Q1089.18 224.159 1091.07 225.941 Q1093 227.701 1093 230.872 Q1093 234.483 1090.12 236.589 Q1087.28 238.696 1082.28 238.696 Q1080.19 238.696 1077.93 238.279 Q1075.68 237.886 1073.18 237.076 L1073.18 232.677 Q1075.54 233.904 1077.83 234.529 Q1080.12 235.131 1082.37 235.131 Q1085.38 235.131 1087 234.113 Q1088.62 233.071 1088.62 231.196 Q1088.62 229.46 1087.44 228.534 Q1086.28 227.608 1082.32 226.752 L1080.84 226.404 Q1076.88 225.571 1075.12 223.858 Q1073.37 222.122 1073.37 219.113 Q1073.37 215.455 1075.96 213.465 Q1078.55 211.474 1083.32 211.474 Q1085.68 211.474 1087.76 211.821 Q1089.85 212.168 1091.61 212.863 Z" fill="#000000" fill-rule="nonzero" fill-opacity="1" /><path clip-path="url(#clip280)" d="M1121.33 222.377 L1121.33 238.025 L1117.07 238.025 L1117.07 222.515 Q1117.07 218.835 1115.63 217.006 Q1114.2 215.178 1111.33 215.178 Q1107.88 215.178 1105.89 217.377 Q1103.9 219.576 1103.9 223.372 L1103.9 238.025 L1099.62 238.025 L1099.62 202.006 L1103.9 202.006 L1103.9 216.127 Q1105.43 213.789 1107.49 212.631 Q1109.57 211.474 1112.28 211.474 Q1116.75 211.474 1119.04 214.252 Q1121.33 217.006 1121.33 222.377 Z" fill="#000000" fill-rule="nonzero" fill-opacity="1" /><path clip-path="url(#clip280)" d="M1126.77 212.099 L1131.28 212.099 L1139.38 233.858 L1147.49 212.099 L1152 212.099 L1142.28 238.025 L1136.49 238.025 L1126.77 212.099 Z" fill="#000000" fill-rule="nonzero" fill-opacity="1" /><path clip-path="url(#clip280)" d="M1157.88 212.099 L1162.14 212.099 L1162.14 238.025 L1157.88 238.025 L1157.88 212.099 M1157.88 202.006 L1162.14 202.006 L1162.14 207.4 L1157.88 207.4 L1157.88 202.006 Z" fill="#000000" fill-rule="nonzero" fill-opacity="1" /><path clip-path="url(#clip280)" d="M1175.26 204.738 L1175.26 212.099 L1184.04 212.099 L1184.04 215.409 L1175.26 215.409 L1175.26 229.483 Q1175.26 232.654 1176.12 233.557 Q1177 234.46 1179.66 234.46 L1184.04 234.46 L1184.04 238.025 L1179.66 238.025 Q1174.73 238.025 1172.86 236.196 Q1170.98 234.344 1170.98 229.483 L1170.98 215.409 L1167.86 215.409 L1167.86 212.099 L1170.98 212.099 L1170.98 204.738 L1175.26 204.738 Z" fill="#000000" fill-rule="nonzero" fill-opacity="1" /><path clip-path="url(#clip280)" d="M1211.19 222.377 L1211.19 238.025 L1206.93 238.025 L1206.93 222.515 Q1206.93 218.835 1205.49 217.006 Q1204.06 215.178 1201.19 215.178 Q1197.74 215.178 1195.75 217.377 Q1193.76 219.576 1193.76 223.372 L1193.76 238.025 L1189.48 238.025 L1189.48 202.006 L1193.76 202.006 L1193.76 216.127 Q1195.29 213.789 1197.35 212.631 Q1199.43 211.474 1202.14 211.474 Q1206.61 211.474 1208.9 214.252 Q1211.19 217.006 1211.19 222.377 Z" fill="#000000" fill-rule="nonzero" fill-opacity="1" /><path clip-path="url(#clip280)" d="M1227.25 203.465 L1231.19 203.465 L1219.15 242.423 L1215.22 242.423 L1227.25 203.465 Z" fill="#000000" fill-rule="nonzero" fill-opacity="1" /><path clip-path="url(#clip280)" d="M1236.26 232.145 L1241.14 232.145 L1241.14 238.025 L1236.26 238.025 L1236.26 232.145 Z" fill="#000000" fill-rule="nonzero" fill-opacity="1" /><path clip-path="url(#clip280)" d="M1250.73 212.099 L1254.99 212.099 L1254.99 238.488 Q1254.99 243.441 1253.09 245.663 Q1251.21 247.886 1247.02 247.886 L1245.4 247.886 L1245.4 244.275 L1246.54 244.275 Q1248.97 244.275 1249.85 243.14 Q1250.73 242.029 1250.73 238.488 L1250.73 212.099 M1250.73 202.006 L1254.99 202.006 L1254.99 207.4 L1250.73 207.4 L1250.73 202.006 Z" fill="#000000" fill-rule="nonzero" fill-opacity="1" /><path clip-path="url(#clip280)" d="M1263.46 227.793 L1263.46 212.099 L1267.72 212.099 L1267.72 227.631 Q1267.72 231.312 1269.15 233.164 Q1270.59 234.992 1273.46 234.992 Q1276.91 234.992 1278.9 232.793 Q1280.91 230.594 1280.91 226.798 L1280.91 212.099 L1285.17 212.099 L1285.17 238.025 L1280.91 238.025 L1280.91 234.043 Q1279.36 236.404 1277.3 237.562 Q1275.26 238.696 1272.55 238.696 Q1268.09 238.696 1265.77 235.918 Q1263.46 233.14 1263.46 227.793 M1274.17 211.474 L1274.17 211.474 Z" fill="#000000" fill-rule="nonzero" fill-opacity="1" /><path clip-path="url(#clip280)" d="M1293.94 202.006 L1298.2 202.006 L1298.2 238.025 L1293.94 238.025 L1293.94 202.006 Z" fill="#000000" fill-rule="nonzero" fill-opacity="1" /><path clip-path="url(#clip280)" d="M1307.11 212.099 L1311.37 212.099 L1311.37 238.025 L1307.11 238.025 L1307.11 212.099 M1307.11 202.006 L1311.37 202.006 L1311.37 207.4 L1307.11 207.4 L1307.11 202.006 Z" fill="#000000" fill-rule="nonzero" fill-opacity="1" /><path clip-path="url(#clip280)" d="M1332.07 224.992 Q1326.91 224.992 1324.92 226.173 Q1322.92 227.353 1322.92 230.201 Q1322.92 232.469 1324.41 233.812 Q1325.91 235.131 1328.48 235.131 Q1332.02 235.131 1334.15 232.631 Q1336.3 230.108 1336.3 225.941 L1336.3 224.992 L1332.07 224.992 M1340.56 223.233 L1340.56 238.025 L1336.3 238.025 L1336.3 234.089 Q1334.85 236.451 1332.67 237.585 Q1330.49 238.696 1327.35 238.696 Q1323.36 238.696 1321 236.474 Q1318.67 234.228 1318.67 230.478 Q1318.67 226.103 1321.58 223.881 Q1324.52 221.659 1330.33 221.659 L1336.3 221.659 L1336.3 221.242 Q1336.3 218.303 1334.36 216.705 Q1332.44 215.085 1328.94 215.085 Q1326.72 215.085 1324.61 215.617 Q1322.51 216.15 1320.56 217.215 L1320.56 213.279 Q1322.9 212.377 1325.1 211.937 Q1327.3 211.474 1329.38 211.474 Q1335.01 211.474 1337.79 214.391 Q1340.56 217.307 1340.56 223.233 Z" fill="#000000" fill-rule="nonzero" fill-opacity="1" /><path clip-path="url(#clip280)" d="M1356.91 203.465 L1360.84 203.465 L1348.8 242.423 L1344.87 242.423 L1356.91 203.465 Z" fill="#000000" fill-rule="nonzero" fill-opacity="1" /><path clip-path="url(#clip280)" d="M1369.43 234.136 L1369.43 247.886 L1365.15 247.886 L1365.15 212.099 L1369.43 212.099 L1369.43 216.034 Q1370.77 213.719 1372.81 212.608 Q1374.87 211.474 1377.72 211.474 Q1382.44 211.474 1385.38 215.224 Q1388.34 218.974 1388.34 225.085 Q1388.34 231.196 1385.38 234.946 Q1382.44 238.696 1377.72 238.696 Q1374.87 238.696 1372.81 237.585 Q1370.77 236.451 1369.43 234.136 M1383.92 225.085 Q1383.92 220.386 1381.98 217.724 Q1380.05 215.039 1376.67 215.039 Q1373.29 215.039 1371.35 217.724 Q1369.43 220.386 1369.43 225.085 Q1369.43 229.784 1371.35 232.469 Q1373.29 235.131 1376.67 235.131 Q1380.05 235.131 1381.98 232.469 Q1383.92 229.784 1383.92 225.085 Z" fill="#000000" fill-rule="nonzero" fill-opacity="1" /><path clip-path="url(#clip280)" d="M1407.18 224.992 Q1402.02 224.992 1400.03 226.173 Q1398.04 227.353 1398.04 230.201 Q1398.04 232.469 1399.52 233.812 Q1401.03 235.131 1403.6 235.131 Q1407.14 235.131 1409.27 232.631 Q1411.42 230.108 1411.42 225.941 L1411.42 224.992 L1407.18 224.992 M1415.68 223.233 L1415.68 238.025 L1411.42 238.025 L1411.42 234.089 Q1409.96 236.451 1407.79 237.585 Q1405.61 238.696 1402.46 238.696 Q1398.48 238.696 1396.12 236.474 Q1393.78 234.228 1393.78 230.478 Q1393.78 226.103 1396.7 223.881 Q1399.64 221.659 1405.45 221.659 L1411.42 221.659 L1411.42 221.242 Q1411.42 218.303 1409.47 216.705 Q1407.55 215.085 1404.06 215.085 Q1401.84 215.085 1399.73 215.617 Q1397.62 216.15 1395.68 217.215 L1395.68 213.279 Q1398.02 212.377 1400.22 211.937 Q1402.41 211.474 1404.5 211.474 Q1410.12 211.474 1412.9 214.391 Q1415.68 217.307 1415.68 223.233 Z" fill="#000000" fill-rule="nonzero" fill-opacity="1" /><path clip-path="url(#clip280)" d="M1443.11 213.094 L1443.11 217.076 Q1441.3 216.08 1439.47 215.594 Q1437.67 215.085 1435.82 215.085 Q1431.67 215.085 1429.38 217.724 Q1427.09 220.34 1427.09 225.085 Q1427.09 229.83 1429.38 232.469 Q1431.67 235.085 1435.82 235.085 Q1437.67 235.085 1439.47 234.599 Q1441.3 234.089 1443.11 233.094 L1443.11 237.029 Q1441.33 237.863 1439.41 238.279 Q1437.51 238.696 1435.35 238.696 Q1429.5 238.696 1426.05 235.015 Q1422.6 231.335 1422.6 225.085 Q1422.6 218.742 1426.07 215.108 Q1429.57 211.474 1435.63 211.474 Q1437.6 211.474 1439.47 211.891 Q1441.35 212.284 1443.11 213.094 Z" fill="#000000" fill-rule="nonzero" fill-opacity="1" /><path clip-path="url(#clip280)" d="M1450.35 202.006 L1454.64 202.006 L1454.64 223.279 L1467.34 212.099 L1472.78 212.099 L1459.03 224.228 L1473.36 238.025 L1467.81 238.025 L1454.64 225.363 L1454.64 238.025 L1450.35 238.025 L1450.35 202.006 Z" fill="#000000" fill-rule="nonzero" fill-opacity="1" /><path clip-path="url(#clip280)" d="M1488.92 224.992 Q1483.76 224.992 1481.77 226.173 Q1479.78 227.353 1479.78 230.201 Q1479.78 232.469 1481.26 233.812 Q1482.76 235.131 1485.33 235.131 Q1488.87 235.131 1491 232.631 Q1493.16 230.108 1493.16 225.941 L1493.16 224.992 L1488.92 224.992 M1497.41 223.233 L1497.41 238.025 L1493.16 238.025 L1493.16 234.089 Q1491.7 236.451 1489.52 237.585 Q1487.34 238.696 1484.2 238.696 Q1480.22 238.696 1477.85 236.474 Q1475.52 234.228 1475.52 230.478 Q1475.52 226.103 1478.43 223.881 Q1481.37 221.659 1487.18 221.659 L1493.16 221.659 L1493.16 221.242 Q1493.16 218.303 1491.21 216.705 Q1489.29 215.085 1485.79 215.085 Q1483.57 215.085 1481.47 215.617 Q1479.36 216.15 1477.41 217.215 L1477.41 213.279 Q1479.75 212.377 1481.95 211.937 Q1484.15 211.474 1486.23 211.474 Q1491.86 211.474 1494.64 214.391 Q1497.41 217.307 1497.41 223.233 Z" fill="#000000" fill-rule="nonzero" fill-opacity="1" /><path clip-path="url(#clip280)" d="M1523.25 224.761 Q1523.25 220.131 1521.33 217.585 Q1519.43 215.039 1515.98 215.039 Q1512.55 215.039 1510.63 217.585 Q1508.73 220.131 1508.73 224.761 Q1508.73 229.367 1510.63 231.914 Q1512.55 234.46 1515.98 234.46 Q1519.43 234.46 1521.33 231.914 Q1523.25 229.367 1523.25 224.761 M1527.51 234.807 Q1527.51 241.427 1524.57 244.645 Q1521.63 247.886 1515.56 247.886 Q1513.32 247.886 1511.33 247.538 Q1509.34 247.214 1507.46 246.52 L1507.46 242.376 Q1509.34 243.395 1511.16 243.881 Q1512.99 244.367 1514.89 244.367 Q1519.08 244.367 1521.16 242.168 Q1523.25 239.992 1523.25 235.571 L1523.25 233.464 Q1521.93 235.756 1519.87 236.89 Q1517.81 238.025 1514.94 238.025 Q1510.17 238.025 1507.25 234.39 Q1504.34 230.756 1504.34 224.761 Q1504.34 218.742 1507.25 215.108 Q1510.17 211.474 1514.94 211.474 Q1517.81 211.474 1519.87 212.608 Q1521.93 213.742 1523.25 216.034 L1523.25 212.099 L1527.51 212.099 L1527.51 234.807 Z" fill="#000000" fill-rule="nonzero" fill-opacity="1" /><path clip-path="url(#clip280)" d="M1558.46 223.997 L1558.46 226.08 L1538.87 226.08 Q1539.15 230.478 1541.51 232.793 Q1543.9 235.085 1548.13 235.085 Q1550.59 235.085 1552.88 234.483 Q1555.19 233.881 1557.46 232.677 L1557.46 236.705 Q1555.17 237.677 1552.76 238.187 Q1550.35 238.696 1547.88 238.696 Q1541.67 238.696 1538.04 235.085 Q1534.43 231.474 1534.43 225.316 Q1534.43 218.951 1537.85 215.224 Q1541.3 211.474 1547.14 211.474 Q1552.37 211.474 1555.4 214.853 Q1558.46 218.21 1558.46 223.997 M1554.2 222.747 Q1554.15 219.252 1552.23 217.168 Q1550.33 215.085 1547.18 215.085 Q1543.62 215.085 1541.46 217.099 Q1539.34 219.113 1539.01 222.77 L1554.2 222.747 Z" fill="#000000" fill-rule="nonzero" fill-opacity="1" /><path clip-path="url(#clip280)" d="M1581.97 212.863 L1581.97 216.891 Q1580.17 215.965 1578.22 215.502 Q1576.28 215.039 1574.2 215.039 Q1571.02 215.039 1569.43 216.011 Q1567.85 216.983 1567.85 218.928 Q1567.85 220.409 1568.99 221.265 Q1570.12 222.099 1573.55 222.863 L1575.01 223.187 Q1579.54 224.159 1581.44 225.941 Q1583.36 227.701 1583.36 230.872 Q1583.36 234.483 1580.49 236.589 Q1577.65 238.696 1572.65 238.696 Q1570.56 238.696 1568.29 238.279 Q1566.05 237.886 1563.55 237.076 L1563.55 232.677 Q1565.91 233.904 1568.2 234.529 Q1570.49 235.131 1572.74 235.131 Q1575.75 235.131 1577.37 234.113 Q1578.99 233.071 1578.99 231.196 Q1578.99 229.46 1577.81 228.534 Q1576.65 227.608 1572.69 226.752 L1571.21 226.404 Q1567.25 225.571 1565.49 223.858 Q1563.73 222.122 1563.73 219.113 Q1563.73 215.455 1566.33 213.465 Q1568.92 211.474 1573.69 211.474 Q1576.05 211.474 1578.13 211.821 Q1580.21 212.168 1581.97 212.863 Z" fill="#000000" fill-rule="nonzero" fill-opacity="1" /><path clip-path="url(#clip280)" d="M1597.71 203.465 L1601.65 203.465 L1589.61 242.423 L1585.68 242.423 L1597.71 203.465 Z" fill="#000000" fill-rule="nonzero" fill-opacity="1" /><path clip-path="url(#clip280)" d="M1629.87 233.094 L1629.87 223.812 L1622.23 223.812 L1622.23 219.969 L1634.5 219.969 L1634.5 234.807 Q1631.79 236.728 1628.52 237.724 Q1625.26 238.696 1621.56 238.696 Q1613.46 238.696 1608.87 233.974 Q1604.31 229.228 1604.31 220.779 Q1604.31 212.307 1608.87 207.585 Q1613.46 202.84 1621.56 202.84 Q1624.94 202.84 1627.97 203.673 Q1631.02 204.506 1633.59 206.127 L1633.59 211.103 Q1631 208.904 1628.08 207.793 Q1625.17 206.682 1621.95 206.682 Q1615.61 206.682 1612.41 210.224 Q1609.24 213.766 1609.24 220.779 Q1609.24 227.77 1612.41 231.312 Q1615.61 234.853 1621.95 234.853 Q1624.43 234.853 1626.37 234.437 Q1628.32 233.997 1629.87 233.094 Z" fill="#000000" fill-rule="nonzero" fill-opacity="1" /><path clip-path="url(#clip280)" d="M1643.04 203.465 L1647.71 203.465 L1647.71 234.089 L1664.54 234.089 L1664.54 238.025 L1643.04 238.025 L1643.04 203.465 Z" fill="#000000" fill-rule="nonzero" fill-opacity="1" /><path clip-path="url(#clip280)" d="M1669.45 203.465 L1676.42 203.465 L1685.24 226.983 L1694.1 203.465 L1701.07 203.465 L1701.07 238.025 L1696.51 238.025 L1696.51 207.678 L1687.6 231.381 L1682.9 231.381 L1673.99 207.678 L1673.99 238.025 L1669.45 238.025 L1669.45 203.465 Z" fill="#000000" fill-rule="nonzero" fill-opacity="1" /><path clip-path="url(#clip280)" d="M1710.77 232.145 L1715.65 232.145 L1715.65 238.025 L1710.77 238.025 L1710.77 232.145 Z" fill="#000000" fill-rule="nonzero" fill-opacity="1" /><path clip-path="url(#clip280)" d="M1725.24 212.099 L1729.5 212.099 L1729.5 238.488 Q1729.5 243.441 1727.6 245.663 Q1725.72 247.886 1721.53 247.886 L1719.91 247.886 L1719.91 244.275 L1721.05 244.275 Q1723.48 244.275 1724.36 243.14 Q1725.24 242.029 1725.24 238.488 L1725.24 212.099 M1725.24 202.006 L1729.5 202.006 L1729.5 207.4 L1725.24 207.4 L1725.24 202.006 Z" fill="#000000" fill-rule="nonzero" fill-opacity="1" /><path clip-path="url(#clip280)" d="M1738.41 202.006 L1742.67 202.006 L1742.67 238.025 L1738.41 238.025 L1738.41 202.006 Z" fill="#000000" fill-rule="nonzero" fill-opacity="1" /><path clip-path="url(#clip280)" d="M1759.15 203.465 L1763.08 203.465 L1751.05 242.423 L1747.11 242.423 L1759.15 203.465 Z" fill="#000000" fill-rule="nonzero" fill-opacity="1" /><path clip-path="url(#clip280)" d="M1784.08 212.863 L1784.08 216.891 Q1782.27 215.965 1780.33 215.502 Q1778.38 215.039 1776.3 215.039 Q1773.13 215.039 1771.53 216.011 Q1769.96 216.983 1769.96 218.928 Q1769.96 220.409 1771.09 221.265 Q1772.23 222.099 1775.65 222.863 L1777.11 223.187 Q1781.65 224.159 1783.55 225.941 Q1785.47 227.701 1785.47 230.872 Q1785.47 234.483 1782.6 236.589 Q1779.75 238.696 1774.75 238.696 Q1772.67 238.696 1770.4 238.279 Q1768.15 237.886 1765.65 237.076 L1765.65 232.677 Q1768.01 233.904 1770.31 234.529 Q1772.6 235.131 1774.84 235.131 Q1777.85 235.131 1779.47 234.113 Q1781.09 233.071 1781.09 231.196 Q1781.09 229.46 1779.91 228.534 Q1778.76 227.608 1774.8 226.752 L1773.32 226.404 Q1769.36 225.571 1767.6 223.858 Q1765.84 222.122 1765.84 219.113 Q1765.84 215.455 1768.43 213.465 Q1771.02 211.474 1775.79 211.474 Q1778.15 211.474 1780.24 211.821 Q1782.32 212.168 1784.08 212.863 Z" fill="#000000" fill-rule="nonzero" fill-opacity="1" /><path clip-path="url(#clip280)" d="M1807.27 216.08 Q1806.56 215.664 1805.7 215.478 Q1804.87 215.27 1803.85 215.27 Q1800.24 215.27 1798.29 217.631 Q1796.37 219.969 1796.37 224.367 L1796.37 238.025 L1792.09 238.025 L1792.09 212.099 L1796.37 212.099 L1796.37 216.127 Q1797.71 213.766 1799.87 212.631 Q1802.02 211.474 1805.1 211.474 Q1805.54 211.474 1806.07 211.543 Q1806.6 211.59 1807.25 211.705 L1807.27 216.08 Z" fill="#000000" fill-rule="nonzero" fill-opacity="1" /><path clip-path="url(#clip280)" d="M1829.36 213.094 L1829.36 217.076 Q1827.55 216.08 1825.72 215.594 Q1823.92 215.085 1822.07 215.085 Q1817.92 215.085 1815.63 217.724 Q1813.34 220.34 1813.34 225.085 Q1813.34 229.83 1815.63 232.469 Q1817.92 235.085 1822.07 235.085 Q1823.92 235.085 1825.72 234.599 Q1827.55 234.089 1829.36 233.094 L1829.36 237.029 Q1827.57 237.863 1825.65 238.279 Q1823.76 238.696 1821.6 238.696 Q1815.75 238.696 1812.3 235.015 Q1808.85 231.335 1808.85 225.085 Q1808.85 218.742 1812.32 215.108 Q1815.82 211.474 1821.88 211.474 Q1823.85 211.474 1825.72 211.891 Q1827.6 212.284 1829.36 213.094 Z" fill="#000000" fill-rule="nonzero" fill-opacity="1" /><path clip-path="url(#clip280)" d="M1844.33 203.465 L1848.27 203.465 L1836.23 242.423 L1832.3 242.423 L1844.33 203.465 Z" fill="#000000" fill-rule="nonzero" fill-opacity="1" /><path clip-path="url(#clip280)" d="M1852.74 202.006 L1857 202.006 L1857 238.025 L1852.74 238.025 L1852.74 202.006 Z" fill="#000000" fill-rule="nonzero" fill-opacity="1" /><path clip-path="url(#clip280)" d="M1865.91 212.099 L1870.17 212.099 L1870.17 238.025 L1865.91 238.025 L1865.91 212.099 M1865.91 202.006 L1870.17 202.006 L1870.17 207.4 L1865.91 207.4 L1865.91 202.006 Z" fill="#000000" fill-rule="nonzero" fill-opacity="1" /><path clip-path="url(#clip280)" d="M1900.63 222.377 L1900.63 238.025 L1896.37 238.025 L1896.37 222.515 Q1896.37 218.835 1894.94 217.006 Q1893.5 215.178 1890.63 215.178 Q1887.18 215.178 1885.19 217.377 Q1883.2 219.576 1883.2 223.372 L1883.2 238.025 L1878.92 238.025 L1878.92 212.099 L1883.2 212.099 L1883.2 216.127 Q1884.73 213.789 1886.79 212.631 Q1888.87 211.474 1891.58 211.474 Q1896.05 211.474 1898.34 214.252 Q1900.63 217.006 1900.63 222.377 Z" fill="#000000" fill-rule="nonzero" fill-opacity="1" /><path clip-path="url(#clip280)" d="M1913.25 234.136 L1913.25 247.886 L1908.96 247.886 L1908.96 212.099 L1913.25 212.099 L1913.25 216.034 Q1914.59 213.719 1916.62 212.608 Q1918.69 211.474 1921.53 211.474 Q1926.25 211.474 1929.19 215.224 Q1932.16 218.974 1932.16 225.085 Q1932.16 231.196 1929.19 234.946 Q1926.25 238.696 1921.53 238.696 Q1918.69 238.696 1916.62 237.585 Q1914.59 236.451 1913.25 234.136 M1927.74 225.085 Q1927.74 220.386 1925.79 217.724 Q1923.87 215.039 1920.49 215.039 Q1917.11 215.039 1915.17 217.724 Q1913.25 220.386 1913.25 225.085 Q1913.25 229.784 1915.17 232.469 Q1917.11 235.131 1920.49 235.131 Q1923.87 235.131 1925.79 232.469 Q1927.74 229.784 1927.74 225.085 Z" fill="#000000" fill-rule="nonzero" fill-opacity="1" /><path clip-path="url(#clip280)" d="M1954.24 216.08 Q1953.52 215.664 1952.67 215.478 Q1951.83 215.27 1950.81 215.27 Q1947.2 215.27 1945.26 217.631 Q1943.34 219.969 1943.34 224.367 L1943.34 238.025 L1939.06 238.025 L1939.06 212.099 L1943.34 212.099 L1943.34 216.127 Q1944.68 213.766 1946.83 212.631 Q1948.99 211.474 1952.06 211.474 Q1952.5 211.474 1953.04 211.543 Q1953.57 211.59 1954.22 211.705 L1954.24 216.08 Z" fill="#000000" fill-rule="nonzero" fill-opacity="1" /><path clip-path="url(#clip280)" d="M1979.84 223.997 L1979.84 226.08 L1960.26 226.08 Q1960.54 230.478 1962.9 232.793 Q1965.28 235.085 1969.52 235.085 Q1971.97 235.085 1974.26 234.483 Q1976.58 233.881 1978.85 232.677 L1978.85 236.705 Q1976.56 237.677 1974.15 238.187 Q1971.74 238.696 1969.26 238.696 Q1963.06 238.696 1959.43 235.085 Q1955.81 231.474 1955.81 225.316 Q1955.81 218.951 1959.24 215.224 Q1962.69 211.474 1968.52 211.474 Q1973.75 211.474 1976.79 214.853 Q1979.84 218.21 1979.84 223.997 M1975.58 222.747 Q1975.54 219.252 1973.62 217.168 Q1971.72 215.085 1968.57 215.085 Q1965 215.085 1962.85 217.099 Q1960.72 219.113 1960.4 222.77 L1975.58 222.747 Z" fill="#000000" fill-rule="nonzero" fill-opacity="1" /><path clip-path="url(#clip280)" d="M2003.89 216.034 L2003.89 202.006 L2008.15 202.006 L2008.15 238.025 L2003.89 238.025 L2003.89 234.136 Q2002.55 236.451 2000.49 237.585 Q1998.45 238.696 1995.58 238.696 Q1990.88 238.696 1987.92 234.946 Q1984.98 231.196 1984.98 225.085 Q1984.98 218.974 1987.92 215.224 Q1990.88 211.474 1995.58 211.474 Q1998.45 211.474 2000.49 212.608 Q2002.55 213.719 2003.89 216.034 M1989.38 225.085 Q1989.38 229.784 1991.3 232.469 Q1993.24 235.131 1996.62 235.131 Q2000 235.131 2001.95 232.469 Q2003.89 229.784 2003.89 225.085 Q2003.89 220.386 2001.95 217.724 Q2000 215.039 1996.62 215.039 Q1993.24 215.039 1991.3 217.724 Q1989.38 220.386 1989.38 225.085 Z" fill="#000000" fill-rule="nonzero" fill-opacity="1" /><path clip-path="url(#clip280)" d="M2017.53 232.145 L2022.41 232.145 L2022.41 238.025 L2017.53 238.025 L2017.53 232.145 Z" fill="#000000" fill-rule="nonzero" fill-opacity="1" /><path clip-path="url(#clip280)" d="M2031.99 212.099 L2036.25 212.099 L2036.25 238.488 Q2036.25 243.441 2034.36 245.663 Q2032.48 247.886 2028.29 247.886 L2026.67 247.886 L2026.67 244.275 L2027.8 244.275 Q2030.24 244.275 2031.12 243.14 Q2031.99 242.029 2031.99 238.488 L2031.99 212.099 M2031.99 202.006 L2036.25 202.006 L2036.25 207.4 L2031.99 207.4 L2031.99 202.006 Z" fill="#000000" fill-rule="nonzero" fill-opacity="1" /><path clip-path="url(#clip280)" d="M2045.17 202.006 L2049.43 202.006 L2049.43 238.025 L2045.17 238.025 L2045.17 202.006 Z" fill="#000000" fill-rule="nonzero" fill-opacity="1" /><path clip-path="url(#clip280)" d="M2073.41 202.006 L2077.67 202.006 L2077.67 238.025 L2073.41 238.025 L2073.41 202.006 Z" fill="#000000" fill-rule="nonzero" fill-opacity="1" /><path clip-path="url(#clip280)" d="M2086.58 212.099 L2090.84 212.099 L2090.84 238.025 L2086.58 238.025 L2086.58 212.099 M2086.58 202.006 L2090.84 202.006 L2090.84 207.4 L2086.58 207.4 L2086.58 202.006 Z" fill="#000000" fill-rule="nonzero" fill-opacity="1" /><path clip-path="url(#clip280)" d="M2121.3 222.377 L2121.3 238.025 L2117.04 238.025 L2117.04 222.515 Q2117.04 218.835 2115.61 217.006 Q2114.17 215.178 2111.3 215.178 Q2107.85 215.178 2105.86 217.377 Q2103.87 219.576 2103.87 223.372 L2103.87 238.025 L2099.59 238.025 L2099.59 212.099 L2103.87 212.099 L2103.87 216.127 Q2105.4 213.789 2107.46 212.631 Q2109.54 211.474 2112.25 211.474 Q2116.72 211.474 2119.01 214.252 Q2121.3 217.006 2121.3 222.377 Z" fill="#000000" fill-rule="nonzero" fill-opacity="1" /><path clip-path="url(#clip280)" d="M2151.97 223.997 L2151.97 226.08 L2132.39 226.08 Q2132.67 230.478 2135.03 232.793 Q2137.41 235.085 2141.65 235.085 Q2144.1 235.085 2146.39 234.483 Q2148.71 233.881 2150.98 232.677 L2150.98 236.705 Q2148.68 237.677 2146.28 238.187 Q2143.87 238.696 2141.39 238.696 Q2135.19 238.696 2131.55 235.085 Q2127.94 231.474 2127.94 225.316 Q2127.94 218.951 2131.37 215.224 Q2134.82 211.474 2140.65 211.474 Q2145.88 211.474 2148.92 214.853 Q2151.97 218.21 2151.97 223.997 M2147.71 222.747 Q2147.67 219.252 2145.74 217.168 Q2143.85 215.085 2140.7 215.085 Q2137.13 215.085 2134.98 217.099 Q2132.85 219.113 2132.53 222.77 L2147.71 222.747 Z" fill="#000000" fill-rule="nonzero" fill-opacity="1" /><path clip-path="url(#clip280)" d="M2175.44 234.089 L2183.08 234.089 L2183.08 207.724 L2174.77 209.391 L2174.77 205.131 L2183.04 203.465 L2187.71 203.465 L2187.71 234.089 L2195.35 234.089 L2195.35 238.025 L2175.44 238.025 L2175.44 234.089 Z" fill="#000000" fill-rule="nonzero" fill-opacity="1" /><path clip-path="url(#clip280)" d="M2214.79 206.543 Q2211.18 206.543 2209.35 210.108 Q2207.55 213.65 2207.55 220.779 Q2207.55 227.886 2209.35 231.451 Q2211.18 234.992 2214.79 234.992 Q2218.43 234.992 2220.23 231.451 Q2222.06 227.886 2222.06 220.779 Q2222.06 213.65 2220.23 210.108 Q2218.43 206.543 2214.79 206.543 M2214.79 202.84 Q2220.6 202.84 2223.66 207.446 Q2226.74 212.029 2226.74 220.779 Q2226.74 229.506 2223.66 234.113 Q2220.6 238.696 2214.79 238.696 Q2208.98 238.696 2205.91 234.113 Q2202.85 229.506 2202.85 220.779 Q2202.85 212.029 2205.91 207.446 Q2208.98 202.84 2214.79 202.84 Z" fill="#000000" fill-rule="nonzero" fill-opacity="1" /><path clip-path="url(#clip280)" d="M2244.96 221.613 Q2241.62 221.613 2239.7 223.395 Q2237.8 225.177 2237.8 228.302 Q2237.8 231.427 2239.7 233.21 Q2241.62 234.992 2244.96 234.992 Q2248.29 234.992 2250.21 233.21 Q2252.13 231.404 2252.13 228.302 Q2252.13 225.177 2250.21 223.395 Q2248.31 221.613 2244.96 221.613 M2240.28 219.622 Q2237.27 218.881 2235.58 216.821 Q2233.91 214.761 2233.91 211.798 Q2233.91 207.654 2236.85 205.247 Q2239.82 202.84 2244.96 202.84 Q2250.12 202.84 2253.06 205.247 Q2256 207.654 2256 211.798 Q2256 214.761 2254.31 216.821 Q2252.64 218.881 2249.66 219.622 Q2253.04 220.409 2254.91 222.701 Q2256.81 224.992 2256.81 228.302 Q2256.81 233.326 2253.73 236.011 Q2250.67 238.696 2244.96 238.696 Q2239.24 238.696 2236.16 236.011 Q2233.1 233.326 2233.1 228.302 Q2233.1 224.992 2235 222.701 Q2236.9 220.409 2240.28 219.622 M2238.57 212.238 Q2238.57 214.923 2240.23 216.428 Q2241.92 217.932 2244.96 217.932 Q2247.97 217.932 2249.66 216.428 Q2251.37 214.923 2251.37 212.238 Q2251.37 209.553 2249.66 208.048 Q2247.97 206.543 2244.96 206.543 Q2241.92 206.543 2240.23 208.048 Q2238.57 209.553 2238.57 212.238 Z" fill="#000000" fill-rule="nonzero" fill-opacity="1" /><path clip-path="url(#clip280)" d="M707.31 293.321 L851.232 293.321 L851.232 251.849 L707.31 251.849 L707.31 293.321  Z" fill="#e26f46" fill-rule="evenodd" fill-opacity="1"/>
<polyline clip-path="url(#clip280)" style="stroke:#000000; stroke-linecap:round; stroke-linejoin:round; stroke-width:4; stroke-opacity:1; fill:none" points="707.31,293.321 851.232,293.321 851.232,251.849 707.31,251.849 707.31,293.321 "/>
<path clip-path="url(#clip280)" d="M887.256 255.305 L891.191 255.305 L879.154 294.263 L875.219 294.263 L887.256 255.305 Z" fill="#000000" fill-rule="nonzero" fill-opacity="1" /><path clip-path="url(#clip280)" d="M917.209 274.217 L917.209 289.865 L912.95 289.865 L912.95 274.355 Q912.95 270.675 911.515 268.846 Q910.079 267.018 907.209 267.018 Q903.76 267.018 901.769 269.217 Q899.779 271.416 899.779 275.212 L899.779 289.865 L895.496 289.865 L895.496 253.846 L899.779 253.846 L899.779 267.967 Q901.306 265.629 903.367 264.471 Q905.45 263.314 908.158 263.314 Q912.626 263.314 914.917 266.092 Q917.209 268.846 917.209 274.217 Z" fill="#000000" fill-rule="nonzero" fill-opacity="1" /><path clip-path="url(#clip280)" d="M935.751 266.925 Q932.325 266.925 930.334 269.61 Q928.343 272.272 928.343 276.925 Q928.343 281.578 930.311 284.263 Q932.302 286.925 935.751 286.925 Q939.153 286.925 941.144 284.24 Q943.135 281.555 943.135 276.925 Q943.135 272.318 941.144 269.633 Q939.153 266.925 935.751 266.925 M935.751 263.314 Q941.306 263.314 944.477 266.925 Q947.649 270.536 947.649 276.925 Q947.649 283.291 944.477 286.925 Q941.306 290.536 935.751 290.536 Q930.172 290.536 927.001 286.925 Q923.853 283.291 923.853 276.925 Q923.853 270.536 927.001 266.925 Q930.172 263.314 935.751 263.314 Z" fill="#000000" fill-rule="nonzero" fill-opacity="1" /><path clip-path="url(#clip280)" d="M974.894 268.916 Q976.491 266.045 978.713 264.68 Q980.936 263.314 983.945 263.314 Q987.996 263.314 990.195 266.161 Q992.394 268.985 992.394 274.217 L992.394 289.865 L988.111 289.865 L988.111 274.355 Q988.111 270.629 986.792 268.823 Q985.473 267.018 982.764 267.018 Q979.454 267.018 977.533 269.217 Q975.612 271.416 975.612 275.212 L975.612 289.865 L971.329 289.865 L971.329 274.355 Q971.329 270.605 970.01 268.823 Q968.69 267.018 965.936 267.018 Q962.672 267.018 960.75 269.24 Q958.829 271.439 958.829 275.212 L958.829 289.865 L954.547 289.865 L954.547 263.939 L958.829 263.939 L958.829 267.967 Q960.288 265.582 962.325 264.448 Q964.362 263.314 967.162 263.314 Q969.987 263.314 971.954 264.749 Q973.945 266.184 974.894 268.916 Z" fill="#000000" fill-rule="nonzero" fill-opacity="1" /><path clip-path="url(#clip280)" d="M1023.06 275.837 L1023.06 277.92 L1003.48 277.92 Q1003.76 282.318 1006.12 284.633 Q1008.5 286.925 1012.74 286.925 Q1015.19 286.925 1017.49 286.323 Q1019.8 285.721 1022.07 284.517 L1022.07 288.545 Q1019.78 289.517 1017.37 290.027 Q1014.96 290.536 1012.49 290.536 Q1006.28 290.536 1002.65 286.925 Q999.037 283.314 999.037 277.156 Q999.037 270.791 1002.46 267.064 Q1005.91 263.314 1011.75 263.314 Q1016.98 263.314 1020.01 266.693 Q1023.06 270.05 1023.06 275.837 M1018.81 274.587 Q1018.76 271.092 1016.84 269.008 Q1014.94 266.925 1011.79 266.925 Q1008.23 266.925 1006.07 268.939 Q1003.94 270.953 1003.62 274.61 L1018.81 274.587 Z" fill="#000000" fill-rule="nonzero" fill-opacity="1" /><path clip-path="url(#clip280)" d="M1037.63 255.305 L1041.56 255.305 L1029.52 294.263 L1025.59 294.263 L1037.63 255.305 Z" fill="#000000" fill-rule="nonzero" fill-opacity="1" /><path clip-path="url(#clip280)" d="M1057.81 276.832 Q1052.65 276.832 1050.66 278.013 Q1048.67 279.193 1048.67 282.041 Q1048.67 284.309 1050.15 285.652 Q1051.65 286.971 1054.22 286.971 Q1057.76 286.971 1059.89 284.471 Q1062.05 281.948 1062.05 277.781 L1062.05 276.832 L1057.81 276.832 M1066.31 275.073 L1066.31 289.865 L1062.05 289.865 L1062.05 285.929 Q1060.59 288.291 1058.41 289.425 Q1056.24 290.536 1053.09 290.536 Q1049.11 290.536 1046.75 288.314 Q1044.41 286.068 1044.41 282.318 Q1044.41 277.943 1047.32 275.721 Q1050.26 273.499 1056.07 273.499 L1062.05 273.499 L1062.05 273.082 Q1062.05 270.143 1060.1 268.545 Q1058.18 266.925 1054.69 266.925 Q1052.46 266.925 1050.36 267.457 Q1048.25 267.99 1046.31 269.055 L1046.31 265.119 Q1048.64 264.217 1050.84 263.777 Q1053.04 263.314 1055.12 263.314 Q1060.75 263.314 1063.53 266.231 Q1066.31 269.147 1066.31 275.073 Z" fill="#000000" fill-rule="nonzero" fill-opacity="1" /><path clip-path="url(#clip280)" d="M1091.61 264.703 L1091.61 268.731 Q1089.8 267.805 1087.86 267.342 Q1085.91 266.879 1083.83 266.879 Q1080.66 266.879 1079.06 267.851 Q1077.49 268.823 1077.49 270.768 Q1077.49 272.249 1078.62 273.105 Q1079.75 273.939 1083.18 274.703 L1084.64 275.027 Q1089.18 275.999 1091.07 277.781 Q1093 279.541 1093 282.712 Q1093 286.323 1090.12 288.429 Q1087.28 290.536 1082.28 290.536 Q1080.19 290.536 1077.93 290.119 Q1075.68 289.726 1073.18 288.916 L1073.18 284.517 Q1075.54 285.744 1077.83 286.369 Q1080.12 286.971 1082.37 286.971 Q1085.38 286.971 1087 285.953 Q1088.62 284.911 1088.62 283.036 Q1088.62 281.3 1087.44 280.374 Q1086.28 279.448 1082.32 278.592 L1080.84 278.244 Q1076.88 277.411 1075.12 275.698 Q1073.37 273.962 1073.37 270.953 Q1073.37 267.295 1075.96 265.305 Q1078.55 263.314 1083.32 263.314 Q1085.68 263.314 1087.76 263.661 Q1089.85 264.008 1091.61 264.703 Z" fill="#000000" fill-rule="nonzero" fill-opacity="1" /><path clip-path="url(#clip280)" d="M1121.33 274.217 L1121.33 289.865 L1117.07 289.865 L1117.07 274.355 Q1117.07 270.675 1115.63 268.846 Q1114.2 267.018 1111.33 267.018 Q1107.88 267.018 1105.89 269.217 Q1103.9 271.416 1103.9 275.212 L1103.9 289.865 L1099.62 289.865 L1099.62 253.846 L1103.9 253.846 L1103.9 267.967 Q1105.43 265.629 1107.49 264.471 Q1109.57 263.314 1112.28 263.314 Q1116.75 263.314 1119.04 266.092 Q1121.33 268.846 1121.33 274.217 Z" fill="#000000" fill-rule="nonzero" fill-opacity="1" /><path clip-path="url(#clip280)" d="M1126.77 263.939 L1131.28 263.939 L1139.38 285.698 L1147.49 263.939 L1152 263.939 L1142.28 289.865 L1136.49 289.865 L1126.77 263.939 Z" fill="#000000" fill-rule="nonzero" fill-opacity="1" /><path clip-path="url(#clip280)" d="M1157.88 263.939 L1162.14 263.939 L1162.14 289.865 L1157.88 289.865 L1157.88 263.939 M1157.88 253.846 L1162.14 253.846 L1162.14 259.24 L1157.88 259.24 L1157.88 253.846 Z" fill="#000000" fill-rule="nonzero" fill-opacity="1" /><path clip-path="url(#clip280)" d="M1175.26 256.578 L1175.26 263.939 L1184.04 263.939 L1184.04 267.249 L1175.26 267.249 L1175.26 281.323 Q1175.26 284.494 1176.12 285.397 Q1177 286.3 1179.66 286.3 L1184.04 286.3 L1184.04 289.865 L1179.66 289.865 Q1174.73 289.865 1172.86 288.036 Q1170.98 286.184 1170.98 281.323 L1170.98 267.249 L1167.86 267.249 L1167.86 263.939 L1170.98 263.939 L1170.98 256.578 L1175.26 256.578 Z" fill="#000000" fill-rule="nonzero" fill-opacity="1" /><path clip-path="url(#clip280)" d="M1211.19 274.217 L1211.19 289.865 L1206.93 289.865 L1206.93 274.355 Q1206.93 270.675 1205.49 268.846 Q1204.06 267.018 1201.19 267.018 Q1197.74 267.018 1195.75 269.217 Q1193.76 271.416 1193.76 275.212 L1193.76 289.865 L1189.48 289.865 L1189.48 253.846 L1193.76 253.846 L1193.76 267.967 Q1195.29 265.629 1197.35 264.471 Q1199.43 263.314 1202.14 263.314 Q1206.61 263.314 1208.9 266.092 Q1211.19 268.846 1211.19 274.217 Z" fill="#000000" fill-rule="nonzero" fill-opacity="1" /><path clip-path="url(#clip280)" d="M1227.25 255.305 L1231.19 255.305 L1219.15 294.263 L1215.22 294.263 L1227.25 255.305 Z" fill="#000000" fill-rule="nonzero" fill-opacity="1" /><path clip-path="url(#clip280)" d="M1236.26 283.985 L1241.14 283.985 L1241.14 289.865 L1236.26 289.865 L1236.26 283.985 Z" fill="#000000" fill-rule="nonzero" fill-opacity="1" /><path clip-path="url(#clip280)" d="M1250.73 263.939 L1254.99 263.939 L1254.99 290.328 Q1254.99 295.281 1253.09 297.503 Q1251.21 299.726 1247.02 299.726 L1245.4 299.726 L1245.4 296.115 L1246.54 296.115 Q1248.97 296.115 1249.85 294.98 Q1250.73 293.869 1250.73 290.328 L1250.73 263.939 M1250.73 253.846 L1254.99 253.846 L1254.99 259.24 L1250.73 259.24 L1250.73 253.846 Z" fill="#000000" fill-rule="nonzero" fill-opacity="1" /><path clip-path="url(#clip280)" d="M1263.46 279.633 L1263.46 263.939 L1267.72 263.939 L1267.72 279.471 Q1267.72 283.152 1269.15 285.004 Q1270.59 286.832 1273.46 286.832 Q1276.91 286.832 1278.9 284.633 Q1280.91 282.434 1280.91 278.638 L1280.91 263.939 L1285.17 263.939 L1285.17 289.865 L1280.91 289.865 L1280.91 285.883 Q1279.36 288.244 1277.3 289.402 Q1275.26 290.536 1272.55 290.536 Q1268.09 290.536 1265.77 287.758 Q1263.46 284.98 1263.46 279.633 M1274.17 263.314 L1274.17 263.314 Z" fill="#000000" fill-rule="nonzero" fill-opacity="1" /><path clip-path="url(#clip280)" d="M1293.94 253.846 L1298.2 253.846 L1298.2 289.865 L1293.94 289.865 L1293.94 253.846 Z" fill="#000000" fill-rule="nonzero" fill-opacity="1" /><path clip-path="url(#clip280)" d="M1307.11 263.939 L1311.37 263.939 L1311.37 289.865 L1307.11 289.865 L1307.11 263.939 M1307.11 253.846 L1311.37 253.846 L1311.37 259.24 L1307.11 259.24 L1307.11 253.846 Z" fill="#000000" fill-rule="nonzero" fill-opacity="1" /><path clip-path="url(#clip280)" d="M1332.07 276.832 Q1326.91 276.832 1324.92 278.013 Q1322.92 279.193 1322.92 282.041 Q1322.92 284.309 1324.41 285.652 Q1325.91 286.971 1328.48 286.971 Q1332.02 286.971 1334.15 284.471 Q1336.3 281.948 1336.3 277.781 L1336.3 276.832 L1332.07 276.832 M1340.56 275.073 L1340.56 289.865 L1336.3 289.865 L1336.3 285.929 Q1334.85 288.291 1332.67 289.425 Q1330.49 290.536 1327.35 290.536 Q1323.36 290.536 1321 288.314 Q1318.67 286.068 1318.67 282.318 Q1318.67 277.943 1321.58 275.721 Q1324.52 273.499 1330.33 273.499 L1336.3 273.499 L1336.3 273.082 Q1336.3 270.143 1334.36 268.545 Q1332.44 266.925 1328.94 266.925 Q1326.72 266.925 1324.61 267.457 Q1322.51 267.99 1320.56 269.055 L1320.56 265.119 Q1322.9 264.217 1325.1 263.777 Q1327.3 263.314 1329.38 263.314 Q1335.01 263.314 1337.79 266.231 Q1340.56 269.147 1340.56 275.073 Z" fill="#000000" fill-rule="nonzero" fill-opacity="1" /><path clip-path="url(#clip280)" d="M1356.91 255.305 L1360.84 255.305 L1348.8 294.263 L1344.87 294.263 L1356.91 255.305 Z" fill="#000000" fill-rule="nonzero" fill-opacity="1" /><path clip-path="url(#clip280)" d="M1369.43 285.976 L1369.43 299.726 L1365.15 299.726 L1365.15 263.939 L1369.43 263.939 L1369.43 267.874 Q1370.77 265.559 1372.81 264.448 Q1374.87 263.314 1377.72 263.314 Q1382.44 263.314 1385.38 267.064 Q1388.34 270.814 1388.34 276.925 Q1388.34 283.036 1385.38 286.786 Q1382.44 290.536 1377.72 290.536 Q1374.87 290.536 1372.81 289.425 Q1370.77 288.291 1369.43 285.976 M1383.92 276.925 Q1383.92 272.226 1381.98 269.564 Q1380.05 266.879 1376.67 266.879 Q1373.29 266.879 1371.35 269.564 Q1369.43 272.226 1369.43 276.925 Q1369.43 281.624 1371.35 284.309 Q1373.29 286.971 1376.67 286.971 Q1380.05 286.971 1381.98 284.309 Q1383.92 281.624 1383.92 276.925 Z" fill="#000000" fill-rule="nonzero" fill-opacity="1" /><path clip-path="url(#clip280)" d="M1407.18 276.832 Q1402.02 276.832 1400.03 278.013 Q1398.04 279.193 1398.04 282.041 Q1398.04 284.309 1399.52 285.652 Q1401.03 286.971 1403.6 286.971 Q1407.14 286.971 1409.27 284.471 Q1411.42 281.948 1411.42 277.781 L1411.42 276.832 L1407.18 276.832 M1415.68 275.073 L1415.68 289.865 L1411.42 289.865 L1411.42 285.929 Q1409.96 288.291 1407.79 289.425 Q1405.61 290.536 1402.46 290.536 Q1398.48 290.536 1396.12 288.314 Q1393.78 286.068 1393.78 282.318 Q1393.78 277.943 1396.7 275.721 Q1399.64 273.499 1405.45 273.499 L1411.42 273.499 L1411.42 273.082 Q1411.42 270.143 1409.47 268.545 Q1407.55 266.925 1404.06 266.925 Q1401.84 266.925 1399.73 267.457 Q1397.62 267.99 1395.68 269.055 L1395.68 265.119 Q1398.02 264.217 1400.22 263.777 Q1402.41 263.314 1404.5 263.314 Q1410.12 263.314 1412.9 266.231 Q1415.68 269.147 1415.68 275.073 Z" fill="#000000" fill-rule="nonzero" fill-opacity="1" /><path clip-path="url(#clip280)" d="M1443.11 264.934 L1443.11 268.916 Q1441.3 267.92 1439.47 267.434 Q1437.67 266.925 1435.82 266.925 Q1431.67 266.925 1429.38 269.564 Q1427.09 272.18 1427.09 276.925 Q1427.09 281.67 1429.38 284.309 Q1431.67 286.925 1435.82 286.925 Q1437.67 286.925 1439.47 286.439 Q1441.3 285.929 1443.11 284.934 L1443.11 288.869 Q1441.33 289.703 1439.41 290.119 Q1437.51 290.536 1435.35 290.536 Q1429.5 290.536 1426.05 286.855 Q1422.6 283.175 1422.6 276.925 Q1422.6 270.582 1426.07 266.948 Q1429.57 263.314 1435.63 263.314 Q1437.6 263.314 1439.47 263.731 Q1441.35 264.124 1443.11 264.934 Z" fill="#000000" fill-rule="nonzero" fill-opacity="1" /><path clip-path="url(#clip280)" d="M1450.35 253.846 L1454.64 253.846 L1454.64 275.119 L1467.34 263.939 L1472.78 263.939 L1459.03 276.068 L1473.36 289.865 L1467.81 289.865 L1454.64 277.203 L1454.64 289.865 L1450.35 289.865 L1450.35 253.846 Z" fill="#000000" fill-rule="nonzero" fill-opacity="1" /><path clip-path="url(#clip280)" d="M1488.92 276.832 Q1483.76 276.832 1481.77 278.013 Q1479.78 279.193 1479.78 282.041 Q1479.78 284.309 1481.26 285.652 Q1482.76 286.971 1485.33 286.971 Q1488.87 286.971 1491 284.471 Q1493.16 281.948 1493.16 277.781 L1493.16 276.832 L1488.92 276.832 M1497.41 275.073 L1497.41 289.865 L1493.16 289.865 L1493.16 285.929 Q1491.7 288.291 1489.52 289.425 Q1487.34 290.536 1484.2 290.536 Q1480.22 290.536 1477.85 288.314 Q1475.52 286.068 1475.52 282.318 Q1475.52 277.943 1478.43 275.721 Q1481.37 273.499 1487.18 273.499 L1493.16 273.499 L1493.16 273.082 Q1493.16 270.143 1491.21 268.545 Q1489.29 266.925 1485.79 266.925 Q1483.57 266.925 1481.47 267.457 Q1479.36 267.99 1477.41 269.055 L1477.41 265.119 Q1479.75 264.217 1481.95 263.777 Q1484.15 263.314 1486.23 263.314 Q1491.86 263.314 1494.64 266.231 Q1497.41 269.147 1497.41 275.073 Z" fill="#000000" fill-rule="nonzero" fill-opacity="1" /><path clip-path="url(#clip280)" d="M1523.25 276.601 Q1523.25 271.971 1521.33 269.425 Q1519.43 266.879 1515.98 266.879 Q1512.55 266.879 1510.63 269.425 Q1508.73 271.971 1508.73 276.601 Q1508.73 281.207 1510.63 283.754 Q1512.55 286.3 1515.98 286.3 Q1519.43 286.3 1521.33 283.754 Q1523.25 281.207 1523.25 276.601 M1527.51 286.647 Q1527.51 293.267 1524.57 296.485 Q1521.63 299.726 1515.56 299.726 Q1513.32 299.726 1511.33 299.378 Q1509.34 299.054 1507.46 298.36 L1507.46 294.216 Q1509.34 295.235 1511.16 295.721 Q1512.99 296.207 1514.89 296.207 Q1519.08 296.207 1521.16 294.008 Q1523.25 291.832 1523.25 287.411 L1523.25 285.304 Q1521.93 287.596 1519.87 288.73 Q1517.81 289.865 1514.94 289.865 Q1510.17 289.865 1507.25 286.23 Q1504.34 282.596 1504.34 276.601 Q1504.34 270.582 1507.25 266.948 Q1510.17 263.314 1514.94 263.314 Q1517.81 263.314 1519.87 264.448 Q1521.93 265.582 1523.25 267.874 L1523.25 263.939 L1527.51 263.939 L1527.51 286.647 Z" fill="#000000" fill-rule="nonzero" fill-opacity="1" /><path clip-path="url(#clip280)" d="M1558.46 275.837 L1558.46 277.92 L1538.87 277.92 Q1539.15 282.318 1541.51 284.633 Q1543.9 286.925 1548.13 286.925 Q1550.59 286.925 1552.88 286.323 Q1555.19 285.721 1557.46 284.517 L1557.46 288.545 Q1555.17 289.517 1552.76 290.027 Q1550.35 290.536 1547.88 290.536 Q1541.67 290.536 1538.04 286.925 Q1534.43 283.314 1534.43 277.156 Q1534.43 270.791 1537.85 267.064 Q1541.3 263.314 1547.14 263.314 Q1552.37 263.314 1555.4 266.693 Q1558.46 270.05 1558.46 275.837 M1554.2 274.587 Q1554.15 271.092 1552.23 269.008 Q1550.33 266.925 1547.18 266.925 Q1543.62 266.925 1541.46 268.939 Q1539.34 270.953 1539.01 274.61 L1554.2 274.587 Z" fill="#000000" fill-rule="nonzero" fill-opacity="1" /><path clip-path="url(#clip280)" d="M1581.97 264.703 L1581.97 268.731 Q1580.17 267.805 1578.22 267.342 Q1576.28 266.879 1574.2 266.879 Q1571.02 266.879 1569.43 267.851 Q1567.85 268.823 1567.85 270.768 Q1567.85 272.249 1568.99 273.105 Q1570.12 273.939 1573.55 274.703 L1575.01 275.027 Q1579.54 275.999 1581.44 277.781 Q1583.36 279.541 1583.36 282.712 Q1583.36 286.323 1580.49 288.429 Q1577.65 290.536 1572.65 290.536 Q1570.56 290.536 1568.29 290.119 Q1566.05 289.726 1563.55 288.916 L1563.55 284.517 Q1565.91 285.744 1568.2 286.369 Q1570.49 286.971 1572.74 286.971 Q1575.75 286.971 1577.37 285.953 Q1578.99 284.911 1578.99 283.036 Q1578.99 281.3 1577.81 280.374 Q1576.65 279.448 1572.69 278.592 L1571.21 278.244 Q1567.25 277.411 1565.49 275.698 Q1563.73 273.962 1563.73 270.953 Q1563.73 267.295 1566.33 265.305 Q1568.92 263.314 1573.69 263.314 Q1576.05 263.314 1578.13 263.661 Q1580.21 264.008 1581.97 264.703 Z" fill="#000000" fill-rule="nonzero" fill-opacity="1" /><path clip-path="url(#clip280)" d="M1597.71 255.305 L1601.65 255.305 L1589.61 294.263 L1585.68 294.263 L1597.71 255.305 Z" fill="#000000" fill-rule="nonzero" fill-opacity="1" /><path clip-path="url(#clip280)" d="M1629.87 284.934 L1629.87 275.652 L1622.23 275.652 L1622.23 271.809 L1634.5 271.809 L1634.5 286.647 Q1631.79 288.568 1628.52 289.564 Q1625.26 290.536 1621.56 290.536 Q1613.46 290.536 1608.87 285.814 Q1604.31 281.068 1604.31 272.619 Q1604.31 264.147 1608.87 259.425 Q1613.46 254.68 1621.56 254.68 Q1624.94 254.68 1627.97 255.513 Q1631.02 256.346 1633.59 257.967 L1633.59 262.943 Q1631 260.744 1628.08 259.633 Q1625.17 258.522 1621.95 258.522 Q1615.61 258.522 1612.41 262.064 Q1609.24 265.606 1609.24 272.619 Q1609.24 279.61 1612.41 283.152 Q1615.61 286.693 1621.95 286.693 Q1624.43 286.693 1626.37 286.277 Q1628.32 285.837 1629.87 284.934 Z" fill="#000000" fill-rule="nonzero" fill-opacity="1" /><path clip-path="url(#clip280)" d="M1643.04 255.305 L1647.71 255.305 L1647.71 285.929 L1664.54 285.929 L1664.54 289.865 L1643.04 289.865 L1643.04 255.305 Z" fill="#000000" fill-rule="nonzero" fill-opacity="1" /><path clip-path="url(#clip280)" d="M1669.45 255.305 L1676.42 255.305 L1685.24 278.823 L1694.1 255.305 L1701.07 255.305 L1701.07 289.865 L1696.51 289.865 L1696.51 259.518 L1687.6 283.221 L1682.9 283.221 L1673.99 259.518 L1673.99 289.865 L1669.45 289.865 L1669.45 255.305 Z" fill="#000000" fill-rule="nonzero" fill-opacity="1" /><path clip-path="url(#clip280)" d="M1710.77 283.985 L1715.65 283.985 L1715.65 289.865 L1710.77 289.865 L1710.77 283.985 Z" fill="#000000" fill-rule="nonzero" fill-opacity="1" /><path clip-path="url(#clip280)" d="M1725.24 263.939 L1729.5 263.939 L1729.5 290.328 Q1729.5 295.281 1727.6 297.503 Q1725.72 299.726 1721.53 299.726 L1719.91 299.726 L1719.91 296.115 L1721.05 296.115 Q1723.48 296.115 1724.36 294.98 Q1725.24 293.869 1725.24 290.328 L1725.24 263.939 M1725.24 253.846 L1729.5 253.846 L1729.5 259.24 L1725.24 259.24 L1725.24 253.846 Z" fill="#000000" fill-rule="nonzero" fill-opacity="1" /><path clip-path="url(#clip280)" d="M1738.41 253.846 L1742.67 253.846 L1742.67 289.865 L1738.41 289.865 L1738.41 253.846 Z" fill="#000000" fill-rule="nonzero" fill-opacity="1" /><path clip-path="url(#clip280)" d="M1759.15 255.305 L1763.08 255.305 L1751.05 294.263 L1747.11 294.263 L1759.15 255.305 Z" fill="#000000" fill-rule="nonzero" fill-opacity="1" /><path clip-path="url(#clip280)" d="M1784.08 264.703 L1784.08 268.731 Q1782.27 267.805 1780.33 267.342 Q1778.38 266.879 1776.3 266.879 Q1773.13 266.879 1771.53 267.851 Q1769.96 268.823 1769.96 270.768 Q1769.96 272.249 1771.09 273.105 Q1772.23 273.939 1775.65 274.703 L1777.11 275.027 Q1781.65 275.999 1783.55 277.781 Q1785.47 279.541 1785.47 282.712 Q1785.47 286.323 1782.6 288.429 Q1779.75 290.536 1774.75 290.536 Q1772.67 290.536 1770.4 290.119 Q1768.15 289.726 1765.65 288.916 L1765.65 284.517 Q1768.01 285.744 1770.31 286.369 Q1772.6 286.971 1774.84 286.971 Q1777.85 286.971 1779.47 285.953 Q1781.09 284.911 1781.09 283.036 Q1781.09 281.3 1779.91 280.374 Q1778.76 279.448 1774.8 278.592 L1773.32 278.244 Q1769.36 277.411 1767.6 275.698 Q1765.84 273.962 1765.84 270.953 Q1765.84 267.295 1768.43 265.305 Q1771.02 263.314 1775.79 263.314 Q1778.15 263.314 1780.24 263.661 Q1782.32 264.008 1784.08 264.703 Z" fill="#000000" fill-rule="nonzero" fill-opacity="1" /><path clip-path="url(#clip280)" d="M1807.27 267.92 Q1806.56 267.504 1805.7 267.318 Q1804.87 267.11 1803.85 267.11 Q1800.24 267.11 1798.29 269.471 Q1796.37 271.809 1796.37 276.207 L1796.37 289.865 L1792.09 289.865 L1792.09 263.939 L1796.37 263.939 L1796.37 267.967 Q1797.71 265.606 1799.87 264.471 Q1802.02 263.314 1805.1 263.314 Q1805.54 263.314 1806.07 263.383 Q1806.6 263.43 1807.25 263.545 L1807.27 267.92 Z" fill="#000000" fill-rule="nonzero" fill-opacity="1" /><path clip-path="url(#clip280)" d="M1829.36 264.934 L1829.36 268.916 Q1827.55 267.92 1825.72 267.434 Q1823.92 266.925 1822.07 266.925 Q1817.92 266.925 1815.63 269.564 Q1813.34 272.18 1813.34 276.925 Q1813.34 281.67 1815.63 284.309 Q1817.92 286.925 1822.07 286.925 Q1823.92 286.925 1825.72 286.439 Q1827.55 285.929 1829.36 284.934 L1829.36 288.869 Q1827.57 289.703 1825.65 290.119 Q1823.76 290.536 1821.6 290.536 Q1815.75 290.536 1812.3 286.855 Q1808.85 283.175 1808.85 276.925 Q1808.85 270.582 1812.32 266.948 Q1815.82 263.314 1821.88 263.314 Q1823.85 263.314 1825.72 263.731 Q1827.6 264.124 1829.36 264.934 Z" fill="#000000" fill-rule="nonzero" fill-opacity="1" /><path clip-path="url(#clip280)" d="M1844.33 255.305 L1848.27 255.305 L1836.23 294.263 L1832.3 294.263 L1844.33 255.305 Z" fill="#000000" fill-rule="nonzero" fill-opacity="1" /><path clip-path="url(#clip280)" d="M1869.8 276.601 Q1869.8 271.971 1867.88 269.425 Q1865.98 266.879 1862.53 266.879 Q1859.1 266.879 1857.18 269.425 Q1855.28 271.971 1855.28 276.601 Q1855.28 281.207 1857.18 283.754 Q1859.1 286.3 1862.53 286.3 Q1865.98 286.3 1867.88 283.754 Q1869.8 281.207 1869.8 276.601 M1874.06 286.647 Q1874.06 293.267 1871.12 296.485 Q1868.18 299.726 1862.11 299.726 Q1859.87 299.726 1857.88 299.378 Q1855.88 299.054 1854.01 298.36 L1854.01 294.216 Q1855.88 295.235 1857.71 295.721 Q1859.54 296.207 1861.44 296.207 Q1865.63 296.207 1867.71 294.008 Q1869.8 291.832 1869.8 287.411 L1869.8 285.304 Q1868.48 287.596 1866.42 288.73 Q1864.36 289.865 1861.49 289.865 Q1856.72 289.865 1853.8 286.23 Q1850.88 282.596 1850.88 276.601 Q1850.88 270.582 1853.8 266.948 Q1856.72 263.314 1861.49 263.314 Q1864.36 263.314 1866.42 264.448 Q1868.48 265.582 1869.8 267.874 L1869.8 263.939 L1874.06 263.939 L1874.06 286.647 Z" fill="#000000" fill-rule="nonzero" fill-opacity="1" /><path clip-path="url(#clip280)" d="M1882.83 253.846 L1887.09 253.846 L1887.09 289.865 L1882.83 289.865 L1882.83 253.846 Z" fill="#000000" fill-rule="nonzero" fill-opacity="1" /><path clip-path="url(#clip280)" d="M1916.19 268.916 Q1917.78 266.045 1920 264.68 Q1922.23 263.314 1925.24 263.314 Q1929.29 263.314 1931.49 266.161 Q1933.69 268.985 1933.69 274.217 L1933.69 289.865 L1929.4 289.865 L1929.4 274.355 Q1929.4 270.629 1928.08 268.823 Q1926.76 267.018 1924.06 267.018 Q1920.75 267.018 1918.82 269.217 Q1916.9 271.416 1916.9 275.212 L1916.9 289.865 L1912.62 289.865 L1912.62 274.355 Q1912.62 270.605 1911.3 268.823 Q1909.98 267.018 1907.23 267.018 Q1903.96 267.018 1902.04 269.24 Q1900.12 271.439 1900.12 275.212 L1900.12 289.865 L1895.84 289.865 L1895.84 263.939 L1900.12 263.939 L1900.12 267.967 Q1901.58 265.582 1903.62 264.448 Q1905.65 263.314 1908.45 263.314 Q1911.28 263.314 1913.25 264.749 Q1915.24 266.184 1916.19 268.916 Z" fill="#000000" fill-rule="nonzero" fill-opacity="1" /><path clip-path="url(#clip280)" d="M1955.31 253.846 L1955.31 257.388 L1951.23 257.388 Q1948.94 257.388 1948.04 258.314 Q1947.16 259.24 1947.16 261.647 L1947.16 263.939 L1954.17 263.939 L1954.17 267.249 L1947.16 267.249 L1947.16 289.865 L1942.87 289.865 L1942.87 267.249 L1938.8 267.249 L1938.8 263.939 L1942.87 263.939 L1942.87 262.133 Q1942.87 257.805 1944.89 255.837 Q1946.9 253.846 1951.28 253.846 L1955.31 253.846 Z" fill="#000000" fill-rule="nonzero" fill-opacity="1" /><path clip-path="url(#clip280)" d="M1958.87 263.939 L1963.13 263.939 L1963.13 289.865 L1958.87 289.865 L1958.87 263.939 M1958.87 253.846 L1963.13 253.846 L1963.13 259.24 L1958.87 259.24 L1958.87 253.846 Z" fill="#000000" fill-rule="nonzero" fill-opacity="1" /><path clip-path="url(#clip280)" d="M1976.25 256.578 L1976.25 263.939 L1985.03 263.939 L1985.03 267.249 L1976.25 267.249 L1976.25 281.323 Q1976.25 284.494 1977.11 285.397 Q1977.99 286.3 1980.65 286.3 L1985.03 286.3 L1985.03 289.865 L1980.65 289.865 Q1975.72 289.865 1973.85 288.036 Q1971.97 286.184 1971.97 281.323 L1971.97 267.249 L1968.85 267.249 L1968.85 263.939 L1971.97 263.939 L1971.97 256.578 L1976.25 256.578 Z" fill="#000000" fill-rule="nonzero" fill-opacity="1" /><path clip-path="url(#clip280)" d="M1991.23 283.985 L1996.12 283.985 L1996.12 289.865 L1991.23 289.865 L1991.23 283.985 Z" fill="#000000" fill-rule="nonzero" fill-opacity="1" /><path clip-path="url(#clip280)" d="M2005.7 263.939 L2009.96 263.939 L2009.96 290.328 Q2009.96 295.281 2008.06 297.503 Q2006.18 299.726 2001.99 299.726 L2000.37 299.726 L2000.37 296.115 L2001.51 296.115 Q2003.94 296.115 2004.82 294.98 Q2005.7 293.869 2005.7 290.328 L2005.7 263.939 M2005.7 253.846 L2009.96 253.846 L2009.96 259.24 L2005.7 259.24 L2005.7 253.846 Z" fill="#000000" fill-rule="nonzero" fill-opacity="1" /><path clip-path="url(#clip280)" d="M2018.87 253.846 L2023.13 253.846 L2023.13 289.865 L2018.87 289.865 L2018.87 253.846 Z" fill="#000000" fill-rule="nonzero" fill-opacity="1" /><path clip-path="url(#clip280)" d="M2047.11 253.846 L2051.37 253.846 L2051.37 289.865 L2047.11 289.865 L2047.11 253.846 Z" fill="#000000" fill-rule="nonzero" fill-opacity="1" /><path clip-path="url(#clip280)" d="M2060.28 263.939 L2064.54 263.939 L2064.54 289.865 L2060.28 289.865 L2060.28 263.939 M2060.28 253.846 L2064.54 253.846 L2064.54 259.24 L2060.28 259.24 L2060.28 253.846 Z" fill="#000000" fill-rule="nonzero" fill-opacity="1" /><path clip-path="url(#clip280)" d="M2095 274.217 L2095 289.865 L2090.74 289.865 L2090.74 274.355 Q2090.74 270.675 2089.31 268.846 Q2087.87 267.018 2085 267.018 Q2081.55 267.018 2079.56 269.217 Q2077.57 271.416 2077.57 275.212 L2077.57 289.865 L2073.29 289.865 L2073.29 263.939 L2077.57 263.939 L2077.57 267.967 Q2079.1 265.629 2081.16 264.471 Q2083.24 263.314 2085.95 263.314 Q2090.42 263.314 2092.71 266.092 Q2095 268.846 2095 274.217 Z" fill="#000000" fill-rule="nonzero" fill-opacity="1" /><path clip-path="url(#clip280)" d="M2125.67 275.837 L2125.67 277.92 L2106.09 277.92 Q2106.37 282.318 2108.73 284.633 Q2111.11 286.925 2115.35 286.925 Q2117.8 286.925 2120.1 286.323 Q2122.41 285.721 2124.68 284.517 L2124.68 288.545 Q2122.39 289.517 2119.98 290.027 Q2117.57 290.536 2115.1 290.536 Q2108.89 290.536 2105.26 286.925 Q2101.65 283.314 2101.65 277.156 Q2101.65 270.791 2105.07 267.064 Q2108.52 263.314 2114.36 263.314 Q2119.59 263.314 2122.62 266.693 Q2125.67 270.05 2125.67 275.837 M2121.42 274.587 Q2121.37 271.092 2119.45 269.008 Q2117.55 266.925 2114.4 266.925 Q2110.84 266.925 2108.68 268.939 Q2106.55 270.953 2106.23 274.61 L2121.42 274.587 Z" fill="#000000" fill-rule="nonzero" fill-opacity="1" /><path clip-path="url(#clip280)" d="M2149.15 285.929 L2156.79 285.929 L2156.79 259.564 L2148.48 261.231 L2148.48 256.971 L2156.74 255.305 L2161.42 255.305 L2161.42 285.929 L2169.05 285.929 L2169.05 289.865 L2149.15 289.865 L2149.15 285.929 Z" fill="#000000" fill-rule="nonzero" fill-opacity="1" /><path clip-path="url(#clip280)" d="M2177.32 255.305 L2199.54 255.305 L2199.54 257.295 L2186.99 289.865 L2182.11 289.865 L2193.92 259.24 L2177.32 259.24 L2177.32 255.305 Z" fill="#000000" fill-rule="nonzero" fill-opacity="1" /><path clip-path="url(#clip280)" d="M2218.66 273.453 Q2215.33 273.453 2213.41 275.235 Q2211.51 277.017 2211.51 280.142 Q2211.51 283.267 2213.41 285.05 Q2215.33 286.832 2218.66 286.832 Q2221.99 286.832 2223.92 285.05 Q2225.84 283.244 2225.84 280.142 Q2225.84 277.017 2223.92 275.235 Q2222.02 273.453 2218.66 273.453 M2213.98 271.462 Q2210.98 270.721 2209.29 268.661 Q2207.62 266.601 2207.62 263.638 Q2207.62 259.494 2210.56 257.087 Q2213.52 254.68 2218.66 254.68 Q2223.82 254.68 2226.76 257.087 Q2229.7 259.494 2229.7 263.638 Q2229.7 266.601 2228.01 268.661 Q2226.35 270.721 2223.36 271.462 Q2226.74 272.249 2228.61 274.541 Q2230.51 276.832 2230.51 280.142 Q2230.51 285.166 2227.43 287.851 Q2224.38 290.536 2218.66 290.536 Q2212.94 290.536 2209.86 287.851 Q2206.81 285.166 2206.81 280.142 Q2206.81 276.832 2208.71 274.541 Q2210.6 272.249 2213.98 271.462 M2212.27 264.078 Q2212.27 266.763 2213.94 268.268 Q2215.63 269.772 2218.66 269.772 Q2221.67 269.772 2223.36 268.268 Q2225.07 266.763 2225.07 264.078 Q2225.07 261.393 2223.36 259.888 Q2221.67 258.383 2218.66 258.383 Q2215.63 258.383 2213.94 259.888 Q2212.27 261.393 2212.27 264.078 Z" fill="#000000" fill-rule="nonzero" fill-opacity="1" /><path clip-path="url(#clip280)" d="M707.31 345.161 L851.232 345.161 L851.232 303.689 L707.31 303.689 L707.31 345.161  Z" fill="#3da44d" fill-rule="evenodd" fill-opacity="1"/>
<polyline clip-path="url(#clip280)" style="stroke:#000000; stroke-linecap:round; stroke-linejoin:round; stroke-width:4; stroke-opacity:1; fill:none" points="707.31,345.161 851.232,345.161 851.232,303.689 707.31,303.689 707.31,345.161 "/>
<path clip-path="url(#clip280)" d="M887.117 318.765 Q883.691 318.765 881.7 321.45 Q879.709 324.112 879.709 328.765 Q879.709 333.418 881.677 336.103 Q883.668 338.765 887.117 338.765 Q890.519 338.765 892.51 336.08 Q894.501 333.395 894.501 328.765 Q894.501 324.158 892.51 321.473 Q890.519 318.765 887.117 318.765 M887.117 315.154 Q892.672 315.154 895.843 318.765 Q899.015 322.376 899.015 328.765 Q899.015 335.131 895.843 338.765 Q892.672 342.376 887.117 342.376 Q881.538 342.376 878.367 338.765 Q875.219 335.131 875.219 328.765 Q875.219 322.376 878.367 318.765 Q881.538 315.154 887.117 315.154 Z" fill="#000000" fill-rule="nonzero" fill-opacity="1" /><path clip-path="url(#clip280)" d="M910.288 308.418 L910.288 315.779 L919.061 315.779 L919.061 319.089 L910.288 319.089 L910.288 333.163 Q910.288 336.334 911.144 337.237 Q912.024 338.14 914.686 338.14 L919.061 338.14 L919.061 341.705 L914.686 341.705 Q909.755 341.705 907.88 339.876 Q906.005 338.024 906.005 333.163 L906.005 319.089 L902.88 319.089 L902.88 315.779 L906.005 315.779 L906.005 308.418 L910.288 308.418 Z" fill="#000000" fill-rule="nonzero" fill-opacity="1" /><path clip-path="url(#clip280)" d="M946.214 326.057 L946.214 341.705 L941.954 341.705 L941.954 326.195 Q941.954 322.515 940.519 320.686 Q939.084 318.858 936.214 318.858 Q932.765 318.858 930.774 321.057 Q928.783 323.256 928.783 327.052 L928.783 341.705 L924.501 341.705 L924.501 305.686 L928.783 305.686 L928.783 319.807 Q930.311 317.469 932.371 316.311 Q934.454 315.154 937.163 315.154 Q941.63 315.154 943.922 317.932 Q946.214 320.686 946.214 326.057 Z" fill="#000000" fill-rule="nonzero" fill-opacity="1" /><path clip-path="url(#clip280)" d="M976.885 327.677 L976.885 329.76 L957.301 329.76 Q957.579 334.158 959.94 336.473 Q962.325 338.765 966.561 338.765 Q969.014 338.765 971.306 338.163 Q973.621 337.561 975.889 336.357 L975.889 340.385 Q973.598 341.357 971.19 341.867 Q968.783 342.376 966.306 342.376 Q960.102 342.376 956.468 338.765 Q952.857 335.154 952.857 328.996 Q952.857 322.631 956.283 318.904 Q959.732 315.154 965.565 315.154 Q970.797 315.154 973.829 318.533 Q976.885 321.89 976.885 327.677 M972.625 326.427 Q972.579 322.932 970.658 320.848 Q968.76 318.765 965.612 318.765 Q962.047 318.765 959.894 320.779 Q957.764 322.793 957.44 326.45 L972.625 326.427 Z" fill="#000000" fill-rule="nonzero" fill-opacity="1" /><path clip-path="url(#clip280)" d="M998.898 319.76 Q998.181 319.344 997.324 319.158 Q996.491 318.95 995.473 318.95 Q991.861 318.95 989.917 321.311 Q987.996 323.649 987.996 328.047 L987.996 341.705 L983.713 341.705 L983.713 315.779 L987.996 315.779 L987.996 319.807 Q989.338 317.446 991.491 316.311 Q993.644 315.154 996.723 315.154 Q997.162 315.154 997.695 315.223 Q998.227 315.27 998.875 315.385 L998.898 319.76 Z" fill="#000000" fill-rule="nonzero" fill-opacity="1" /><path clip-path="url(#clip280)" d="M1019.89 316.543 L1019.89 320.571 Q1018.09 319.645 1016.14 319.182 Q1014.2 318.719 1012.12 318.719 Q1008.94 318.719 1007.35 319.691 Q1005.77 320.663 1005.77 322.608 Q1005.77 324.089 1006.91 324.945 Q1008.04 325.779 1011.47 326.543 L1012.93 326.867 Q1017.46 327.839 1019.36 329.621 Q1021.28 331.381 1021.28 334.552 Q1021.28 338.163 1018.41 340.269 Q1015.57 342.376 1010.57 342.376 Q1008.48 342.376 1006.21 341.959 Q1003.97 341.566 1001.47 340.756 L1001.47 336.357 Q1003.83 337.584 1006.12 338.209 Q1008.41 338.811 1010.66 338.811 Q1013.67 338.811 1015.29 337.793 Q1016.91 336.751 1016.91 334.876 Q1016.91 333.14 1015.73 332.214 Q1014.57 331.288 1010.61 330.432 L1009.13 330.084 Q1005.17 329.251 1003.41 327.538 Q1001.65 325.802 1001.65 322.793 Q1001.65 319.135 1004.25 317.145 Q1006.84 315.154 1011.61 315.154 Q1013.97 315.154 1016.05 315.501 Q1018.13 315.848 1019.89 316.543 Z" fill="#000000" fill-rule="nonzero" fill-opacity="1" /><path clip-path="url(#clip280)" d="M1043.74 335.825 L1048.62 335.825 L1048.62 341.705 L1043.74 341.705 L1043.74 335.825 Z" fill="#000000" fill-rule="nonzero" fill-opacity="1" /><path clip-path="url(#clip280)" d="M1088.43 318.371 L1064.55 326.867 L1088.43 335.316 L1088.43 339.529 L1058.76 328.765 L1058.76 324.922 L1088.43 314.159 L1088.43 318.371 Z" fill="#000000" fill-rule="nonzero" fill-opacity="1" /><path clip-path="url(#clip280)" d="M1113.64 307.145 L1132 307.145 L1132 311.08 L1117.93 311.08 L1117.93 319.552 Q1118.94 319.205 1119.96 319.043 Q1120.98 318.858 1122 318.858 Q1127.79 318.858 1131.17 322.029 Q1134.55 325.2 1134.55 330.617 Q1134.55 336.195 1131.07 339.297 Q1127.6 342.376 1121.28 342.376 Q1119.11 342.376 1116.84 342.006 Q1114.59 341.635 1112.18 340.894 L1112.18 336.195 Q1114.27 337.33 1116.49 337.885 Q1118.71 338.441 1121.19 338.441 Q1125.19 338.441 1127.53 336.334 Q1129.87 334.228 1129.87 330.617 Q1129.87 327.006 1127.53 324.899 Q1125.19 322.793 1121.19 322.793 Q1119.31 322.793 1117.44 323.209 Q1115.59 323.626 1113.64 324.506 L1113.64 307.145 Z" fill="#000000" fill-rule="nonzero" fill-opacity="1" /><path clip-path="url(#clip280)" d="M1143.76 335.825 L1148.64 335.825 L1148.64 341.705 L1143.76 341.705 L1143.76 335.825 Z" fill="#000000" fill-rule="nonzero" fill-opacity="1" /><path clip-path="url(#clip280)" d="M1168.83 310.223 Q1165.22 310.223 1163.39 313.788 Q1161.58 317.33 1161.58 324.459 Q1161.58 331.566 1163.39 335.131 Q1165.22 338.672 1168.83 338.672 Q1172.46 338.672 1174.27 335.131 Q1176.1 331.566 1176.1 324.459 Q1176.1 317.33 1174.27 313.788 Q1172.46 310.223 1168.83 310.223 M1168.83 306.52 Q1174.64 306.52 1177.69 311.126 Q1180.77 315.709 1180.77 324.459 Q1180.77 333.186 1177.69 337.793 Q1174.64 342.376 1168.83 342.376 Q1163.02 342.376 1159.94 337.793 Q1156.88 333.186 1156.88 324.459 Q1156.88 315.709 1159.94 311.126 Q1163.02 306.52 1168.83 306.52 Z" fill="#000000" fill-rule="nonzero" fill-opacity="1" /></svg>
